<svg xmlns="http://www.w3.org/2000/svg" width="56" height="67" viewBox="0 0 62.69 75">
    <g transform="scale(2.2933, 2.2933)">
        <path d="M28.15 4.962a10.113 10.113 0 00-14.3 14.302l7.15 7.15 7.15-7.15a10.124 10.124 0 000-14.302zM26.738 17.85L21 23.586l-5.737-5.736a8.113 8.113 0 1111.474 0zM21 7.855a4.399 4.399 0 104.399 4.399A4.403 4.403 0 0021 7.855zm0 6.798a2.399 2.399 0 112.399-2.4 2.402 2.402 0 01-2.399 2.4zM7.883 27.957l15.124.113-.014 2-15.125-.113a3.11 3.11 0 01-2.716-1.597 2.892 2.892 0 01.093-2.965l2.5-3.97a.895.895 0 00.03-.942 1.098 1.098 0 00-.984-.553H0v-2h6.791a3.11 3.11 0 012.735 1.588 2.89 2.89 0 01-.088 2.974l-2.501 3.969a.895.895 0 00-.03.94 1.096 1.096 0 00.976.556z" fill="#1C94F3"/>
    </g>
</svg>
