<svg id="svg" version="1.1" xmlns="http://www.w3.org/2000/svg" xmlns:xlink="http://www.w3.org/1999/xlink" width="400" height="56.99208443271768" viewBox="0, 0, 400,56.99208443271768"><g id="svgg"><path id="path0" d="M24.783 0.224 C 24.731 0.360,24.514 0.437,24.263 0.410 C 24.027 0.384,23.833 0.421,23.833 0.492 C 23.833 0.563,23.646 0.600,23.417 0.575 C 23.188 0.550,23.000 0.598,23.000 0.681 C 23.000 0.765,22.887 0.833,22.750 0.833 C 22.613 0.833,22.500 0.754,22.500 0.657 C 22.500 0.560,22.424 0.527,22.331 0.585 C 22.237 0.643,22.212 0.771,22.273 0.871 C 22.347 0.990,22.261 1.020,22.026 0.958 C 21.828 0.907,21.708 0.932,21.760 1.016 C 21.811 1.099,21.742 1.167,21.607 1.167 C 21.472 1.167,21.333 1.252,21.298 1.356 C 21.264 1.459,21.002 1.553,20.717 1.564 C 20.432 1.575,20.233 1.637,20.273 1.703 C 20.381 1.878,19.555 2.054,19.317 1.907 C 19.196 1.832,19.158 1.852,19.222 1.955 C 19.363 2.183,19.067 2.406,18.250 2.686 C 17.883 2.812,17.539 2.975,17.485 3.049 C 17.431 3.123,17.225 3.196,17.027 3.210 C 16.829 3.225,16.667 3.288,16.667 3.350 C 16.667 3.412,16.573 3.459,16.458 3.455 C 15.848 3.433,15.681 3.511,15.783 3.775 C 15.868 3.998,15.805 4.034,15.449 3.965 C 15.208 3.919,15.050 3.946,15.098 4.024 C 15.175 4.149,15.103 4.177,14.747 4.163 C 14.699 4.161,14.498 4.311,14.299 4.497 C 13.933 4.837,13.767 4.898,13.358 4.842 C 13.219 4.823,13.182 4.890,13.261 5.017 C 13.350 5.162,13.303 5.191,13.102 5.114 C 12.940 5.052,12.858 5.072,12.913 5.160 C 13.041 5.368,12.379 5.714,12.137 5.565 C 12.033 5.501,11.994 5.522,12.050 5.613 C 12.182 5.827,9.105 7.418,8.857 7.264 C 8.752 7.200,8.667 7.226,8.667 7.323 C 8.667 7.421,8.479 7.500,8.250 7.500 C 8.021 7.500,7.852 7.577,7.875 7.671 C 7.939 7.934,5.958 8.959,5.874 8.706 C 5.828 8.567,5.407 8.500,4.583 8.500 C 3.285 8.500,2.777 8.608,2.927 8.851 C 2.978 8.933,2.937 9.000,2.836 9.000 C 2.735 9.000,2.492 9.150,2.295 9.333 C 2.076 9.537,2.022 9.667,2.156 9.667 C 2.318 9.667,2.327 9.723,2.191 9.887 C 2.057 10.048,2.061 10.161,2.204 10.304 C 2.354 10.454,2.329 10.500,2.096 10.500 C 1.839 10.500,1.826 10.540,2.011 10.763 C 2.189 10.978,2.189 11.050,2.012 11.159 C 1.837 11.268,1.839 11.307,2.023 11.369 C 2.190 11.426,2.203 11.508,2.071 11.681 C 1.914 11.888,1.827 12.386,1.777 13.375 C 1.769 13.535,1.705 13.667,1.636 13.667 C 1.567 13.667,1.557 13.787,1.613 13.933 C 1.669 14.080,1.611 14.267,1.483 14.348 C 1.322 14.449,1.313 14.496,1.455 14.497 C 1.724 14.501,1.474 15.086,0.651 16.378 C 0.033 17.349,-0.191 19.132,0.222 19.792 C 0.297 19.911,0.275 20.000,0.171 20.000 C 0.039 20.000,0.039 20.094,0.170 20.340 C 0.270 20.527,0.331 20.808,0.305 20.965 C 0.279 21.122,0.319 21.347,0.394 21.466 C 0.469 21.587,0.445 21.782,0.338 21.911 C 0.191 22.088,0.215 22.177,0.441 22.304 C 0.673 22.433,0.693 22.518,0.538 22.705 C 0.391 22.881,0.389 22.989,0.530 23.130 C 0.671 23.271,0.665 23.385,0.506 23.576 C 0.329 23.790,0.338 23.833,0.563 23.833 C 0.882 23.833,0.925 24.102,0.625 24.223 C 0.468 24.287,0.478 24.352,0.667 24.487 C 0.889 24.647,0.889 24.685,0.667 24.831 C 0.442 24.978,0.545 25.072,0.875 25.020 C 0.944 25.009,1.000 25.150,1.000 25.333 C 1.000 25.517,1.056 25.667,1.125 25.667 C 1.194 25.667,1.400 25.893,1.583 26.168 C 1.767 26.443,2.029 26.705,2.167 26.749 C 2.597 26.888,3.346 27.678,3.228 27.869 C 3.164 27.973,3.191 28.004,3.292 27.942 C 3.832 27.608,5.092 29.532,5.200 30.856 C 5.223 31.138,5.314 31.266,5.451 31.214 C 5.570 31.168,5.667 31.209,5.667 31.304 C 5.667 31.399,5.761 31.575,5.877 31.696 C 6.248 32.085,6.667 32.814,6.667 33.072 C 6.667 33.211,6.765 33.285,6.886 33.239 C 7.160 33.134,7.738 33.750,7.590 33.989 C 7.530 34.087,7.596 34.167,7.737 34.167 C 7.879 34.167,8.486 34.468,9.087 34.836 C 9.689 35.204,10.511 35.593,10.914 35.701 C 11.317 35.809,11.609 35.958,11.564 36.032 C 11.518 36.106,11.560 36.167,11.657 36.167 C 11.754 36.167,11.833 36.077,11.833 35.968 C 11.833 35.859,11.934 35.908,12.058 36.077 C 12.213 36.290,12.319 36.325,12.401 36.192 C 12.556 35.941,14.705 35.938,14.955 36.189 C 15.178 36.412,15.735 36.246,15.584 36.001 C 15.527 35.909,15.560 35.833,15.657 35.833 C 15.754 35.833,15.834 35.927,15.836 36.042 C 15.838 36.179,15.880 36.190,15.961 36.074 C 16.118 35.848,17.057 35.467,17.355 35.508 C 17.779 35.567,18.000 35.501,17.958 35.329 C 17.935 35.235,18.142 35.029,18.417 34.871 C 18.692 34.713,18.977 34.490,19.050 34.375 C 19.123 34.260,19.265 34.167,19.365 34.167 C 19.465 34.167,19.647 34.035,19.770 33.875 C 19.966 33.620,20.015 33.615,20.161 33.833 C 20.306 34.050,20.433 33.824,20.292 33.601 C 20.269 33.565,20.393 33.377,20.567 33.184 C 20.921 32.794,27.833 32.619,27.833 33.000 C 27.833 33.092,27.758 33.167,27.667 33.167 C 27.565 33.167,27.500 33.913,27.500 35.073 C 27.500 36.165,27.571 37.024,27.667 37.083 C 27.758 37.140,27.833 37.107,27.833 37.010 C 27.833 36.890,29.191 36.833,32.042 36.833 L 36.250 36.833 36.203 44.250 C 36.172 49.257,36.212 51.667,36.328 51.667 C 36.545 51.667,36.555 52.446,36.341 52.579 C 36.253 52.633,36.216 52.769,36.259 52.881 C 36.302 52.993,36.181 53.182,35.989 53.301 C 35.532 53.587,34.500 53.717,34.500 53.489 C 34.500 53.393,34.424 53.361,34.331 53.418 C 34.237 53.476,34.201 53.587,34.249 53.665 C 34.331 53.797,33.399 54.101,33.125 54.032 C 33.056 54.014,33.000 54.075,33.000 54.166 C 33.000 54.348,32.537 54.315,32.208 54.110 C 32.075 54.027,32.000 54.074,32.000 54.240 C 32.000 54.383,31.887 54.500,31.750 54.500 C 31.376 54.500,31.392 56.423,31.767 56.567 C 32.308 56.774,38.549 56.876,43.208 56.754 L 48.000 56.629 48.000 55.564 C 48.000 54.601,47.967 54.500,47.657 54.500 C 47.437 54.500,47.357 54.430,47.434 54.305 C 47.517 54.171,47.461 54.146,47.256 54.225 C 47.065 54.298,46.871 54.233,46.716 54.045 C 46.584 53.883,46.523 53.844,46.581 53.958 C 46.706 54.206,46.400 54.242,46.248 53.997 C 46.191 53.904,46.074 53.871,45.988 53.924 C 45.903 53.977,45.833 53.903,45.833 53.760 C 45.833 53.617,45.754 53.500,45.657 53.500 C 45.560 53.500,45.527 53.575,45.583 53.667 C 45.640 53.758,45.569 53.833,45.427 53.833 C 45.284 53.833,45.161 53.702,45.154 53.542 C 45.146 53.367,45.107 53.334,45.056 53.458 C 44.954 53.712,44.333 53.738,44.333 53.489 C 44.333 53.383,44.189 53.357,43.975 53.425 C 43.698 53.512,43.638 53.481,43.712 53.288 C 43.779 53.114,43.724 53.060,43.529 53.111 C 43.270 53.179,43.253 52.586,43.295 45.009 L 43.340 36.833 47.503 36.833 L 51.667 36.833 51.667 34.833 L 51.667 32.833 55.912 32.833 L 60.158 32.833 60.412 32.342 C 60.695 31.796,60.762 30.000,60.500 30.000 C 60.241 30.000,60.303 29.041,60.599 28.470 C 60.818 28.047,60.825 27.931,60.642 27.818 C 60.473 27.714,60.466 27.634,60.613 27.487 C 60.720 27.380,60.768 27.189,60.719 27.063 C 60.671 26.937,60.707 26.833,60.800 26.833 C 60.893 26.833,60.931 26.691,60.886 26.516 C 60.829 26.299,60.910 26.165,61.143 26.091 C 61.341 26.028,61.446 25.888,61.395 25.754 C 61.251 25.380,61.653 24.793,61.971 24.914 C 62.192 24.998,62.207 24.977,62.046 24.814 C 61.809 24.575,62.055 24.167,62.437 24.167 C 62.563 24.167,62.667 24.061,62.667 23.933 C 62.667 23.591,64.901 22.167,65.437 22.167 C 65.483 22.167,65.472 22.260,65.414 22.375 C 65.356 22.490,65.419 22.448,65.555 22.282 C 65.690 22.116,65.840 22.043,65.887 22.119 C 65.935 22.196,66.804 22.246,67.819 22.231 C 68.833 22.216,69.626 22.265,69.579 22.340 C 69.533 22.415,69.571 22.524,69.664 22.582 C 69.757 22.639,69.833 22.607,69.833 22.510 C 69.833 22.413,69.946 22.333,70.083 22.333 C 70.221 22.333,70.333 22.413,70.333 22.510 C 70.333 22.607,70.408 22.640,70.500 22.583 C 70.592 22.527,70.667 22.602,70.667 22.750 C 70.667 22.898,70.740 22.974,70.830 22.919 C 71.194 22.694,72.802 23.979,72.589 24.324 C 72.525 24.428,72.571 24.488,72.696 24.462 C 72.817 24.437,72.896 24.516,72.871 24.637 C 72.846 24.759,72.898 24.813,72.987 24.758 C 73.186 24.635,74.000 25.798,74.000 26.205 C 74.000 26.367,74.074 26.500,74.163 26.500 C 74.445 26.500,74.571 27.353,74.314 27.515 C 74.131 27.632,74.143 27.662,74.375 27.664 C 74.535 27.666,74.667 27.742,74.667 27.833 C 74.667 27.925,74.592 28.000,74.500 28.000 C 74.408 28.000,74.333 28.117,74.333 28.260 C 74.333 28.403,74.408 28.473,74.500 28.417 C 74.597 28.357,74.667 28.521,74.667 28.810 C 74.667 29.082,74.594 29.331,74.505 29.361 C 74.411 29.393,74.463 29.749,74.630 30.214 C 74.870 30.883,74.880 31.034,74.687 31.154 C 74.172 31.473,74.724 31.667,76.135 31.661 C 77.144 31.658,77.682 31.582,77.907 31.411 C 78.162 31.219,78.261 31.211,78.376 31.375 C 78.466 31.504,78.479 31.432,78.410 31.188 C 78.337 30.932,78.378 30.741,78.524 30.648 C 78.690 30.543,78.695 30.504,78.542 30.503 C 78.427 30.501,78.333 30.425,78.333 30.333 C 78.333 30.242,78.448 30.167,78.589 30.167 C 78.786 30.167,78.807 30.096,78.680 29.859 C 78.566 29.645,78.577 29.490,78.715 29.352 C 78.869 29.198,78.859 29.119,78.670 29.002 C 78.463 28.874,78.470 28.834,78.717 28.740 C 78.939 28.654,78.964 28.575,78.823 28.405 C 78.720 28.280,78.698 28.086,78.773 27.966 C 78.848 27.847,78.887 27.619,78.860 27.458 C 78.832 27.285,78.918 27.167,79.073 27.167 C 79.216 27.167,79.333 27.087,79.333 26.990 C 79.333 26.893,79.258 26.860,79.167 26.917 C 79.075 26.973,79.000 26.861,79.000 26.667 C 79.000 26.473,79.075 26.360,79.167 26.417 C 79.258 26.473,79.333 26.440,79.333 26.343 C 79.333 26.246,79.258 26.167,79.167 26.167 C 79.075 26.167,79.000 26.050,79.000 25.907 C 79.000 25.764,79.070 25.690,79.155 25.743 C 79.240 25.796,79.357 25.763,79.415 25.669 C 79.473 25.576,79.440 25.500,79.343 25.500 C 79.095 25.500,79.122 24.879,79.375 24.777 C 79.542 24.710,79.542 24.690,79.375 24.680 C 79.064 24.660,79.123 24.219,79.454 24.092 C 79.691 24.001,79.700 23.957,79.506 23.837 C 79.312 23.717,79.309 23.647,79.489 23.429 C 79.635 23.254,79.646 23.167,79.520 23.167 C 79.418 23.167,79.333 23.054,79.333 22.917 C 79.333 22.779,79.416 22.667,79.518 22.667 C 79.744 22.667,79.603 22.040,79.154 21.057 C 78.978 20.669,78.833 20.235,78.833 20.092 C 78.833 19.950,78.766 19.833,78.683 19.833 C 78.492 19.833,78.140 18.844,78.262 18.648 C 78.312 18.566,78.246 18.500,78.116 18.500 C 77.831 18.500,77.258 17.090,77.430 16.812 C 77.499 16.701,77.480 16.659,77.388 16.716 C 77.216 16.823,76.000 15.478,76.000 15.182 C 76.000 15.088,75.895 15.051,75.767 15.100 C 75.639 15.149,75.433 15.053,75.309 14.886 C 75.185 14.720,74.821 14.557,74.500 14.525 C 74.179 14.494,73.862 14.381,73.794 14.275 C 73.727 14.170,73.669 14.158,73.667 14.250 C 73.664 14.342,73.591 14.306,73.506 14.170 C 73.403 14.007,73.143 13.941,72.739 13.976 C 72.269 14.017,72.158 13.978,72.256 13.806 C 72.350 13.640,72.332 13.630,72.183 13.767 C 71.978 13.955,71.167 13.886,71.167 13.681 C 71.167 13.618,70.904 13.598,70.583 13.635 C 70.170 13.683,69.999 13.637,69.997 13.477 C 69.995 13.299,69.962 13.303,69.840 13.495 C 69.708 13.704,69.667 13.696,69.569 13.440 C 69.479 13.205,69.423 13.187,69.317 13.360 C 69.213 13.528,69.134 13.534,68.987 13.387 C 68.880 13.280,68.677 13.237,68.536 13.291 C 68.382 13.350,68.322 13.320,68.385 13.217 C 68.453 13.107,68.252 13.058,67.829 13.082 C 67.465 13.103,67.167 13.062,67.167 12.992 C 67.167 12.922,67.017 12.904,66.833 12.952 C 66.621 13.007,66.499 12.956,66.497 12.811 C 66.495 12.632,66.457 12.637,66.318 12.833 C 66.209 12.987,66.113 13.015,66.067 12.906 C 66.026 12.808,65.732 12.749,65.413 12.774 C 64.960 12.809,64.833 12.757,64.831 12.535 C 64.829 12.292,64.805 12.286,64.671 12.499 C 64.552 12.688,64.467 12.701,64.320 12.553 C 64.213 12.447,64.010 12.404,63.869 12.458 C 63.711 12.519,63.654 12.488,63.723 12.377 C 63.791 12.266,63.720 12.228,63.536 12.276 C 63.273 12.344,62.789 12.041,61.627 11.080 C 61.468 10.948,61.055 10.653,60.710 10.425 C 60.366 10.197,59.708 9.741,59.250 9.412 C 58.792 9.083,58.117 8.613,57.750 8.367 C 57.383 8.121,57.023 7.825,56.950 7.710 C 56.877 7.594,56.738 7.500,56.642 7.500 C 56.344 7.500,55.491 6.816,55.590 6.656 C 55.642 6.572,55.567 6.549,55.423 6.604 C 55.227 6.679,55.188 6.627,55.264 6.394 C 55.343 6.151,55.328 6.135,55.196 6.321 C 55.057 6.517,54.827 6.426,53.889 5.806 C 53.262 5.392,52.337 4.803,51.833 4.499 C 51.329 4.194,50.542 3.705,50.083 3.412 C 48.880 2.645,47.895 2.093,46.697 1.515 C 46.117 1.235,45.678 0.949,45.722 0.878 C 45.765 0.808,45.512 0.746,45.159 0.742 C 44.806 0.738,44.382 0.621,44.217 0.482 C 44.052 0.344,43.692 0.242,43.417 0.256 C 43.142 0.270,42.842 0.239,42.750 0.188 C 42.452 0.022,25.762 0.049,25.542 0.216 C 25.407 0.318,25.252 0.306,25.103 0.183 C 24.926 0.036,24.851 0.046,24.783 0.224 M34.265 4.227 C 34.191 4.625,34.233 4.848,34.413 4.997 C 34.737 5.266,34.738 5.500,34.417 5.500 C 34.087 5.500,34.099 5.816,34.444 6.197 C 34.683 6.461,34.690 6.561,34.500 6.917 C 34.309 7.273,34.317 7.373,34.560 7.641 C 34.811 7.918,34.814 7.975,34.589 8.162 C 34.364 8.348,34.367 8.422,34.610 8.834 C 35.050 9.578,34.832 9.826,33.800 9.756 C 33.314 9.722,32.827 9.770,32.716 9.861 C 32.606 9.953,32.344 9.973,32.133 9.906 C 31.764 9.789,31.763 9.779,32.083 9.656 C 32.329 9.561,32.252 9.531,31.792 9.541 C 31.448 9.548,31.167 9.617,31.167 9.694 C 31.167 9.770,30.923 9.832,30.625 9.831 C 30.214 9.829,30.144 9.789,30.333 9.667 C 30.520 9.546,30.428 9.504,29.972 9.503 C 29.632 9.501,29.329 9.592,29.288 9.708 C 29.233 9.863,29.051 9.831,28.579 9.584 C 28.110 9.338,27.926 9.305,27.875 9.459 C 27.793 9.705,26.833 9.743,26.833 9.500 C 26.833 9.408,26.646 9.333,26.417 9.333 C 26.188 9.333,26.000 9.408,26.000 9.500 C 26.000 9.592,25.850 9.667,25.667 9.667 C 25.483 9.667,25.333 9.600,25.333 9.518 C 25.333 9.286,24.472 9.128,24.276 9.324 C 24.053 9.547,23.386 9.553,23.250 9.333 C 23.102 9.094,22.208 9.127,22.124 9.375 C 22.071 9.532,21.996 9.537,21.819 9.394 C 21.440 9.090,20.549 8.962,20.181 9.159 C 19.935 9.290,19.634 9.288,19.088 9.150 C 18.337 8.961,18.144 8.771,18.542 8.610 C 18.681 8.554,18.665 8.522,18.493 8.513 C 18.116 8.494,17.657 7.406,17.896 7.099 C 18.123 6.808,19.529 5.986,20.333 5.674 C 20.654 5.549,21.325 5.259,21.825 5.029 C 22.324 4.799,22.961 4.594,23.241 4.574 C 23.521 4.553,23.863 4.492,24.000 4.437 C 24.137 4.382,24.400 4.310,24.583 4.277 C 24.767 4.244,25.055 4.157,25.225 4.084 C 25.428 3.997,25.584 4.031,25.681 4.184 C 25.799 4.370,25.829 4.358,25.831 4.125 C 25.832 3.965,25.908 3.833,26.000 3.833 C 26.092 3.833,26.167 3.908,26.167 4.000 C 26.167 4.092,26.279 4.167,26.417 4.167 C 26.554 4.167,26.667 4.092,26.667 4.000 C 26.667 3.908,26.892 3.833,27.167 3.833 C 27.442 3.833,27.667 3.908,27.667 4.000 C 27.667 4.092,27.817 4.167,28.000 4.167 C 28.183 4.167,28.333 4.094,28.333 4.006 C 28.333 3.915,29.120 3.821,30.125 3.791 C 31.110 3.762,32.469 3.722,33.144 3.702 L 34.370 3.667 34.265 4.227 M40.639 4.016 C 40.715 4.222,41.333 4.208,41.333 4.000 C 41.333 3.908,41.521 3.833,41.750 3.833 C 41.979 3.833,42.167 3.908,42.167 4.000 C 42.167 4.240,42.623 4.206,42.723 3.958 C 42.769 3.844,42.814 3.900,42.823 4.083 C 42.836 4.362,42.866 4.375,43.003 4.167 C 43.148 3.944,43.185 3.944,43.331 4.167 C 43.440 4.334,43.496 4.348,43.497 4.208 C 43.500 4.025,44.248 4.333,45.500 5.033 C 45.637 5.110,45.938 5.267,46.167 5.382 C 47.069 5.835,48.505 6.707,48.600 6.860 C 48.654 6.948,48.861 7.091,49.058 7.177 C 49.255 7.262,49.566 7.426,49.748 7.541 C 49.931 7.656,50.456 7.981,50.915 8.263 C 51.374 8.545,51.959 8.904,52.214 9.062 C 52.475 9.223,52.627 9.429,52.563 9.533 C 52.492 9.649,52.525 9.671,52.651 9.593 C 52.763 9.524,52.981 9.572,53.136 9.700 C 53.290 9.828,53.698 10.078,54.042 10.254 C 54.385 10.431,54.667 10.617,54.667 10.667 C 54.667 10.717,54.927 10.898,55.245 11.069 C 55.563 11.240,55.784 11.445,55.735 11.524 C 55.686 11.603,55.492 11.585,55.303 11.484 C 55.114 11.383,54.731 11.345,54.452 11.401 C 54.116 11.468,53.803 11.409,53.523 11.226 C 53.231 11.034,53.081 11.008,53.036 11.141 C 52.958 11.376,52.167 11.400,52.167 11.167 C 52.167 11.075,52.017 11.000,51.833 11.000 C 51.650 11.000,51.500 11.075,51.500 11.167 C 51.500 11.258,51.387 11.333,51.250 11.333 C 51.112 11.333,51.000 11.267,51.000 11.186 C 51.000 10.965,50.279 10.821,50.095 11.005 C 49.883 11.217,49.333 11.213,49.333 11.000 C 49.333 10.777,48.544 10.786,48.469 11.010 C 48.431 11.124,48.234 11.095,47.913 10.929 C 47.622 10.777,47.394 10.739,47.361 10.835 C 47.289 11.050,46.716 11.048,46.583 10.833 C 46.442 10.604,45.876 10.623,45.797 10.859 C 45.753 10.991,45.595 10.960,45.292 10.762 C 44.973 10.553,44.770 10.519,44.559 10.637 C 44.384 10.735,44.115 10.742,43.884 10.654 C 43.673 10.574,43.276 10.553,43.003 10.608 C 42.634 10.682,42.478 10.637,42.401 10.437 C 42.289 10.144,41.833 10.061,41.833 10.333 C 41.833 10.425,41.646 10.500,41.417 10.500 C 41.188 10.500,41.000 10.425,41.000 10.333 C 41.000 10.242,40.887 10.167,40.750 10.167 C 40.612 10.167,40.500 10.242,40.500 10.333 C 40.500 10.607,39.972 10.522,39.716 10.208 C 39.544 9.996,39.455 9.973,39.392 10.125 C 39.345 10.240,39.204 10.333,39.079 10.333 C 38.743 10.333,38.590 9.984,38.854 9.817 C 39.033 9.703,39.018 9.671,38.780 9.669 C 38.569 9.667,38.505 9.579,38.568 9.375 C 38.618 9.215,38.590 8.973,38.506 8.839 C 38.410 8.686,38.417 8.517,38.525 8.387 C 38.646 8.241,38.617 8.018,38.425 7.633 C 38.254 7.291,38.218 7.066,38.326 7.030 C 38.560 6.952,38.545 6.572,38.292 6.143 C 38.125 5.860,38.125 5.775,38.292 5.714 C 38.578 5.611,38.553 5.410,38.210 5.067 C 38.001 4.858,37.978 4.757,38.126 4.708 C 38.397 4.618,38.395 4.005,38.125 3.983 C 38.010 3.974,38.104 3.904,38.333 3.826 C 38.831 3.659,40.560 3.801,40.639 4.016 M248.917 13.257 C 247.542 13.373,246.285 13.476,246.125 13.484 C 245.850 13.499,245.833 14.316,245.833 28.167 L 245.833 42.833 248.917 42.833 L 252.000 42.833 252.000 27.917 C 252.000 13.813,251.984 13.001,251.708 13.023 C 251.548 13.035,250.292 13.140,248.917 13.257 M346.958 13.453 L 346.500 13.522 346.500 28.261 L 346.500 43.000 347.750 43.000 L 349.000 43.000 349.000 28.167 L 349.000 13.333 348.208 13.358 C 347.773 13.372,347.210 13.415,346.958 13.453 M113.577 15.875 C 113.514 16.173,113.404 16.492,113.333 16.583 C 113.262 16.675,113.066 17.200,112.898 17.750 C 112.730 18.300,112.549 18.787,112.497 18.833 C 112.444 18.879,112.258 19.404,112.083 20.000 C 111.909 20.596,111.721 21.121,111.667 21.167 C 111.612 21.212,111.425 21.738,111.250 22.333 C 111.075 22.929,110.891 23.454,110.839 23.500 C 110.748 23.582,110.247 24.937,109.700 26.583 C 109.548 27.042,109.381 27.454,109.329 27.500 C 109.277 27.546,109.091 28.071,108.917 28.667 C 108.742 29.262,108.555 29.787,108.500 29.833 C 108.445 29.879,108.258 30.404,108.083 31.000 C 107.909 31.596,107.723 32.121,107.671 32.167 C 107.619 32.212,107.450 32.625,107.295 33.083 C 106.970 34.048,106.295 35.890,106.041 36.510 C 105.945 36.744,105.768 37.269,105.649 37.677 C 105.530 38.084,105.381 38.454,105.317 38.500 C 105.253 38.546,105.111 38.921,105.001 39.333 C 104.891 39.746,104.660 40.393,104.489 40.771 C 104.318 41.149,104.128 41.768,104.067 42.146 L 103.957 42.833 107.270 42.829 L 110.583 42.825 110.857 42.275 C 111.007 41.972,111.227 41.280,111.346 40.737 C 111.465 40.194,111.611 39.712,111.670 39.667 C 111.729 39.621,111.917 39.040,112.088 38.375 C 112.258 37.710,112.453 37.167,112.521 37.167 C 112.588 37.167,112.667 36.998,112.697 36.792 L 112.750 36.417 117.599 36.373 L 122.447 36.328 122.717 36.956 C 122.866 37.301,123.073 37.921,123.177 38.333 C 123.281 38.746,123.427 39.158,123.501 39.250 C 123.576 39.342,123.756 39.876,123.901 40.438 C 124.046 40.999,124.278 41.674,124.415 41.938 C 124.552 42.201,124.665 42.510,124.666 42.625 C 124.666 42.785,125.445 42.833,128.000 42.833 C 131.246 42.833,131.333 42.824,131.333 42.493 C 131.333 41.948,130.806 40.000,130.658 40.000 C 130.584 40.000,130.432 39.587,130.319 39.083 C 130.206 38.579,130.059 38.167,129.992 38.167 C 129.925 38.167,129.735 37.660,129.570 37.042 C 129.405 36.423,129.217 35.879,129.152 35.833 C 129.087 35.787,128.903 35.300,128.744 34.750 C 128.586 34.200,128.403 33.712,128.338 33.667 C 128.273 33.621,128.084 33.077,127.919 32.458 C 127.753 31.840,127.568 31.333,127.507 31.333 C 127.446 31.333,127.299 30.940,127.180 30.458 C 127.061 29.977,126.872 29.433,126.761 29.250 C 126.649 29.067,126.460 28.560,126.341 28.125 C 126.221 27.690,126.075 27.333,126.015 27.333 C 125.956 27.333,125.772 26.808,125.607 26.167 C 125.441 25.525,125.253 25.000,125.188 25.000 C 125.123 25.000,124.926 24.475,124.750 23.833 C 124.574 23.192,124.371 22.667,124.299 22.667 C 124.226 22.667,124.167 22.563,124.167 22.436 C 124.167 22.128,123.628 20.439,123.496 20.333 C 123.439 20.287,123.294 19.894,123.174 19.458 C 123.055 19.023,122.891 18.667,122.812 18.667 C 122.732 18.667,122.667 18.563,122.667 18.436 C 122.667 18.122,122.126 16.437,121.992 16.333 C 121.933 16.287,121.834 16.044,121.772 15.792 L 121.660 15.333 117.677 15.333 L 113.693 15.333 113.577 15.875 M195.167 29.083 L 195.167 42.833 198.250 42.833 L 201.333 42.833 201.333 37.250 L 201.333 31.667 207.500 31.667 L 213.667 31.667 213.667 37.250 L 213.667 42.833 216.750 42.833 L 219.833 42.833 219.833 29.083 L 219.833 15.333 216.750 15.333 L 213.667 15.333 213.667 20.750 L 213.667 26.167 207.500 26.167 L 201.333 26.167 201.333 20.750 L 201.333 15.333 198.250 15.333 L 195.167 15.333 195.167 29.083 M90.582 18.836 C 90.524 18.929,90.407 18.962,90.322 18.910 C 90.236 18.857,90.167 18.901,90.167 19.008 C 90.167 19.115,90.054 19.159,89.917 19.106 C 89.779 19.054,89.667 19.083,89.667 19.172 C 89.667 19.261,89.565 19.333,89.440 19.333 C 89.315 19.333,88.947 19.514,88.621 19.735 C 88.296 19.956,87.893 20.163,87.725 20.195 C 87.558 20.227,87.393 20.403,87.360 20.585 C 87.278 21.032,86.829 21.517,86.619 21.387 C 86.521 21.326,86.499 21.364,86.568 21.476 C 86.720 21.722,86.524 22.368,86.333 22.250 C 86.254 22.201,86.143 22.237,86.085 22.331 C 86.027 22.424,86.060 22.500,86.157 22.500 C 86.254 22.500,86.333 22.650,86.333 22.833 C 86.333 23.017,86.240 23.168,86.125 23.169 C 85.970 23.171,85.974 23.208,86.140 23.314 C 86.327 23.432,86.327 23.514,86.142 23.812 C 85.976 24.077,85.966 24.241,86.102 24.458 C 86.244 24.683,86.225 24.794,86.018 24.952 C 85.772 25.139,85.773 25.157,86.021 25.161 C 86.318 25.167,86.558 25.988,86.390 26.425 C 86.323 26.600,86.406 26.717,86.641 26.778 C 86.841 26.831,87.114 27.145,87.275 27.511 C 87.430 27.863,87.614 28.116,87.684 28.073 C 87.862 27.963,89.011 28.767,88.873 28.905 C 88.811 28.967,88.879 28.972,89.025 28.916 C 89.183 28.855,89.330 28.918,89.389 29.072 C 89.466 29.271,89.581 29.294,89.897 29.174 C 90.209 29.055,90.328 29.078,90.401 29.270 C 90.456 29.412,90.583 29.468,90.695 29.399 C 90.941 29.247,91.962 29.240,92.111 29.389 C 92.295 29.573,92.500 29.514,92.500 29.278 C 92.500 29.156,92.610 29.056,92.745 29.056 C 93.099 29.056,94.333 28.475,94.333 28.308 C 94.333 28.230,94.558 28.167,94.833 28.167 C 95.252 28.167,95.333 28.101,95.333 27.760 C 95.333 27.536,95.408 27.307,95.500 27.250 C 95.592 27.193,95.667 27.231,95.667 27.333 C 95.667 27.436,95.750 27.468,95.851 27.406 C 95.984 27.324,95.980 27.257,95.838 27.169 C 95.574 27.007,96.317 25.512,96.667 25.502 C 96.889 25.496,96.889 25.477,96.667 25.331 C 96.444 25.185,96.444 25.147,96.667 24.987 C 96.855 24.852,96.865 24.787,96.708 24.723 C 96.592 24.676,96.500 24.352,96.500 23.986 C 96.500 23.576,96.578 23.332,96.708 23.331 C 96.871 23.329,96.872 23.300,96.713 23.199 C 96.600 23.127,96.482 22.922,96.449 22.743 C 96.363 22.266,95.819 21.361,95.276 20.789 C 94.905 20.399,94.851 20.258,95.026 20.147 C 95.190 20.043,95.152 20.004,94.889 20.003 C 94.385 19.999,93.503 19.468,93.499 19.167 C 93.495 18.944,93.477 18.944,93.333 19.167 C 93.187 19.394,93.093 19.285,93.149 18.951 C 93.161 18.879,93.020 18.900,92.836 18.999 C 92.619 19.115,92.500 19.119,92.500 19.011 C 92.500 18.919,92.375 18.892,92.223 18.950 C 92.036 19.022,91.985 18.993,92.066 18.862 C 92.151 18.724,91.967 18.667,91.436 18.667 C 91.024 18.667,90.639 18.743,90.582 18.836 M160.833 18.876 C 160.054 18.966,159.378 19.100,159.331 19.174 C 159.284 19.248,158.947 19.333,158.581 19.363 L 157.917 19.417 157.870 21.542 L 157.823 23.667 156.078 23.667 L 154.333 23.667 154.333 26.083 L 154.333 28.500 156.083 28.500 L 157.833 28.500 157.837 33.125 C 157.840 37.938,157.996 39.853,158.418 40.275 C 158.555 40.412,158.667 40.612,158.667 40.720 C 158.668 41.005,159.837 42.333,160.086 42.333 C 160.203 42.333,160.338 42.439,160.388 42.568 C 160.437 42.696,160.725 42.856,161.028 42.923 C 161.331 42.989,161.749 43.155,161.957 43.292 C 162.407 43.586,166.471 43.531,166.856 43.225 C 166.981 43.125,167.477 42.951,167.958 42.839 C 168.440 42.726,168.833 42.567,168.833 42.487 C 168.833 42.406,169.021 42.293,169.250 42.235 C 169.640 42.137,169.896 41.333,169.537 41.333 C 169.466 41.333,169.274 40.883,169.110 40.333 C 168.947 39.783,168.756 39.333,168.686 39.333 C 168.616 39.333,168.488 39.052,168.402 38.708 C 168.246 38.086,167.018 37.793,166.681 38.298 C 166.248 38.948,164.167 38.230,164.167 37.432 C 164.167 37.286,164.092 37.167,164.000 37.167 C 163.893 37.167,163.833 35.611,163.833 32.833 L 163.833 28.500 166.146 28.500 C 168.903 28.500,168.725 28.642,168.975 26.250 C 169.281 23.332,169.602 23.667,166.500 23.667 L 163.833 23.667 163.833 21.167 L 163.833 18.667 163.042 18.690 C 162.606 18.703,161.612 18.787,160.833 18.876 M14.044 22.078 C 14.618 22.039,14.808 22.078,14.728 22.220 C 14.644 22.369,14.668 22.370,14.827 22.223 C 15.192 21.887,17.147 22.793,16.904 23.187 C 16.773 23.399,17.141 23.833,17.452 23.833 C 17.879 23.833,18.326 24.535,18.132 24.899 C 17.992 25.160,18.009 25.199,18.231 25.114 C 18.403 25.048,18.500 25.098,18.500 25.255 C 18.500 25.390,18.569 25.500,18.654 25.500 C 18.739 25.500,18.776 25.762,18.736 26.083 C 18.695 26.413,18.737 26.667,18.832 26.667 C 19.108 26.667,19.022 27.289,18.731 27.401 C 18.550 27.470,18.513 27.572,18.616 27.710 C 18.799 27.954,18.786 28.095,18.528 28.719 C 18.421 28.977,18.332 29.240,18.330 29.303 C 18.321 29.580,17.660 30.247,17.393 30.249 C 17.220 30.249,17.056 30.420,16.993 30.667 C 16.935 30.896,16.800 31.065,16.694 31.042 C 16.587 31.019,16.500 31.059,16.500 31.131 C 16.500 31.356,15.494 31.867,15.241 31.770 C 15.109 31.719,15.000 31.750,15.000 31.839 C 15.000 32.065,14.541 32.041,14.465 31.811 C 14.423 31.687,14.308 31.716,14.129 31.894 C 13.824 32.200,13.500 32.253,13.500 31.998 C 13.500 31.905,13.253 31.861,12.945 31.899 C 12.152 31.997,10.405 31.142,10.266 30.588 C 10.203 30.335,10.077 30.211,9.938 30.265 C 9.724 30.347,9.167 29.445,9.167 29.016 C 9.167 28.916,9.092 28.833,9.000 28.833 C 8.756 28.833,8.796 28.335,9.042 28.322 C 9.156 28.315,9.100 28.245,8.917 28.167 C 8.733 28.088,8.682 28.018,8.804 28.012 C 8.965 28.003,8.949 27.925,8.743 27.720 C 8.481 27.457,8.482 27.425,8.763 27.220 C 9.053 27.008,9.053 26.992,8.763 26.780 C 8.482 26.575,8.481 26.543,8.743 26.280 C 8.898 26.126,8.943 26.000,8.845 26.000 C 8.747 26.000,8.667 25.917,8.667 25.816 C 8.667 25.714,8.782 25.675,8.923 25.730 C 9.118 25.804,9.145 25.765,9.034 25.566 C 8.838 25.217,9.483 23.791,9.784 23.907 C 9.916 23.957,10.000 23.861,10.000 23.658 C 10.000 23.306,11.429 22.270,11.691 22.432 C 11.769 22.480,11.833 22.440,11.833 22.343 C 11.833 22.246,12.058 22.167,12.333 22.167 C 12.608 22.167,12.833 22.082,12.833 21.980 C 12.833 21.850,12.898 21.845,13.042 21.963 C 13.156 22.056,13.607 22.108,14.044 22.078 M117.833 22.510 C 117.833 22.688,117.893 22.833,117.967 22.833 C 118.040 22.833,118.240 23.396,118.411 24.083 C 118.582 24.771,118.773 25.333,118.835 25.333 C 118.896 25.333,119.041 25.765,119.156 26.292 C 119.271 26.819,119.461 27.402,119.579 27.588 C 119.697 27.775,119.889 28.356,120.006 28.880 C 120.124 29.404,120.275 29.833,120.342 29.833 C 120.409 29.833,120.513 30.040,120.573 30.292 C 120.633 30.544,120.721 30.881,120.769 31.042 C 120.850 31.312,120.626 31.333,117.665 31.333 L 114.474 31.333 114.591 30.792 C 114.656 30.494,114.762 30.212,114.828 30.167 C 114.893 30.121,115.085 29.558,115.255 28.917 C 115.424 28.275,115.611 27.712,115.670 27.667 C 115.729 27.621,115.917 27.040,116.088 26.375 C 116.258 25.710,116.458 25.167,116.532 25.167 C 116.606 25.167,116.667 25.052,116.667 24.912 C 116.667 24.445,117.556 22.015,117.696 22.101 C 117.771 22.148,117.833 22.332,117.833 22.510 M178.500 23.138 C 178.500 23.214,178.023 23.364,177.441 23.471 C 175.308 23.864,172.000 26.203,172.000 27.318 C 172.000 27.418,171.931 27.500,171.846 27.500 C 171.762 27.500,171.606 27.781,171.500 28.125 C 171.395 28.469,171.264 28.863,171.210 29.000 C 171.156 29.137,171.099 29.287,171.083 29.333 C 171.067 29.379,170.986 29.567,170.902 29.750 C 170.650 30.302,170.708 36.320,170.967 36.480 C 171.087 36.554,171.165 36.682,171.141 36.765 C 171.079 36.983,171.664 38.645,171.842 38.755 C 171.924 38.806,172.110 39.098,172.255 39.404 C 172.851 40.660,175.391 42.605,176.840 42.915 C 177.157 42.983,177.520 43.122,177.647 43.225 C 177.954 43.473,182.222 43.578,183.083 43.358 C 183.450 43.265,184.191 43.079,184.730 42.944 C 185.269 42.810,185.756 42.628,185.813 42.540 C 185.870 42.452,186.207 42.276,186.563 42.149 C 186.918 42.022,187.245 41.824,187.289 41.709 C 187.333 41.594,187.455 41.499,187.559 41.499 C 187.808 41.497,189.167 40.113,189.167 39.861 C 189.167 39.754,189.241 39.667,189.332 39.667 C 189.545 39.667,190.389 37.869,190.779 36.583 C 191.134 35.416,191.219 30.556,190.892 30.145 C 190.792 30.019,190.618 29.523,190.505 29.042 C 190.392 28.560,190.248 28.167,190.184 28.167 C 190.119 28.167,189.976 27.915,189.865 27.607 C 189.518 26.648,187.970 24.986,186.833 24.353 C 185.755 23.753,185.416 23.621,184.492 23.446 C 183.946 23.342,183.500 23.199,183.500 23.129 C 183.500 23.058,182.375 23.000,181.000 23.000 C 179.625 23.000,178.500 23.062,178.500 23.138 M231.250 23.167 C 231.193 23.258,230.973 23.333,230.759 23.333 C 230.228 23.333,228.633 23.856,228.363 24.119 C 228.242 24.237,228.077 24.333,227.998 24.333 C 227.747 24.333,225.833 26.191,225.833 26.435 C 225.833 26.562,225.765 26.667,225.681 26.667 C 225.478 26.667,224.562 28.594,224.412 29.333 C 224.348 29.654,224.210 30.022,224.106 30.151 C 223.826 30.497,223.844 36.531,224.125 36.625 C 224.240 36.663,224.333 36.798,224.333 36.925 C 224.333 37.228,224.842 38.727,224.981 38.833 C 225.041 38.879,225.181 39.123,225.291 39.375 C 225.402 39.627,225.569 39.833,225.663 39.833 C 225.757 39.833,225.833 39.932,225.833 40.052 C 225.833 40.282,226.786 41.333,226.995 41.333 C 227.063 41.333,227.320 41.521,227.568 41.750 C 227.815 41.979,228.101 42.167,228.204 42.167 C 228.306 42.167,228.509 42.273,228.654 42.402 C 228.892 42.615,229.682 42.873,231.583 43.359 C 232.418 43.573,237.147 43.464,237.303 43.227 C 237.366 43.133,237.885 42.958,238.458 42.839 C 239.031 42.719,239.500 42.562,239.500 42.490 C 239.500 42.418,239.755 42.275,240.066 42.172 C 240.377 42.070,240.846 41.802,241.107 41.576 C 241.369 41.351,241.682 41.167,241.803 41.167 C 242.062 41.167,241.913 40.556,241.572 40.214 C 241.452 40.095,241.259 39.735,241.143 39.415 C 241.028 39.095,240.884 38.833,240.825 38.833 C 240.766 38.833,240.578 38.496,240.408 38.083 C 240.108 37.358,239.528 37.050,239.264 37.477 C 238.590 38.568,233.382 39.206,232.305 38.330 C 231.101 37.350,230.833 37.090,230.833 36.900 C 230.833 36.785,230.730 36.587,230.604 36.461 C 230.477 36.335,230.299 35.879,230.207 35.449 L 230.040 34.667 236.120 34.667 L 242.199 34.667 242.136 31.708 C 242.073 28.778,242.067 28.739,241.536 27.632 C 241.241 27.017,241.000 26.477,241.000 26.432 C 241.000 26.246,239.301 24.668,238.798 24.387 C 238.500 24.220,238.162 23.996,238.047 23.889 C 237.848 23.704,236.420 23.333,235.908 23.333 C 235.775 23.333,235.667 23.258,235.667 23.167 C 235.667 23.064,234.837 23.000,233.510 23.000 C 232.252 23.000,231.310 23.069,231.250 23.167 M266.333 23.136 C 266.333 23.211,265.842 23.370,265.242 23.489 C 264.642 23.608,264.061 23.796,263.951 23.906 C 263.840 24.016,263.506 24.191,263.208 24.294 L 262.667 24.483 262.667 23.886 L 262.667 23.288 260.458 23.414 C 259.244 23.484,257.875 23.588,257.417 23.645 L 256.583 23.750 256.583 37.250 L 256.583 50.750 259.625 50.795 L 262.667 50.841 262.667 46.991 L 262.667 43.140 263.208 43.278 C 264.027 43.487,268.217 43.448,268.683 43.227 C 268.903 43.123,269.421 42.939,269.833 42.818 C 270.246 42.696,270.621 42.557,270.667 42.507 C 270.712 42.457,271.029 42.288,271.370 42.130 C 271.711 41.973,272.143 41.710,272.330 41.547 C 272.711 41.214,273.717 40.215,274.056 39.833 C 274.473 39.363,275.298 37.751,275.420 37.167 C 275.487 36.846,275.609 36.540,275.691 36.488 C 276.207 36.159,276.188 29.486,275.669 28.529 C 275.586 28.375,275.395 27.856,275.245 27.375 C 275.096 26.894,274.923 26.500,274.861 26.500 C 274.799 26.500,274.645 26.268,274.520 25.985 C 274.045 24.911,272.364 23.637,271.123 23.410 C 270.778 23.347,270.455 23.229,270.405 23.148 C 270.290 22.962,266.333 22.951,266.333 23.136 M285.639 23.125 C 285.608 23.194,285.062 23.383,284.424 23.546 C 283.786 23.709,283.223 23.905,283.174 23.981 C 283.124 24.058,282.858 24.240,282.583 24.386 C 281.711 24.849,279.843 26.824,279.836 27.292 C 279.835 27.406,279.772 27.500,279.697 27.500 C 279.550 27.500,279.000 29.111,279.000 29.542 C 279.000 29.687,278.906 29.837,278.792 29.875 C 278.507 29.970,278.492 36.504,278.775 36.849 C 278.881 36.978,279.057 37.421,279.167 37.833 C 279.276 38.246,279.443 38.678,279.538 38.794 C 279.633 38.909,279.832 39.229,279.980 39.505 C 280.392 40.272,281.985 41.803,282.698 42.117 C 283.047 42.271,283.333 42.446,283.333 42.505 C 283.333 42.565,283.765 42.715,284.292 42.839 C 284.819 42.963,285.301 43.139,285.363 43.231 C 285.527 43.473,290.263 43.569,291.125 43.348 C 291.515 43.248,292.152 43.090,292.542 42.996 C 292.931 42.901,293.709 42.601,294.270 42.329 C 294.832 42.056,295.375 41.833,295.479 41.833 C 295.582 41.833,295.667 41.770,295.667 41.693 C 295.667 41.616,295.854 41.468,296.083 41.364 C 296.538 41.156,296.632 40.656,296.281 40.304 C 296.161 40.182,295.955 39.840,295.824 39.542 C 295.693 39.244,295.534 39.000,295.472 39.000 C 295.410 39.000,295.276 38.747,295.173 38.437 C 294.816 37.355,294.468 37.211,293.455 37.723 C 292.973 37.967,292.448 38.167,292.289 38.167 C 292.130 38.167,292.000 38.233,292.000 38.314 C 292.000 38.854,287.770 38.963,287.191 38.439 C 287.026 38.289,286.806 38.167,286.703 38.167 C 286.443 38.167,285.333 36.999,285.333 36.724 C 285.333 36.601,285.262 36.500,285.175 36.500 C 285.009 36.500,284.669 35.466,284.668 34.958 C 284.667 34.686,285.062 34.667,290.646 34.667 L 296.625 34.667 296.729 34.146 C 297.046 32.563,296.729 28.666,296.223 27.921 C 296.101 27.740,296.000 27.478,296.000 27.338 C 296.000 27.198,295.814 26.868,295.588 26.605 C 295.361 26.341,295.137 26.004,295.090 25.855 C 295.002 25.579,294.077 24.808,292.974 24.093 C 292.638 23.875,291.926 23.604,291.390 23.489 C 290.855 23.374,290.345 23.217,290.258 23.140 C 290.062 22.967,285.716 22.952,285.639 23.125 M309.833 23.148 C 309.833 23.230,309.589 23.342,309.291 23.398 C 308.694 23.510,307.257 24.464,306.885 24.995 C 306.485 25.566,306.333 25.378,306.333 24.308 L 306.333 23.283 304.458 23.394 C 303.427 23.455,302.115 23.552,301.542 23.609 L 300.500 23.713 300.500 33.273 L 300.500 42.833 303.417 42.833 L 306.333 42.833 306.333 37.120 L 306.333 31.406 307.104 30.625 C 308.522 29.186,310.530 28.689,312.386 29.318 C 313.200 29.593,313.182 29.620,313.387 27.796 C 313.482 26.946,313.613 26.212,313.677 26.167 C 314.030 25.915,314.036 23.333,313.684 23.333 C 313.491 23.333,313.333 23.258,313.333 23.167 C 313.333 23.066,312.639 23.000,311.583 23.000 C 310.621 23.000,309.833 23.067,309.833 23.148 M17.500 23.532 C 17.500 23.751,17.121 23.614,17.038 23.364 C 16.998 23.243,17.074 23.205,17.236 23.268 C 17.381 23.323,17.500 23.442,17.500 23.532 M137.000 23.426 C 136.862 23.456,136.015 23.530,135.116 23.590 L 133.482 23.699 133.533 31.606 C 133.566 36.846,133.642 39.552,133.757 39.631 C 133.853 39.697,134.035 40.073,134.162 40.469 C 134.289 40.864,134.530 41.260,134.697 41.349 C 134.864 41.439,135.000 41.623,135.000 41.760 C 135.000 41.897,135.188 42.080,135.417 42.167 C 135.646 42.254,135.833 42.387,135.833 42.462 C 135.833 42.538,136.115 42.700,136.458 42.823 C 136.802 42.946,137.137 43.130,137.202 43.232 C 137.378 43.505,142.083 43.484,142.358 43.208 C 142.473 43.094,142.715 43.000,142.897 43.000 C 143.262 43.000,144.370 42.643,144.500 42.483 C 144.579 42.386,146.140 41.667,146.271 41.667 C 146.305 41.667,146.333 41.817,146.333 42.000 C 146.333 42.183,146.408 42.333,146.500 42.333 C 146.592 42.333,146.667 42.446,146.667 42.583 C 146.667 42.795,147.065 42.833,149.250 42.833 L 151.833 42.833 151.833 33.058 L 151.833 23.283 149.958 23.392 C 148.927 23.452,147.577 23.549,146.958 23.608 L 145.833 23.715 145.833 30.589 L 145.833 37.463 145.085 37.815 C 144.674 38.008,144.224 38.167,144.085 38.167 C 143.947 38.167,143.833 38.229,143.833 38.306 C 143.833 38.382,143.740 38.455,143.625 38.468 C 143.510 38.481,143.079 38.551,142.667 38.624 C 139.828 39.125,139.676 38.685,139.671 29.958 L 139.667 23.333 138.458 23.353 C 137.794 23.363,137.137 23.396,137.000 23.426 M325.958 24.290 L 325.000 24.350 325.000 33.592 L 325.000 42.833 326.250 42.833 L 327.500 42.833 327.500 35.342 L 327.500 27.850 328.458 27.555 C 328.985 27.392,329.454 27.210,329.500 27.150 C 329.546 27.089,330.033 26.944,330.583 26.827 C 331.133 26.710,331.655 26.551,331.742 26.474 C 332.795 25.540,337.650 27.103,337.389 28.292 C 337.374 28.360,337.449 28.522,337.556 28.650 C 337.695 28.818,337.765 30.865,337.803 35.859 L 337.856 42.833 339.095 42.833 L 340.333 42.833 340.333 35.758 C 340.333 28.664,340.236 27.213,339.729 26.705 C 339.603 26.579,339.500 26.377,339.500 26.255 C 339.500 25.934,338.508 25.114,337.566 24.658 C 336.134 23.964,330.307 24.090,329.835 24.826 C 329.788 24.898,329.487 25.012,329.167 25.079 C 328.846 25.145,328.340 25.339,328.042 25.511 L 327.500 25.822 327.500 24.994 C 327.500 24.305,327.451 24.172,327.208 24.198 C 327.048 24.216,326.485 24.257,325.958 24.290 M235.011 27.685 C 235.427 27.890,235.833 28.514,235.833 28.950 C 235.833 29.069,235.908 29.167,236.000 29.167 C 236.092 29.167,236.167 29.504,236.167 29.917 L 236.167 30.667 233.153 30.667 L 230.140 30.667 230.258 30.125 C 230.322 29.827,230.426 29.546,230.489 29.500 C 230.551 29.454,230.698 29.180,230.815 28.891 C 231.375 27.504,233.438 26.911,235.011 27.685 M289.297 27.588 C 289.924 27.839,290.500 28.547,290.500 29.067 C 290.500 29.214,290.575 29.333,290.667 29.333 C 290.758 29.333,290.833 29.633,290.833 30.000 L 290.833 30.667 287.815 30.667 L 284.796 30.667 284.912 30.042 C 284.976 29.698,285.097 29.392,285.181 29.361 C 285.265 29.331,285.333 29.205,285.333 29.082 C 285.333 27.859,287.723 26.959,289.297 27.588 M182.694 28.054 C 182.780 28.208,182.952 28.333,183.077 28.333 C 183.337 28.333,184.166 29.261,184.168 29.554 C 184.168 29.662,184.296 29.975,184.451 30.250 C 184.803 30.875,184.879 35.191,184.549 35.849 C 184.439 36.070,184.241 36.521,184.109 36.852 C 183.823 37.570,183.341 38.167,183.046 38.167 C 182.929 38.167,182.833 38.234,182.833 38.317 C 182.833 38.769,180.792 38.982,179.607 38.653 C 178.913 38.460,177.942 37.605,177.758 37.025 C 177.695 36.828,177.580 36.667,177.503 36.667 C 176.858 36.667,176.823 30.264,177.465 29.851 C 177.551 29.795,177.675 29.579,177.740 29.370 C 177.878 28.929,178.649 28.167,178.957 28.167 C 179.072 28.167,179.167 28.097,179.167 28.012 C 179.167 27.565,182.442 27.604,182.694 28.054 M267.467 27.768 C 267.920 27.859,268.725 28.499,269.283 29.212 C 269.831 29.913,269.908 35.451,269.375 35.818 C 269.296 35.872,269.135 36.154,269.018 36.444 C 268.763 37.075,267.825 38.167,267.537 38.167 C 267.425 38.167,267.333 38.230,267.333 38.307 C 267.333 38.596,265.989 38.833,264.356 38.833 L 262.667 38.833 262.667 33.763 L 262.667 28.693 263.292 28.494 C 263.635 28.385,264.070 28.201,264.257 28.084 C 264.877 27.696,266.372 27.549,267.467 27.768 M89.333 30.917 C 89.333 31.148,88.985 31.227,87.967 31.226 C 87.811 31.225,87.720 31.284,87.764 31.357 C 87.809 31.429,87.542 31.680,87.171 31.914 C 86.482 32.349,86.004 32.714,85.521 33.176 C 85.372 33.318,84.912 33.688,84.500 33.998 C 84.087 34.307,83.591 34.734,83.397 34.947 C 83.203 35.159,82.991 35.333,82.926 35.333 C 82.861 35.333,82.583 35.558,82.308 35.833 C 82.033 36.108,81.701 36.333,81.571 36.333 C 81.440 36.333,81.333 36.446,81.333 36.583 C 81.333 36.828,81.144 36.904,80.692 36.842 C 80.567 36.825,80.517 36.893,80.579 36.994 C 80.717 37.216,79.996 37.851,79.717 37.754 C 79.607 37.715,79.553 37.777,79.596 37.890 C 79.693 38.142,78.727 38.890,78.492 38.745 C 78.400 38.688,78.346 38.732,78.371 38.842 C 78.397 38.957,78.204 39.059,77.917 39.083 C 77.192 39.143,76.667 38.998,76.667 38.737 C 76.667 38.604,76.563 38.550,76.417 38.606 C 76.271 38.662,76.166 38.608,76.164 38.476 C 76.162 38.302,76.125 38.307,76.000 38.500 C 75.873 38.696,75.838 38.701,75.836 38.521 C 75.834 38.330,75.789 38.329,75.565 38.515 C 75.339 38.703,75.265 38.693,75.089 38.452 C 74.863 38.144,74.333 38.061,74.333 38.333 C 74.333 38.425,74.108 38.500,73.833 38.500 C 73.558 38.500,73.333 38.425,73.333 38.333 C 73.333 38.242,73.183 38.167,73.000 38.167 C 72.817 38.167,72.667 38.242,72.667 38.333 C 72.667 38.425,72.554 38.500,72.417 38.500 C 72.279 38.500,72.167 38.419,72.167 38.319 C 72.167 38.220,72.073 38.173,71.958 38.215 C 71.844 38.257,71.769 38.376,71.792 38.479 C 71.815 38.582,71.702 38.667,71.542 38.668 C 71.381 38.669,70.875 38.854,70.417 39.080 C 69.958 39.305,69.502 39.492,69.402 39.495 C 69.302 39.498,68.937 39.744,68.590 40.042 C 68.243 40.340,67.801 40.624,67.607 40.674 C 67.414 40.723,67.141 40.986,67.003 41.257 C 66.864 41.528,66.694 41.775,66.625 41.806 C 66.556 41.836,66.500 41.967,66.500 42.097 C 66.500 42.227,66.423 42.333,66.329 42.333 C 66.235 42.333,66.084 42.528,65.994 42.767 C 65.886 43.051,65.743 43.168,65.581 43.106 C 65.329 43.009,65.267 43.214,65.325 43.948 C 65.341 44.148,65.204 44.462,65.021 44.646 C 64.798 44.869,64.753 45.004,64.885 45.054 C 65.014 45.102,64.967 45.221,64.750 45.394 C 64.471 45.617,64.455 45.686,64.656 45.817 C 64.859 45.951,64.861 46.016,64.667 46.250 C 64.473 46.484,64.474 46.548,64.676 46.672 C 64.865 46.790,64.872 46.862,64.707 47.026 C 64.447 47.287,64.439 47.873,64.693 48.126 C 64.839 48.272,64.832 48.385,64.662 48.589 C 64.474 48.816,64.476 48.883,64.677 49.013 C 64.884 49.146,64.883 49.189,64.667 49.331 C 64.453 49.471,64.459 49.495,64.708 49.497 C 65.045 49.500,65.114 50.093,64.792 50.223 C 64.674 50.270,64.719 50.313,64.894 50.320 C 65.137 50.330,65.187 50.428,65.123 50.763 C 65.070 51.040,65.125 51.225,65.277 51.283 C 65.602 51.408,66.039 52.298,65.897 52.547 C 65.832 52.658,65.841 52.695,65.915 52.628 C 65.989 52.560,66.283 52.783,66.567 53.124 C 67.179 53.857,67.628 54.297,68.225 54.750 C 68.466 54.933,68.823 55.212,69.018 55.370 C 69.213 55.528,69.515 55.702,69.689 55.757 C 69.863 55.812,69.962 55.926,69.910 56.010 C 69.859 56.094,69.921 56.123,70.049 56.074 C 70.177 56.024,70.687 56.151,71.182 56.354 C 72.139 56.747,75.500 56.970,75.500 56.641 C 75.500 56.556,75.596 56.507,75.714 56.534 C 75.922 56.582,76.952 56.206,77.875 55.744 C 78.127 55.619,78.333 55.587,78.333 55.674 C 78.333 55.762,78.406 55.833,78.495 55.833 C 78.584 55.833,78.613 55.721,78.560 55.583 C 78.508 55.446,78.545 55.333,78.643 55.333 C 78.741 55.333,79.078 55.108,79.391 54.833 C 79.704 54.558,80.084 54.333,80.236 54.333 C 80.387 54.333,80.551 54.202,80.601 54.042 C 80.773 53.484,80.964 53.250,81.230 53.273 C 81.376 53.285,81.459 53.235,81.413 53.160 C 81.312 52.997,81.670 52.167,81.842 52.167 C 81.909 52.167,82.011 51.979,82.068 51.750 C 82.129 51.508,82.294 51.332,82.462 51.331 C 82.661 51.329,82.687 51.288,82.548 51.200 C 82.298 51.041,82.460 50.333,82.746 50.333 C 82.885 50.333,82.933 50.138,82.889 49.746 C 82.844 49.330,82.899 49.131,83.079 49.062 C 83.416 48.933,83.405 48.172,83.063 47.922 C 82.775 47.711,82.886 46.910,83.179 47.091 C 83.423 47.242,83.359 46.861,83.065 46.412 C 82.917 46.187,82.839 45.892,82.891 45.757 C 82.943 45.621,82.919 45.469,82.837 45.419 C 82.755 45.368,82.570 44.921,82.426 44.424 C 82.281 43.927,82.070 43.422,81.956 43.302 C 81.842 43.182,81.572 42.735,81.357 42.309 L 80.965 41.535 81.302 41.198 C 81.487 41.013,81.683 40.905,81.736 40.958 C 81.790 41.012,81.833 40.960,81.833 40.843 C 81.833 40.723,81.942 40.673,82.083 40.727 C 82.235 40.785,82.333 40.728,82.333 40.582 C 82.333 40.449,82.540 40.210,82.792 40.049 C 83.044 39.889,83.287 39.715,83.333 39.662 C 83.379 39.610,83.679 39.387,84.000 39.167 C 84.321 38.946,84.621 38.721,84.667 38.667 C 84.712 38.612,84.983 38.405,85.267 38.207 L 85.784 37.846 86.000 38.251 C 86.171 38.569,86.174 38.707,86.015 38.899 C 85.854 39.093,85.870 39.254,86.092 39.684 C 86.352 40.186,86.352 40.241,86.099 40.426 C 85.808 40.639,85.882 42.407,86.190 42.598 C 86.392 42.722,86.370 44.500,86.167 44.500 C 85.903 44.500,85.973 45.163,86.268 45.459 C 86.501 45.691,86.505 45.751,86.296 45.905 C 86.039 46.094,86.088 46.568,86.348 46.408 C 86.431 46.356,86.500 46.424,86.500 46.560 C 86.500 46.695,86.406 46.841,86.292 46.884 C 86.146 46.938,86.180 47.036,86.403 47.207 C 86.717 47.449,86.717 47.455,86.403 47.638 C 86.116 47.804,86.113 47.824,86.375 47.828 C 86.640 47.833,86.783 48.342,86.678 48.901 C 86.662 48.985,86.747 49.116,86.866 49.193 C 87.041 49.306,87.034 49.366,86.833 49.500 C 86.611 49.648,86.611 49.687,86.833 49.846 C 87.022 49.981,87.032 50.046,86.875 50.110 C 86.598 50.222,86.608 50.500,86.889 50.500 C 87.011 50.500,87.111 50.595,87.111 50.711 C 87.111 50.828,87.163 51.146,87.227 51.420 C 87.312 51.781,87.297 51.849,87.174 51.667 C 87.029 51.452,87.005 51.458,87.003 51.708 C 87.001 51.869,87.084 52.000,87.186 52.000 C 87.290 52.000,87.334 52.147,87.285 52.333 C 87.237 52.517,87.258 52.667,87.332 52.667 C 87.406 52.667,87.451 52.892,87.432 53.167 C 87.411 53.468,87.478 53.667,87.601 53.667 C 87.719 53.667,87.785 53.842,87.758 54.083 C 87.733 54.313,87.792 54.500,87.888 54.500 C 87.985 54.500,87.918 54.610,87.740 54.745 C 87.447 54.966,87.444 54.990,87.708 54.995 C 88.045 55.001,88.113 55.593,87.792 55.723 C 87.656 55.778,87.675 55.812,87.847 55.820 C 87.992 55.827,88.207 56.014,88.325 56.234 C 88.571 56.694,90.334 56.921,92.788 56.809 L 94.083 56.750 94.444 56.000 C 94.643 55.587,94.856 54.913,94.917 54.501 C 94.978 54.089,95.105 53.705,95.200 53.646 C 95.307 53.580,95.286 53.507,95.144 53.450 C 95.012 53.397,94.997 53.354,95.109 53.346 C 95.218 53.339,95.264 53.188,95.215 53.000 C 95.167 52.817,95.200 52.667,95.289 52.667 C 95.432 52.667,95.524 52.126,95.521 51.292 C 95.521 51.131,95.584 51.000,95.661 51.000 C 95.739 51.000,95.763 50.850,95.715 50.667 C 95.666 50.480,95.710 50.333,95.814 50.333 C 95.916 50.333,96.000 50.254,96.000 50.157 C 96.000 50.060,95.922 50.029,95.827 50.087 C 95.589 50.234,95.826 49.289,96.067 49.128 C 96.189 49.046,96.174 49.004,96.021 49.003 C 95.849 49.001,95.838 48.945,95.978 48.776 C 96.080 48.653,96.110 48.499,96.045 48.434 C 95.980 48.369,96.037 48.245,96.171 48.160 C 96.352 48.046,96.360 48.004,96.198 48.003 C 96.079 48.001,96.027 47.924,96.085 47.831 C 96.143 47.737,96.246 47.696,96.315 47.738 C 96.383 47.781,96.406 47.584,96.364 47.301 C 96.316 46.970,96.351 46.824,96.462 46.893 C 96.570 46.960,96.602 46.871,96.546 46.658 C 96.430 46.214,97.169 44.736,97.357 45.037 C 97.431 45.154,97.445 44.969,97.390 44.625 C 97.304 44.091,97.336 43.998,97.603 43.987 C 97.779 43.979,97.825 43.937,97.708 43.890 C 97.594 43.843,97.500 43.706,97.500 43.583 C 97.500 43.461,97.594 43.317,97.708 43.264 C 97.875 43.186,97.875 43.147,97.708 43.069 C 97.419 42.935,97.447 42.667,97.750 42.667 C 98.041 42.667,98.090 42.225,97.809 42.131 C 97.668 42.084,97.670 41.971,97.819 41.694 C 97.929 41.489,97.972 41.174,97.915 40.995 C 97.857 40.813,97.925 40.508,98.069 40.303 C 98.300 39.974,98.300 39.906,98.073 39.656 C 97.847 39.406,97.847 39.299,98.074 38.646 C 98.394 37.730,98.448 32.924,98.141 32.734 C 98.022 32.660,97.994 32.688,98.067 32.808 C 98.240 33.086,97.911 33.044,97.673 32.757 C 97.562 32.624,97.523 32.431,97.586 32.329 C 97.650 32.226,97.601 32.157,97.475 32.174 C 97.138 32.217,96.500 31.982,96.500 31.814 C 96.500 31.733,96.406 31.685,96.292 31.708 C 96.177 31.731,96.103 31.655,96.126 31.538 C 96.156 31.388,96.040 31.359,95.726 31.438 C 95.448 31.507,95.322 31.487,95.387 31.382 C 95.449 31.281,95.328 31.246,95.078 31.294 C 94.833 31.340,94.667 31.295,94.667 31.180 C 94.667 31.052,94.434 31.015,93.972 31.071 C 93.455 31.133,93.228 31.086,93.081 30.885 C 92.958 30.717,92.801 30.667,92.663 30.752 C 92.375 30.930,89.833 30.972,89.833 30.799 C 89.833 30.726,89.721 30.667,89.583 30.667 C 89.446 30.667,89.333 30.779,89.333 30.917 M316.932 40.083 C 315.462 41.553,317.165 43.965,319.041 43.070 C 320.900 42.183,320.266 39.667,318.183 39.667 C 317.515 39.667,317.265 39.750,316.932 40.083 M73.127 42.632 C 73.333 42.461,73.402 42.460,73.458 42.625 C 73.538 42.862,74.101 42.908,74.237 42.688 C 74.287 42.607,74.516 42.542,74.747 42.542 C 74.978 42.542,75.167 42.607,75.167 42.688 C 75.167 42.768,75.350 42.833,75.573 42.833 C 76.030 42.833,76.280 43.090,75.959 43.229 C 75.844 43.279,75.938 43.286,76.167 43.245 C 76.631 43.160,77.428 43.712,77.253 43.995 C 77.195 44.090,77.283 44.168,77.448 44.169 C 77.614 44.170,77.919 44.431,78.125 44.750 C 78.526 45.369,78.631 45.934,78.308 45.734 C 78.187 45.660,78.160 45.688,78.236 45.810 C 78.302 45.918,78.438 45.955,78.538 45.893 C 78.656 45.820,78.687 45.906,78.625 46.141 C 78.559 46.393,78.607 46.500,78.786 46.500 C 78.989 46.500,79.000 46.549,78.842 46.739 C 78.701 46.910,78.693 47.071,78.816 47.301 C 78.911 47.478,78.938 47.673,78.877 47.734 C 78.816 47.796,78.752 48.124,78.736 48.465 C 78.682 49.620,78.684 49.615,78.487 49.333 C 78.350 49.139,78.336 49.169,78.420 49.468 C 78.500 49.753,78.420 49.953,78.108 50.242 C 77.877 50.456,77.732 50.677,77.787 50.731 C 77.966 50.910,77.271 51.523,76.977 51.446 C 76.773 51.392,76.720 51.445,76.791 51.631 C 76.865 51.823,76.818 51.863,76.612 51.784 C 76.429 51.714,76.333 51.762,76.333 51.922 C 76.333 52.057,76.189 52.167,76.012 52.167 C 75.835 52.167,75.591 52.260,75.470 52.375 C 75.193 52.637,74.667 52.734,74.667 52.522 C 74.667 52.341,74.355 52.360,74.034 52.561 C 73.916 52.635,73.723 52.616,73.605 52.518 C 73.453 52.392,73.334 52.399,73.189 52.544 C 73.059 52.674,72.944 52.688,72.868 52.582 C 72.803 52.491,72.525 52.393,72.250 52.364 C 71.156 52.249,69.143 50.402,69.395 49.746 C 69.451 49.600,69.393 49.500,69.253 49.500 C 68.953 49.500,68.605 48.328,68.837 48.097 C 69.047 47.886,69.048 47.216,68.839 47.087 C 68.330 46.772,69.479 44.413,70.213 44.266 C 70.582 44.192,70.668 44.101,70.594 43.865 C 70.477 43.498,71.818 42.747,72.344 42.884 C 72.565 42.942,72.671 42.882,72.680 42.693 C 72.689 42.509,72.722 42.489,72.779 42.632 C 72.850 42.808,72.913 42.808,73.127 42.632 " stroke="none" fill="#1c94f3" fill-rule="evenodd"></path><path id="path1" d="M24.583 0.088 C 24.492 0.111,23.985 0.218,23.458 0.327 C 22.591 0.505,22.132 0.833,22.750 0.833 C 22.887 0.833,23.000 0.765,23.000 0.681 C 23.000 0.598,23.188 0.550,23.417 0.575 C 23.646 0.600,23.833 0.563,23.833 0.492 C 23.833 0.421,24.023 0.383,24.254 0.409 C 24.485 0.434,24.718 0.385,24.771 0.300 C 24.886 0.114,24.812 0.030,24.583 0.088 M25.133 0.200 C 25.289 0.356,25.378 0.356,25.533 0.200 C 25.689 0.044,25.644 0.000,25.333 0.000 C 25.022 0.000,24.978 0.044,25.133 0.200 M26.961 0.121 C 27.261 0.158,27.711 0.157,27.961 0.119 C 28.212 0.081,27.967 0.051,27.417 0.052 C 26.867 0.053,26.662 0.084,26.961 0.121 M34.033 0.124 C 34.831 0.154,36.181 0.155,37.033 0.124 C 37.886 0.094,37.233 0.069,35.583 0.069 C 33.933 0.069,33.236 0.093,34.033 0.124 M41.208 0.115 C 41.369 0.157,41.631 0.157,41.792 0.115 C 41.952 0.073,41.821 0.039,41.500 0.039 C 41.179 0.039,41.048 0.073,41.208 0.115 M42.734 0.123 C 42.801 0.190,43.086 0.257,43.367 0.271 C 43.715 0.288,43.804 0.250,43.647 0.151 C 43.368 -0.026,42.561 -0.051,42.734 0.123 M44.142 0.383 C 44.266 0.534,44.611 0.704,44.909 0.760 C 45.593 0.888,48.403 2.326,50.083 3.408 C 50.542 3.703,51.329 4.194,51.833 4.499 C 52.959 5.179,54.846 6.388,55.777 7.025 C 56.159 7.286,56.549 7.500,56.644 7.500 C 56.739 7.500,56.877 7.594,56.950 7.710 C 57.023 7.825,57.383 8.121,57.750 8.367 C 58.117 8.613,58.792 9.083,59.250 9.412 C 59.708 9.741,60.383 10.207,60.750 10.447 C 61.117 10.687,61.454 10.928,61.500 10.983 C 61.927 11.496,63.550 12.500,63.953 12.500 C 64.006 12.500,63.420 12.033,62.650 11.462 C 61.880 10.891,61.106 10.292,60.929 10.131 C 60.752 9.969,60.471 9.794,60.304 9.741 C 60.137 9.688,60.000 9.579,60.000 9.500 C 60.000 9.421,59.832 9.303,59.627 9.238 C 59.283 9.128,58.384 8.487,57.599 7.792 C 57.418 7.631,57.184 7.500,57.078 7.500 C 56.972 7.500,56.667 7.313,56.401 7.084 C 56.135 6.854,55.828 6.667,55.720 6.667 C 55.612 6.667,55.393 6.535,55.233 6.375 C 55.072 6.215,54.561 5.842,54.096 5.546 C 53.631 5.251,53.100 4.887,52.917 4.738 C 52.733 4.589,52.377 4.392,52.125 4.301 C 51.873 4.209,51.667 4.075,51.667 4.002 C 51.667 3.929,51.367 3.749,51.000 3.603 C 50.633 3.456,50.333 3.277,50.333 3.205 C 50.333 3.132,50.127 2.985,49.875 2.877 C 49.623 2.770,48.967 2.413,48.417 2.084 C 47.264 1.394,45.973 0.766,45.792 0.806 C 45.723 0.821,45.667 0.768,45.667 0.688 C 45.667 0.607,45.460 0.497,45.208 0.442 C 44.956 0.386,44.563 0.289,44.333 0.225 C 43.961 0.121,43.941 0.138,44.142 0.383 M21.833 0.799 C 21.833 0.871,21.496 1.021,21.083 1.131 C 20.671 1.242,20.333 1.412,20.333 1.509 C 20.333 1.607,20.258 1.640,20.167 1.584 C 20.075 1.527,19.834 1.598,19.630 1.740 C 19.426 1.883,19.131 2.000,18.975 2.000 C 18.818 2.000,18.591 2.098,18.470 2.217 C 18.349 2.337,17.953 2.552,17.590 2.696 C 16.943 2.953,16.487 3.451,17.111 3.221 C 17.279 3.158,17.454 3.064,17.500 3.011 C 17.546 2.958,17.883 2.812,18.250 2.687 C 18.617 2.562,19.029 2.369,19.167 2.260 C 19.304 2.150,19.848 1.919,20.375 1.746 C 20.902 1.573,21.333 1.377,21.333 1.312 C 21.333 1.247,21.559 1.144,21.835 1.083 C 22.111 1.022,22.294 0.904,22.242 0.820 C 22.126 0.632,21.833 0.617,21.833 0.799 M15.005 3.990 L 14.594 4.306 15.214 4.112 C 15.554 4.006,15.833 3.862,15.833 3.793 C 15.833 3.569,15.427 3.666,15.005 3.990 M32.947 3.790 C 33.906 3.836,34.160 3.904,34.220 4.132 C 34.274 4.338,34.300 4.313,34.314 4.042 C 34.333 3.681,34.285 3.668,33.042 3.700 L 31.750 3.733 32.947 3.790 M38.875 3.782 C 39.035 3.823,39.298 3.823,39.458 3.782 C 39.619 3.740,39.487 3.705,39.167 3.705 C 38.846 3.705,38.715 3.740,38.875 3.782 M26.667 4.000 C 26.667 4.092,26.892 4.167,27.167 4.167 C 27.442 4.167,27.667 4.092,27.667 4.000 C 27.667 3.908,27.442 3.833,27.167 3.833 C 26.892 3.833,26.667 3.908,26.667 4.000 M41.333 4.000 C 41.333 4.092,41.521 4.167,41.750 4.167 C 41.979 4.167,42.167 4.092,42.167 4.000 C 42.167 3.908,41.979 3.833,41.750 3.833 C 41.521 3.833,41.333 3.908,41.333 4.000 M25.083 4.167 C 25.027 4.258,25.135 4.333,25.323 4.333 C 25.512 4.333,25.667 4.258,25.667 4.167 C 25.667 4.075,25.559 4.000,25.427 4.000 C 25.294 4.000,25.140 4.075,25.083 4.167 M43.500 4.170 C 43.500 4.264,43.706 4.430,43.958 4.538 C 44.482 4.765,47.332 6.341,47.583 6.544 C 47.978 6.863,50.701 8.500,50.836 8.500 C 50.917 8.500,51.043 8.596,51.117 8.712 C 51.305 9.012,52.106 9.500,52.411 9.500 C 52.552 9.500,52.667 9.562,52.667 9.638 C 52.667 9.864,55.523 11.672,55.704 11.560 C 55.796 11.504,55.618 11.301,55.310 11.110 C 55.002 10.919,54.712 10.713,54.667 10.652 C 54.621 10.592,54.321 10.401,54.000 10.229 C 53.678 10.057,53.116 9.707,52.750 9.450 C 51.813 8.793,50.312 7.838,49.917 7.647 C 49.355 7.375,48.850 7.066,48.543 6.805 C 48.237 6.546,46.885 5.734,46.167 5.379 C 45.938 5.266,45.637 5.110,45.500 5.033 C 44.388 4.412,43.500 4.029,43.500 4.170 M24.417 4.286 C 23.906 4.408,23.749 4.637,24.240 4.543 C 24.477 4.497,24.712 4.394,24.762 4.313 C 24.812 4.233,24.830 4.175,24.802 4.186 C 24.773 4.197,24.600 4.241,24.417 4.286 M13.686 4.565 C 13.467 4.687,13.359 4.830,13.446 4.883 C 13.533 4.937,13.824 4.836,14.094 4.658 C 14.641 4.298,14.306 4.222,13.686 4.565 M22.434 4.761 C 22.077 4.892,21.702 5.062,21.601 5.138 C 21.500 5.214,21.042 5.415,20.583 5.584 C 19.601 5.947,18.162 6.759,17.896 7.099 C 17.701 7.349,18.088 8.500,18.368 8.500 C 18.559 8.500,18.530 8.311,18.259 7.791 C 18.016 7.325,18.781 6.500,19.455 6.500 C 19.572 6.500,19.667 6.433,19.667 6.352 C 19.667 6.270,20.004 6.104,20.417 5.982 C 20.829 5.860,21.167 5.712,21.167 5.653 C 21.167 5.594,21.598 5.412,22.125 5.248 C 23.255 4.897,23.963 4.492,23.412 4.512 C 23.231 4.518,22.791 4.631,22.434 4.761 M34.167 5.146 C 34.167 5.350,34.273 5.500,34.417 5.500 C 34.554 5.500,34.667 5.434,34.667 5.354 C 34.667 5.273,34.554 5.114,34.417 5.000 C 34.208 4.827,34.167 4.851,34.167 5.146 M12.625 5.194 C 12.373 5.286,12.167 5.417,12.167 5.486 C 12.167 5.555,12.066 5.611,11.943 5.611 C 11.627 5.611,8.833 7.039,8.833 7.201 C 8.833 7.458,9.187 7.324,10.960 6.393 C 13.369 5.128,13.950 4.710,12.625 5.194 M38.167 5.907 C 38.167 6.039,38.242 6.193,38.333 6.250 C 38.425 6.307,38.500 6.199,38.500 6.010 C 38.500 5.821,38.425 5.667,38.333 5.667 C 38.242 5.667,38.167 5.775,38.167 5.907 M34.333 6.583 C 34.333 6.832,34.405 6.975,34.500 6.917 C 34.592 6.860,34.667 6.710,34.667 6.583 C 34.667 6.457,34.592 6.307,34.500 6.250 C 34.405 6.191,34.333 6.335,34.333 6.583 M34.333 7.937 C 34.333 8.308,34.371 8.343,34.585 8.165 C 34.777 8.006,34.792 7.901,34.648 7.728 C 34.382 7.407,34.333 7.440,34.333 7.937 M6.917 8.094 C 6.458 8.315,6.008 8.524,5.917 8.558 C 5.825 8.593,5.806 8.681,5.874 8.754 C 5.942 8.827,6.392 8.677,6.874 8.420 C 8.378 7.618,8.410 7.375,6.917 8.094 M2.219 8.958 C 2.162 9.119,2.085 9.305,2.049 9.373 C 2.013 9.441,2.099 9.452,2.241 9.397 C 2.384 9.342,2.500 9.231,2.500 9.149 C 2.500 9.067,2.617 9.000,2.760 9.000 C 2.903 9.000,2.973 8.925,2.917 8.833 C 2.751 8.566,2.332 8.641,2.219 8.958 M34.500 9.333 C 34.500 9.637,34.569 9.810,34.667 9.750 C 34.758 9.693,34.833 9.506,34.833 9.333 C 34.833 9.161,34.758 8.973,34.667 8.917 C 34.569 8.856,34.500 9.029,34.500 9.333 M19.296 9.188 C 19.650 9.290,19.943 9.286,20.129 9.178 C 20.348 9.050,20.218 9.013,19.583 9.020 C 18.780 9.030,18.770 9.036,19.296 9.188 M23.250 9.333 C 23.307 9.425,23.532 9.500,23.750 9.500 C 23.968 9.500,24.193 9.425,24.250 9.333 C 24.311 9.234,24.110 9.167,23.750 9.167 C 23.390 9.167,23.189 9.234,23.250 9.333 M25.333 9.500 C 25.333 9.592,25.483 9.667,25.667 9.667 C 25.850 9.667,26.000 9.592,26.000 9.500 C 26.000 9.408,25.850 9.333,25.667 9.333 C 25.483 9.333,25.333 9.408,25.333 9.500 M26.833 9.500 C 26.833 9.592,27.058 9.667,27.333 9.667 C 27.608 9.667,27.833 9.592,27.833 9.500 C 27.833 9.408,27.608 9.333,27.333 9.333 C 27.058 9.333,26.833 9.408,26.833 9.500 M28.574 9.589 C 28.938 9.865,29.333 9.911,29.333 9.679 C 29.333 9.594,29.465 9.490,29.625 9.448 C 29.785 9.406,29.542 9.366,29.083 9.358 C 28.316 9.345,28.276 9.363,28.574 9.589 M30.333 9.667 C 30.144 9.789,30.214 9.829,30.625 9.831 C 30.923 9.832,31.167 9.758,31.167 9.667 C 31.167 9.455,30.661 9.455,30.333 9.667 M32.083 9.654 C 31.760 9.780,31.762 9.788,32.124 9.903 C 32.539 10.035,32.891 9.894,32.743 9.655 C 32.632 9.476,32.540 9.475,32.083 9.654 M38.667 10.005 C 38.667 10.220,39.142 10.414,39.294 10.262 C 39.356 10.199,39.297 10.079,39.162 9.993 C 38.839 9.789,38.667 9.794,38.667 10.005 M39.833 10.333 C 39.833 10.425,39.983 10.500,40.167 10.500 C 40.350 10.500,40.500 10.425,40.500 10.333 C 40.500 10.242,40.350 10.167,40.167 10.167 C 39.983 10.167,39.833 10.242,39.833 10.333 M41.000 10.333 C 41.000 10.425,41.188 10.500,41.417 10.500 C 41.646 10.500,41.833 10.425,41.833 10.333 C 41.833 10.242,41.646 10.167,41.417 10.167 C 41.188 10.167,41.000 10.242,41.000 10.333 M43.667 10.564 C 43.667 10.715,44.316 10.780,44.523 10.649 C 44.677 10.551,44.577 10.504,44.208 10.503 C 43.910 10.501,43.667 10.529,43.667 10.564 M46.583 10.833 C 46.640 10.925,46.832 11.000,47.010 11.000 C 47.188 11.000,47.333 10.925,47.333 10.833 C 47.333 10.742,47.141 10.667,46.907 10.667 C 46.665 10.667,46.525 10.739,46.583 10.833 M49.333 11.000 C 49.333 11.092,49.479 11.167,49.657 11.167 C 49.835 11.167,50.027 11.092,50.083 11.000 C 50.142 10.905,50.002 10.833,49.760 10.833 C 49.525 10.833,49.333 10.908,49.333 11.000 M51.000 11.167 C 51.000 11.258,51.112 11.333,51.250 11.333 C 51.387 11.333,51.500 11.258,51.500 11.167 C 51.500 11.075,51.387 11.000,51.250 11.000 C 51.112 11.000,51.000 11.075,51.000 11.167 M52.167 11.167 C 52.167 11.258,52.354 11.333,52.583 11.333 C 52.813 11.333,53.000 11.258,53.000 11.167 C 53.000 11.075,52.813 11.000,52.583 11.000 C 52.354 11.000,52.167 11.075,52.167 11.167 M1.731 12.407 C 1.680 12.539,1.668 12.783,1.704 12.949 C 1.745 13.137,1.802 13.047,1.856 12.708 C 1.946 12.141,1.887 11.998,1.731 12.407 M64.833 12.660 C 64.833 12.747,65.094 12.799,65.413 12.774 C 65.732 12.749,66.022 12.808,66.057 12.906 C 66.092 13.003,66.185 13.023,66.264 12.949 C 66.343 12.876,66.297 12.745,66.162 12.660 C 65.839 12.456,64.833 12.456,64.833 12.660 M66.500 12.833 C 66.500 12.925,66.608 13.000,66.740 13.000 C 66.872 13.000,67.027 12.925,67.083 12.833 C 67.140 12.742,67.032 12.667,66.843 12.667 C 66.654 12.667,66.500 12.742,66.500 12.833 M69.500 13.305 C 69.500 13.402,69.575 13.527,69.667 13.583 C 69.758 13.640,69.834 13.588,69.836 13.468 C 69.838 13.297,69.870 13.300,69.984 13.480 C 70.076 13.626,70.318 13.682,70.644 13.634 C 70.927 13.593,71.179 13.620,71.204 13.694 C 71.229 13.769,71.662 13.859,72.167 13.893 C 72.671 13.928,72.896 13.922,72.667 13.880 C 72.438 13.838,72.170 13.738,72.072 13.657 C 71.974 13.576,71.561 13.476,71.155 13.436 C 70.749 13.396,70.210 13.310,69.958 13.247 C 69.676 13.175,69.500 13.198,69.500 13.305 M1.333 14.083 C 1.333 14.221,1.408 14.333,1.500 14.333 C 1.592 14.333,1.667 14.221,1.667 14.083 C 1.667 13.946,1.592 13.833,1.500 13.833 C 1.408 13.833,1.333 13.946,1.333 14.083 M73.500 14.163 C 73.500 14.268,73.569 14.311,73.652 14.259 C 73.736 14.207,73.830 14.228,73.861 14.306 C 73.892 14.384,74.165 14.496,74.468 14.555 C 74.934 14.646,74.984 14.627,74.792 14.435 C 74.479 14.122,73.500 13.916,73.500 14.163 M1.115 14.958 C 1.004 15.210,0.707 15.734,0.456 16.122 C 0.205 16.509,0.000 16.956,-0.000 17.113 C -0.000 17.271,0.284 16.953,0.632 16.408 C 1.417 15.175,1.720 14.500,1.488 14.500 C 1.394 14.500,1.226 14.706,1.115 14.958 M75.377 14.948 C 75.532 15.103,75.715 15.174,75.783 15.106 C 75.851 15.038,75.797 14.912,75.662 14.827 C 75.256 14.570,75.076 14.647,75.377 14.948 M76.000 15.153 C 76.000 15.265,76.290 15.708,76.645 16.137 C 77.000 16.566,77.423 17.273,77.585 17.708 C 77.746 18.144,77.943 18.500,78.023 18.500 C 78.301 18.500,78.162 17.874,77.750 17.266 C 77.521 16.928,77.333 16.581,77.333 16.494 C 77.333 16.407,77.183 16.242,77.000 16.128 C 76.817 16.013,76.667 15.837,76.667 15.736 C 76.667 15.634,76.517 15.416,76.333 15.250 C 76.123 15.060,76.000 15.024,76.000 15.153 M78.167 18.730 C 78.167 18.982,78.565 19.833,78.683 19.833 C 78.766 19.833,78.833 19.950,78.833 20.092 C 78.833 20.235,78.978 20.669,79.154 21.057 C 79.603 22.040,79.744 22.667,79.518 22.667 C 79.416 22.667,79.333 22.779,79.333 22.917 C 79.333 23.302,79.615 23.213,79.728 22.792 C 79.915 22.093,79.835 21.656,79.343 20.702 C 79.073 20.178,78.804 19.549,78.745 19.304 C 78.661 18.960,78.167 18.469,78.167 18.730 M88.641 19.327 C 87.849 19.824,87.513 20.167,87.816 20.167 C 87.909 20.167,88.261 19.979,88.599 19.750 C 88.937 19.521,89.315 19.333,89.440 19.333 C 89.565 19.333,89.667 19.261,89.667 19.172 C 89.667 19.083,89.779 19.054,89.917 19.106 C 90.054 19.159,90.167 19.119,90.167 19.018 C 90.167 18.683,89.429 18.832,88.641 19.327 M92.500 19.010 C 92.500 19.107,92.578 19.138,92.674 19.079 C 92.770 19.020,92.957 19.062,93.091 19.173 C 93.234 19.292,93.333 19.305,93.333 19.205 C 93.333 19.039,92.956 18.833,92.653 18.833 C 92.569 18.833,92.500 18.913,92.500 19.010 M93.500 19.212 C 93.500 19.481,94.564 20.064,94.861 19.958 C 94.992 19.911,94.826 19.754,94.458 19.575 C 94.115 19.408,93.833 19.210,93.833 19.136 C 93.833 19.061,93.758 19.000,93.667 19.000 C 93.575 19.000,93.500 19.095,93.500 19.212 M0.102 20.583 C 0.239 21.196,0.334 21.329,0.331 20.903 C 0.329 20.727,0.252 20.471,0.159 20.333 C 0.036 20.151,0.020 20.218,0.102 20.583 M94.833 20.244 C 94.833 20.287,95.040 20.539,95.292 20.805 C 95.544 21.071,95.884 21.533,96.047 21.833 C 96.443 22.561,96.589 22.368,96.252 21.562 C 95.873 20.655,94.833 19.690,94.833 20.244 M86.798 20.958 C 86.690 21.210,86.491 21.550,86.355 21.712 C 86.172 21.931,86.157 22.057,86.295 22.195 C 86.433 22.333,86.510 22.270,86.589 21.953 C 86.648 21.717,86.840 21.395,87.015 21.236 C 87.356 20.927,87.442 20.500,87.163 20.500 C 87.069 20.500,86.905 20.706,86.798 20.958 M0.167 21.667 C 0.167 21.978,0.211 22.022,0.367 21.867 C 0.522 21.711,0.522 21.622,0.367 21.467 C 0.211 21.311,0.167 21.356,0.167 21.667 M12.833 21.990 C 12.833 22.087,12.608 22.167,12.333 22.167 C 12.058 22.167,11.833 22.246,11.833 22.343 C 11.833 22.440,11.769 22.480,11.691 22.432 C 11.459 22.289,10.000 23.301,10.000 23.605 C 10.000 23.871,10.461 23.616,10.833 23.144 C 10.912 23.044,11.932 22.570,12.823 22.219 C 13.093 22.112,13.163 22.018,13.032 21.936 C 12.923 21.869,12.833 21.893,12.833 21.990 M14.750 22.213 C 15.025 22.326,15.588 22.598,16.000 22.817 C 16.412 23.037,16.776 23.200,16.807 23.180 C 16.838 23.161,16.963 23.281,17.085 23.447 C 17.207 23.613,17.358 23.697,17.422 23.633 C 17.738 23.317,15.947 22.223,14.897 22.090 L 14.250 22.008 14.750 22.213 M64.863 22.343 C 64.196 22.610,62.667 23.690,62.667 23.893 C 62.667 24.000,62.498 24.162,62.292 24.252 C 62.085 24.343,61.935 24.473,61.958 24.542 C 61.981 24.610,61.850 24.817,61.667 25.000 C 61.483 25.183,61.336 25.465,61.338 25.625 C 61.343 25.879,61.367 25.874,61.529 25.583 C 61.998 24.743,64.155 22.899,64.847 22.747 C 65.099 22.692,65.347 22.538,65.398 22.406 C 65.502 22.134,65.411 22.123,64.863 22.343 M69.833 22.482 C 69.833 22.631,70.225 22.833,70.514 22.833 C 70.598 22.833,70.667 22.754,70.667 22.657 C 70.667 22.560,70.592 22.527,70.500 22.583 C 70.408 22.640,70.333 22.607,70.333 22.510 C 70.333 22.413,70.221 22.333,70.083 22.333 C 69.946 22.333,69.833 22.400,69.833 22.482 M85.938 22.875 C 85.727 23.665,85.817 24.996,86.075 24.897 C 86.270 24.822,86.279 24.742,86.119 24.485 C 85.962 24.235,85.967 24.090,86.142 23.811 C 86.327 23.514,86.327 23.432,86.140 23.314 C 85.974 23.208,85.970 23.171,86.125 23.169 C 86.240 23.168,86.333 23.017,86.333 22.833 C 86.333 22.382,86.063 22.410,85.938 22.875 M96.455 22.846 C 96.551 23.215,96.833 23.281,96.833 22.934 C 96.833 22.807,96.729 22.662,96.602 22.614 C 96.440 22.551,96.396 22.621,96.455 22.846 M71.310 23.292 C 72.413 24.212,73.132 24.985,73.354 25.487 C 73.479 25.769,73.630 26.000,73.689 26.000 C 73.748 26.000,73.896 26.337,74.018 26.750 C 74.246 27.522,74.500 27.748,74.500 27.179 C 74.500 27.002,74.387 26.745,74.250 26.607 C 74.112 26.470,74.000 26.251,74.000 26.120 C 74.000 25.638,72.099 23.383,71.386 23.019 C 70.767 22.703,70.737 22.813,71.310 23.292 M0.333 23.333 C 0.333 23.644,0.378 23.689,0.533 23.533 C 0.689 23.378,0.689 23.289,0.533 23.133 C 0.378 22.978,0.333 23.022,0.333 23.333 M96.500 24.000 C 96.500 24.367,96.575 24.667,96.667 24.667 C 96.758 24.667,96.833 24.367,96.833 24.000 C 96.833 23.633,96.758 23.333,96.667 23.333 C 96.575 23.333,96.500 23.633,96.500 24.000 M9.240 24.542 C 9.076 24.931,8.959 25.344,8.979 25.458 C 8.998 25.573,8.936 25.667,8.841 25.667 C 8.745 25.667,8.667 25.742,8.667 25.833 C 8.667 26.259,9.007 25.931,9.187 25.331 C 9.297 24.964,9.488 24.579,9.610 24.478 C 9.862 24.269,9.912 23.833,9.685 23.833 C 9.603 23.833,9.403 24.152,9.240 24.542 M17.500 23.913 C 17.500 24.195,18.136 24.986,18.210 24.795 C 18.257 24.673,18.160 24.406,17.996 24.203 C 17.716 23.857,17.500 23.731,17.500 23.913 M79.375 24.110 C 79.139 24.206,79.088 24.667,79.314 24.667 C 79.395 24.667,79.500 24.517,79.548 24.333 C 79.596 24.150,79.624 24.006,79.609 24.013 C 79.595 24.020,79.490 24.064,79.375 24.110 M79.167 25.167 C 79.167 25.350,79.242 25.500,79.333 25.500 C 79.425 25.500,79.500 25.350,79.500 25.167 C 79.500 24.983,79.425 24.833,79.333 24.833 C 79.242 24.833,79.167 24.983,79.167 25.167 M0.792 25.096 C 0.723 25.165,0.667 25.326,0.667 25.454 C 0.667 25.696,2.788 27.833,3.029 27.833 C 3.249 27.833,4.500 29.185,4.500 29.423 C 4.500 29.542,4.606 29.852,4.735 30.111 C 4.864 30.371,5.070 30.808,5.193 31.083 C 5.316 31.358,5.454 31.621,5.501 31.667 C 5.548 31.712,5.805 32.087,6.072 32.498 C 6.339 32.909,6.586 33.157,6.622 33.050 C 6.709 32.791,6.074 31.782,5.458 31.201 C 5.298 31.050,5.167 30.802,5.167 30.651 C 5.167 29.592,3.225 27.094,2.125 26.739 C 1.965 26.687,1.833 26.592,1.833 26.529 C 1.833 26.465,1.654 26.219,1.434 25.982 C 1.214 25.745,1.008 25.421,0.976 25.261 C 0.943 25.101,0.860 25.027,0.792 25.096 M18.369 25.250 C 18.366 25.606,18.608 26.473,18.671 26.333 C 18.781 26.093,18.770 25.500,18.656 25.500 C 18.584 25.500,18.490 25.369,18.448 25.208 C 18.386 24.969,18.372 24.976,18.369 25.250 M86.000 25.558 C 86.000 25.773,86.162 26.129,86.359 26.349 C 86.667 26.693,86.701 26.702,86.598 26.417 C 86.531 26.233,86.435 25.877,86.384 25.625 C 86.271 25.065,86.000 25.018,86.000 25.558 M96.356 25.618 C 96.344 25.728,96.105 26.206,95.826 26.679 C 95.547 27.152,95.354 27.624,95.398 27.728 C 95.442 27.832,95.529 27.748,95.592 27.542 C 95.654 27.335,95.770 27.167,95.848 27.167 C 96.090 27.167,96.524 26.165,96.449 25.780 C 96.411 25.580,96.369 25.507,96.356 25.618 M61.013 26.159 C 60.887 26.236,60.831 26.420,60.887 26.567 C 60.943 26.713,60.917 26.833,60.828 26.833 C 60.739 26.833,60.667 26.913,60.667 27.010 C 60.667 27.305,61.010 26.994,61.182 26.544 C 61.368 26.053,61.329 25.963,61.013 26.159 M8.613 26.400 C 8.519 26.646,8.626 26.833,8.861 26.833 C 8.938 26.833,9.000 26.683,9.000 26.500 C 9.000 26.118,8.746 26.053,8.613 26.400 M79.000 26.667 C 79.000 26.978,79.044 27.022,79.200 26.867 C 79.356 26.711,79.356 26.622,79.200 26.467 C 79.044 26.311,79.000 26.356,79.000 26.667 M18.667 27.000 C 18.667 27.183,18.742 27.333,18.833 27.333 C 18.925 27.333,19.000 27.183,19.000 27.000 C 19.000 26.817,18.925 26.667,18.833 26.667 C 18.742 26.667,18.667 26.817,18.667 27.000 M86.830 27.328 C 87.167 27.802,87.633 28.215,87.476 27.901 C 87.435 27.818,87.298 27.544,87.172 27.292 C 87.047 27.040,86.839 26.833,86.710 26.833 C 86.537 26.833,86.568 26.961,86.830 27.328 M8.623 27.266 C 8.489 27.400,8.664 27.833,8.851 27.833 C 8.933 27.833,9.000 27.683,9.000 27.500 C 9.000 27.175,8.823 27.066,8.623 27.266 M18.500 27.898 C 18.500 28.154,17.809 29.544,17.492 29.926 C 17.381 30.060,17.376 30.173,17.479 30.237 C 17.619 30.324,18.333 29.521,18.333 29.277 C 18.333 29.228,18.420 28.977,18.526 28.719 C 18.798 28.053,18.825 27.848,18.652 27.741 C 18.568 27.689,18.500 27.760,18.500 27.898 M74.167 27.911 C 74.167 28.061,74.264 28.119,74.417 28.060 C 74.554 28.008,74.667 27.897,74.667 27.816 C 74.667 27.734,74.554 27.667,74.417 27.667 C 74.279 27.667,74.167 27.777,74.167 27.911 M78.741 28.015 C 78.679 28.114,78.713 28.279,78.815 28.381 C 78.951 28.517,79.000 28.469,79.000 28.200 C 79.000 27.798,78.913 27.736,78.741 28.015 M87.667 28.170 C 87.667 28.264,87.854 28.426,88.083 28.530 C 88.313 28.635,88.500 28.791,88.500 28.878 C 88.500 28.965,88.608 28.994,88.739 28.944 C 88.871 28.893,89.011 28.942,89.050 29.051 C 89.091 29.167,89.183 29.188,89.269 29.102 C 89.355 29.016,89.332 28.924,89.214 28.882 C 89.102 28.842,88.743 28.627,88.415 28.405 C 87.748 27.952,87.667 27.927,87.667 28.170 M94.333 28.308 C 94.333 28.475,93.099 29.056,92.745 29.056 C 92.610 29.056,92.500 29.118,92.500 29.194 C 92.500 29.271,92.639 29.333,92.808 29.333 C 93.264 29.333,94.167 28.990,94.167 28.817 C 94.167 28.734,94.270 28.667,94.396 28.667 C 94.523 28.667,94.719 28.554,94.833 28.417 C 95.007 28.208,94.983 28.167,94.687 28.167 C 94.493 28.167,94.333 28.230,94.333 28.308 M8.833 28.583 C 8.833 28.721,8.902 28.833,8.987 28.833 C 9.071 28.833,9.187 29.040,9.245 29.292 C 9.364 29.817,9.784 30.438,9.925 30.298 C 10.039 30.183,9.136 28.355,8.958 28.342 C 8.890 28.337,8.833 28.446,8.833 28.583 M74.444 28.444 C 74.270 28.619,74.315 29.333,74.500 29.333 C 74.592 29.333,74.667 29.108,74.667 28.833 C 74.667 28.316,74.633 28.256,74.444 28.444 M60.434 28.764 C 60.274 29.182,60.317 30.000,60.500 30.000 C 60.592 30.000,60.667 29.662,60.667 29.250 C 60.667 28.461,60.602 28.326,60.434 28.764 M89.921 29.152 C 89.623 29.268,89.634 29.288,90.031 29.364 C 90.352 29.425,90.447 29.388,90.384 29.224 C 90.336 29.101,90.287 29.005,90.274 29.012 C 90.261 29.018,90.102 29.081,89.921 29.152 M90.724 29.375 C 90.682 29.444,91.001 29.500,91.435 29.500 C 91.868 29.500,92.174 29.451,92.114 29.392 C 91.961 29.238,90.817 29.225,90.724 29.375 M74.347 30.375 C 74.337 30.974,74.394 31.167,74.583 31.167 C 74.891 31.167,74.893 30.746,74.589 30.083 L 74.360 29.583 74.347 30.375 M10.333 30.728 C 10.333 31.181,12.846 32.217,13.070 31.855 C 13.120 31.775,12.854 31.659,12.480 31.599 C 12.105 31.540,11.563 31.316,11.274 31.103 C 10.469 30.509,10.333 30.454,10.333 30.728 M16.116 31.089 C 15.859 31.315,15.540 31.500,15.407 31.500 C 15.275 31.500,15.167 31.575,15.167 31.667 C 15.167 32.021,16.183 31.610,16.519 31.120 C 16.575 31.039,16.685 30.984,16.764 30.998 C 16.844 31.013,16.935 30.944,16.968 30.846 C 17.074 30.529,16.597 30.665,16.116 31.089 M78.333 30.896 C 78.333 31.023,78.165 31.244,77.958 31.388 L 77.583 31.649 77.958 31.658 C 78.191 31.663,78.333 31.568,78.333 31.407 C 78.333 31.264,78.408 31.193,78.500 31.250 C 78.592 31.307,78.667 31.199,78.667 31.010 C 78.667 30.821,78.592 30.667,78.500 30.667 C 78.408 30.667,78.333 30.770,78.333 30.896 M89.833 30.799 C 89.833 30.957,92.452 30.937,92.611 30.777 C 92.672 30.717,92.072 30.667,91.278 30.667 C 90.483 30.667,89.833 30.726,89.833 30.799 M93.119 30.948 C 93.176 31.099,93.411 31.140,93.881 31.081 C 94.255 31.034,94.603 31.062,94.655 31.143 C 94.707 31.225,95.013 31.337,95.333 31.394 C 95.654 31.450,95.804 31.448,95.667 31.390 C 95.529 31.331,95.374 31.218,95.322 31.139 C 95.152 30.880,93.022 30.696,93.119 30.948 M88.125 30.948 C 87.965 30.990,87.833 31.080,87.833 31.147 C 87.833 31.214,87.533 31.402,87.167 31.563 C 86.800 31.725,86.500 31.927,86.500 32.012 C 86.500 32.097,86.406 32.169,86.292 32.171 C 86.177 32.174,85.739 32.493,85.317 32.880 C 84.896 33.267,84.296 33.787,83.984 34.036 C 81.741 35.824,80.693 36.741,80.763 36.854 C 80.887 37.055,81.333 36.829,81.333 36.566 C 81.333 36.438,81.440 36.333,81.571 36.333 C 81.701 36.333,82.033 36.108,82.308 35.833 C 82.583 35.558,82.861 35.333,82.926 35.333 C 82.991 35.333,83.203 35.159,83.397 34.947 C 83.591 34.734,84.087 34.307,84.500 33.998 C 84.912 33.688,85.372 33.318,85.521 33.176 C 86.522 32.219,88.009 31.300,88.706 31.207 C 89.051 31.161,89.333 31.058,89.333 30.978 C 89.333 30.829,88.644 30.812,88.125 30.948 M96.085 31.669 C 96.143 31.763,96.260 31.796,96.345 31.743 C 96.430 31.690,96.501 31.708,96.501 31.782 C 96.502 31.856,96.683 32.000,96.904 32.103 C 97.235 32.256,97.290 32.247,97.214 32.048 C 97.163 31.916,96.939 31.739,96.716 31.654 C 96.188 31.453,95.955 31.459,96.085 31.669 M14.500 31.833 C 14.500 31.925,14.612 32.000,14.750 32.000 C 14.887 32.000,15.000 31.925,15.000 31.833 C 15.000 31.742,14.887 31.667,14.750 31.667 C 14.612 31.667,14.500 31.742,14.500 31.833 M13.500 32.000 C 13.500 32.092,13.612 32.167,13.750 32.167 C 13.887 32.167,14.000 32.092,14.000 32.000 C 14.000 31.908,13.887 31.833,13.750 31.833 C 13.612 31.833,13.500 31.908,13.500 32.000 M60.364 32.417 L 60.174 32.833 55.920 32.833 L 51.667 32.833 51.667 34.833 L 51.667 36.833 47.500 36.833 C 44.833 36.833,43.333 36.893,43.333 37.000 C 43.333 37.107,44.889 37.167,47.667 37.167 L 52.000 37.167 52.000 35.167 L 52.000 33.167 56.333 33.167 L 60.667 33.167 60.667 32.583 C 60.667 31.890,60.616 31.862,60.364 32.417 M97.500 32.467 C 97.500 32.642,97.862 33.000,98.039 33.000 C 98.116 33.000,98.098 32.850,98.000 32.667 C 97.824 32.338,97.500 32.208,97.500 32.467 M20.583 33.167 C 20.321 33.457,20.316 33.500,20.548 33.500 C 20.694 33.500,20.860 33.425,20.917 33.333 C 20.980 33.231,22.335 33.167,24.427 33.167 C 26.587 33.167,27.833 33.106,27.833 33.000 C 27.833 32.633,20.923 32.792,20.583 33.167 M6.833 33.321 C 6.833 33.522,7.311 34.000,7.512 34.000 C 7.761 34.000,7.691 33.740,7.362 33.442 C 7.020 33.133,6.833 33.091,6.833 33.321 M19.727 33.917 C 19.674 34.054,19.524 34.167,19.394 34.167 C 19.263 34.167,19.113 34.279,19.060 34.417 C 19.008 34.554,18.879 34.668,18.774 34.670 C 18.558 34.675,17.679 35.324,17.882 35.330 C 18.142 35.337,19.333 34.656,19.333 34.500 C 19.333 34.412,19.521 34.293,19.750 34.235 C 19.979 34.178,20.167 34.026,20.167 33.899 C 20.167 33.589,19.848 33.602,19.727 33.917 M7.863 34.375 C 8.445 34.925,9.313 35.471,9.917 35.665 C 10.283 35.783,10.745 35.953,10.942 36.043 C 11.140 36.133,11.397 36.147,11.513 36.075 C 11.650 35.990,11.447 35.863,10.936 35.714 C 10.502 35.588,9.662 35.188,9.070 34.825 C 8.016 34.180,7.423 33.959,7.863 34.375 M16.458 35.717 C 15.988 35.902,15.836 36.172,16.208 36.160 C 16.323 36.156,16.679 36.009,17.000 35.833 C 17.650 35.477,17.271 35.395,16.458 35.717 M12.417 36.167 C 12.351 36.273,12.807 36.333,13.667 36.333 C 14.526 36.333,14.982 36.273,14.917 36.167 C 14.860 36.075,14.298 36.000,13.667 36.000 C 13.036 36.000,12.473 36.075,12.417 36.167 M27.833 37.000 C 27.833 37.107,29.361 37.167,32.083 37.167 C 34.806 37.167,36.333 37.107,36.333 37.000 C 36.333 36.893,34.806 36.833,32.083 36.833 C 29.361 36.833,27.833 36.893,27.833 37.000 M79.836 37.497 C 79.530 37.771,79.145 38.037,78.981 38.089 C 78.818 38.141,78.639 38.326,78.583 38.500 C 78.497 38.771,78.353 38.806,77.575 38.750 C 76.680 38.684,76.311 38.888,77.042 39.044 C 78.011 39.251,78.587 39.015,79.774 37.925 C 80.127 37.601,80.473 37.335,80.542 37.334 C 80.610 37.334,80.667 37.258,80.667 37.167 C 80.667 36.881,80.414 36.981,79.836 37.497 M85.246 38.219 C 84.973 38.413,84.712 38.615,84.667 38.669 C 84.621 38.722,84.321 38.948,84.000 39.170 C 83.679 39.392,83.342 39.633,83.250 39.704 C 83.158 39.775,82.896 39.977,82.667 40.152 C 82.438 40.328,82.303 40.524,82.367 40.589 C 82.432 40.654,82.780 40.473,83.141 40.187 C 83.502 39.901,83.843 39.667,83.899 39.667 C 83.955 39.667,84.131 39.551,84.292 39.411 C 85.563 38.294,85.786 38.195,85.876 38.708 C 85.932 39.030,85.959 39.043,86.069 38.799 C 86.343 38.190,85.812 37.816,85.246 38.219 M72.167 38.333 C 72.167 38.425,72.279 38.500,72.417 38.500 C 72.554 38.500,72.667 38.425,72.667 38.333 C 72.667 38.242,72.554 38.167,72.417 38.167 C 72.279 38.167,72.167 38.242,72.167 38.333 M73.333 38.333 C 73.333 38.425,73.558 38.500,73.833 38.500 C 74.108 38.500,74.333 38.425,74.333 38.333 C 74.333 38.242,74.108 38.167,73.833 38.167 C 73.558 38.167,73.333 38.242,73.333 38.333 M75.042 38.375 C 75.080 38.490,75.211 38.583,75.333 38.583 C 75.456 38.583,75.587 38.490,75.625 38.375 C 75.666 38.251,75.548 38.167,75.333 38.167 C 75.119 38.167,75.000 38.251,75.042 38.375 M98.011 38.789 C 97.874 39.285,97.889 39.460,98.086 39.658 C 98.305 39.876,98.333 39.804,98.333 39.036 C 98.333 38.008,98.245 37.940,98.011 38.789 M70.667 38.662 C 69.430 39.040,67.006 40.651,67.667 40.657 C 67.804 40.658,68.206 40.398,68.560 40.079 C 68.914 39.761,69.289 39.500,69.393 39.499 C 69.498 39.498,69.808 39.376,70.083 39.227 C 70.358 39.079,70.877 38.866,71.237 38.756 C 71.596 38.645,71.821 38.516,71.737 38.469 C 71.652 38.421,71.171 38.509,70.667 38.662 M85.840 39.875 C 85.836 40.219,85.904 40.500,85.990 40.500 C 86.299 40.500,86.344 40.167,86.097 39.712 L 85.847 39.250 85.840 39.875 M81.833 40.861 C 81.833 40.968,81.790 41.012,81.736 40.958 C 81.683 40.905,81.487 41.013,81.302 41.198 L 80.965 41.535 81.357 42.309 C 81.572 42.735,81.842 43.182,81.956 43.302 C 82.070 43.422,82.281 43.927,82.426 44.424 C 82.645 45.176,83.000 45.791,83.000 45.417 C 83.000 45.063,82.585 43.708,82.413 43.500 C 82.299 43.362,82.157 43.090,82.098 42.895 C 82.039 42.699,81.842 42.369,81.662 42.161 C 81.240 41.674,81.248 41.594,81.750 41.265 C 82.171 40.989,82.306 40.667,82.000 40.667 C 81.908 40.667,81.833 40.754,81.833 40.861 M66.568 41.542 C 66.151 42.025,65.500 42.960,65.500 43.077 C 65.500 43.345,65.864 43.107,66.000 42.750 C 66.087 42.521,66.235 42.333,66.329 42.333 C 66.423 42.333,66.500 42.221,66.500 42.083 C 66.500 41.946,66.566 41.833,66.647 41.833 C 66.728 41.833,66.834 41.683,66.882 41.500 C 66.992 41.079,66.964 41.083,66.568 41.542 M97.783 41.732 C 97.715 41.906,97.698 42.087,97.746 42.135 C 97.898 42.287,98.032 42.038,97.968 41.721 C 97.910 41.431,97.901 41.432,97.783 41.732 M74.257 42.656 C 74.218 42.719,74.613 42.862,75.135 42.974 C 75.656 43.085,76.168 43.268,76.271 43.380 C 76.749 43.897,77.160 44.146,77.262 43.980 C 77.431 43.707,76.074 42.833,75.481 42.833 C 75.308 42.833,75.167 42.768,75.167 42.688 C 75.167 42.516,74.360 42.488,74.257 42.656 M86.000 43.490 C 86.000 44.052,86.074 44.500,86.167 44.500 C 86.258 44.500,86.333 44.092,86.333 43.593 C 86.333 43.094,86.258 42.640,86.167 42.583 C 86.063 42.519,86.000 42.859,86.000 43.490 M71.208 43.201 C 70.626 43.499,70.285 43.833,70.563 43.833 C 70.660 43.833,71.699 43.342,72.167 43.076 C 72.882 42.668,72.033 42.778,71.208 43.201 M97.500 43.583 C 97.500 43.721,97.575 43.833,97.667 43.833 C 97.758 43.833,97.833 43.721,97.833 43.583 C 97.833 43.446,97.758 43.333,97.667 43.333 C 97.575 43.333,97.500 43.446,97.500 43.583 M64.923 44.208 C 64.797 44.506,64.732 44.787,64.778 44.833 C 64.908 44.964,65.333 44.302,65.333 43.968 C 65.333 43.513,65.177 43.605,64.923 44.208 M97.333 44.343 C 97.333 44.532,97.155 45.006,96.936 45.397 C 96.718 45.788,96.484 46.440,96.417 46.846 C 96.350 47.251,96.220 47.677,96.127 47.792 C 96.014 47.932,96.014 48.000,96.128 48.000 C 96.327 48.000,96.500 47.606,96.500 47.153 C 96.500 46.977,96.566 46.833,96.647 46.833 C 96.728 46.833,96.835 46.665,96.884 46.458 C 97.066 45.690,97.445 44.834,97.554 44.943 C 97.616 45.005,97.667 44.818,97.667 44.528 C 97.667 44.237,97.592 44.000,97.500 44.000 C 97.408 44.000,97.333 44.154,97.333 44.343 M77.333 44.325 C 77.333 44.412,77.436 44.543,77.560 44.617 C 77.685 44.690,77.991 45.125,78.240 45.583 C 78.660 46.358,78.684 46.376,78.575 45.841 C 78.378 44.870,77.333 43.594,77.333 44.325 M69.314 45.125 C 68.834 45.997,68.597 46.937,68.822 47.076 C 68.902 47.126,69.056 46.795,69.165 46.342 C 69.273 45.889,69.543 45.308,69.764 45.051 C 70.214 44.528,70.266 44.333,69.958 44.334 C 69.844 44.334,69.554 44.690,69.314 45.125 M64.613 45.234 C 64.513 45.494,64.630 45.668,64.903 45.664 C 65.002 45.663,64.971 45.589,64.833 45.500 C 64.667 45.392,64.653 45.338,64.792 45.336 C 64.906 45.334,65.000 45.258,65.000 45.167 C 65.000 44.917,64.715 44.966,64.613 45.234 M86.000 45.667 C 86.000 45.992,86.177 46.101,86.377 45.900 C 86.511 45.767,86.336 45.333,86.149 45.333 C 86.067 45.333,86.000 45.483,86.000 45.667 M82.918 47.329 C 82.804 47.689,82.923 48.000,83.177 48.000 C 83.379 48.000,83.381 47.216,83.179 47.091 C 83.094 47.038,82.976 47.146,82.918 47.329 M78.669 47.625 C 78.671 47.959,78.712 48.019,78.820 47.848 C 78.902 47.719,78.931 47.513,78.883 47.390 C 78.748 47.038,78.666 47.127,78.669 47.625 M86.167 47.417 C 86.167 47.569,86.247 47.668,86.346 47.635 C 86.444 47.602,86.525 47.504,86.525 47.417 C 86.525 47.330,86.444 47.231,86.346 47.199 C 86.247 47.166,86.167 47.264,86.167 47.417 M86.503 48.431 C 86.505 49.131,86.734 49.655,86.944 49.444 C 87.016 49.373,86.997 49.263,86.904 49.199 C 86.810 49.136,86.717 48.825,86.695 48.509 C 86.641 47.701,86.499 47.644,86.503 48.431 M64.500 48.333 C 64.500 48.644,64.544 48.689,64.700 48.533 C 64.856 48.378,64.856 48.289,64.700 48.133 C 64.544 47.978,64.500 48.022,64.500 48.333 M68.784 48.112 C 68.643 48.339,68.973 49.500,69.178 49.500 C 69.270 49.500,69.292 49.304,69.228 49.042 C 69.032 48.233,68.891 47.938,68.784 48.112 M96.052 48.396 C 96.101 48.523,96.056 48.710,95.954 48.813 C 95.821 48.945,95.820 49.000,95.949 49.000 C 96.125 49.000,96.333 48.632,96.333 48.320 C 96.333 48.236,96.250 48.167,96.149 48.167 C 96.047 48.167,96.004 48.270,96.052 48.396 M78.601 48.597 C 78.546 48.742,78.500 49.009,78.500 49.190 C 78.500 49.371,78.434 49.479,78.352 49.428 C 78.271 49.378,78.167 49.467,78.121 49.627 C 78.075 49.786,77.981 50.067,77.911 50.250 C 77.788 50.574,77.794 50.573,78.122 50.237 C 78.464 49.887,78.627 49.510,78.764 48.751 C 78.849 48.283,78.756 48.194,78.601 48.597 M95.833 49.403 C 95.833 49.533,95.782 49.777,95.719 49.945 C 95.618 50.213,95.638 50.223,95.885 50.021 C 96.190 49.774,96.271 49.167,96.000 49.167 C 95.908 49.167,95.833 49.273,95.833 49.403 M64.618 49.833 C 64.666 50.017,64.772 50.167,64.853 50.167 C 64.934 50.167,65.000 50.017,65.000 49.833 C 65.000 49.650,64.895 49.500,64.766 49.500 C 64.613 49.500,64.562 49.617,64.618 49.833 M69.333 49.857 C 69.333 50.288,70.046 51.142,70.869 51.698 C 71.747 52.291,72.801 52.685,72.587 52.340 C 72.529 52.245,72.372 52.167,72.240 52.167 C 72.108 52.167,72.000 52.099,72.000 52.016 C 72.000 51.934,71.771 51.786,71.491 51.688 C 70.940 51.497,70.000 50.692,70.000 50.413 C 70.000 50.318,69.850 50.112,69.667 49.955 C 69.479 49.794,69.333 49.751,69.333 49.857 M64.785 50.667 C 64.833 50.850,64.938 51.000,65.019 51.000 C 65.100 51.000,65.167 50.850,65.167 50.667 C 65.167 50.483,65.061 50.333,64.932 50.333 C 64.780 50.333,64.728 50.450,64.785 50.667 M82.443 50.701 C 82.332 51.123,82.401 51.248,82.656 51.090 C 82.869 50.958,82.895 50.333,82.686 50.333 C 82.605 50.333,82.496 50.499,82.443 50.701 M95.715 50.667 C 95.763 50.850,95.734 51.000,95.651 51.000 C 95.568 51.000,95.500 51.084,95.500 51.187 C 95.500 51.316,95.577 51.310,95.750 51.167 C 96.041 50.925,96.086 50.333,95.814 50.333 C 95.710 50.333,95.666 50.480,95.715 50.667 M86.833 50.929 C 86.833 51.164,86.950 51.473,87.092 51.615 C 87.325 51.849,87.338 51.828,87.230 51.398 C 87.165 51.137,87.111 50.828,87.111 50.711 C 87.111 50.595,87.049 50.500,86.972 50.500 C 86.896 50.500,86.833 50.693,86.833 50.929 M77.294 50.897 C 77.135 51.018,77.047 51.158,77.098 51.210 C 77.150 51.261,77.036 51.352,76.846 51.413 C 76.494 51.524,76.363 51.833,76.667 51.833 C 76.758 51.833,76.833 51.758,76.833 51.667 C 76.833 51.575,76.934 51.500,77.058 51.500 C 77.181 51.500,77.406 51.363,77.558 51.195 C 78.026 50.677,77.849 50.476,77.294 50.897 M65.167 51.428 C 65.167 51.636,65.562 52.258,65.774 52.383 C 65.898 52.457,66.000 52.632,66.000 52.772 C 66.000 52.995,67.544 54.627,68.424 55.333 C 68.795 55.631,69.699 56.063,69.875 56.026 C 69.944 56.012,70.000 56.060,70.000 56.133 C 70.000 56.280,70.787 56.579,71.625 56.750 C 72.535 56.935,72.236 56.737,70.770 56.184 C 70.001 55.894,69.213 55.527,69.018 55.370 C 68.823 55.212,68.466 54.933,68.225 54.750 C 67.232 53.996,66.314 52.943,65.840 52.012 C 65.546 51.436,65.167 51.107,65.167 51.428 M82.068 51.750 C 82.011 51.979,81.909 52.167,81.842 52.167 C 81.775 52.167,81.628 52.370,81.515 52.618 C 81.402 52.866,81.165 53.170,80.988 53.294 C 80.811 53.418,80.667 53.627,80.667 53.759 C 80.667 54.149,80.906 54.037,81.223 53.500 C 81.386 53.225,81.584 53.000,81.663 53.000 C 81.743 53.000,81.894 52.737,82.000 52.417 C 82.106 52.096,82.254 51.833,82.328 51.833 C 82.403 51.833,82.508 51.721,82.560 51.583 C 82.618 51.432,82.561 51.333,82.415 51.333 C 82.282 51.333,82.126 51.521,82.068 51.750 M36.167 52.155 C 36.167 52.769,35.818 53.123,35.078 53.262 C 34.329 53.402,34.323 53.687,35.071 53.592 C 35.778 53.501,36.363 53.151,36.259 52.881 C 36.216 52.769,36.253 52.633,36.341 52.579 C 36.552 52.448,36.546 51.667,36.333 51.667 C 36.242 51.667,36.167 51.886,36.167 52.155 M76.086 51.829 C 76.031 51.918,75.689 52.080,75.326 52.188 C 74.964 52.297,74.667 52.453,74.667 52.534 C 74.667 52.736,75.200 52.630,75.470 52.375 C 75.591 52.260,75.835 52.167,76.012 52.167 C 76.189 52.167,76.333 52.054,76.333 51.917 C 76.333 51.630,76.231 51.594,76.086 51.829 M87.000 52.250 C 87.000 52.387,87.075 52.500,87.167 52.500 C 87.258 52.500,87.333 52.387,87.333 52.250 C 87.333 52.112,87.258 52.000,87.167 52.000 C 87.075 52.000,87.000 52.112,87.000 52.250 M95.213 52.992 C 95.260 53.171,95.212 53.353,95.107 53.396 C 95.002 53.439,95.048 53.480,95.208 53.487 C 95.412 53.496,95.500 53.374,95.500 53.083 C 95.500 52.854,95.416 52.667,95.314 52.667 C 95.211 52.667,95.166 52.813,95.213 52.992 M43.375 53.115 C 43.535 53.157,43.667 53.266,43.667 53.357 C 43.667 53.448,43.817 53.475,44.000 53.417 C 44.191 53.356,44.333 53.387,44.333 53.489 C 44.333 53.587,44.483 53.667,44.667 53.667 C 45.312 53.667,44.990 53.359,44.158 53.180 C 43.347 53.006,42.778 52.959,43.375 53.115 M33.667 53.662 C 33.667 53.736,33.322 53.847,32.901 53.910 C 32.141 54.024,32.041 54.185,32.671 54.281 C 32.852 54.309,33.000 54.257,33.000 54.166 C 33.000 54.075,33.056 54.014,33.125 54.032 C 33.362 54.092,34.357 53.801,34.257 53.702 C 34.099 53.544,33.667 53.515,33.667 53.662 M87.500 54.245 C 87.500 54.704,87.554 54.802,87.764 54.722 C 87.909 54.666,87.963 54.574,87.884 54.518 C 87.805 54.462,87.751 54.248,87.764 54.042 C 87.777 53.835,87.723 53.667,87.644 53.667 C 87.565 53.667,87.500 53.927,87.500 54.245 M94.986 53.958 C 94.953 54.672,94.787 55.301,94.461 55.957 C 94.267 56.346,94.154 56.710,94.210 56.766 C 94.397 56.953,94.640 56.667,94.756 56.123 C 94.820 55.826,94.945 55.493,95.034 55.382 C 95.123 55.272,95.150 55.108,95.095 55.019 C 95.040 54.929,95.071 54.809,95.164 54.752 C 95.383 54.616,95.385 53.667,95.167 53.667 C 95.075 53.667,94.994 53.798,94.986 53.958 M47.417 54.333 C 47.360 54.425,47.468 54.500,47.657 54.500 C 47.846 54.500,48.000 54.425,48.000 54.333 C 48.000 54.242,47.892 54.167,47.760 54.167 C 47.628 54.167,47.473 54.242,47.417 54.333 M79.396 54.817 C 79.109 55.078,78.772 55.328,78.646 55.373 C 78.520 55.418,78.463 55.505,78.520 55.567 C 78.643 55.700,79.500 55.337,79.500 55.151 C 79.500 55.080,79.643 54.977,79.818 54.922 C 80.181 54.806,80.427 54.331,80.120 54.338 C 80.008 54.341,79.682 54.557,79.396 54.817 M87.667 55.333 C 87.667 55.517,87.742 55.667,87.833 55.667 C 87.925 55.667,88.000 55.517,88.000 55.333 C 88.000 55.150,87.925 55.000,87.833 55.000 C 87.742 55.000,87.667 55.150,87.667 55.333 M77.833 55.751 C 77.041 56.172,75.926 56.583,75.714 56.534 C 75.596 56.507,75.500 56.564,75.500 56.659 C 75.500 56.755,75.556 56.833,75.625 56.832 C 75.791 56.831,77.017 56.508,77.333 56.382 C 77.471 56.328,77.688 56.262,77.817 56.236 C 78.050 56.189,78.326 55.861,78.331 55.625 C 78.334 55.478,78.362 55.471,77.833 55.751 M88.069 56.167 C 88.120 56.396,88.163 56.640,88.164 56.708 C 88.166 56.777,88.598 56.820,89.125 56.803 C 90.021 56.775,90.034 56.769,89.326 56.712 C 88.723 56.664,88.507 56.559,88.271 56.201 L 87.975 55.750 88.069 56.167 M31.500 56.700 C 31.500 56.774,32.119 56.825,32.875 56.814 C 34.417 56.792,34.313 56.714,32.625 56.626 C 32.006 56.594,31.500 56.627,31.500 56.700 M44.458 56.790 C 45.123 56.822,46.210 56.822,46.875 56.790 C 47.540 56.759,46.996 56.733,45.667 56.733 C 44.337 56.733,43.794 56.759,44.458 56.790 " stroke="none" fill="#70b6e7" fill-rule="evenodd"></path></g></svg>