<svg xmlns="http://www.w3.org/2000/svg" viewBox="0 0 2000 2000"><defs><style>.cls-1{fill:none;stroke:#95ce33;stroke-miterlimit:10;stroke-width:50px;}</style></defs><g id="Layer_3" data-name="Layer 3"><path class="cls-1" d="M981.25531,1466.36169a164.60832,164.60832,0,0,1-53.10638-2.0426c-19.62159-4.188-44.32276-9.4602-62.29786-30.63818-11.41259-13.44617-15.84484-28.27442-18.383-36.766-4.35028-14.55408-6.889-23.04749-4.08508-32.68091,2.79266-9.59485,8.71875-12.87659,41.87231-36.76587,16.06848-11.57837,20.9516-15.3291,35.74469-25.532,29.92175-20.63721,36.6474-23.70972,44.67139-22.71643,7.94714.98376,14.00512,6.87964,25.79669,18.63134,49.0993,48.93311,53.55389,54.96033,58.21283,62.29786,13.3562,21.03527,20.0343,31.553,18.38293,45.95739-2.6853,23.4231-24.87109,38.08057-33.70215,43.91492C1015.97,1462.172,998.114,1464.327,981.25531,1466.36169Z"/><path class="cls-1" d="M856.65955,1280.48938c-2.00782-23.92517,24.627-43.02771,57.19152-66.38306,12.47492-8.947,36.91242-21.28369,85.78724-45.95739a476.32839,476.32839,0,0,1,77.61706-30.63831c10.63587-3.14575,20.18762-6.64673,32.4624-4.8573,17.68421,2.578,29.12159,13.5426,43.11206,27.32544,17.54432,17.28394,26.43189,32.53088,42.89356,61.27661,19.75232,34.49182,19.427,41.98255,18.38293,46.97864-1.93884,9.27746-12.21252,18.22607-32.68078,35.74475-20.76429,17.77209-22.70349,16.75989-40.85108,32.68079-17.13073,15.0288-19.05713,19.13671-31.65954,27.57446-15.02222,10.05786-25.33936,16.96557-36.766,15.31921-12.22315-1.76111-13.2837-14.20385-34.72339-43.91491-11.01563-15.26526-19.91675-27.41419-34.72339-38.80848-14.23-10.95044-27.10938-20.86157-42.73145-19.17163-8.88287.96094-12.6886,5.02747-43.85418,27.662-10.04859,7.298-18.23767,13.11-23.25544,16.65064C883.19611,1316.86609,858.49054,1302.30786,856.65955,1280.48938Z"/><path class="cls-1" d="M1074.19153,1384.65955c-.656,10.96045,11.79895,19.69445,14.29785,21.44677,23.97754,16.81421,59.73743,2.20044,77.61694-5.10632,41.35645-16.901,65.95642-45.16931,79.65967-61.27661,16.89819-19.86279,25.56336-36.7312,42.89356-70.468,13.28308-25.85828,21.4696-42.09839,16.34045-46.97876-7.74817-7.37244-41.102,15.72522-58.21277,27.57446-22.50842,15.58716-28.01025,22.91346-68.55835,56.841-24.56433,20.55346-36.84643,30.8302-43.59143,35.28186C1099.36536,1365.25305,1075.08386,1369.75061,1074.19153,1384.65955Z"/><path class="cls-1" d="M1124.79309,1137.38708c-1.46887-12.80859,28.5343-18.03991,66.84522-48.8977,15.86071-12.77515,37.42175-30.14172,55.14892-59.234,12.32837-20.2323,17.59473-37.58942,38.80847-55.149,13.93506-11.5346,22.741-13.21521,28.59583-13.27661,19.37842-.20324,33.06824,17.052,35.74463,20.42554,15.70251,19.79224,13.94214,43.68683,10.21277,85.78729-3.58252,40.44263-5.71021,64.46216-21.44678,92.93616-13.17261,23.83484-28.59143,37.60132-45.95752,53.10632-21.55908,19.24878-53.63355,47.88587-71.48926,38.8086-10.41431-5.29431-5.01794-17.83948-20.42554-45.95752-3.24963-5.93042-12.72107-22.89-29.61706-37.78723C1145.79382,1145.73694,1125.98181,1147.75281,1124.79309,1137.38708Z"/><path class="cls-1" d="M1349.77563,1134.42114c7.20057,3.73181,35.7826-29.35559,53.267-67.37854,13.17237-28.64587,16.21558-51.76318,20.42554-83.74475.52539-3.99078,8.17175-65.74927-8.17029-121.53192-3.50171-11.953-8.951-26.51971-20.42554-29.617a21.65648,21.65648,0,0,0-18.38293,4.08514c-12.21191,9.70728-3.52734,26.48523-8.17029,57.19147-4.90564,32.44372-18.33093,38.38122-15.31909,64.34039,1.48694,12.81616,4.8739,12.35693,9.19153,28.59576,2.81274,10.579,6.55444,30.25287-2.52515,86.10914C1352.28552,1117.87659,1345.38062,1132.14343,1349.77563,1134.42114Z"/><path class="cls-1" d="M838.27661,1390.78723c-6.53784,8.27466-29.495,1.53089-42.89361-5.10632-25.2082-12.48731-36.65851-34.5426-41.87238-44.93628-7.38507-14.72192-15.50958-30.918-9.19147-38.80847,6.91413-8.63489,24.84577.51794,80.68085,13.27661,32.98206,7.53662,54.59454,10.71118,54.57324,16.34106-.02783,7.37085-37.08966,6.15711-44.36047,25.53125C830.05585,1370.82642,844.29779,1383.16638,838.27661,1390.78723Z"/><path class="cls-1" d="M748.40424,1311.12769c-16.15815,11.1062-50.10846-12.00391-59.749-18.56617-26.9682-18.3573-43.74023-39.37768-53.61273-52.92321-15.12488-20.75208-35.75323-53.72974-54.12762-107.234-11.0448-32.16114-36.16376-115.09278-20.42554-122.55323,7.19855-3.41235,19.24371,10.71875,46.9787,39.82984.00006.00012,33.61481,35.28259,100.08508,99.06372,55.231,52.99658,70.11707,57.776,120.51068,110.298,19.14862,19.9574,34.07123,37.06031,43.67261,48.37378-28.26257,4.76-49.48315,1.64563-64.09814-2.41638-18.51136-5.145-37.01929-14.75464-49.34772-6.00256C752.37714,1303.19543,753.81152,1307.411,748.40424,1311.12769Z"/><path class="cls-1" d="M675.90576,1113.70117c-2.23065-4.54651-14.48822-30.62451-6.13983-59.93518,9.007-31.623,36.6629-48.27234,73.53192-70.46814,15.50684-9.33539,25.32361-13.09094,28.59577-14.29785,6.61639-2.44043,36.3283-13.39954,63.31915-8.17023,19.2558,3.73072,34.20556,19.21875,63.31915,50.04254,13.99011,14.81189,41.85944,46.73548,76.59577,101.10645,12.30328,19.25769,21.78241,35.60913,28.08868,46.84314a293.08116,293.08116,0,0,0-51.57806,23.62488,306.12651,306.12651,0,0,0-67.83789,54.18786,366.38127,366.38127,0,0,0-24.64869,28.90918,480.97625,480.97625,0,0,1-61.24762-36.42492c-35.49292-24.87085-27.65667-26.62354-90.35095-80.37427C692.08618,1135.48413,683.04126,1128.245,675.90576,1113.70117Z"/><path class="cls-1" d="M883.21277,979.21277c-.33325-12.437,8.9599-22.81635,39.82977-45.95746,58.01117-43.48712,87.01673-65.23065,126.63837-71.48938,18.36951-2.90167,46.62561-6.99731,77.61694,6.12769,25.37647,10.74707,39.707,27.58544,54.12769,44.93615,20.29931,24.42371,66.37707,79.86353,49.02124,124.59577-4.75574,12.25732-20.87256,24.85241-53.10633,50.0426-23.84289,18.63281-36.82824,28.5813-57.19152,34.72339-23.56922,7.109-31.4375,1.40185-55.14893,6.12756-17.02454,3.39307-40.6936,11.86084-67.08215,34.97644-4.24976-10.8551-10.53943-26.1145-19.00019-43.99792-22.42389-47.3971-33.6358-71.09571-54.85382-94.12744C899.77844,998.80884,883.64423,995.31329,883.21277,979.21277Z"/><path class="cls-1" d="M674.70557,996.58154c-7.11939-6.09979-13.98182-12.50549-21.28-18.39007-20.93091-16.87671-32.76056-60.06641-31.65961-96,.815-26.60041,8.32361-36.42035,1.0213-57.19147-1.69971-4.83472-8.96643-25.50458-23.48938-27.57446-9.94769-1.41779-18.60882,6.55963-22.46808,10.21277-16.28735,15.41742-20.59814,36.893-24.51062,77.617-8.88775,92.51129,1.01734,110.13886,8.17023,119.48938,4.55072,5.94885,7.67267,8.136,24.031,20.87372,21.76916,16.95093,47.8106,37.6604,77.07537,61.84973-4.91644-22.25793-.76928-35.69238,4.08509-43.91492,9.2688-15.70007,25.77441-20.29052,24.51062-30.6383C689.75024,1009.30206,687.44983,1007.50067,674.70557,996.58154Z"/><path class="cls-1" d="M868.91492,967.9787c15.82806-1.98755,26.96734-16.9173,33.70208-28.5957a281.54258,281.54258,0,0,1-30.6383-54.12769c-5.56018-13.00433-7.81189-21.0141-24.51062-78.63831-9.36463-32.31561-14.19495-48.77032-21.44678-63.31915-16.7038-33.51153-31.10443-42.33-35.74469-44.93616-5.47278-3.07367-22.25867-11.48474-42.89361-8.17022-5.82624.93585-16.81141,3.58581-40.85108,23.48938-13.36359,11.06433-36.89563,30.89081-58.21277,65.36169-10.59588,17.1341-19.81506,32.38062-23.21423,54.473-1.03137,6.70331-1.18988,14.25721-1.46472,29.09143-.58863,31.767-.88294,47.65046.7102,54.04639,8.51673,34.19244,41.27436,56.63849,64.81983,72.77222,6.76989,4.63885,12.56317,8.06933,16.34039,10.21277a198.45862,198.45862,0,0,1,50.04254-32.68085C780.09094,955.829,801.16193,946.27271,825,951.63831,846.958,956.58075,852.726,970.01154,868.91492,967.9787Z"/><path class="cls-1" d="M1110.4082,859.05273a132.13985,132.13985,0,0,1,12.80457-29.96765c20.99328-35.95123,46.183-38.95636,46.97876-57.19146.77478-17.75281-22.89966-19.49793-46.97876-57.19147-15.97485-25.00708-10.12818-31.39826-23.93445-46.56885-26.31433-28.91467-68.82507-29.0708-75.12939-29.00561-20.18018.20861-41.70874,10.69226-84.76593,31.65954-27.3324,13.30988-42.06965,20.594-60.25531,34.72339a244.92579,244.92579,0,0,0-45.54712,46.359c9.03064,29.57727,14.7387,53.68658,18.18438,69.57587,10.46827,48.27288,13.369,82.07135,36.81623,96.52368a51.79934,51.79934,0,0,0,15.05713,6.09466c18.26806,3.97315,34.48169-4.02508,44.933-9.85241,37.46356-20.88849,46.29041-39.19843,67.40735-51.4242C1033.45605,852.66864,1062.10718,845.1225,1110.4082,859.05273Z"/><path class="cls-1" d="M1356.72485,930.44867a224.52511,224.52511,0,0,0-24.15039-54.38483c-10.22046-16.60949-13.4624-17.90216-29.61706-40.85107-20.48206-29.09619-17.85816-34.13349-33.702-52.08508-12.52307-14.189-23.18262-26.26661-40.85107-30.63831-24.619-6.09149-46.3772,6.853-53.10645,11.234"/><path class="cls-1" d="M1231.61121,753.39026a129.28891,129.28891,0,0,0,11.09094-38.68811c2.748-23.04138-2.895-31.51892,0-59.23407,1.72461-16.50989,2.69458-25.79633,9.19153-35.74469,9.58923-14.68353,29.94677-28.86109,45.95739-24.51062,15.39515,4.18329,16.839,22.79883,36.766,79.65954,21.402,61.06971,28.03259,63.26886,33.702,94.97876a261.71354,261.71354,0,0,1,1.313,82.81659"/><path class="cls-1" d="M1260.23083,609.70862a149.65009,149.65009,0,0,0-1.18823-35.94269c-.80664-5.1701-4.89367-29.54486-21.4469-59.234-11.92346-21.38544-19.83288-26.72781-17.36169-30.6383,5.0249-7.95142,46.77148-.17572,70.46814,26.55319,30.19885,34.06314,17.67285,83.7814,15.94458,90.22818"/><path class="cls-1" d="M1034.41284,639.53027c.89954-10.23785,4.3573-33.18585,21.39563-54.53027,15.064-18.87115,32.91626-26.30914,46.97876-32.68085,17.70911-8.024,43.096-19.52673,71.48938-11.23407,26.52344,7.74652,41.27673,28.563,49.9978,40.868A129.87325,129.87325,0,0,1,1245.8905,633.549"/><path class="cls-1" d="M660.57446,770.87231a190.55269,190.55269,0,0,1,3.06385-56.17016c3.83758-18.33942,9.41485-30.75116,23.48938-75.57446,8.72662-27.79187,9.39715-31.984,7.14892-33.70215-7.73852-5.91382-44.39526,21.81146-68.42554,57.19146-9.31732,13.718-16.42431,30.25171-30.6383,63.31916-16.25867,37.82409-10.68384,32.09991-22.46808,57.19153-12.28717,26.16247-21.3186,38.71106-20.42554,59.234a70.73726,70.73726,0,0,0,6.12769,25.53193"/><path class="cls-1" d="M835.21277,725.93616a116.22711,116.22711,0,0,1-30.63831-39.82978c-25.14264-54.43579,3.85736-108.28369,6.12769-112.34045,9.05139-16.17389,29.23639-31.65692,69.60644-62.62286,2.11621-1.62326,30.264-23.01206,71.32972-44.61115,25.53527-13.43066,39.95306-18.46811,56.17022-15.31915,14.90375,2.89392,25.03668,11.48044,30.63825,16.34042,12.25061,10.62869,15.87634,20.22849,33.70215,56.1702,6.9956,14.1051,13.10669,26.0741,17.83508,35.22131"/><path class="cls-1" d="M1221.25537,474.70212a97.4581,97.4581,0,0,0-24.51074-23.48935c-19.49524-12.97894-38.42786-15.21423-49.02124-16.34043-23.09705-2.45544-40.786,2.26105-51.06384,5.10639a155.68024,155.68024,0,0,0-49.02124,23.48935"/><path class="cls-1" d="M689.17023,610.53192a192.60513,192.60513,0,0,0,29.617-49.0213c8.3136-20.21216,6.73517-26.7832,16.34046-39.82977,5.4646-7.42243,20.74871-25.36164,44.93615-28.59574,7.51538-1.00488,17.00739-2.274,25.53192,3.06382,17.50715,10.96252,16.50824,40.75915,13.27655,56.17022a74.38051,74.38051,0,0,1-7.58075,20.4339"/><path class="cls-1" d="M794.36169,487.97873c7.76148-8.25983,19.26319-20.8212,32.67835-36.76877,16.22845-19.2919,17.80627-22.79413,26.55572-30.6355C875.3811,401.05014,896.65234,394.93259,904.65955,393c7.26-1.75223,32.54272-7.85434,37.78729,1.02127,3.77954,6.39633-5.22821,16.54282-16.34046,34.72342-6.76989,11.07617-13.05334,26.28882-26.55322,56.1702-4.83917,10.71124-8.68762,19.58487-11.234,25.53192"/><path class="cls-1" d="M1047.63831,463.46808a159.50617,159.50617,0,0,1-2.04261-45.95743c1.62732-15.8876,4.754-42.92889,24.45606-64.598,6.71289-7.38309,16.80762-18.48572,28.65039-17.1041,2.963.34567,12.16174,2.18753,27.57446,30.63831a225.95775,225.95775,0,0,1,21.44678,57.1915"/><path class="cls-1" d="M1249.85107,475.72342c-.74487-13.90454-4.114-37.52933-19.60791-60.15115-9.07922-13.256-20.62316-21.80823-43.7113-38.91269-34.141-25.29285-56.3291-32.80088-62.29785-34.72342a172.8929,172.8929,0,0,0-25.53186-6.12766"/><path class="cls-1" d="M931.21277,396.06384a358.60936,358.60936,0,0,1,34.72339-25.53192c22.24591-14.38034,36.506-23.97839,56.17022-29.617,12.15314-3.48487,34.18085-7.77048,63.63092-1.98008"/></g><g id="Layer_4" data-name="Layer 4"><path class="cls-1" d="M863.80853,1419.89368a195.217,195.217,0,0,0,0,36.76587c2.09558,21.781,6.89362,49.02124,6.89362,49.02136,2.49933,14.1897,4.38306,22.71582,0,26.04248-5.29083,4.01562-13.708-4.10278-19.91492,0-6.5935,4.3584-7.15344,20.16821,0,27.57446,6.03845,6.252,13.409,2.20447,22.21277,6.89368,5.20868,2.77429,10.32568,8.29077,16.85107,34.468a585.75716,585.75716,0,0,1,13.02124,73.532h0c-1.59729,12.53345-2.68634,34.04321,9.19153,42.12756,5.35675,4.33924,9.74774,1.80518,33.70209,0,29.35242-2.212,31.14508.96082,54.383-2.29785a242.1079,242.1079,0,0,0,32.17016-6.89355c23.84705-6.78846,35.77063-10.18262,41.36182-19.91492,5.62366-9.78882,4.02453-21.86389,1.53186-34.46814a129.94572,129.94572,0,0,0-6.12769-21.44678c-7.56457-19.53186-4.60058-33.40356-5.36169-65.87231-1.09-46.49317-7.88965-48.85169-7.65955-91.91492a408.86848,408.86848,0,0,1,2.7273-45.08752"/></g></svg>