<svg xmlns="http://www.w3.org/2000/svg" viewBox="0 0 2000 2000"><defs><style>.cls-1{fill:none;stroke:#437f41;stroke-miterlimit:10;stroke-width:60px;}.cls-2{fill:#437f41;}</style></defs><g id="Layer_5" data-name="Layer 5"><path class="cls-1" d="M889.34045,1653.25537c-7.08215,48.32373-10.86889,73.40271-16.34045,73.53186-7.73358.18262-13.20886-49.60986-17.8158-49.1084-4.02563.43824-3.58093,38.8645-2.60974,38.89563.74555.02393,2.29627-22.56445,5.10639-82.21277,0-.00012,10.56573-40.57263,1.53192-88.85107-10.71478-57.262-51.589-70.96387-41.3617-104.17017,4.07837-13.2417,14.09009-22.46521,13.78724-42.89367-.12305-8.30152-.2887-19.475-7.65961-27.57447-13.10767-14.40332-33.07025-1.5802-55.14893-15.31909-8.80536-5.47925-22.99377-18.32373-21.44677-30.6383,3.23986-25.79077,72.54907-25.7854,75.06384-47.48938.81421-7.027-5.54743-14.82691-68.93622-52.08509-51.70117-30.38842-59.98621-32.55676-75.06378-47.48938-23.95227-23.72192-49.677-64.43457-36.766-84.25537,8.75232-13.4364,32.10431-12.42846,35.23407-12.25525,53.73559,2.97327,80.68036,78.32679,96.51062,72,10.27258-4.10559,13.0346-41.47546-3.06385-73.532-21.98986-43.78808-59.78143-39.05249-111.82977-90.38293-25.60193-25.24884-60.013-69.3487-49.0213-85.78723,8.43848-12.62006,42.22321-6.82337,64.34045,3.06384,29.92627,13.37805,48.57062,38.75067,47.48938,39.82977-2.20147,2.19714-108.06207-74.47107-165.44683-193.0213-7.46875-15.42963-60.50846-127.40936-21.44678-163.91486,12.7998-11.96215,37.02948-17.26,56.68085-12.25531,27.67041,7.04688,40.73053,33.11084,44.42547,30.63825,4.78052-3.199-23.34259-42.63721-38.29785-94.9787-10.30182-36.05515-19.40021-67.89825-9.19147-98.04254C609.325,352.17752,689.37494,370.45123,741.25531,297c39.68256-56.18181,24.37207-111.50214,52.08514-117.95744,24.46039-5.69765,62.56226,31.302,76.59571,73.5319,32.38672,97.459-68.75812,206.69782-49.02124,222.12766,15.43359,12.06561,70.75946-59.8292,114.89361-42.89362,25.207,9.67267,43.91223,47.2283,38.29785,78.12766-9.47406,52.14142-82.59472,54.48572-104.17022,124.08514-1.69153,5.45654-10.54761,34.02509,1.53192,44.42554,13.78454,11.86847,43.59509-9.59668,50.55322-1.53192,8.949,10.37225-37.33984,49.38006-58.21277,101.10638C828.14545,866.4,874.059,973.61554,891.383,972.57446c16.61877-.99872,14.65167-102.084,30.6383-102.6383,13.38513-.46418,36.702,69.63836,29.10639,144-5.497,53.81579-22.02326,59.33532-36.766,125.61706-19.89807,89.4596-9.78,169.26477-1.53192,170.04248,7.82672.73792,12.542-69.81921,29.10639-70.468,13.30688-.52112,33.66321,44.097,26.04254,85.78723-5.61786,30.7334-21.10047,30.66687-36.76593,65.87231-23.3913,52.568,7.74292,73.01123-13.78723,142.46814-6.11231,19.71851-11.46466,27.615-17.87238,54.63831C894.75812,1608.11572,894.74072,1616.40747,889.34045,1653.25537Z"/></g><g id="Layer_3" data-name="Layer 3"><path class="cls-1" d="M1036.4043,1685.93616a345.14881,345.14881,0,0,1,38.80847-55.14893c22.13806-26.17883,34.66028-40.98669,55.14892-51.06384,43.56446-21.42676,78.00855.73413,87.82984-16.34046,9.47534-16.47326-12.65088-54.37255-40.85108-63.31909-15.01806-4.76452-30.68042-.97546-30.6383,0,.107,2.48352,103.567,23.145,163.40417-24.51062,46.60962-37.121,61.77552-111.73047,40.85108-130.72339-7.32617-6.6499-24.7284-4.52368-59.234,0-53.28235,6.98536-76.32373,16.43287-79.65955,10.21277-3.56909-6.65527,16.68762-28.88525,42.89356-42.89367,35.77063-19.12122,54.63257-7.96045,110.298-24.51062,32.30908-9.606,49.48218-14.9845,57.19141-30.63831,11.97644-24.31848-15.14563-40.424-10.21277-75.57446,6.01343-42.85083,50.33459-47.52368,55.14892-91.91492,2.08436-19.21973-3.35986-44.75208-20.42553-57.19153-22.61719-16.486-57.82788-4.276-87.82971,6.12769-46.26368,16.04284-63.29432,36.32531-75.57447,28.59582-12.72619-8.01025-13.25537-41.639,0-67.40429,28.9198-56.21332,103.5448-36.29761,138.89356-93.95746,19.04626-31.06769,20.13916-73.97132,4.08508-85.78723-18.60083-13.69037-73.22522,4.78125-104.17017,36.76593-10.09619,10.43542-17.69763,20.1043-26.55322,18.383-13.48706-2.62152-21.45007-30.814-20.42554-53.10638.83069-18.07355,7.92322-39.9748,36.766-71.48932,56.31945-61.53638,98.36816-52.02326,126.6383-104.17023,14.06653-25.94708,21.98206-59.53741,10.21277-69.44684-6.26379-5.27392-18.45349-4.13507-40.85107-2.04254-20.72815,1.93659-25.05787,5.05347-28.59571,2.04254-2.87536-2.44708-10.58447-13.50073,28.59571-83.74466,43.8446-78.60647,58.7456-74.17178,69.44677-110.29788,17.45764-58.93561-3.434-134.09222-44.93615-153.19148-3.20691-1.4758-21.27381-9.79016-34.72339-2.04256-17.18323,9.89835-18.63636,41.29425-20.42554,91.91489-1.30164,36.82794,1.16748,53.45968-10.21277,61.27661-6.0697,4.16919-11.66369,2.798-36.766,0-35.47449-3.95413-53.21167-5.93121-61.27649-4.08511-34.61169,7.92288-51.688,51.39608-53.10644,55.14892-8.03711,21.26444-5.46741,47.14646,0,98.04257,4.14062,38.54462,8.59924,55.84687,0,61.27662-13.02942,8.227-36.827-22.9314-59.234-14.29792-14.89856,5.74048-20.076,25.56433-22.46814,34.72339-8.88928,34.03589,4.7052,58.05243,18.383,104.17023,16.26734,54.84906,23.17786,109.01434,14.29786,112.34045-7.71851,2.89106-18.77234-35.84649-53.10645-44.93615-1.91235-.50629-28.6239-7.17658-44.93616,8.17016-16.99341,15.98755-10.84228,44.71259-8.17016,57.19153,1.45129,6.7774,6.75036,30.02447,26.55322,49.02124,20.37231,19.54315,36.14172,15.44727,51.06372,36.766,4.07068,5.81561,11.78748,16.84052,10.21277,30.63831-2.18848,19.17651-21.62354,37.56854-38.80847,36.76593-25.70349-1.2005-33.417-44.73676-55.14893-42.89362-12.1344,1.02912-21.5,15.60089-24.51062,26.55322-7.73871,28.15235,19.5918,57.56055,30.63831,69.44678,25.08313,26.99,40.20361,24.19641,49.02124,44.93616,7.87121,18.51343,6.55261,45.97681-8.17017,61.27661-18.75427,19.48938-44.96448,4.38745-67.4043,26.55322-8.2666,8.16565-18.74945,24.08374-14.29785,36.76587,5.77845,16.46216,30.58008,9.97815,51.06385,30.63831,13.92565,14.04565,22.50561,37.25793,18.38293,57.19153-2.3075,11.157-15.18677,25.97277-40.85107,55.14892-19.2389,21.87158-22.98206,24.35913-24.51062,32.68091-3.6009,19.60352,12.8153,29.5105,20.42553,55.14893,2.13477,7.192,4.36927,18.292-4.08508,65.36169C1029.61523,1581.03113,1021.827,1610.848,1009.85107,1641c-27.41973,69.035-59.49285,101.61975-46.97876,116.42554,5.93757,7.0249,18.83967,6.41186,26.55323,4.08508C1010.553,1755.13757,1011.36426,1730.29443,1036.4043,1685.93616Z"/></g><g id="Layer_4" data-name="Layer 4"><path class="cls-2" d="M1107.89368,1442.87231c7.46008-25.85437,15.73291-51.47985,24.58874-76.91137,4.44592-12.70923,9.05359-25.36341,13.7207-38.00562,4.77747-12.59826,9.63331-25.17993,14.724-37.66821,5.08643-12.47644,10.3711-24.9231,15.42652-37.20557,2.50171-6.15307,4.89331-12.25952,6.87646-18.40393,1.99073-6.15136,3.70276-12.33764,5.10486-18.67969,1.38184-6.35412,2.56275-12.80444,3.50183-19.22583.42761-3.21215.9209-6.42089,1.17151-9.62939.1438-1.60449.33374-3.20532.46289-4.80847l.28687-4.81018c.75854-12.811-.2063-25.75147-1.07691-39.2273-.86975-13.45483-1.48852-27.201-1.4143-40.87964-.0326-3.42529.06311-6.84057.14856-10.25854l.12768-5.12683.2334-5.11365.2395-5.11352c.08325-1.70789.14234-3.391.28723-5.16248.13452-1.75073.23169-3.50366.39942-5.25317l.52771-5.24793c.81018-6.989,1.95642-13.95068,3.43628-20.82544,1.50109-6.86951,3.33667-13.6463,5.38684-20.27978,4.06567-13.26508,9.16845-25.92078,12.53759-37.9455a78.875,78.875,0,0,0,3.04078-17.59l.05786-1.076-.00391-1.06977c-.00732-.7127.0127-1.42743-.01013-2.13873-.0968-1.41846-.11707-2.84235-.31921-4.25391a59.0306,59.0306,0,0,0-1.56141-8.45929l-.60742-2.10327-.29992-1.053-.35657-1.0982c-.48841-1.48145-1.017-3.00928-1.57019-4.58331-1.10535-3.13294-2.23084-6.39716-3.31043-9.70282-2.1604-6.62049-4.0946-13.438-5.60913-20.33307a198.97977,198.97977,0,0,1-3.50647-20.91541,109.12853,109.12853,0,0,1-.09387-21.98633,139.28906,139.28906,0,0,1,3.743-21.28857c.91-3.4577,1.89124-6.89124,3.0138-10.25879,1.10327-3.36066,2.35217-6.71326,3.583-9.86835l-.564,3.13422a10.83009,10.83009,0,0,1,.65771-3.37683l.10364-.27283.20728-.54565.41833-1.11579.8357-2.25067,1.66088-4.53668,3.28785-9.12427,6.48413-18.32861,12.89318-36.74182,12.85254-36.78436c2.137-6.14655,4.25428-12.19837,6.28809-18.31812,2.009-6.11121,3.93054-12.22845,5.71252-18.39618,1.80359-6.15979,3.481-12.41107,5.30274-18.7373,1.82861-6.31659,3.78113-12.62067,5.93078-18.82007q6.47334-18.58155,13.83667-36.70618a670.02,670.02,0,0,1,33.63013-70.58185c-10.03772,24.01319-19.13464,48.331-27.1145,72.96735-4.03284,12.295-7.75024,24.71185-11.13806,37.1452-1.65125,6.22705-3.25086,12.4259-4.65564,18.69562-1.42005,6.25769-2.72327,12.65649-4.22693,19.064-3.00281,12.81726-6.59058,25.50092-10.34753,37.97-3.75074,12.45227-7.47828,24.91357-11.30664,37.3468q-5.76069,18.64416-11.62293,37.27209l-6.006,18.60065-3.064,9.30389-1.56152,4.6612-.79614,2.341-.40479,1.17755-.20874.59937-.10437.29962a7.44405,7.44405,0,0,0,.44739-2.80512l-.56421,3.13459c-1.12085,3.137-2.13183,6.112-3.07446,9.1499-.943,3.02533-1.74341,6.072-2.48486,9.12457a120.67568,120.67568,0,0,0-2.86963,18.42639,94.73558,94.73558,0,0,0,.39538,18.2508,180.186,180.186,0,0,0,3.38574,18.77539c1.44312,6.21167,3.25122,12.31463,5.3302,18.44073,1.035,3.07044,2.15992,6.13587,3.293,9.33631.56653,1.5924,1.14392,3.23614,1.714,4.9422l.42615,1.29614.4021,1.36621.79663,2.73517a78.90453,78.90453,0,0,1,2.13953,11.32885c.2655,1.91785.33007,3.85651.45092,5.78913.03479.96637.02173,1.93213.03125,2.89844l.00354,1.44921-.06469,1.44a98.63322,98.63322,0,0,1-3.65955,22.06158c-1.91492,6.92731-4.23376,13.46716-6.46973,19.80689-2.24316,6.34753-4.44262,12.545-6.37976,18.74133a217.111,217.111,0,0,0-8.3822,37.5274l-.53674,4.77185c-.17273,1.59168-.27735,3.19263-.42078,4.78882-.15124,1.57483-.23047,3.24817-.32983,4.89392l-.29065,4.94861-.28589,4.94885-.18091,4.94446c-.1095,3.29651-.288,6.59412-.31518,9.88721-.3302,13.191-.0033,26.314.59448,39.68591.26929,6.69995.57153,13.47266.63147,20.40027.08008,3.43994-.0199,6.94373-.06592,10.4242-.05347,1.74585-.16138,3.499-.24084,5.24731l-.13025,2.62341c-.05725.874-.14661,1.7472-.21863,2.62061l-.46008,5.238c-.19239,1.7395-.42859,3.47131-.65357,5.20507-.40185,3.48023-1.04455,6.89527-1.62707,10.32386-1.24695,6.83191-2.72644,13.55957-4.43836,20.27746a195.001,195.001,0,0,1-6.29248,19.959c-2.43164,6.54724-5.222,12.84778-8.04736,19.02514-2.82215,6.19556-5.72986,12.25013-8.63111,18.31519l-8.6123,18.16992q-8.53876,18.18439-16.75586,36.53723c-5.49707,12.23047-10.94409,24.49439-16.23572,36.82837Q1123.12006,1405.501,1107.89368,1442.87231Z"/><path class="cls-2" d="M852.57446,1205.93616c-1.327-43.58354-6.28611-87.22668-16.16665-129.69435-10.57931-42.26-25.48055-83.32466-40.20208-124.30646-8.9812-24.6032-18.0904-49.10547-28.02863-73.28226-6.657-16.41219-14.60886-32.26937-20.11923-49.3351-12.86234-42.71261-25.38712-85.37428-29.93569-130.02777a277.73892,277.73892,0,0,1,10.163-107.36149c4.8313-16.76472,11.81068-32.81958,15.06727-49.66727,2.46-12.25339,2.52051-25.096,1.365-37.58735-1.32165-12.68273-3.09516-27.00972-2.63214-39.86663a152.61816,152.61816,0,0,1,10.82851-52.23736,159.67907,159.67907,0,0,1,11.83087-23.65523,176.15292,176.15292,0,0,0-8.96686,24.62884c-7.34691,25.01439-7.66217,51.25249-2.69317,76.745,1.095,6.35524,2.45994,13.212,3.18977,19.728,3.0285,20.23582.03616,41.59709-5.85466,60.94437-19.78462,61.99958-19.70058,113.96232-4.19064,176.89611,6.10046,24.93326,13.19684,50.65285,20.71049,75.25521,2.59645,8.0781,5.6443,15.73783,9.05989,23.768,6.88141,16.13369,13.58841,32.77126,19.55265,49.32,10.5216,28.9707,20.2665,58.28627,29.276,87.74413,8.90381,29.53165,17.39473,59.5245,22.87582,89.95514a520.05741,520.05741,0,0,1,4.87047,132.03656Z"/></g></svg>