<svg xmlns="http://www.w3.org/2000/svg" viewBox="0 0 2000 2000"><defs><style>.cls-1,.cls-3{fill:none;stroke-miterlimit:10;stroke-width:100px;}.cls-1{stroke:#3a7d2e;}.cls-2{fill:#3a7d2e;}.cls-3{stroke:#79432b;}</style></defs><g id="Layer_6" data-name="Layer 6"><path class="cls-1" d="M985.31045,224.73223c-23.269-1.87869-46.30176-3.53456-75.57447,4.08511a184.3607,184.3607,0,0,0-61.27661,28.59574c-25.8595,18.86727-38.33893,39.24566-61.27661,77.617-5.77191,9.65552-25.37964,43.05243-46.9787,96-5.95178,14.59006-5.79669,17.43045-34.72345,98.04257-13.80737,38.47791-20.71106,57.71686-27.90979,80.42273-21.10864,66.57984-18.60235,70.765-32.03418,109.65375-14.00079,40.53595-30.20355,70.89917-62.60919,131.62561-34.27124,64.22253-41.95441,69.957-59.23407,110.29791-5.26215,12.28491-22.3548,53.321-32.68085,99.06378-23.43261,103.80286-3.02984,192.783,10.21277,249.19153,10.83124,46.137,28.98987,120.35474,83.74469,200.17017,24.69538,35.99817,57.84137,84.31457,118.46808,122.55322,75.55975,47.65723,148.761,51.25037,255.49457,56.48938,83.87756,4.11719,125.81628,6.17578,181.61181-11.55322,102.49769-32.56848,162.78064-103.57373,192-138.89356,60.12049-72.6726,82.98951-144.23156,93.9574-179.74475,5.51673-17.86267,26.05676-86.02307,26.55322-177.70215.17469-32.25256.06421-90.50537-20.42553-161.36169-9.75379-33.73-13.41248-33.26849-46.97864-114.38293-23.83582-57.60059-24.58411-64.10022-65.36169-169.53193-32.5354-84.12127-34.20008-84.5498-61.27662-155.23407-25.53881-66.66973-38.3081-100.00463-45.95752-121.53189-28.65673-80.647-34.39392-107.35778-62.29785-146.04254-14.72131-20.4089-31.56518-43.25873-62.29785-61.27661C1052.40847,230.14957,1017.09267,227.29825,985.31045,224.73223Z"/></g><g id="Layer_5" data-name="Layer 5"><path class="cls-2" d="M987.605,205.47154c14.22426.5212,26.60419-10.59706,28.881-25.979q1.10163-7.44249,2.68054-14.761a226.10625,226.10625,0,0,1,11.35225-36.96182c5.811-14.39084.98027-31.26251-11.3242-39.3916L999.38381,75.29C984.78109,65.6425,965.77042,72.09912,958.689,89.0869a319.3092,319.3092,0,0,0-17.37792,55.49841q-2.60974,12.09263-4.29929,24.44547c-2.51194,18.36259,10.3318,34.96554,27.28065,35.58656Z"/></g><g id="Layer_4" data-name="Layer 4"><path class="cls-3" d="M983.7698,913.17072c-16.76428,1.49041-82.32641,8.3-134.14636,60.97564-43.07934,43.79065-52.24139,94.4563-58.53662,129.26831-3.22052,17.80933-15.13568,92.83545,20.68311,178.56385,18.50506,44.28991,44.79565,107.21374,113.46325,138.50927,8.225,3.74854,87.72376,38.41992,165.85364-2.439,69.65845-36.42859,89.73279-107.53467,100-143.90247,18.90552-66.96582,6.887-123.62817,0-156.09753-4.63367-21.84583-13.623-62.464-41.46338-107.31714-19.59729-31.573-47.11963-75.91394-100-92.68292C1023.18936,909.6662,1001.27078,911.61481,983.7698,913.17072Z"/></g></svg>