<svg xmlns="http://www.w3.org/2000/svg" viewBox="0 0 2000 2000"><defs><style>.cls-1{fill:#63d906;}.cls-2,.cls-3{fill:none;stroke-miterlimit:10;}.cls-2{stroke:#4c9e04;stroke-width:80px;}.cls-3{stroke:#63d906;stroke-width:100px;}</style></defs><g id="Layer_7" data-name="Layer 7"><path class="cls-1" d="M948.39,1289.09c15.91828,19.501,27.89005,41.31017,38.42762,63.9182,7.22407,16.02493,13.13946,30.63525,16.84821,48.51512a95.17044,95.17044,0,0,1,1.64071,26.47232c-1.92,20.21661-11.92094,39.37944-26.0666,53.669,17.57816-17.39651,8.18392-47.76983-16.55867-51.96315,53.83894,6.94737,93.58,49.78683,87.83279,108.38305a111.46874,111.46874,0,0,1-27.48145,62.16706,91.82578,91.82578,0,0,1-19.79068,16.88648c1.33844-8.59167,2.56183-16.63794,3.27484-24.46509,2.59578-29.06333.307-62.84288-19.91446-83.771-7.77989-7.60406-17.95133-11.86883-28.5958-14.11679-1.917-.43126-3.96275-.79234-5.93072-1.08885a34.32616,34.32616,0,0,1-22.18575-13.79756c-8.48223-11.39889-8.51784-28.51115.07645-39.9686,3.061-4.23677,7.41061-7.38054,10.25072-11.69137a44.43014,44.43014,0,0,0,3.04571-5.00454,24.36592,24.36592,0,0,0,2.13231-5.31484c2.28922-10.19305,1.22822-20.27529.953-31.69416-.32556-7.55141-.725-15.39187-.97394-23.344-.66693-24.63387-.65359-49.1434,3.01568-73.79126Z"/><path class="cls-1" d="M1124.234,1518.44678c-22.41607-25.17654-18.30375-64.40859,2.8683-89.64246,33.98578-39.39057,82.511-69.43478,134.30446-77.89562a116.463,116.463,0,0,1,17.55063-1.48316c-5.60461,16.12753-14.14433,30.26674-23.88276,43.85724-23.58386,32.06378-54.2532,57.77555-88.48185,77.00992-20.557,10.60817-31.43418,27.2724-42.35878,48.15408Z"/><path class="cls-1" d="M1019.62024,1077.70667c18.40306,10.66143,37.49166,23.56356,55.271,35.12255a116.58865,116.58865,0,0,0,10.5642,6.34235c.23185.09125.49039.19867.521.13763.03186.004.00769-.03332-.02466-.07287l-.04175-.05225c-.0216-.022-.09594-.07812-.14282-.11365a10.96266,10.96266,0,0,0-4.27952-1.58242c-9.5227-1.70471-17.97347,6.57718-17.32814,15.61123a15.39586,15.39586,0,0,0,.83074,4.23c.1151.38094.2431.68214.02926.54768-7.1383-7.46606-15.1367-15.423-22.84284-22.544-4.77867-4.39492-9.89541-9.04-14.86509-12.85262a19.095,19.095,0,0,0-4.189-2.69238c-.08734-.00915-.11066.03577-.01257.15393,1.98216,1.68935,5.1646,2.47494,7.80606,2.78866,10.10022,1.25418,20.634-5.72985,23.57206-15.26795a22.27019,22.27019,0,0,0,1.11279-5.78767,2.65756,2.65756,0,0,0,.04772-.30725c.01074-.09375.04114-.0708.05469-.11231.01074-.04748.03979-.0133.06567.01489a3.69736,3.69736,0,0,1,.40308.81263c4.93723,11.87776,12.78186,25.12614,21.81557,33.86722a26.66037,26.66037,0,0,0,4.48423,3.55563c1.27063.77466,2.15113.97326,2.14844.78528-.71222-.86693-3.18082-.92716-4.22957-.82829a.37687.37687,0,0,0-.082.01615l-.02869-.03308c-.0155-.02038-.03577-.02014-.038-.03a.39865.39865,0,0,1,.07068-.1051l.1394-.13623c6.60587-5.38515,11.13792-11.90732,18.59412-17.90766a48.30371,48.30371,0,0,1,7.41358-4.94446c19.27929-10.44325,43.34835-1.57389,50.53595,19.33142,4.95171,14.14219-.092,27.93781-3.756,41.4267-4.82408,16.85394-7.97568,33.61921-8.05317,50.56435.41141,13.05589,2.63722,25.8586,5.26077,38.75194a402.88413,402.88413,0,0,0,11.15559,41.01793l.09212.29823c-.02063-.03809.11084.29614-.03467-.04785a27.27126,27.27126,0,0,0-5.30135-8.09442l.13778.16314.55029.65357a123.14981,123.14981,0,0,1,21.10026,35.72985c16.30186,48.6068,3.25855,103.235-24.71533,144.75905a181.76454,181.76454,0,0,1-29.25712,33.82262,381.36961,381.36961,0,0,0,12.67663-41.2594,238.21953,238.21953,0,0,0,6.84764-50.45248c.22428-15.67886-1.21933-31.86128-5.60859-46.85427-2.13587-7.36116-4.54643-13.98027-8.20059-20.09774a83.17321,83.17321,0,0,0-14.81486-17.33633,30.879,30.879,0,0,1-6.19666-9.57065l-.15206-.32879-.29944-.6593-1.19738-2.63867c-4.068-8.71037-7.75152-17.886-11.06974-26.943-7.90094-22.56794-14.01525-46.05278-15.30835-70.10349a204.48148,204.48148,0,0,1,4.19027-46.047c2.47952-12.51538,6.52984-24.76925,9.93652-36.48764-.02672.59-.09064,1.24062-.08793,1.85278.06965,17.97976,17.92042,31.54074,35.26544,27.2734a21.51569,21.51569,0,0,0,8.24045-3.76287c-1.13178.75659-3.69749,3.2723-5.39317,4.81282-5.63423,5.32779-13.36582,11.97677-20.88465,16.08853-15.41188,8.869-33.97759,10.66026-50.28,3.22814-20.129-9.26225-32.10926-26.44284-41.38415-45.10239-5.79946-12.37961-10.02883-24.097-12.31078-37.99536-.80434-5.43748-1.20839-11.57517.152-17.059a25.25105,25.25105,0,0,1,34.62835-17.8021c10.26225,4.54339,16.99023,14.19081,23.38666,22.58106a313.36423,313.36423,0,0,1,18.53528,28.79531,163.18109,163.18109,0,0,1,7.79929,15.12723,20.97061,20.97061,0,0,1,1.90735,7.28511,15.42532,15.42532,0,0,1-24.18325,13.6203c-4.9571-3.66824-8.6997-8.78371-12.4706-13.23011a553.95652,553.95652,0,0,1-38.27854-53.92627Z"/></g><g id="Layer_8" data-name="Layer 8"><path class="cls-2" d="M427.72342,900.57446c22.58881-14.27545,60.87-32.60931,107.234-28.59576,97.80261,8.46637,147.79748,109.12158,157.27661,129.70215a241.89655,241.89655,0,0,1,21.44678,85.78729"/><path class="cls-2" d="M557.2746,875.63531c24.9657,3.09577,120.82074,11.9881,202.36371-51.65661a249.67038,249.67038,0,0,0,56.88095-62.88024,13.49749,13.49749,0,0,1,17.1977-4.928c44.95424,21.58813,92.10651,15.914,114.8575-9.80882,32.9187-37.21875,1.34955-101.25787-6.12762-116.42553-35.19953-71.40338-111.36933-93.34906-127.65961-98.04254-87.61774-25.244-161.97851,11.93121-180.5957,21.944"/><path class="cls-2" d="M1323.38293,1032.31909c-3.08276-27.775-13.82666-89.06116-60.25524-147.06378-63.37087-79.16829-150.521-98.87416-183.36877-103.98966a13.64447,13.64447,0,0,1-10.816-9.1982,71.69735,71.69735,0,0,0-47.85788-46.13129c-37.76416-10.92511-66.83551,14.87518-68.37835,16.29388"/><path class="cls-2" d="M1601.17017,601.34045a294.88654,294.88654,0,0,1-278.363,3.651,13.54923,13.54923,0,0,0-19.28037,8.516c-4.81923,17.76027-15.66359,43.99374-40.39908,65.45-38.9744,33.80755-86.01625,32.83805-108.259,29.95358a13.50312,13.50312,0,0,0-14.66617,9.40673,52.05413,52.05413,0,0,1-14.94715,23.95884c-18.00391,15.99329-47.355,17.59717-72.46887,2.97846"/><path class="cls-2" d="M1320.13586,1039.98474c46.57837,26.60388,99.44336,22.588,128.86414-6.64429,13.48419-13.3978,19.549-29.61385,22.33025-42.27813a13.55771,13.55771,0,0,1,16.74149-10.13547c22.4,5.89579,66.70315,11.82414,109.01334-16.01193,31.84822-20.95314,46.58134-50.52017,53.39208-73.81044a13.5621,13.5621,0,0,1,22.90756-5.42162,60.62135,60.62135,0,0,0,24.80681,15.9129c33.92956,11.50086,61.10766-11.22363,62.29785-12.25531"/><path class="cls-2" d="M1674.1394,1214.10742c8.05494-14.75281,19.37207-41.03992,15.88184-72.51172-6.02563-54.33386-52.07617-87.064-84.76587-110.29785-21.24255-15.098-60.37329-38.4364-117.48889-48.78955"/></g><g id="Layer_3" data-name="Layer 3"><path class="cls-2" d="M1094.32,1105.75q4.23,4.725,8.47,9.29c1.17-2.02,2.62-4.48,4.32-7.29"/><path class="cls-2" d="M933.38,1190.02c5.6659,9.54858,45.55335,77.76318,26.94,95.07-2.874,2.67224-6.01746,3.92517-11.93,4-21.34.27-57.63-21.16993-76.83-32.52991-.04-.02-.07-.04-.11-.06006a338.85021,338.85021,0,0,1-71.63-57.22c-.02-.02-.03-.04-.05-.06006a371.60345,371.60345,0,0,1-49.32-64.26c-1.24646-2.05725-7.35187-12.00867-14.3493-25.82141-3.98871-7.87366-7.19861-14.88074-9.69074-20.61853,14.26874,26.43494,51.10572,85.70593,124.12195,123.0332a285.49282,285.49282,0,0,0,96,29.10633"/></g><g id="Layer_10" data-name="Layer 10"><path class="cls-2" d="M427.72342,900.57446c22.58881-14.27545,60.87-32.60931,107.234-28.59576,97.80261,8.46637,147.79748,109.12158,157.27661,129.70215a241.89655,241.89655,0,0,1,21.44678,85.78729"/><path class="cls-2" d="M557.2746,875.63531c24.9657,3.09577,120.82074,11.9881,202.36371-51.65661a249.67038,249.67038,0,0,0,56.88095-62.88024,13.49749,13.49749,0,0,1,17.1977-4.928c44.95424,21.58813,92.10651,15.914,114.8575-9.80882,32.9187-37.21875,1.34955-101.25787-6.12762-116.42553-35.19953-71.40338-111.36933-93.34906-127.65961-98.04254-87.61774-25.244-161.97851,11.93121-180.5957,21.944"/><path class="cls-2" d="M1323.38293,1032.31909c-3.08276-27.775-13.82666-89.06116-60.25524-147.06378-63.37087-79.16829-150.521-98.87416-183.36877-103.98966a13.64447,13.64447,0,0,1-10.816-9.1982,71.69735,71.69735,0,0,0-47.85788-46.13129c-37.76416-10.92511-66.83551,14.87518-68.37835,16.29388"/><path class="cls-2" d="M1601.17017,601.34045a294.88654,294.88654,0,0,1-278.363,3.651,13.54923,13.54923,0,0,0-19.28037,8.516c-4.81923,17.76027-15.66359,43.99374-40.39908,65.45-38.9744,33.80755-86.01625,32.83805-108.259,29.95358a13.50312,13.50312,0,0,0-14.66617,9.40673,52.05413,52.05413,0,0,1-14.94715,23.95884c-18.00391,15.99329-47.355,17.59717-72.46887,2.97846"/><path class="cls-2" d="M1320.13586,1039.98474c46.57837,26.60388,99.44336,22.588,128.86414-6.64429,13.48419-13.3978,19.549-29.61385,22.33025-42.27813a13.55771,13.55771,0,0,1,16.74149-10.13547c22.4,5.89579,66.70315,11.82414,109.01334-16.01193,31.84822-20.95314,46.58134-50.52017,53.39208-73.81044a13.5621,13.5621,0,0,1,22.90756-5.42162,60.62135,60.62135,0,0,0,24.80681,15.9129c33.92956,11.50086,61.10766-11.22363,62.29785-12.25531"/><path class="cls-2" d="M1674.1394,1214.10742c8.05494-14.75281,19.37207-41.03992,15.88184-72.51172-6.02563-54.33386-52.07617-87.064-84.76587-110.29785-21.24255-15.098-60.37329-38.4364-117.48889-48.78955"/></g><g id="Layer_11" data-name="Layer 11"><path class="cls-3" d="M695.29785,1243.72339a693.72325,693.72325,0,0,1,65.82282,86.34228c25.57989,39.64551,60.11419,93.16907,78.17718,169.48755,8.6593,36.58679,17.957,97.10315,6.12769,173.10633-7.77088,11.30236-16.3147,27.36914-10.72339,39.82983,7.46759,16.64221,36.60571,18.95569,150.12762,13.78723,189.20417-8.61426,182.47223-18.41943,220.58905-9.227,12.73938,3.07227,26.57654,7.32324,38.30457.03552,28.595-17.76867,3.30969-78.44116,4.5957-154.72339,1.81238-107.50634,55.7721-208.73022,124.08521-269.61706a327.79666,327.79666,0,0,1,82.72339-53.61694"/></g><g id="Layer_5" data-name="Layer 5"><path class="cls-2" d="M401.17023,1199.80847c11.66513,15.35718,42.15854,54.35,98.04254,71.48938,71.61542,21.96423,131.69037-8.28808,147.06384-16.34045,23.76129-12.44568,58.91229-30.85706,71.48932-67.40418,16.36359-47.55029-17.534-90.79028-4.08508-100.08508,11.03369-7.62561,36.58587,19.58691,85.78723,51.06372,52.34051,33.48511,102.33795,65.47119,133.90918,51.49085,30.92447-13.6939,41.84724-70.46181,35.37433-137.92859a5.73979,5.73979,0,0,1,9.5672-4.80622c22.16115,20.0161,54.87932,42.79005,98.58758,54.52545,72.52979,19.47376,134.32935-2.45495,167.83826-14.34521a348.96587,348.96587,0,0,0,66.11351-31.65834,5.74041,5.74041,0,0,1,8.385,6.927c-6.31945,16.42826-12.00689,41.4724-3.0091,67.62491,15.234,44.27857,66.62744,74.47973,124.70972,67.90965a5.71349,5.71349,0,0,1,5.74758,3.12719A200.02622,200.02622,0,0,0,1487.80847,1257c17.34986,16.44128,47.27246,44.797,83.74475,44.93616,41.07829.15672,81.63178-35.51346,102.58622-87.82871a5.716,5.716,0,0,1,5.92392-3.54974c15.5382,1.67218,36.426,1.21485,56.93664-8.70664,65.3418-31.60717,68.59106-131.081,69.44678-157.27661,2.11832-64.85117-20.98372-116.09117-37.80256-145.32825a5.73928,5.73928,0,0,1-.7158-3.68979c3.381-23.40667,12.966-113.76077-47.26887-194.13088-35.46773-47.32379-79.53205-70.35684-103.77054-80.67669a5.71442,5.71442,0,0,1-3.22218-3.54959c-6.85989-21.75417-22.11325-58.74252-56.41146-91.43333-61.14016-58.27486-138.167-60.3535-163.72826-59.507a5.73245,5.73245,0,0,1-5.9334-5.44946c-2.094-46.53041-29.29206-82.89838-63.18941-90.27758-20.42959-4.44735-38.70744,2.63318-48.94585,7.92821a5.71971,5.71971,0,0,1-7.12447-1.54682c-23.0164-29.30016-62.41241-69.05612-121.63183-90.12608C1035.13464,247.09215,899.72121,290.26937,801.1717,395.26a5.758,5.758,0,0,1-4.16861,1.81883c-16.34568.08883-63.77817,2.97278-105.79032,38.81476-49.24458,42.01218-56.01776,99.42619-57.02124,117.94394a5.73837,5.73837,0,0,1-4.80268,5.3417c-30.15849,5.01974-90.92525,20.08941-142.43139,70.7569-99.91889,98.292-74.86789,241.90057-70.02059,264.96881a5.70372,5.70372,0,0,1-1.092,4.70552,271.56277,271.56277,0,0,0-47.35552,91.85759c-6.01224,20.68243-18.605,66.0318-6.12766,122.55316C372.8558,1161.55872,395.69873,1192.60522,401.17023,1199.80847Z"/></g><g id="Layer_6" data-name="Layer 6"><path class="cls-2" d="M401.17023,1199.80847c11.66513,15.35718,42.15854,54.35,98.04254,71.48938,71.61542,21.96423,131.69037-8.28808,147.06384-16.34045,34.76819-18.21106,46.67426-29.49634,52.73163-36.54456l.00336-.0039c.00006-.00013,12.17382-13.39441,18.75433-30.85572,18.10034-48.02893-16.08832-91.78943-4.08508-100.08508,11.03369-7.62561,36.58587,19.58691,85.78723,51.06372,52.34051,33.48511,102.33795,65.47119,133.90918,51.49085,30.9245-13.69385,41.84723-70.4618,35.37433-137.92859a5.73984,5.73984,0,0,1,9.5672-4.80628c22.16113,20.01612,54.87933,42.79016,98.58758,54.52551,72.52979,19.47376,134.32935-2.45495,167.83826-14.34521a348.967,348.967,0,0,0,66.11352-31.65833,5.74045,5.74045,0,0,1,8.385,6.927c-6.31945,16.42822-12.00695,41.47241-3.00915,67.62487,15.234,44.27857,66.62744,74.47974,124.70972,67.90967a5.7134,5.7134,0,0,1,5.74755,3.1272A200.02592,200.02592,0,0,0,1487.80847,1257c17.34986,16.44128,47.27246,44.797,83.74475,44.93616,41.07825.15674,81.63184-35.51343,102.58618-87.82874a5.71606,5.71606,0,0,1,5.92395-3.54968c15.53821,1.67212,36.426,1.21484,56.93665-8.70667,65.3418-31.60717,68.59106-131.081,69.44678-157.27661,2.11828-64.85119-20.98377-116.09118-37.80261-145.32824a5.73958,5.73958,0,0,1-.7157-3.68982c3.381-23.40662,12.96594-113.76075-47.26892-194.13086-35.46778-47.32379-79.532-70.35681-103.77051-80.6767a5.7142,5.7142,0,0,1-3.22217-3.54956c-6.86-21.75421-22.11328-58.74255-56.4115-91.43335-61.14014-58.27484-138.167-60.35352-163.72827-59.507a5.73238,5.73238,0,0,1-5.93335-5.44946c-2.094-46.53043-29.29211-82.89838-63.18945-90.27759-20.42957-4.44736-38.7074,2.63318-48.9458,7.92819a5.71972,5.71972,0,0,1-7.12452-1.54681c-23.01635-29.30014-62.41247-69.05612-121.63183-90.12607-111.56751-39.69508-246.981,3.48215-345.53046,108.47281a5.758,5.758,0,0,1-4.16858,1.81882c-16.3457.08883-63.7782,2.97278-105.79034,38.81476-49.24457,42.01217-56.01776,99.4262-57.02124,117.944a5.73835,5.73835,0,0,1-4.80268,5.34167c-30.1585,5.01971-90.92523,20.08942-142.43139,70.7569-99.91889,98.292-74.86789,241.90057-70.0206,264.96881a5.7037,5.7037,0,0,1-1.092,4.7055,271.56292,271.56292,0,0,0-47.35553,91.85761c-6.01224,20.68243-18.605,66.0318-6.12766,122.55316C372.8558,1161.55872,395.69873,1192.60522,401.17023,1199.80847Z"/></g></svg>