<svg xmlns="http://www.w3.org/2000/svg" viewBox="0 0 2000 2000"><defs><style>.cls-1,.cls-3{fill:none;stroke-miterlimit:10;stroke-width:60px;}.cls-1{stroke:#62c45b;}.cls-2{fill:#62c45b;}.cls-3{stroke:#ffecb6;}.cls-4{fill:#ffecb6;}</style></defs><g id="Layer_3" data-name="Layer 3"><path class="cls-1" d="M1457.17017,509.42554a187.32718,187.32718,0,0,0,0-57.1915c-3.15137-20.25806-8.26941-53.158-32.68079-77.617-9.69592-9.71487-10.63721-6.27667-44.93616-30.6383-23.28918-16.54175-34.93384-24.81262-38.80859-30.63831-21.96777-33.02856,12.064-67.8705-6.12756-89.87234-16.32435-19.7435-50.74305-.171-104.17029-22.46808-12.83106-5.35483-20.986-8.75818-30.63831-16.34042-16.12964-12.67043-18.07532-22.5837-32.68078-27.8806-3.15015-1.14246-15.71106-5.49047-28.59583,0-11.3678,4.84408-16.60913,14.62846-20.42554,21.75294-9.18347,17.14368-8.56054,34.63606-8.17016,42.89362.67907,14.3639,3.87341,16.32972,2.0426,22.46808-3.90112,13.07977-21.74719,10.033-51.06384,24.51065-13.38013,6.6076-28.59986,14.35315-38.80854,30.63827a68.06539,68.06539,0,0,0-9.64282,27.5842"/><path class="cls-1" d="M1571.55322,636.06384c-1.60339-12.26117-1.47668-28.10943,8.17017-38.80853,11.22327-12.44745,24.03625-5.39752,36.766-16.34039,14.83643-12.75391,5.651-29.39618,18.38293-73.532,9.08558-31.49564,19.17859-41.79349,22.46814-44.93616,1.08252-1.03418,25.3462-23.7609,40.85108-16.34043,13.50708,6.46433,13.80688,32.66779,14.29785,75.57447.27979,24.45642-1.74011,26.16668,0,42.89361,1.51746,14.58728,3.87048,37.20545,16.34045,57.19147,12.50611,20.04382,25.50635,21.92365,42.89356,36.766,30.07422,25.67243,39.07178,60.93048,46.97876,91.91492,14.77649,57.90356,4.391,108.41339,0,128.68085-8.55579,39.4906-19.91065,52.54241-19.87891,91.91485.02014,25.08069,4.63733,31.61536,0,51.06384-3.55407,14.90546-15.53613,31.92707-39.3551,65.36176-20.85535,29.27466-27.95642,36.1908-38.80859,40.851-14.23572,6.113-28.0586,5.39478-36.76587,4.08521"/><path class="cls-1" d="M1565.42554,1301.93616c-.5387,20.78528-1.99341,50.3833-6.12769,85.78723-4.65271,39.84265-7.8302,67.05334-18.38293,100.08508-10.01563,31.35071-21.65589,51.5387-44.93616,91.91492-38.05579,66.00195-57.73938,99.26965-89.87244,112.34045-32.38757,13.17432-61.27636,12.25525-61.27649,12.25525-12.67981-.40344-16.12316-2.42212-30.6383-2.04248a157.75866,157.75866,0,0,0-51.06384,10.21277c-18.05408,6.86743-18.53736,10.96631-42.89368,24.51062-33.58118,18.67419-53.92346,29.98633-77.61694,26.55322-22.22779-3.2207-21.85474-15.71667-40.85108-16.34045-28.12512-.92359-34.2229,26.29455-69.4469,34.72339-2.67517.64013-37.22577,8.40063-63.31909-10.21277-10.43439-7.44324-20.11963-19.5343-32.68085-71.48938a664.67591,664.67591,0,0,1-16.34045-102.12769"/><path class="cls-1" d="M785.17023,1520.48938c-8.84882,18.8252-29.00678,54.96606-69.44684,83.74463-12.1134,8.62036-39.8039,27.8866-79.65955,34.72339-65.62134,11.25671-87.2669-24.382-142.97873-6.12757-20.94278,6.86206-20.24951,12.67322-57.19149,26.5531-29.39566,11.04456-48.96833,18.39844-73.53193,18.38306-38.39843-.024-39.28552-18.0249-81.70211-22.46814-44.58248-4.67-56.33863,13.882-87.82979,2.0426-16.68675-6.27356-42.34566-22.37024-44.93617-44.93615-3.20032-27.87793,30.11949-54.19336,57.19149-75.57447,28.03034-22.13794,39.83124-22.17907,53.10639-42.89367,11.51425-17.96692,6.208-23.509,20.42553-49.02124,13.45667-24.14685,21.69172-25.4292,32.68085-46.97876,11.38953-22.33472,10.42645-36.41541,14.29785-49.02124,6.94126-22.60169,32.41721-50.20825,116.42554-69.44678"/><path class="cls-1" d="M417.51065,1203.89368a211.90949,211.90949,0,0,1-73.53192,8.17016c-23.90369-1.60632-76.43042-5.13623-108.25533-42.89367-13.13507-15.58362-19.35513-32.97754-26.55319-53.10633-1.01913-2.85-1.09787-3.23767-14.29787-57.19153a544.11018,544.11018,0,0,1-10.21276-55.14892c-2.56321-19.16443-2.02927-22.93555,0-26.55316,7.93376-14.14362,28.95434-8.52338,59.234-16.34046,36.56109-9.43866,61.46386-31.9732,73.53192-42.89361,28.88788-26.14069,26.43017-40.25812,44.93615-49.02124,16.68241-7.89966,45.072-8.925,96,24.51062"/><path class="cls-1" d="M446.10638,727.9787a226.315,226.315,0,0,1-67.40426-36.76593c-45.572-36.17072-64.10166-79.96784-71.48935-98.04254-8.3104-20.3321-20.28586-49.63123-18.383-87.82981,1.4242-28.58947,9.09955-31.59021,14.29789-73.53192,4.52127-36.479,6.90805-55.73608,0-79.65957-8.68891-30.09089-22.7851-35.36557-28.59574-69.44681-2.775-16.276-5.83227-34.20807,4.08511-44.93616,14.70054-15.90224,48.70908-6.02371,69.44681,0,48.35544,14.04587,49.23618,31.25842,91.91489,44.93616,19.54492,6.26379,44.34909,7.58011,93.95743,10.21277,60.59912,3.21591,54.46661-1.73081,77.617,2.04257,60.666,9.88815,103.38214,43.956,124.59577,61.27658a316.48784,316.48784,0,0,1,44.93615,44.93619"/></g><g id="Layer_4" data-name="Layer 4"><path class="cls-2" d="M534.41144,538.55377a300.56158,300.56158,0,0,0-47.65489-82.22291c-23.6389-29.16832-53.15663-54.19928-85.58633-73.54362A341.6178,341.6178,0,0,1,453.12975,401.39,337.48847,337.48847,0,0,1,525.571,445.81767a346.2009,346.2009,0,0,1,60.99637,63.07527l-52.15592,29.66083Z"/><path class="cls-2" d="M1225.06287,482.402a315.13075,315.13075,0,0,0,5.43963-112.08634c-.57549-3.91465-1.34242-9.65314-2.06081-13.48932a349.94054,349.94054,0,0,0-16.02311-60.22491q-4.77594-13.19765-10.56751-26.15463,8.98829,10.96018,17.21546,22.68258a364.42411,364.42411,0,0,1,35.6298,63.00743,357.77788,357.77788,0,0,1,30.15552,131.291l-59.789-5.02577Z"/><path class="cls-2" d="M386.28168,1090.06787a202.6883,202.6883,0,0,0-62.91778-33.04831,226.65017,226.65017,0,0,0-75.38516-10.40255,243.28959,243.28959,0,0,1,163.99489-10.77l-25.692,54.22089Z"/><path class="cls-2" d="M573.48,1470.44006a326.357,326.357,0,0,0-107.81961,20.91933c-8.66014,3.20948-17.73194,7.08883-26.09491,11.07621a352.54792,352.54792,0,0,0-73.11866,46.64946,365.19166,365.19166,0,0,1,110.9063-100.90055,375.66266,375.66266,0,0,1,86.486-36.96491l9.64087,59.22046Z"/><path class="cls-2" d="M1269.46741,1562.91772a348.8437,348.8437,0,0,0-99.28969,37.92369,364.77874,364.77874,0,0,0-86.79478,68.75429,379.91838,379.91838,0,0,1,68.52953-92.553,394.18066,394.18066,0,0,1,96.70532-70.386l20.84962,56.261Z"/><path class="cls-2" d="M1762.16077,971.74072c-10.10142-35.88929-23.95418-71.57153-42.1167-104.43224-9.64969-17.39926-21.21146-34.39855-29.24039-52.89221-19.23441-43.071-27.25413-90.66091-27.336-137.50128,8.59329,44.12591,24.41082,87.63191,50.158,124.53239,7.176,10.497,15.41352,19.59878,23.9523,29.235a468.96248,468.96248,0,0,1,38.31649,48.10006,570.19942,570.19942,0,0,1,42.15743,71.13641l-55.89111,21.8219Z"/></g><g id="Layer_5" data-name="Layer 5"><path class="cls-3" d="M836.23407,589.08508c-.96051,15.63459-28.56689,27.98731-75.57452,49.0213-25.93921,11.60675-36.82233,14.12769-42.89362,26.55317-5.25244,10.74963-4.18249,23.50689-2.04254,49.0213,1.92914,23.0014,4.81268,25.01037,2.04254,32.68084-6.73108,18.63813-26.94318,15.60138-34.72339,32.68085-9.063,19.89557,12.59454,36.681,4.08515,51.06384-7.9198,13.38623-29.06592,2.879-65.36176,12.25531-37.34576,9.64747-38,26.72364-77.617,36.766-19.07477,4.8352-42.86127,10.86474-63.31916,0-26.736-14.19892-32.46045-49.11274-38.8085-87.82984a323.03071,323.03071,0,0,1,6.12766-132.76593c8.919-34.34009,17.62316-67.853,46.97873-100.08508,14.1853-15.57532,41.12252-45.15216,81.70211-51.06387,31.29328-4.55887,47.7052,8.30532,63.31916-4.08509,16.96-13.45859,5.463-34.879,18.383-61.27661,22.89014-46.76816,100.97363-65.33691,118.42584-45.80035,9.97181,11.16272-7.65246,26.03225,2.08478,53.97058C789.0882,479.01474,815.4137,484.9,813.76593,505.34042c-1.2016,14.90616-15.58435,16.525-16.34039,30.63828C796.13263,560.11353,837.43372,569.55768,836.23407,589.08508Z"/><path class="cls-3" d="M449.77206,887.98157c-24.53009,33.39575-35.2004,62.80316-40.43164,83.061-8.3739,32.42774-3.94885,45.81836-14.29788,108.25531-7.10351,42.85645-9.62,39.15161-10.21277,57.19153-.57409,17.4707-1.49218,67.50452,32.68088,110.29785,6.79736,8.51209,23.4642,28.87012,53.10638,40.85108,11.67283,4.718,32.70755,13.22,57.1915,8.17016,26.306-5.42554,29.161-20.83679,49.02124-20.42554,22.16913.45911,23.23676,19.75794,49.0213,24.51075,24.55237,4.52575,54.08344-7.35071,69.44678-26.55323,8.83722-11.04553,6.85675-16.85315,14.29791-20.42553,18.87195-9.05994,38.53974,24.96875,65.3617,20.42553,21.19482-3.59,35.8421-29.39941,40.85107-46.97876,8.52924-29.93359-9.27044-41.67858,0-65.36169,11.18683-28.57874,41.29322-22.173,51.06378-46.97876,10.2696-26.07263-19.81054-41.22278-34.72338-104.17017-8.69776-36.71331-.98151-42.18-12.25531-73.53192-4.64783-12.92541-15.19184-42.24792-40.85108-65.36169-43.16467-38.88263-100.67645-34.5882-114.27814-33.21362"/><path class="cls-3" d="M456.17792,1280.64905c-2.22208,15.79016-3.73941,43.21838,8.31143,72.351,26.98608,65.238,99.71323,85.1145,124.59573,91.91492,28.16809,7.69836,59.70105,16.3164,93.95746,4.08508,28.42829-10.15039,41.74085-28.59253,57.19153-22.46814,14.35089,5.68848,11.72467,25.11,24.51062,55.149,18.74854,44.04761,52.76813,68.94714,67.40424,79.65954,18.73248,13.71058,47.337,34.64673,87.82977,36.76587,26.838,1.40454,46.83917-6.08813,79.65961-18.38293C1032.256,1567.50452,1048.60632,1561.37952,1065,1545c5.76587-5.76086,40.874-40.83887,32.68091-85.78723-.96546-5.29675-6.06885-30.13294-26.55322-46.97876-18.17237-14.94458-30.7638-9.05615-51.06385-24.51062-19.40185-14.77063-15.58313-25.99878-30.6383-40.85108-26.1435-25.79126-58.532-12.52514-98.04254-24.51062-23.39515-7.09692-55.01246-24.78393-85.66571-73.45715"/><path class="cls-3" d="M828.23792,988.0575c41.10363-16.33924,71.50909-15.09443,91.74078-10.88727,30.87964,6.42138,40.10449,20.16943,71.48938,20.42553,30.83844.25165,34.435-12.91986,65.36175-12.25531,4.833.10389,55.043,1.76569,69.44678,30.63825,10.57385,21.19537-9.90454,33.4892-2.0426,59.23407,9.054,29.64831,39.59424,24.4165,71.48938,65.36169,21.837,28.03308,12.25281,36.55945,30.6383,51.06385,27.85193,21.97241,54.66785,6.20947,87.82984,28.5957,15.31262,10.33691,15.95483,17.991,32.68078,38.80859,8.24866,10.26648,60.05176,74.74207,120.51062,81.702,54.55726,6.28052,93.39063-36.89551,97.79554-30.64649,5.34875,7.5879-46.09851,79.4889-128.43384,102.13587-43.40344,11.93848-68.04443,2.66785-91.9148,26.55322-21.423,21.4364-14.93225,42.26831-40.85107,73.53186-19.39917,23.39954-41.75928,34.31482-55.14893,40.85108-10.39843,5.076-75.53247,35.84985-147.06384,10.21276A173.31,173.31,0,0,1,1065,1545"/><path class="cls-3" d="M1207.1377,1158.34c-47.64,5.62951-65.39209,21.55383-72.69092,35.34094-13.63513,25.7561,6.89441,48.42871-10.21277,71.48926-14.77954,19.923-46.91614,25.665-63.31909,28.59582-20.8982,3.734-27.06482.29761-36.766,6.12769-18.87409,11.34277-22.45325,40.52868-22.15723,65.2268"/><path class="cls-3" d="M766.78723,405.25531c18.40637-10.57074,44.88562-25.12131,77.617-40.851,32.74108-15.73441,49.5802-23.82679,69.44683-30.63831,27.12519-9.3002,123.79761-42.44549,175.65955,0,20.66577,16.91351,10.92395,26.76639,42.89368,59.234,27.7594,28.19171,42.40979,28.18256,57.1914,53.10638,17.1991,29,8.18067,47.24918,22.46814,55.14893,18.90564,10.45322,36.60608-20.44431,79.65955-26.55319,36.29858-5.15045,40.48657,14.43289,114.38293,26.55319,39.0907,6.41156,43.33911,1.8205,65.36182,10.21277,37.973,14.47052,60.83569,41.64575,69.44678,53.10638,32.78283,43.63141,34.41821,92.95807,34.72339,108.25531,1.04943,52.601-19.67359,75.488-2.04261,102.12769,13.0774,19.75934,30.50879,16.28,36.766,34.72339,7.08533,20.8844-12.96044,32.14062-24.51062,75.57446-4.39123,16.51324-12.40673,46.65521-2.0426,77.617,7.745,23.13727,16.65735,19.55787,36.766,55.149,18.03809,31.92645,12.65723,37.97626,30.63831,67.40424,18.83862,30.83154,27.219,28.24,32.68091,46.97876,8.81225,30.23315-6.30847,59.946-16.34046,79.65954-11.76855,23.126-25.79516,37.75525-36.766,49.02124a264.47375,264.47375,0,0,1-65.60876,49.01306"/><path class="cls-3" d="M1561.34045,952.65955c-3.47082-2.34137-36.88488-24.09394-73.532-10.21271-4.09558,1.55133-31.81482,12.05084-40.85107,36.76593-4.77027,13.04718-.3523,19.16589-6.12757,24.51062-10.9768,10.15851-30.93322-8.24695-65.36169-6.12763-8.35059.514-37.05969,2.28132-44.93628,18.38294-8.94092,18.27753,19.405,33.67633,16.34045,63.31915-2.77758,26.86707-27.88952,31.88013-42.89355,65.3617-11.05713,24.67407-9.75806,49.48584-6.814,66.86535"/><path class="cls-3" d="M819.89362,597.25531c13.8728,8.03735,33.32647,18.84772,57.19146,30.63831,46.81452,23.12884,58.37268,24.2243,63.31916,24.51062,31.07977,1.79895,36.93432-14.699,65.36169-12.25531,27.50116,2.36407,30.05463,18.495,61.27667,30.6383,25.88123,10.0661,53.33924,6.71076,108.25525,0,46.50366-5.68274,69.75537-8.52411,91.91492-20.42554,12.78552-6.86688,47.81787-26.34692,67.4043-69.44677,19.82714-43.62952,11.25341-83.79618,8.02856-96.38056"/><path class="cls-3" d="M1203.89368,656.48938c17.07788,10.92249,38.23315,28.65051,44.93615,55.14893,7.62366,30.13842-9.84753,46.32409-12.25537,79.65954-3.536,48.95465,28.79175,88.13416,57.19153,122.55322,44.27344,53.65711,97.5863,79.44263,129.30017,91.5102"/></g><g id="Layer_6" data-name="Layer 6"><path class="cls-4" d="M568.65955,1193.68091c-19.76582-6.78478-35.20323-22.93205-44.21045-41.54446-11.29572-23.8808-16.09614-52.12018-4.04865-77.30083,15.30142-31.98746,54.443-44.50192,86.35811-30.72827a59.01889,59.01889,0,0,1,19.09252,12.72246c-3.6831.45126-7.38331.69951-10.96606,1.18844-18.95894,2.43854-39.1066,8.154-51.68034,22.535-11.68947,13.27365-11.56427,32.27383-10.10385,49.65495a231.49877,231.49877,0,0,0,3.21221,24.50817c2.68961,13.36485,7.28333,26.00011,12.34651,38.96449Z"/><path class="cls-4" d="M668.74469,948.57446c-8.29586-.02913-16.41214-.08508-24.56718,1.01435-10.77588,1.41767-19.47,3.85978-28.40579,8.54954-1.16122.5681-2.67769,1.49968-3.74471,2.16425l-.90964.539-.85181.62336c-13.55884,8.99083-21.2249,23.55281-26.33313,38.95426a122.3287,122.3287,0,0,0-6.20664,28.06322,215.90355,215.90355,0,0,0-.78648,24.72443,47.13231,47.13231,0,0,1-10.34062-8.87888c-24.5269-27.35791-21.52882-74.64388,4.02771-100.80329,15.351-16.18391,39.31619-23.60014,60.81225-19.04338,14.79543,3.052,28.986,11.27246,37.306,24.09313Z"/><path class="cls-4" d="M517.59576,644.23407c.23915-26.65817,25.83253-46.70037,51.36545-48.5228,27.82181-2.73616,56.03587,15.19251,64.60156,41.82495,4.14666,12.40746,4.02853,25.60032-1.08328,37.37039a38.6694,38.6694,0,0,1-6.62847,10.17844c-.88392-1.91824-1.56489-3.70791-2.26679-5.42813-7.7596-18.82812-22.79123-36.12658-41.21766-42.73024-21.09278-7.94072-44.3895-3.39373-64.77081,7.30739Z"/><path class="cls-4" d="M826.0213,785.17023c1.43964-16.87177,10.97719-31.75314,23.81626-42.6077a79.081,79.081,0,0,1,48.40515-17.98075c33.631-1.37726,69.76391,20.3587,76.88518,54.46079-3.96674-1.10248-7.52449-2.44646-11.36228-3.62481-20.72482-6.74345-42.684-11.54156-64.36937-10.85878-25.76742.32519-49.89366,9.71592-73.37494,20.61125Z"/><path class="cls-4" d="M1105.85107,811.72339c-27.80871-20.99216-58.03659-38.14062-93.48963-36.69939-29.56907.97866-57.50167,13.21768-82.02125,30.0047-4.00944,2.75017-8.04331,5.69573-12.404,8.73723a66.25092,66.25092,0,0,1,3.45459-15.3877c21.89329-61.53088,103.56072-83.8059,153.63021-41.5818,16.52557,14.07372,28.54818,33.36466,30.83011,54.927Z"/><path class="cls-4" d="M875.04254,423.63831c11.35155-23.19895,41.02445-31.48087,64.8822-23.5411,24.05426,7.45724,43.75483,32.72727,37.24565,58.26462-5.0827-2.20738-10.71861-4.97051-15.60792-7.13766A342.76819,342.76819,0,0,0,927.515,438.12033c-16.93125-5.70973-35.0149-9.7225-52.47244-14.482Z"/><path class="cls-4" d="M971.04254,1218.19153c-23.53608-1.9922-44.17992-20.67876-50.01485-43.36063-7.29877-26.8607,8.57123-54.51741,31.89728-67.29363,19.26737-10.95745,43.86089-12.74178,63.86032-2.95158a50.1906,50.1906,0,0,1,13.49131,9.43556c-4.33825,1.19713-8.31945,2.04162-12.14635,3.15783-23.33836,6.25371-53.50208,21.52993-61.11911,45.57477-3.421,11.91662.79847,26.7769,6.05486,38.95914,2.34049,5.65252,5.23435,10.95062,7.97654,16.47854Z"/><path class="cls-4" d="M1359.12769,719.80853c8.23719-27.27373,32.35049-51.59113,61.4208-55.7142,35.55791-4.91341,63.39008,25.993,71.38291,57.57423a104.20463,104.20463,0,0,1-1.81595,59.23293c-4.36357,12.91387-11.101,25.14671-20.68989,34.90706-.37937-6.54156-.44266-13.03226-.81581-19.51824-1.69-28.80105-6.77308-59.5688-24.26628-82.68568-9.2569-11.70231-18.33322-16.16146-32.60242-14.125-17.64319,2.35522-36.17253,11.90766-52.61336,20.32894Z"/></g></svg>