<svg id="Layer_6" data-name="Layer 6" xmlns="http://www.w3.org/2000/svg" viewBox="0 0 2000 2000"><defs><style>.cls-1{fill:none;stroke:#5a9022;stroke-miterlimit:10;stroke-width:60px;}.cls-2{fill:#5a9022;}</style></defs><path class="cls-1" d="M913.7793,408.65332c-10.81122-6.94559-27.08728-14.79379-46.251-13.61035-31.3385,1.9353-58.6344,27.29669-90.66211,83.00976C727.593,563.76483,728.856,613.92365,699.383,695.29785c-31.07,85.78327-49.78443,77.83667-97.95917,177.6792-34.35785,71.20685-82.19477,170.34912-83.97363,293.12451-.7887,54.43482-3.00654,207.50611,106.21728,310.06348,97.16089,91.23071,260.83014,122.13513,308.56659,66.79236,20.99835-24.34424,10.94611-55.3855,0-145.02124,0-.00012-5.6084-45.926-14.42159-280.56214-1.76908-47.10009,4.23269-151.49218,16.23635-360.27636,4.07977-70.96112,10.15179-168.88086-10.7002-296.96387C919.83069,438.52472,916.30743,420.7319,913.7793,408.65332Z"/><path class="cls-2" d="M921.37335,412.51968c1.9164-29.705,16.52241-57.76108,50.88815-56.96872,19.78133.49194,38.5656,8.81078,55.76869,17.77683,64.15843,34.68641,108.08886,75.97612,149.06574,135.90285,8.46938,12.43425,16.78406,25.22167,24.22091,38.23732,25.67489,43.46979,42.69246,93.60141,68.09763,135.98653,2.63964,4.557,7.97566,13.3344,10.83183,17.72947a447.03048,447.03048,0,0,0,36.09522,49.93612c20.96,24.76784,44.43316,47.49158,65.42108,72.72841,46.275,54.103,87.1992,113.06259,119.49161,176.64069a729.86711,729.86711,0,0,1,62.24487,170.14023c2.73052,12.37963,5.514,26.654,7.62731,39.14785,2.058,12.8405,3.77828,26.61669,5.13506,39.58876,11.25679,115.62421.20649,231.11486-64.29193,330.987-43.80457,67.551-118.65005,140.7277-197.83828,162.25708a173.43658,173.43658,0,0,1-30.29469,5.32935c-4.12906.387-8.33555.43089-12.49255.54458l-6.29529-.19175-3.1449-.1095c-1.04907-.07935-2.09912-.20081-3.14819-.30164l-6.29-.65588c-3.54551-.47982-7.38921-1.27438-10.93166-1.88972a158.16778,158.16778,0,0,1-30.896-10.29547c-29.71321-13.07531-60.02515-39.98285-53.30092-76.11873,4.3351-22.05527,20.208-38.29975,34.34-53.50044,13.96812-14.62989,26.86075-27.65448,38.49308-43.3004,1.44119-2.11023,4.21979-6.04871,5.65349-8.13362,1.30342-2.18873,3.81716-6.28765,5.11364-8.4519,10.08463-18.218,16.47956-39.02416,20.7622-59.689,7.10159-35.98047,10.20813-72.73066,13.69721-109.30611,5.96247-61.06388,10.14314-122.33391,7.78269-183.6488a992.488,992.488,0,0,0-12.01462-123.618c-1.36152-7.69945-3.33721-18.9254-4.69908-26.63979-1.50266-7.80188-5.04134-23.9559-6.65511-31.78829-1.41268-6.41231-3.61424-14.69066-5.13459-21.04277-3.65743-15.82891-8.49126-31.39281-12.84962-47.05182a996.54313,996.54313,0,0,0-43.67215-116.9044l5.42649-2.55981a972.98969,972.98969,0,0,1,66.38958,173.76473c3.55247,12.167,7.82721,30.26372,10.81116,42.57874,1.89614,8.96725,4.40018,20.66556,6.2828,29.56511,5.58449,29.36644,10.18089,60.09708,13.273,89.754,9.29749,87.578,4.26376,175.70631-2.04543,263.27357-2.26951,29.47914-4.93111,59.825-11.74282,88.65819-12.30569,52.34954-34.85351,79.10835-69.99316,117.48825-8.5612,9.84162-17.22995,18.95222-22.48885,30.47249-6.48216,13.93234,3.712,25.51684,15.54058,33.31825,11.31653,7.4378,25.09162,12.69809,38.50026,15.42547l1.12415.22548,1.13062.16223c2.18464.348,4.58761.70148,6.77452.97089,2.69995.19024,6.47745.57471,9.15675.50645,14.52284.319,29.076-2.663,42.84459-7.17457,47.70961-16.83752,87.30374-51.12612,120.80515-88.39539,27.41407-30.76188,50.51943-65.38777,66.737-103.31,33.45787-77.23286,36.33858-161.91377,26.08058-244.51293-1.47538-13.568-3.80527-27.72637-6.333-41.11224-3.18968-16.75707-7.28742-34.26316-11.95991-50.6636-15.98332-57.08266-39.83629-111.89842-68.45949-163.7484-28.96986-52.34342-63.14795-101.8035-100.78029-148.36271-20.15139-25.56183-43.12829-49.42284-63.29963-75.398-16.59287-21.36912-30.68687-44.10334-43.67757-67.65814-28.40909-50.4424-42.51713-104.96169-68.0253-155.60055-5.2-10.53316-11.73-22.10868-17.52836-32.33085-24.33494-42.27963-54.49363-81.80509-92.58622-112.56718-10.888-8.91155-22.28961-17.79108-33.83356-25.72052-19.05436-12.72478-49.7797-31.47486-70.43552-14.68377-10.16681,8.472-15.43564,22.21651-18.53782,35.21585l-5.93107-.90713Z"/><path class="cls-1" d="M932.23407,1542.9574c23.376,13.87024,56.30872,37.57324,82.79132,76.29065,36.40649,53.226,33.77881,95.58142,63.4082,108.01953,17.50367,7.34778,48.447,5.171,106.56665-45.75122"/><path class="cls-1" d="M691.21277,1540.91492a157.27979,157.27979,0,0,0,22.46808,69.44677c15.15747,24.57764,33.04638,37.6554,54.27081,53.17151,24.67957,18.042,52.78943,38.5918,92.71045,45.68946,43.98071,7.81945,60.61652-8.09876,81.78473,7.3518,22.02649,16.077,11.82928,39.01648,28.5957,63.31922,35.21155,51.03882,153.91779,56.73742,226.72345,2.04248,24.63831-18.5094,39.32666-40.40943,47.61878-55.36292"/><path class="cls-2" d="M1118.10632,1563.38293c17.57742-92.04451,32.65878-184.59151,37.72256-278.1467,5.76815-99.6577,1.24842-199.66882-9.85985-298.87319-2.05409-19.4593-4.84511-41.15394-6.84413-60.64478,7.09221,15.53854,13.30588,31.46381,18.86339,47.61365,63.83822,185.711,51.79249,415.449-39.882,590.051Z"/><path class="cls-2" d="M694.16687,877.28589c-25.97965,67.789-42.16558,138.07575-47.17874,210.04948-2.05531,28.91757-4.22866,58.66649-3.08411,87.50982a290.14239,290.14239,0,0,0,7.32726,56.22488c6.66294,28.82213,17.3729,56.6554,29.023,83.78141,17.0671,39.365,39.791,76.19171,65.60289,110.46878,7.75792,10.50015,16.34767,21.1388,24.32961,31.4908l-2.53472,3.09458c-3.03711-1.5332-6.01538-3.16443-9.00067-4.80872a289.04558,289.04558,0,0,1-64.201-50.715,331.46978,331.46978,0,0,1-23.583-27.62939c-1.839-2.57007-7.1992-10.01623-9.09577-12.73624-3.70656-5.75178-7.71232-11.77559-11.08308-17.74577-1.0984-1.84547-5.44268-9.78118-6.36643-11.45941-2.57344-5.41019-5.52945-11.11-7.8791-16.59755a271.68667,271.68667,0,0,1-13.57818-39.72924c-6.14675-23.55208-9.02614-48.20559-10.05187-72.461-2.04454-40.84414,3.06259-81.7568,9.31259-121.48034,3.04324-19.78738,6.99729-39.90878,11.778-59.3508a667.78968,667.78968,0,0,1,56.619-149.55522l3.64429,1.64893Z"/></svg>