<svg xmlns="http://www.w3.org/2000/svg" viewBox="0 0 2000 2000"><defs><style>.cls-1,.cls-4{fill:none;stroke-miterlimit:10;stroke-width:60px;}.cls-1{stroke:#ff0101;}.cls-2{fill:#ff0101;}.cls-3{fill:#379a03;}.cls-4{stroke:#379a03;}</style></defs><g id="Layer_3" data-name="Layer 3"><path class="cls-1" d="M765.76593,1083.38293c-28.50446-6.598-26.37506-8.51831-64.34039-18.38293-38.9549-10.12183-58.43231-15.18274-77.617-15.31909-12.78387-.09094-47.76648.08069-82.72345,20.42541-36.16961,21.05054-52.42,52.12122-68.4255,82.72351-8.80866,16.84205-26.6428,51.79139-30.63831,101.10633-4.38641,54.13952,10.36975,95.18371,19.40427,119.48938,5.13449,13.81335,15.35827,40.74951,36.766,70.46814,50.16171,69.63549,118.98623,95.21277,132.766,100.08508,68.622,24.26379,127.12066,14.15015,143.1441,10.95386,84.36658-16.829,134.04187-69.85706,152.00482-89.59217,13.66474-15.01281,42.465-47.33422,59.23407-99.06384,15.465-47.70666,12.59034-86.91162,10.21271-115.4043-3.04034-36.43481-5.284-63.32177-24.42181-88.95434-19.31037-25.86365-49.43183-41.89295-51.15265-42.79028a174.17087,174.17087,0,0,0-18.38294-8.17029c-23.68212-9.15344-42.5849-11.42261-56.17022-13.27649C840.91394,1097.06531,801.12,1091.56641,765.76593,1083.38293Z"/><path class="cls-2" d="M535.3332,1259.49989l-.01212-.0023a30.018,30.018,0,0,1-22.573-39.84764,210.85219,210.85219,0,0,1,13.29137-29.20437c7.37207-13.38867,15.72607-28.56054,32.0708-42.84375,23.57031-20.59765,53.7583-31.33593,89.72461-31.917a151.13918,151.13918,0,0,1,38.78829,4.48038,29.97938,29.97938,0,0,1,19.26385,42.99872l0,.00006a29.93893,29.93893,0,0,1-33.73029,15.221,90.61284,90.61284,0,0,0-23.35258-2.708c-7.97315.1289-32.23487.52051-51.21241,17.10449-8.37353,7.31738-12.82715,15.40625-18.9917,26.60156a150.83672,150.83672,0,0,0-9.5609,21.0392A29.93582,29.93582,0,0,1,535.3332,1259.49989Z"/></g><g id="Layer_4" data-name="Layer 4"><path class="cls-1" d="M1369.97928,1111.21657c-29.11913,2.84856-27.71432.34889-66.84211,3.12261-40.14768,2.84594-60.22149,4.2689-78.44552,10.26519-12.14376,3.9956-45.24046,15.32789-71.87177,45.76916-27.55513,31.49732-33.03436,66.13028-38.431,100.24115-2.97007,18.773-8.71169,57.58725,3.24777,105.59662,13.12946,52.70622,40.21829,86.89051,56.5405,107.03929,9.27621,11.45092,27.56533,33.71278,57.34136,55.04055,69.77009,49.97434,143.1587,52.23774,157.77284,52.45528,72.77726,1.08336,124.98476-27.179,139.14893-35.32417,74.5772-42.8856,104.72092-108.9989,115.44238-133.43641,8.156-18.59,25.1288-58.41529,24.50334-112.79143-.57684-50.14737-15.81881-86.38236-27.16944-112.62448-14.51452-33.55694-25.22551-58.32017-51.54584-76.5005-26.55763-18.34423-60.22045-23.917-62.13771-24.2179a174.17316,174.17316,0,0,0-20.02941-1.87312c-25.36514-1.11282-44.003,2.77228-57.46916,5.35311C1445.56245,1100.18865,1406.0957,1107.68344,1369.97928,1111.21657Z"/><path class="cls-2" d="M1207.84078,1351.69012l-.01222.0017a30.018,30.018,0,0,1-34.11445-30.55453,210.85087,210.85087,0,0,1,3.271-31.91953c2.7113-15.0417,5.78378-32.08678,16.71247-50.84109,15.75991-27.0453,40.93912-46.86026,74.8373-58.89463a151.13908,151.13908,0,0,1,38.18853-8.1389,29.97939,29.97939,0,0,1,31.98463,34.59725l0,.00006a29.939,29.939,0,0,1-27.1048,25.19408,90.61244,90.61244,0,0,0-22.99486,4.89c-7.51465,2.66791-30.38139,10.78557-43.07046,32.56085-5.59886,9.608-7.23665,18.69544-9.504,31.273a150.83457,150.83457,0,0,0-2.34282,22.99064A29.93584,29.93584,0,0,1,1207.84078,1351.69012Z"/></g><g id="Layer_5" data-name="Layer 5"><path class="cls-3" d="M838.91891,1010.04545l-.00113-.00144a29.983,29.983,0,0,1,3.60323-40.92363A455.75056,455.75056,0,0,0,907.00928,898.168c38.9414-53.17383,55.86133-100.957,69.45654-139.35156,18.48-52.19336,34.44043-97.26953,29.04395-155.73975A268.95328,268.95328,0,0,0,994.48389,547.96l57.28759-17.835a329.03469,329.03469,0,0,1,13.48438,67.4375c6.60742,71.59033-13.13672,127.35352-32.23145,181.28027-14.11914,39.87647-33.45752,94.48926-77.60791,154.77588a515.75968,515.75968,0,0,1-72.93747,80.261A30.01332,30.01332,0,0,1,838.91891,1010.04545Z"/><path class="cls-3" d="M1363.28,1022.2581a29.99307,29.99307,0,0,1-33.9689-23.04859q-1.96289-8.72893-4.26913-17.34379c-4.56738-17.06006-18.46777-68.97607-81.834-164.833-46.65137-70.57177-91.67188-121.89355-114.35547-146.20459-57.78027-61.92578-111.76856-105.43554-146.88525-131.03124a1000.91622,1000.91622,0,0,0-168.70142-99.17926,30.00269,30.00269,0,0,1-14.99378-39.03951l.00065-.00152A29.99688,29.99688,0,0,1,838.43451,386.152a1060.99512,1060.99512,0,0,1,178.87408,105.15754c37.22559,27.13379,94.40625,73.20215,155.41309,138.58594,23.96094,25.67969,71.48242,79.84033,120.53906,154.05029,68.74805,103.99805,84.54785,163.00977,89.74024,182.40186q2.61608,9.77131,4.84869,19.70127a30.00569,30.00569,0,0,1-24.56848,36.209Z"/></g><g id="Layer_6" data-name="Layer 6"><path class="cls-4" d="M961.85107,394.02127c37.26691,36.22833,73.04261,56.59067,96.95069,67.97141,104.796,49.885,206.33862,34.196,259.47485,25.986a518.40268,518.40268,0,0,0,102.6991-26.92746c15.53807-5.89373,29.57569-12.10453,42.02638-18.18067a22.24564,22.24564,0,0,0,5.72348-35.97368A417.927,417.927,0,0,0,1353,327.63831c-29.5592-13.56855-77.79749-35.10425-144-35.74469-9.49316-.09183-55.65588-.1052-112.34045,19.40426C1033.13525,333.16141,988.55505,368.47513,961.85107,394.02127Z"/></g></svg>