<svg xmlns="http://www.w3.org/2000/svg" xmlns:xlink="http://www.w3.org/1999/xlink" viewBox="0 0 2000 2000"><defs><style>.cls-1{fill:#219b1d;}.cls-2{fill:#f7ede7;}.cls-3,.cls-4{fill:none;stroke-miterlimit:10;}.cls-3{stroke:#219b1d;stroke-width:40px;}.cls-4{stroke-width:60px;stroke:url(#linear-gradient);}</style><linearGradient id="linear-gradient" x1="735.29748" y1="807.79395" x2="735.29748" y2="1716.97167" gradientUnits="userSpaceOnUse"><stop offset="0" stop-color="#028f00"/><stop offset="0.00113" stop-color="#039001"/><stop offset="0.04193" stop-color="#31a12c"/><stop offset="0.08568" stop-color="#5ab153"/><stop offset="0.13492" stop-color="#80bf77"/><stop offset="0.18851" stop-color="#a0cc95"/><stop offset="0.24766" stop-color="#bcd6af"/><stop offset="0.31454" stop-color="#d2dfc4"/><stop offset="0.39257" stop-color="#e3e5d4"/><stop offset="0.48902" stop-color="#eeeadf"/><stop offset="0.62435" stop-color="#f5ece5"/><stop offset="1" stop-color="#f7ede7"/></linearGradient></defs><g id="Layer_4" data-name="Layer 4"><path class="cls-1" d="M1014.0867,844.29678l-42.99789-3.2671,24.7534-325.7635c3.43414-11.45119,14.74728-18.2912,25.44639-16.23255,9.07864,1.74684,16.306,9.62975,17.5515,19.49964Q1026.46334,681.415,1014.0867,844.29678Z"/><path class="cls-1" d="M1067.8888,898.70878l-25.0938-35.06773,203.29246-145.46913c14.19053-10.00679,31.82318-4.484,36.68206,6.01052,4.008,8.65657-.11941,21.89676-11.58827,29.05721Q1169.535,825.97419,1067.8888,898.70878Z"/><path class="cls-1" d="M1027.84849,845.70819l-40.62284-14.46645,102.28982-287.235c5.3092-11.48642,18.78342-16.27572,29.20916-11.39349,9.1569,4.288,14.25089,15.23527,11.41368,25.85994Q1078.99335,702.09071,1027.84849,845.70819Z"/><path class="cls-1" d="M1041.22076,859.59947l-35.83485-23.987,200.42331-299.41341c6.39707-11.198,21.10846-14.43516,31.27-7.4392,9.9906,6.87834,12.34818,21.42152,4.56419,31.42619Q1141.432,709.89279,1041.22076,859.59947Z"/><path class="cls-1" d="M1046.75481,880.04389l-30.97526-30.0004,211.00153-217.85821c10.06307-7.78209,24.14-6.00664,31.21652,2.81841,5.96657,7.44082,6.0615,18.77692-.24126,27.182Q1152.25563,771.11477,1046.75481,880.04389Z"/><path class="cls-1" d="M1057.03615,922.38766,1038.3853,883.5082l278.48963-133.59284c11.48456-3.07736,23.22416,3.04921,26.99851,13.3516,3.28877,8.977-.04228,19.562-8.34766,25.52785Q1196.28092,855.59121,1057.03615,922.38766Z"/></g><g id="Layer_5" data-name="Layer 5"><path class="cls-2" d="M543.25762,1470.69841a211.8946,211.8946,0,0,1,25.47514,13.71592c3.80991,2.37738,8.20691,5.22842,11.7669,7.92313a171.86574,171.86574,0,0,1,31.50883,29.91549,145.592,145.592,0,0,1,9.62728,12.79539c-12.8467,8.09031-29.11926,8.09942-43.02009,2.99232-26.04063-9.4515-45.94483-39.93595-35.35806-67.34225Z"/><path class="cls-2" d="M524.75017,1524.03874a94.6517,94.6517,0,0,1,23.24438.55646c15.18168,2.22984,25.46975,10.49241,33.9709,23.19977a88.42685,88.42685,0,0,1,6.64108,11.47485c-.73587.77212-2.03924,1.84924-2.86083,2.54906-27.338,21.1378-68.14865-3.74516-60.99553-37.78014Z"/><path class="cls-2" d="M675.17864,1147.26823c6.94538,5.11749,14.50963,11.04864,20.89956,16.05131a233.43577,233.43577,0,0,1,19.42529,16.1662c8.08365,7.9388,16.977,15.87234,25.82043,23.5671-6.71212,8.74654-17.59486,12.8597-28.35274,12.81631-10.77762-.01519-21.3842-4.41359-29.55558-11.46645-16.35811-13.91491-22.17707-39.89866-8.237-57.13447Z"/><path class="cls-2" d="M645.21544,1204.53947c1.917-.69079,4.17654-1.41594,6.08564-1.95509,7.64321-2.09666,17.09356-4.75568,23.85522-1.743,8.29859,3.684,13.63686,16.13041,17.33285,24.83369a31.65747,31.65747,0,0,1-6.08239,7.14574c-21.22986,17.87975-49.03-2.34489-41.19132-28.28135Z"/><path class="cls-2" d="M894.15848,1028.56611c14.77689-15.15721,38.92825-17.02653,57.6922-9.30276,18.90456,7.44433,34.89151,25.50048,35.12564,46.64627A134.74,134.74,0,0,1,936.855,1056.343a141.75974,141.75974,0,0,1-42.69651-27.77692Z"/><path class="cls-2" d="M915.83939,988.57942c13.82714-18.55318,41.47483-20.19642,60.7578-9.583,17.05382,8.88606,29.66281,27.58594,27.79465,47.22721a30.30456,30.30456,0,0,1-1.97848,8.60249c-2.93579-1.125-5.42285-2.23413-7.814-3.27075-9.60715-4.22018-19.05389-8.36363-27.99452-12.75058a291.95477,291.95477,0,0,1-26.80382-15.00687c-7.51573-4.67566-16.23423-9.98815-23.96167-15.2185Z"/></g><g id="Layer_6" data-name="Layer 6"><path class="cls-3" d="M990.46142,739.59605c-1.37675,1.4739-19.60071,20.33482-44.94015,15.66281-2.35934-.435-25.01756-4.92148-30.87236-21.13131-4.79448-13.27423-14.1607-31.03255,9.91182-54.50785a14.37539,14.37539,0,0,0,.6564-19.81843c-12.84106-14.40076-22.85192-31.35269-24.84876-50.31553-1.92087-18.24137,5.888-38.11521,20.05279-48.81955a14.56932,14.56932,0,0,0,3.02364-20.49983c-11.47659-14.85063-17.45035-33.90394-12.87221-51.87923,4.89924-19.23582,24.39125-34.21043,43.44382-33.8827a14.44011,14.44011,0,0,0,13.9191-10.46082,44.7563,44.7563,0,0,1,8.20729-14.72394c13.05258-16.137,33.95575-27.29246,54.40622-23.74984,16.10578,2.79,30.1219,16.7639,32.59433,32.33183a14.23857,14.23857,0,0,0,10.62876,11.564,22.69249,22.69249,0,0,1,12.601,8.53346c5.35728,7.37246,6.65122,16.89385,7.07005,25.99762,1.04689,22.75609.03255,38.52957-11.56861,52.74631-19.90339,24.39084-54.62019,20.52985-57.28308,20.19157"/><path class="cls-3" d="M1111.60467,586.91727a43.86355,43.86355,0,0,0,52.73827-3.20618c3.46124-2.89209,6.81826-6.07893,8.86019-10.1007,3.00768-5.92376,2.81572-12.96726,1.65838-19.50925-.74887-4.23288-1.92473-8.5133-4.4905-11.96219q-.03857-.05174-.07747-.10318a14.64438,14.64438,0,0,1,.12791-17.99207,87.33835,87.33835,0,0,0,9.25928-14.07395c5.14936-9.97943,7.78865-21.638,5.22779-32.57175-1.88718-8.05752-6.4297-15.213-11.14277-22.01532a77.13837,77.13837,0,0,0-11.48316-13.21644c-7.26955-6.595-13.91015-12.61944-23.74047-13.59483-7.65538-.75958-14.27843,1.83725-18.04849,3.31546a52.18368,52.18368,0,0,0-10.56225,5.738,137.88311,137.88311,0,0,0-23.55825,20.27434"/><path class="cls-3" d="M1163.314,850.79425A147.3266,147.3266,0,0,0,1183.875,903.669c10.91932,17.16211,24.35747,35.85994,48.695,44.13238a55.847,55.847,0,0,0,72.82028-41.76922,14.54841,14.54841,0,0,1,18.4675-10.95489c16.1578,4.871,33.89213,5.36241,50.975,5.67486,17.17119.31412,36.2842-.08992,48.6831-11.97345,11.163-10.69907,13.05-26.79717,12.21256-42.78154a14.45585,14.45585,0,0,1,13.5386-15.26194,150.06339,150.06339,0,0,0,42.68916-8.7371c4.21617-1.53042,8.48348-3.3286,11.65257-6.50278,3.23885-3.24411,5.03557-7.62876,6.56349-11.95077,8.435-23.85986,10.86045-51.09354.093-73.99556-8.36293-17.78765-26.19446-31.67613-45.21536-34.00261a14.43034,14.43034,0,0,1-12.754-13.08879c-.90942-11.77667-10.23116-23.63949-22.30712-26.16822-13.21391-2.767-26.75287,3.5345-35.8516,13.74392a14.28175,14.28175,0,0,1-16.58093,3.53636c-31.52508-14.54641-51.18667,9.5991-56.50421,13.67358-5.07978,3.89231-18.72691,17.86023-6.63121,70.497"/><path class="cls-3" d="M1239.29508,733.07112c-23.10547-27.04795-32.76173-50.95945-37.10387-64.87341-5.157-16.52513-5.3135-26.81727-.67877-35.08764,3.473-6.1973,9.52264-10.47692,15.57869-14.19069,10.05719-6.16736,21.03871-11.47423,32.80358-12.35222a38.69366,38.69366,0,0,1,21.40805,4.468,14.46,14.46,0,0,0,18.8421-4.24055q6.81786-9.61152,13.70968-19.17031c11.372-15.77269,27.63238-33.35125,46.57572-28.96385,10.54339,2.44192,17.44263,10.70455,22.22676,20.73614a14.426,14.426,0,0,0,20.9336,5.77619c22.10306-14.50167,36.14138-4.5066,43.15659.1033,6.86309,4.51,9.97288,20.48307-6.75851,71.01333"/><path class="cls-3" d="M1182.6856,470.68421c12.892-12.31624,36.68837-31.39971,67.47581-36.29814,7.34481-1.1686,28.23613-3.64944,36.94306,5.76843a26.6345,26.6345,0,0,1,5.93121,10.97812,14.437,14.437,0,0,0,17.48193,9.91173,29.313,29.313,0,0,1,15.85.4927c13.33533,4.315,22.5868,18.68647,25.601,24.53852,13.51361,26.23683,1.96272,55.0123-.49524,60.80317"/></g><g id="Layer_8" data-name="Layer 8"><path class="cls-3" d="M1520.64783,792.60446a102.34968,102.34968,0,0,0,57.14939,10.28242c6.33965-.71045,12.87148-2.13575,17.8717-6.09729,7.44132-5.89556,9.94616-16.39273,8.66238-25.79926a47.27836,47.27836,0,0,0-1.65332-7.40168,6.07667,6.07667,0,0,1,7.798-7.55878c7.29113,2.61739,15.50027,3.60212,23.258,3.90826,15.28847.60332,31.088-.52147,44.8626-7.18185,21.50952-10.40039,35.431-34.71793,33.50917-58.53251-1.61679-20.03437-14.35832-38.622-31.99634-48.07676a6.09166,6.09166,0,0,1-.45922-10.49654c13.59524-8.85567,26.19474-19.35642,34.27866-33.27351,10.04234-17.28868,11.34663-41.02662-1.68611-56.18889-2.77715-3.23094-6.18562-6.11506-7.71326-10.09223-1.52161-3.96151-.92825-8.40533.04605-12.53565,5.28711-22.41344,21.10036-42.588,20.019-65.59118-.77452-16.47558-10.66053-31.7336-24.126-41.25866s-30.13863-13.75826-46.61942-14.4129c-3.90076-.15494-7.96924-.1581-11.4542-1.91736-4.8138-2.43008-7.4381-7.60774-10.581-11.9895-13.45477-18.75808-42.1407-23.18442-61.66024-11.69615a10.38452,10.38452,0,0,1-13.59668-2.652c-7.77526-10.23387-23.02622-17.03208-35.76279-13.137-9.20166,2.814-3.72,39.37548-41.845,27.54229-31.70838-9.84161-13.2749,58.49933-7.19751,79.9859,1.86914,6.60834-7.80288,11.17039-14.60692,12.10249-11.23745,1.53943-46.8801-13.088-53.08525-3.2045-8.2073,13.07254-10.49339,28.8851-12.596,44.1766-1.30646,9.50133-2.56,19.49726.9465,28.424s13.54227,16.06633,22.59574,12.90138"/><path class="cls-3" d="M1485.10119,696.65417c12.49223,9.13122,30.66169,8.53431,43.66363.14479s20.85726-23.50327,22.32819-38.90688c.41717-4.36862.32418-8.96762-1.66672-12.87851q-.08418-.16536-.17387-.32848a13.07639,13.07639,0,0,1,3.01116-16.29372q7.20628-6.1138,13.80594-12.898c4.71339-4.84653,9.47673-10.78,8.86426-17.51275-.61024-6.70809-12.47467-8.464-12.14569-15.19178,1.40637-28.757-16.44214-23.30164-36.45374-11.02619-1.41394.86737-3.38257-.114-4.85674-.87476a11.36212,11.36212,0,0,1-3.66523-3.756c-6.16775-8.55214-3.05173-26.41844-13.37-24.24738-5.20949,1.09613-22.23559,21.43585-26.02807,17.69983-23.56031-23.20984-42.53345-1.05939-35.468,37.23645"/><path class="cls-3" d="M1284.35962,440.97672c.754-17.46354,5.04346-41.002-20.33765-50.45795-22.52551-8.39209,12.11219-49.74579,27.95679-40.53049,2.9303,1.70429-22.89321,26.48647-20.3807,24.21081l14.96172-13.55125c4.35762-3.94682,8.91519-8.0093,14.54625-9.69969a22.9449,22.9449,0,0,1,12.58981-.00555,17.99075,17.99075,0,0,0,22.12257-14.5973c1.90436-11.8051,6.00575-23.05205,13.44052-32.33058a55.43519,55.43519,0,0,1,24.6974-17.51582c11.07982-3.90065,23.774-4.04551,34.276,1.21624a33.81907,33.81907,0,0,1,15.02117,15.09368,10.2448,10.2448,0,0,0,15.40868,3.54146l4.29825-3.28212c4.86423-3.71429,9.93488-7.52722,15.90917-8.85552,10.09666-2.24486,20.24852,3.04691,28.83874,8.808,5.0196,3.36642,9.97947,7.05142,13.455,11.99612,5.43764,7.73626-.40267,19.62864,5.28495,27.183,5.86414,7.78885,33.66333,9.784-8.6803,26.92352"/><path class="cls-3" d="M1305.00524,337.59393q1.21085-19.37532.52012-38.8072c-.16794-4.714-.47654-9.62607-2.82583-13.71642-4.91262-8.55339-16.48756-10.21991-26.33526-9.65669-6.40241.36618-13.043,1.36738-18.31655,5.01634a17.56935,17.56935,0,0,0-4.10581,3.99883,18.07017,18.07017,0,0,1-18.73376,6.51515c-22.84487-5.31034-48.4977,1.07781-65.37058,17.54376-4.00951,3.9128-7.60076,8.411-9.54039,13.66684a30.05951,30.05951,0,0,0-1.09156,15.90116,18.19915,18.19915,0,0,1-8.40234,19.04975,36.60754,36.60754,0,0,0-12.10536,11.79428c-5.70779,8.97866-7.66939,19.95712-7.19934,30.58605.40053,9.05689,2.64,18.3534,8.34314,25.40049s15.39536,11.32237,24.1049,8.80613"/><path class="cls-3" d="M1008.07617,410.31836c-17.25542-13.14863-33.41866-46.3853-38.44043-67.49024s1.25781-51.776,10.74208-71.28716c4.188-8.61552,9.85-16.75321,17.69785-22.24664,11.15759-7.81025,25.043-9.34371,38.92376-9.175a18.30029,18.30029,0,0,0,17.53007-12.22817c4.4848-12.75073,9.85439-25.1773,18.37264-35.56358,11.35093-13.84018,29.73305-23.42928,47.13925-19.25571a35.41456,35.41456,0,0,1,13.65448,6.71867,18.28339,18.28339,0,0,0,24.03454-1.0266,45.47713,45.47713,0,0,1,12.58644-8.62759c12.26247-5.65872,26.18075-6.43031,39.68367-6.18484,13.66993.24852,28.39877,1.8835,38.57474,11.01468,5.68736,5.10343,19.82393,24.823,22.16107,32.09825,9.79517,30.49121,5.24038,68.2507-23.35168,82.67823"/><path class="cls-3" d="M1540.99913,359.76977c23.20956-2.3447,49.39426-6.36028,62.69518-25.52449,4.943-7.122,7.47018-15.62279,9.4068-24.073,1.5142-6.607,2.71568-13.48662,1.36629-20.12923-1.5934-7.84383-7.11478-14.56041-14.1501-18.31452a10.31026,10.31026,0,0,1-3.85688-14.65994c6.11457-9.62989,9.41077-21.387,12.00851-32.67842,2.61249-11.35551,4.84255-23.41229,1.2164-34.48585-3.79125-11.57776-13.6111-20.39626-24.56829-25.72147-9.50707-4.62045-19.90462-6.95982-30.312-8.9624a4.02641,4.02641,0,0,1-3.00058-5.40078c5.34445-13.925,9.89689-28.81961,5.71886-42.94313-4.794-16.2059-19.84907-27.024-34.656-35.17064-9.66016-5.31494-20.06528-10.15152-31.09088-10.20815s-22.77187,5.89419-26.27249,16.34947c-2.19607,6.559-.93006,13.16214,1.38372,19.7734a4.036,4.036,0,0,1-5.97389,4.75312,45.54515,45.54515,0,0,0-9.12553-4.29811c-9.47324-3.25131-19.6867-3.67411-29.6925-3.23-6.60216.293-13.34187.99029-19.32191,3.80338s-11.14022,8.10264-12.22714,14.62131c-.92155,5.52691,1.11462,11.07167,3.11562,16.30541l2.94135,7.6933a4.02789,4.02789,0,0,1-5.18362,5.20807c-14.31677-5.37176-31.55895-2.83067-44.47421,5.77135-15.77059,10.50378-25.39493,28.63983-28.59066,47.31676s-.53593,37.91775,4.24135,56.254c3.15239,12.09955,7.46662,24.37449,16.09341,33.42519s22.54673,14.06838,34.02765,9.11609"/></g><g id="Layer_7" data-name="Layer 7"><path class="cls-2" d="M372.26554,1648.999a148.03649,148.03649,0,0,1-6.05535,45.69034c-3.41054,11.50316-8.0784,27.24723-20.368,42.38745-19.20536,23.66019-36.87928,21.02827-46.24084,43.48839-3.66415,8.791-6.36044,22.15911-1.65145,25.32233,3.506,2.35513,10.08464-1.64012,11.00972-2.20195,8.07523-4.90415,10.80869-13.69521,12.11069-17.065,5.37667-13.91576,16.94557-14.58769,54.91009-38.99464,27.86146-17.91181,23.67365-18.86334,38.14249-25.66668,4.04162-1.90042,10.39537-4.66008,46.7709-16.2601,11.64211-3.71259,21.32821-6.72641,28.07477-8.80782-17.62556-.24494-48.89442-3.22691-81.47193-21.46894A166.85459,166.85459,0,0,1,372.26554,1648.999Z"/></g><g id="Layer_3" data-name="Layer 3"><path class="cls-4" d="M1013.17079,839.71513c-10.46417-3.10427-23.10152-2.00588-48.37613.1909-.00009,0-34.95052,3.03776-65.50512,11.49128C807.86763,876.691,698.23225,995.90737,698.2322,995.90741c-56.54666,61.48828-106.76768,129.86807-151.89628,208.12256-76.82736,133.22122-108.73527,238.824-115.567,262.94935-15.37639,54.29971-25.22131,113.22406-25.80933,116.6903-13.76883,81.1647-14.89843,86.43284-11.93419,91.473,6.50636,11.06276,32.69635,20.8264,104.03251-2.23959,92.14442-29.79414,206.55819-97.20854,365.39954-278.81879,48.44246-55.38634,120.75872-143.96551,179.18721-267.917,21.35384-45.30051,45.23651-104.62539,34.688-174.85445C1073.77342,934.27372,1059.71422,853.5225,1013.17079,839.71513Z"/></g></svg>