<svg id="Layer_3" data-name="Layer 3" xmlns="http://www.w3.org/2000/svg" viewBox="0 0 2000 2000"><defs><style>.cls-1{fill:none;stroke:#6eaf22;stroke-miterlimit:10;stroke-width:40px;}</style></defs><path class="cls-1" d="M238.78723,1596.06384c.07955,7.97827,5.3678,24.4961,13.78723,38.29785,5.0141,8.21949,7.77472,9.98536,9.1915,10.72339,12.8891,6.71424,31.38763-5.75866,41.3617-12.25525,28.34353-18.46142,60.05453-31.2749,88.85107-49.02136q.119-.07325,73.53192-41.36169c76.857-43.22754,87.1257-43.37012,192.19223-98.74207,52.257-27.5404,106.22821-51.97522,157.08435-82.0238,10.89826-6.43933,26.10559-15.62439,48.78314-23.26978,46.48481-15.67163,87.53284-12.45886,110.536-10.43237,31.40992,2.76709,32.08075,7.195,96.51069,18.38293,31.01977,5.38648,57.5249,8.98963,69.28247,10.3772,79.18872,9.34546,149.70007-3.88708,176.72387-9.15234,112.86292-21.98987,220.92847-75.34619,216.632-90.07593-2.1239-7.28162-47.37341-2.30127-137.87244,7.65955-84.118,9.25842-122.18823,16.57519-188.42553,18.383-44.22,1.20691-103.84,2.83411-105.702-7.65954-1.9729-11.11817,78.71277-25.53223,209.87232-73.532,25.9674-9.50317,37.69519-14.38427,67.40417-24.51062,58.90662-20.07836,70.96167-20.71325,96.51074-33.70214,36.82019-18.71912,78.61939-51.37989,73.53186-62.80848-1.35437-3.04248-9.34619-12.02624-140.17016,22.97864-99.59937,26.65-176.04187,53.55042-235.14893,74.298-190.396,66.832-217.9917,75.814-220.59582,70.468-5.29474-10.86938,97.339-71.493,146.29785-98.80847,103.74438-57.88159,186.98523-89.22937,204.51074-95.74475,78.62305-29.22949,139.17908-43.66144,230.5531-65.10632,143.48145-33.67414,222.85217-42.34442,222.12769-49.0213-.81836-7.54151-103.28955-7.65949-211.4043,5.36169-132.391,15.945-190.36792,41.61066-197.61694,26.80853-10.95-22.35919,109.993-104.08636,268.85107-210.6383,117.85107-79.04706,204.88477-114.87751,199.14893-129.44678-4.73157-12.01831-67.64234,1.23834-103.4043,11.48932-68.02612,19.49933-116.08215,50.55713-155.48938,78.12768-123.11572,86.13569-190.51563,158.31458-196.08508,153.19147-8.39856-7.72552,142.25219-174.26538,131.74475-184.5957-9.22278-9.06738-139.58741,105.18323-242.8086,202.9787-136.75061,129.5625-201.34045,207.01288-208.34045,201.44684-17.04639-13.55469,354.12781-482.28888,330.12768-502.46814-12.02368-10.10944-127.74951,88.56042-215.234,209.10638-16.46033,22.681-55.1438,82.5249-132.51062,202.21277-20.41919,31.58893-43.32666,61.67316-61.54273,94.58172-14.75836,26.662-24.98987,48.89649-48.75519,73.929-19.05108,20.06689-36.84027,31.44189-47.48932,38.29785-76.21209,49.066-150.95733,100.37573-226.72345,150.12769-65.90454,43.27636-82.05633,56.33-87.31915,51.31909-11.82263-11.25684,47.65015-98.11682,108.74426-164.19495,40.28382-43.57007,77.59241-74.12439,105.72382-96.99646,89.30353-72.60766,151.05316-104.09533,147.06384-111.82983-4.04443-7.84131-71.72052,16.36255-111.19806,32.68042-44.18408,18.2633-58.95806,29.09241-62.67425,24.76636-8.9928-10.46875,71.87555-80.45868,166.21277-211.40424,11.1134-15.426,31.9508-48.20032,73.62555-113.74878,30.639-48.19092,50.05627-79.82684,59.651-119.86822,6.67627-27.862,7.44226-54.97553,7.87756-70.38184.59815-21.17078.8971-31.7561-2.51587-33.0224-9.4956-3.523-33.52,47.86182-84.25531,133.27655-23.00641,38.73218-40.10358,64.88525-74.29785,117.19153-69.54553,106.38226-77.52393,108.52569-80.42554,107.234-7.68145-3.4195,4.27875-38.00769,19.91492-124.85108,13.00189-72.21252,19.976-110.94684,14.55316-112.5957-11.923-3.62531-77.88544,173.81415-78.12762,228.25531a208.21991,208.21991,0,0,1-5.27338,48.53619,251.81814,251.81814,0,0,1-9.27985,30.35743c-.00006.00012-4.96435,13.21124-11.48931,26.04254-17.94819,35.295-44.42548,66.63812-44.42554,66.63824-51.18982,60.59741-70.06616,127.18262-81.19153,124.08521-26.77582-7.45484,66.1582-397.70777,54.383-400.59577C655.402,789.72589,574.85706,984.77277,563.55316,1125c-.80939,10.04053-2.69964,37.61243-9.19147,38.29785-14.63562,1.54529-36.60388-151.82654-42.89361-150.89361-4.43915.65844.29123,77.84881,8.76452,138.44159,1.11878,8.00048,2.94715,20.31909,4.25678,37.72863,0,.00012,2.94983,39.21363,0,76.59571-3.00226,38.04589-7.52832,95.40307-36.766,144-40.49463,67.30749-120.87091,105.30822-165.44684,126.383C289.34509,1551.12268,238.53625,1570.89087,238.78723,1596.06384Z"/></svg>