<svg xmlns="http://www.w3.org/2000/svg" viewBox="0 0 2000 2000"><defs><style>.cls-1{fill:none;stroke:#6b2f68;stroke-miterlimit:10;stroke-width:80px;}.cls-2{fill:#46842c;}</style></defs><g id="Layer_3" data-name="Layer 3"><path class="cls-1" d="M796.02441,437.561c-52.38379,5.98755-86.52948,38.26184-104.87805,56.09757-48.10235,46.7579-74.09869,109.19656-87.80487,200-21.17584,140.28961,1.70258,250.77777,29.26825,378.04877,36.36829,167.91272,84.18952,281.21789,112.19513,341.4635,44.0213,94.69848,67.03217,142.98681,116.04334,188.9978,118.87451,111.59778,271.8565,112.10535,286.76129,111.93017,155.48559-1.82775,326.92883-95.57971,377.68322-249.70849,32.216-97.83191,4.91529-186.91455-7.31713-226.82922-30.96936-101.05372-89.60425-161.71521-192.68287-265.8537-136.52551-137.92914-204.61059-162.90412-269.76184-259.26545C1000.72021,631.37469,973.31482,590.84113,957,535.122c-2.29059-7.82288-5.54938-19.99481-14.63416-34.14633C913.47375,455.97,851.51251,431.2186,796.02441,437.561Z"/></g><g id="Layer_4" data-name="Layer 4"><path class="cls-2" d="M552.122,842.439c-7.74359,18.2135-21.05152,28.95892-34.63324,39.67334-13.73969,10.839-39.52857,27.98748-78.84888,36.88964,37.25537-41.947,55.20032-80.68219,64.70163-108.27032,31.72543-92.11841.941-151.79883,46.34146-246.34143,9.61176-20.01575,25.85474-48.292,30.16663-55.79831,28.12042-48.95294,42.357-65.9368,62.51629-97.86023,71.30848-112.9212,109.756-217.07309,109.75611-217.07318,2.96979-9.97382,8.971-24.60945,21.95123-36.58537,45.35407-41.84466,141.46521-19.43583,151.21948,14.63415,2.6662,9.3125-2.51556,14.62016-15.52673,41.548-25.67834,53.1436-38.51746,79.7154-34.50964,100.94,8.11663,42.98377,77.42859,25.21814,123.86224,84.28012,37.18457,47.29755,16.4212,88.43064,65.19849,153.7197a241.74,241.74,0,0,0,43.87036,44.9458c-10.98242,1.60022-28.8324,2.55365-46.30933-5.92145-46.71332-22.65265-31.1532-86.28869-80.48779-146.34143-10.6698-12.98785-46.47412-55.38586-106.88446-70.86291-68.291-17.49607-126.26288,10.11056-144.33508,19.6434A319.23561,319.23561,0,0,0,659.439,442.439C648.55444,452.37152,569.78552,526.28778,554.561,640c-8.74316,65.3028-2.439,134.14624-2.439,134.14636C552.122,791.94458,563.19379,816.39716,552.122,842.439Z"/><path class="cls-2" d="M443.91086,912.92609c92.30685-13.87091,132.83053-47.54773,151.7518-79.69306,27.02661-45.9154,13.3006-84.76086,24.57141-154.78619,6.56165-40.76727,27.80847-95.82636,93.44678-156.25537-20.04993,45.28161-22.03949,83.94561-21.44678,105.70215.55011,20.19195,5.90308,120.47021,68.93616,156.25531,23.29675,13.226,35.56335,6.907,61.27661,24.51062,29.22949,20.01086,44.11432,49.21826,52.08508,70.46814,11.214-25.96985,22.36694-63.84125,12.25531-104.17023-11.69513-46.64447-41.43945-55.10993-59.74469-98.04254-32.2749-75.69684,4.53217-179.92279,41.34363-186.0199,13.21564-2.1889,19.3208,9.44757,103.31018,84.31866,35.3288,31.49335,41.64606,36.02881,49.89941,40.42463,44.894,23.91095,95.332,16.13214,130.21271,6.12762-32.0852-17.46149-78.09631-47.65338-117.9574-98.04254-41.77569-52.80942-34.70575-84.4129-76.59576-124.08508-9.15955-8.6746-68.42249-63.1121-148.59576-56.68085-64.03754,5.13687-105.5802,46.23248-142.46808,82.72339-16.50415,16.32654-66.91547,67.5419-95.60144,149.5617-18.93781,54.14765-22.49024,104.45935-23.88788,126.183-4.15247,64.54059,6.874,81.10748-4.59577,114.89361C532.72009,843.968,509.15112,880.54755,443.91086,912.92609Z"/></g></svg>