<svg xmlns="http://www.w3.org/2000/svg" xmlns:xlink="http://www.w3.org/1999/xlink" viewBox="0 0 2000 2000"><defs><style>.cls-1{fill:url(#linear-gradient);}.cls-2{fill:url(#linear-gradient-2);}.cls-3{fill:url(#linear-gradient-3);}.cls-4{fill:url(#linear-gradient-4);}.cls-5{fill:none;stroke:#edf4d3;stroke-miterlimit:10;stroke-width:60px;}</style><linearGradient id="linear-gradient" x1="871.12322" y1="849.51092" x2="920.1445" y2="391.97901" gradientUnits="userSpaceOnUse"><stop offset="0" stop-color="#edf4d3"/><stop offset="0.30845" stop-color="#edf4d0"/><stop offset="0.49289" stop-color="#eef3c8"/><stop offset="0.64474" stop-color="#eff1ba"/><stop offset="0.77885" stop-color="#f0efa6"/><stop offset="0.90002" stop-color="#f2eb8c"/><stop offset="1" stop-color="#f4e870"/></linearGradient><linearGradient id="linear-gradient-2" x1="1109.95201" y1="875.09972" x2="1158.97328" y2="417.56781" gradientUnits="userSpaceOnUse"><stop offset="0" stop-color="#edf4d3"/><stop offset="0.16889" stop-color="#eef3ca"/><stop offset="0.43924" stop-color="#eff0b3"/><stop offset="0.77521" stop-color="#f2ec8d"/><stop offset="1" stop-color="#f4e870"/></linearGradient><linearGradient id="linear-gradient-3" x1="836.92037" y1="845.84633" x2="885.94165" y2="388.31442" gradientUnits="userSpaceOnUse"><stop offset="0" stop-color="#edf4d3"/><stop offset="1" stop-color="#f4e870"/></linearGradient><linearGradient id="linear-gradient-4" x1="1068.53007" y1="870.66166" x2="1117.55135" y2="413.12974" xlink:href="#linear-gradient-3"/></defs><g id="Layer_3" data-name="Layer 3"><path class="cls-1" d="M817.82275,429.98242l-57.54687-16.97949a459.76065,459.76065,0,0,1,36.311-88.37451c24.26807-44.89551,50.65577-75.73633,81.21045-111.44727,15.99707-18.69629,23.77393-26.00342,29.45215-31.33935,4.47754-4.207,6.33106-5.94873,11.88965-13.66944,1.34473-1.86718,2.61133-3.68261,3.81982-5.41308,4.063-5.81836,7.90088-11.314,12.57666-16.09131,12.08252-12.34473,24.63575-14.05664,33.04444-13.31934,9.38476.82471,22.70117,5.43018,32.8623,22.69141,3.93653,6.68652,6.66407,13.89844,9.07032,20.26123.58105,1.53613,1.15039,3.04443,1.71972,4.481,6.7959,17.15771,13.8418,24.24365,23.59278,34.05127,8.4082,8.457,17.9375,18.042,26.833,33.58642,17.07618,29.84229,23.43848,66.17871,18.91211,108l-59.65234-6.457c3.13769-28.97656-.67774-53.11475-11.33692-71.74414-4.957-8.6626-10.40625-14.14307-17.30468-21.08154-9.98584-10.04395-22.11817-22.24561-32.60987-44.50489a125.37967,125.37967,0,0,1-12.33105,12.93506c-4.93408,4.63672-11.07471,10.40674-24.94483,26.61719-29.49609,34.47363-52.7915,61.7002-74.021,100.97461A399.67664,399.67664,0,0,0,817.82275,429.98242Z"/><path class="cls-2" d="M1305.05664,1181.501l-58.24609-14.40039A868.053,868.053,0,0,0,1264.38379,838.604c-16.31738-118.15722-31.72949-229.75781-99.60449-301.37109-3.06543-3.23389-6.62207-6.79541-10.38868-10.56641-22.58593-22.61621-56.71874-56.79443-75.876-112.68359-3.334-9.7251-5.959-19.29687-8.11328-28.46777-3.28907,5.67822-6.09961,9.99072-8.98145,14.41211-6.04785,9.28027-12.30273,18.87695-26.33887,47.46777-12.68164,25.832-33.9082,69.06689-52.84082,127.47314a856.378,856.378,0,0,0-29.41992,119.8169L893.67285,684.606A916.55577,916.55577,0,0,1,925.16406,556.3667c20.25733-62.4917,42.668-108.13965,56.05762-135.41358,15.64111-31.85888,23.2334-43.5083,29.93164-53.78613,5.8457-8.97021,10.46387-16.05566,21.00195-38.61865q1.73145-3.70605,3.2793-7.08838c4.18066-9.08252,7.48242-16.25635,11.26563-22.34228,12.20312-19.62745,27.84863-21.43213,36.07324-20.76368,9.27441.75489,25.9834,5.8628,33.68164,31.59815,2.39746,8.01562,4.06347,17.72949,5.99414,28.977,2.7832,16.22266,6.24707,36.41162,12.82324,55.59863,14.6582,42.76416,40.67188,68.811,61.57324,89.74024,4.05078,4.05615,7.877,7.88769,11.48047,11.69043,81.12891,85.5957,97.82031,206.46582,115.49317,334.4331A927.79439,927.79439,0,0,1,1305.05664,1181.501Z"/><path class="cls-3" d="M940.16553,1760.793C848.18359,1664.376,772.8623,1555.96,716.293,1438.55469c-63.11768-130.9961-135.05713-339.14258-119.33936-586.8374A888.01473,888.01473,0,0,1,616.688,712.062c16.01367-71.374,40.70068-138.55078,73.37549-199.66406,16.84863-31.51318,36.397-62.47559,53.63232-84.94775,9.6709-12.60889,18.50684-22.40674,26.2627-29.1211,20.10009-17.39941,36.43066-15.7915,46.59033-11.37646,6.79346,2.95068,18.59375,10.72754,21.28467,29.65332.7998,5.62549.71191,11.25.60986,17.76269-.16162,10.37207-.36328,23.27979,3.39746,38.06739,7.022,27.61279,23.61621,44.95751,36.9502,58.894,3.54882,3.70947,6.90087,7.21289,9.89843,10.72412,43.37744,50.814,43.98243,138.26758,1.84815,267.3584L833.499,790.79541c34.13428-104.58057,37.43846-177.12353,9.55616-209.78564-1.89307-2.21778-4.5459-4.99024-7.6177-8.20118-15.27293-15.96338-40.83543-42.68164-51.74607-85.585-.85547-3.36279-1.57618-6.64355-2.1836-9.832a635.73275,635.73275,0,0,0-38.53222,63.2959c-49.81592,93.17383-78.79834,199.09766-86.14209,314.82959-14.89551,234.731,53.50683,432.45654,113.5122,556.99365,53.84375,111.74805,125.58545,214.99317,213.23291,306.86621Z"/><path class="cls-4" d="M1131.60059,1759.14453l-49.41407-34.0332a888.35773,888.35773,0,0,0,51.36328-84.292c30.458-56.89356,84.32129-176.61426,102.85645-339.19629,8.91211-78.17774,18.127-159.00977-5.52148-259.33594-23.74122-100.72656-72.6709-190.91895-74.74219-194.709-7.5625-13.83886-14.53223-25.45361-21.27246-36.68554C1122.208,789.792,1109.11523,767.97266,1092,731.57422q-1.67431-3.55957-3.50586-7.50928c-8.69726-18.69043-20.6084-44.28808-37.5332-70.82861-6.17871-9.688-9.88867-14.59375-13.47656-19.33789a230.78958,230.78958,0,0,1-15.97071-23.564c-2.60449,3.52051-5.28027,7.2251-7.7539,10.65088q-3.48633,4.82959-7.35743,10.14746c-18.05713,24.71533-26.0664,33.72949-32.50195,40.97266-5.687,6.40088-9.79639,11.02588-20.77832,26.88037l-.00488.00781c-.3125.45166-31.501,45.72315-54.1499,92.19239-52.29395,107.29345-63.979,260.36474-64.45118,266.82861-5.59961,76.72851-22.63916,310.22851,112.37744,540.24609a820.4575,820.4575,0,0,0,81.72364,115.15723l-45.75,38.81836a880.486,880.486,0,0,1-87.71778-123.60254c-60.78808-103.55957-99.78662-219.25781-115.91259-343.87988-13.7002-105.877-7.29639-193.63379-4.56153-231.10743.50635-6.93457,13.05664-171.18212,70.35742-288.748,19.03516-39.05518,42.916-76.31446,53.41065-92.13379v-.21045l5.29541-7.646.02441-.03515.01807-.02539c13.05762-18.85352,18.98779-25.52784,25.26611-32.59424,5.87842-6.61621,12.54151-14.11524,28.90772-36.51612q3.77564-5.16723,7.16162-9.87744c9.23584-12.79052,16.53076-22.89355,24.01074-30.67773,13.73291-14.292,28.51221-19.99609,43.91553-16.95459,18.56738,3.66357,26.45019,17.63379,33.40527,29.96,1.45117,2.57324,3.09766,5.49023,5.03028,8.77686a178.66685,178.66685,0,0,0,13.86132,20.74169c4.09766,5.41846,8.74317,11.56055,16.21,23.26954,19.05958,29.88867,31.93848,57.5664,41.34278,77.77587q1.78271,3.83058,3.40527,7.293c15.82422,33.6543,27.57715,53.23975,40.02051,73.9751,7.04687,11.74317,14.333,23.88526,22.47559,38.78662,2.22949,4.0791,54.91015,101.186,80.49121,209.71533,26.04589,110.502,16.22851,196.61329,6.73535,279.89063-19.666,172.51074-77.09278,300.05273-109.57422,360.72559A948.798,948.798,0,0,1,1131.60059,1759.14453Z"/></g><g id="Layer_4" data-name="Layer 4"><path class="cls-5" d="M940.16553,1760.793c2.67633-21.12549,70.1228-27.77271,82.9834-28.87808,37.49194-3.22245,109.79272-2.21137,114.12915,18.87947,3.614,17.577-40.93055,44.45941-79.40577,52.60989-5.87268,1.24407-56.77423,11.24385-98.04254-18.383C950.74255,1778.49748,938.99133,1770.06123,940.16553,1760.793Z"/></g></svg>