<svg xmlns="http://www.w3.org/2000/svg" viewBox="0 0 2000 2000"><defs><style>.cls-1{fill:#69cc40;}.cls-2{fill:none;stroke:#e2f0af;stroke-miterlimit:10;stroke-width:80px;}.cls-3{fill:#e2f0af;}</style></defs><g id="Layer_5" data-name="Layer 5"><path class="cls-1" d="M572.07617,999.07129A1456.099,1456.099,0,0,0,546.40869,845.061,1425.55668,1425.55668,0,0,0,445.78955,549.07275a1397.98457,1397.98457,0,0,0-70.98242-132.10742c-14.95877-25.61789-5.20364-58.27319,19.25671-71.02917,22.39273-11.67771,51.7594-3.88788,66.15052,19.014a1493.37066,1493.37066,0,0,1,76.081,141.59423A1525.69821,1525.69821,0,0,1,644.01709,823.32178a1556.4832,1556.4832,0,0,1,27.439,164.62842Z"/><path class="cls-1" d="M671.18848,988.166a1812.59033,1812.59033,0,0,0-15.24317-198.459c-10.69873-80.5957-29.79-172.479-53.75783-258.72363-17.01463-61.2251-37.13133-122.24561-59.79051-181.36524-1.737-26.25308,15.00019-49.649,38.56049-55.76709,19.85974-5.15713,41.63617,2.72336,54.81549,19.978,19.01733,49.61533,41.5271,113.963,62.76318,190.37842,25.17041,90.57275,45.25,187.292,56.53955,272.34082A1912.95588,1912.95588,0,0,1,771.165,985.999Z"/><path class="cls-1" d="M968.78418,1246.10352l-93.52539-35.39844a1718.17649,1718.17649,0,0,0,79.1123-277.5625,1724.391,1724.391,0,0,0,24.333-490.56885c.36151-24.154,15.51489-44.72293,35.717-50.45981,25.58148-7.26449,56.2768,10.10062,63.85529,41.22055a1824.689,1824.689,0,0,1-25.76465,519.0044A1818.53067,1818.53067,0,0,1,968.78418,1246.10352Z"/><path class="cls-1" d="M1193.67578,1024.38574l-99.13672-13.10742A2736.74305,2736.74305,0,0,1,1304.584,262.76514c14.14954-23.14023,43.64783-31.33567,66.573-19.56359,21.08972,10.82958,31.92469,36.148,24.89575,59.9796a2636.776,2636.776,0,0,0-202.377,721.20459Z"/><path class="cls-1" d="M1374.28125,1121.6084l-99.75391-7.00293c13.28125-189.187,57.957-371.39453,132.78711-541.562A1607.31524,1607.31524,0,0,1,1531.70508,343.2334c15.44421-20.4979,42.71264-26.92413,63.45312-16.53067,24.09571,12.07477,34.71863,44.5148,20.32813,71.12735a1501.75515,1501.75515,0,0,0-116.63086,215.46728C1428.668,772.90674,1386.75488,943.92725,1374.28125,1121.6084Z"/></g><g id="Layer_3" data-name="Layer 3"><path class="cls-2" d="M1246.78723,983.29785c-17.07922-15.03149-56.45325,3.69953-87.31909,18.383-29.37036,13.9721-68.53918,32.60553-102.63831,73.53192-36.8717,44.25415-27.59887,66.30517-58.21283,125.61706-22.33355,43.26941-53.69757,74.80371-116.42553,137.87232-84.48291,84.94165-104.441,84.516-137.87232,139.40417-22.40008,36.777-17.42828,43.51612-49.0213,117.95752-3.83764,9.04248-12.09393,28.22425-9.19147,52.08509a72.52446,72.52446,0,0,0,3.8559,16.78894c8.02679,21.879,23.65546,27.59338,40.56964,44.48767,27.34772,27.31567,17.21954,43.06982,41.3617,59.74463,12.84283,8.87048,24.8844,10.74951,45.95745,13.78723,37.98487,5.47558,58.81049.77307,87.31916,0,33.468-.9076,59.58856,5.012,111.82977,16.85107,62.45215,14.1532,69.80811,23.43323,99.57446,29.10645,74.46839,14.19311,156.39429-19.49951,207.45764-64.88867,82.31568-73.16858,88.58985-180.42859,91.26575-226.17518,4.46314-76.29931-14.858-143.24548-26.04248-261.95739-3.96045-42.03565-5.94055-63.05359-5.73852-68.75074,1.01794-28.6986,5.88281-42.90637-3.453-53.80249-10.58032-12.34863-25.40405-4.10949-49.02124-10.72338-39.53174-11.07081-69.6969-54.23389-78.12768-91.91492C1244.66479,1013.82837,1260.09253,995.00787,1246.78723,983.29785Z"/><path class="cls-2" d="M935.80853,1272.82983a374.346,374.346,0,0,1-44.42553-62.80859c-16.6496-29.58557-18.9184-43.10754-39.07691-86.8606-20.72974-44.99279-31.0946-67.48925-43.64654-81.65-29.28327-33.0365-47.49524-28.73816-99.80182-61.947-2.83667-1.801-10.47559-6.69745-15.0918-3.92529-5.39667,3.24084-3.69244,15.17913-3.06378,19.91485,1.23254,9.28467,9.79577,73.79083,0,79.65961-15.60755,9.35058-99.24146-117.32129-114.89362-108.76593-8.91778,4.87439,16.0362,47.19311,26.04254,116.42547,7.21717,49.93433,1.74762,97.11927-9.19152,191.48938-7.06867,60.98023-12.014,77.502-10.72339,119.48938a484.42235,484.42235,0,0,0,13.78723,101.10633c6.14355,24.81213,16.351,49.73291,36.766,99.57446,11.80457,28.81995,18.4386,42.61633,32.17017,56.68091a126.80343,126.80343,0,0,0,44.42553,29.10632"/></g><g id="Layer_4" data-name="Layer 4"><path class="cls-3" d="M1216.14893,1133.42554c-44.38179,72.88823-85.49459,146.87367-119.13434,225.0577-12.72261,29.54695-25.3805,59.77871-42.60941,87.26012-5.37546,8.881-11.96627,18.65756-17.941,27.19439a459.62748,459.62748,0,0,1-41.02938,50.44713c-50.36839,54.57565-103.782,120.86909-151.5415,178.38136,3.63907-6.13306,7.43356-12.16041,11.18442-18.22315q17.13645-27.105,35.36668-53.49667c24.40165-35.13492,49.91227-69.65715,77.37025-102.529,18.34939-21.71718,36.83131-42.27145,52.4456-65.87761,7.81086-11.26971,15.623-23.39658,22.44488-35.2481,22.94439-39.7286,38.73121-83.45164,60.83217-123.801,31.91549-59.85857,69.41877-117.04123,112.61159-169.16515Z"/><path class="cls-3" d="M964.91492,1660.4043c29.51067-58.32674,71.64473-109.58795,117.34821-155.9754,10.94161-11.30946,21.97214-22.91479,31.69135-35.28582,19.5928-24.80146,34.20835-52.851,45.13866-82.577,3.46133-9.31424,6.51072-19.07466,9.3334-28.67558,1.59517-5.55725,3.31692-12.04812,4.82867-17.65642.61006,57.80024-20.79833,116.59514-59.83,159.93351-14.99982,17.19068-43.2698,44.73773-59.07655,61.40212-30.66721,31.77513-60.19509,65.66422-89.43377,98.83462Z"/><path class="cls-3" d="M1300.65735,1251.14209c-2.57968,51.4308-8.19016,102.91712-14.47176,154.01624-5.37188,41.11729-10.25639,82.20408-19.48764,122.73674-17.36578,71.34244-62.25346,135.59823-118.78982,181.14356,5.45387-6.8262,13.825-17.11613,19.23761-24.20922,5.61111-7.453,12.864-17.34069,17.98428-24.87235,24.28674-35.50209,44.11551-73.76821,56.73992-114.85479,7.90623-26.64138,11.84564-54.29674,16.54018-81.73138,11.7933-70.96189,24.48465-142.51327,42.24723-212.2288Z"/><path class="cls-3" d="M1223.80847,1406.10632c-13.019,112.77427-80.41737,232.13928-170.04205,301.78761,3.60045-5.07013,9.26371-12.6526,13.01124-17.78228,14.77795-20.1679,30.15965-41.58674,43.77539-62.35214A1035.97674,1035.97674,0,0,0,1170.49,1525.32824c19.94526-38.73393,36.758-78.89644,53.31849-119.22192Z"/><path class="cls-3" d="M683.9494,1151.79749c4.78952,29.1929,8.80248,62.8981,12.75378,92.205,1.88876,15.25379,3.58341,30.02126,6.52352,44.90424a350.42223,350.42223,0,0,0,11.65522,43.35692c6.38956,19.1233,14.60886,37.75612,23.30955,56.99171-1.95313-1.781-3.848-3.62256-5.71442-5.4978a175.71266,175.71266,0,0,1-15.35589-18.18129,198.58,198.58,0,0,1-33.21125-72.52171c-4.76621-20.73157-6.0479-41.90747-6.7533-62.95508-.6602-26.22776.80921-52.68552,6.79279-78.302Z"/><path class="cls-3" d="M733.59576,1145.68091c2.249,24.143,3.76206,48.97338,5.93791,73.05406,1.70733,23.50518,3.53649,47.438,9.2087,70.23451,2.18907,9.09857,4.84781,18.19777,7.89074,27.05091a384.95376,384.95376,0,0,0,14.94937,36.60741c2.58882,5.55508,5.33528,11.0764,7.9707,16.7126-39.58811-33.4656-58.18411-84.25854-57.84227-135.34588-.02091-29.76265,2.32327-59.94846,11.88485-88.31361Z"/><path class="cls-3" d="M646.27661,1303.46814c4.53374,28.71258,9.88046,55.32464,20.28229,81.88018,7.39744,19.33846,17.04014,38.36243,27.261,56.5894,3.101,5.67863,7.73626,13.60519,10.66937,19.31744a100.90815,100.90815,0,0,1-13.99419-9.48968c-42.0123-33.80617-64.62781-96.93576-44.21852-148.29734Z"/></g></svg>