<svg xmlns="http://www.w3.org/2000/svg" viewBox="0 0 2000 2000"><defs><style>.cls-1,.cls-2{fill:none;stroke:#f5e4b5;stroke-miterlimit:10;}.cls-1{stroke-width:100px;}.cls-2{stroke-width:80px;}</style></defs><g id="Layer_2" data-name="Layer 2"><path class="cls-1" d="M1029.25537,1856.48938c-119.262-5.35522-111.01532-78.47571-330.79193-160.39185-170.8764-63.68982-204.91336-30.31628-281.97409-90.84216-109.55548-86.04822-150.75263-239.89221-139.97714-362.81641,11.01071-125.60766,75.71457-209.5769,139.02438-292.68286C510.36456,825.27667,623.558,753.177,676.51221,722.92682c120.88818-69.05756,145.21032-44.18927,219.5122-109.7561,102.6258-90.561,136.98926-209.27121,143.90247-253.65851,3.64941-23.43155,5.99036-66.86539,4.9613-95.494-.80371-22.35979-1.20556-33.53967-3.634-41.6795-2.67041-8.95078-5.62646-14.12563-3.76636-21.36313.74768-2.90929,3.28492-10.08689,21.42542-20.61171,16.92663-9.82058,34.91113-20.25493,46.86731-13.53464,10.33874,5.8112,11.26733,21.69421,12.19507,31.70732,3.25634,35.14752,20.53112,67.70743,26.82934,102.439,8.55506,47.17736,43.105,165.701,107.317,246.34146,39.3385,49.40313,62.03979,49.71307,170.73169,121.95123,99.41394,66.07184,176.5199,117.31757,236.58532,182.92682,162.221,177.1933,156.84424,411.85236,156.09766,431.70734-2.31824,61.65368-4.345,175.44445-82.92688,275.60974-8.217,10.47387-52.281,65.43591-130.41821,107.01965-72.54419,38.60718-132.035,43.10547-184.21594,51.517C1180.52417,1756.32568,1173.13147,1862.94983,1029.25537,1856.48938Z"/></g><g id="Layer_3" data-name="Layer 3"><path class="cls-2" d="M740.39709,1698.56946c-43.15289-16.63721-107.397-48.90589-159.00683-112.228-137.72766-168.98364-63.64661-409.63757-46.34149-465.85364C585.33893,957.119,690.6087,850.773,737.48779,803.41461,832.00458,707.93152,880.9693,702.3772,949.68292,618.04877c87.70746-107.63855,114.77631-229.71387,124.3902-312.1951"/><path class="cls-2" d="M1093.58533,327.80487c-1.06153,48.2139-3.09021,119.07477-7.317,204.878-7.40356,150.29029-11.10535,225.43543-21.95129,275.60974-30.74012,142.20557-95.91547,258.43915-129.26825,312.19513-64.12909,103.35938-85.20972,107.96277-107.31708,178.04883-35.53119,112.64319-9.74,213.42285,2.37469,260.76123,35.905,140.29932,117.393,232.1648,162.383,275.74475"/><path class="cls-2" d="M1167.12769,1801.34045c50.96777-16.30554,215.41479-76.05273,324.01867-246.70629,24.08594-37.84729,116.419-184.02833,87.80481-363.41468-16.52319-103.5863-64.57959-172.16632-143.90234-285.36584-66.29016-94.601-110.56519-131.43891-151.21961-180.4878-73.99841-89.278-151.942-238.244-160.50378-498.32373"/></g></svg>