<svg xmlns="http://www.w3.org/2000/svg" viewBox="0 0 2000 2000"><defs><style>.cls-1{fill:none;stroke:#52971b;stroke-miterlimit:10;stroke-width:100px;}.cls-2{fill:#fd1e47;}.cls-3{fill:#52971b;}</style></defs><g id="Layer_3" data-name="Layer 3"><path class="cls-1" d="M852.48389,599.5624c-33.32873,27.81641-43.39245,54.249-66.92456,95.46494-10.84228,18.99011-43.38293,62.17609-108.46423,148.54785C594.30884,953.44374,587.65125,952.88644,561.917,990.75941c-102.089,150.244-104.42957,316.65607-104.47009,342.3045-.10584,67.231-.29895,189.94262,85.08923,303.90209,80.55066,107.50333,195.37048,144.33029,253.45361,163.32449a615.01908,615.01908,0,0,0,179.37769,30.17523,595.0682,595.0682,0,0,0,214.02222-12.39087c56.844-13.943,174.54888-42.41735,263.63745-146.31768,92.69171-108.10254,100.562-230.56165,104.874-297.65424,1.645-25.59572,10.244-191.80192-81.7522-348.4293-23.19006-39.48211-29.86993-39.36348-105.258-154.43432-59.26532-90.46145-88.898-135.6922-98.46912-155.35376-20.773-42.673-29.07819-69.7098-60.50714-99.656-16.81079-16.01782-41.62964-41.83417-82.95288-50.98755-39.46143-8.741-72.54529,1.82434-87.45032,7.69452q-17.89179-4.49048-35.78369-8.981c-13.34277-5.53363-37.59143-13.35736-67.12-9.8197C897.34986,559.0787,870.98646,584.12,852.48389,599.5624Z"/></g><g id="Layer_6" data-name="Layer 6"><path class="cls-2" d="M943.56979,853.351c-19.7386,18.51588-32.63739,35.10617-46.4205,53.75383C847.53874,974.22464,818.233,1013.87334,789.05105,1076.155a738.95167,738.95167,0,0,0-43.9348,119.94955c-28.56777,121.40958-49.53988,210.53879-2.73935,306.80541,42.27252,86.95281,143.34875,186.65271,275.30305,180.79606,152.17989-6.75434,232.22414-147.41149,245.75116-171.18177,83.78442-147.22966,27.06024-298.9792,18.59456-320.52867-20.54045-62.35567-52.74345-148.2146-98.616-232.8434,0-.00006-24.82492-45.79867-71.22266-101.35536-44.91473-53.781-61.66993-58.18057-71.24525-59.25649C1006.16557,794.63269,974.56072,824.27982,943.56979,853.351Z"/></g><g id="Layer_5" data-name="Layer 5"><path class="cls-3" d="M1076.81006,549.14c-.89014,6.61-1.95007,12.77-3.08008,18.42l-76.02-15.27-22.02-4.43a190.78447,190.78447,0,0,0-66.84-186.02c-15.75153-18.18283-17.05072-44.60285-3.67975-63.308,14.65149-20.49661,43.59594-27.08325,66.78979-14.262a297.32121,297.32121,0,0,1,64.81,74.07,290.6404,290.6404,0,0,1,40.83,118.73A294.298,294.298,0,0,1,1076.81006,549.14Z"/><path class="cls-3" d="M1097.17993,480.1a368.61862,368.61862,0,0,0-9.96,69.53l-10.40991-.49c-.89014,6.61-1.95007,12.77-3.08008,18.42l-76.02-15.27,2.27-6.78,27.18994-81.42A368.71564,368.71564,0,0,0,1077.6,477.07C1083.90991,478.23,1090.45,479.25,1097.17993,480.1Z"/><path class="cls-3" d="M1575.57434,158.09059q-.02435.16934-.03186.3405A430.40143,430.40143,0,0,1,1555.14,272.01c-3.12,9.63-79.04,236.55-307.84,296.99A418.83949,418.83949,0,0,1,1140.1,582.84a458.8073,458.8073,0,0,1-141.04065-22.72358,3.72,3.72,0,0,1-2.38831-4.71417v-.00006a3.7153,3.7153,0,0,1,4.2558-2.466l69.13165,13.88635a3.71178,3.71178,0,0,0,4.38526-2.953c.67553-3.61689,1.31628-7.42285,1.899-11.40375a3.71292,3.71292,0,0,1,3.84778-3.16663l3.33948.15717a3.706,3.706,0,0,0,3.881-3.48535,368.78929,368.78929,0,0,1,8.99841-62.64121,3.71525,3.71525,0,0,1,4.061-2.82882A325.18034,325.18034,0,0,0,1221.76,472.32c72.27-19.09,133.81006-62.57,182.90991-129.24,39.25-53.28,55.18006-101.41,55.34009-101.89q1.51428-4.67713,2.884-9.39665a3.71751,3.71751,0,0,0-3.29541-4.71667q-4.09662-.3359-8.19861-.56667c-.5-.03-51.14-2.55-115,14.8-79.9,21.71-142.67,63.4-186.56994,123.89a325.82728,325.82728,0,0,0-51.84949,111.68683,3.7155,3.7155,0,0,1-4.09,2.78223q-6.94225-.94227-13.58679-2.11313a3.7076,3.7076,0,0,1-3.02758-3.21555,290.69946,290.69946,0,0,0-39.41541-114.20645,3.70706,3.70706,0,0,1-.114-3.653A416.7311,416.7311,0,0,1,1068.89,306.46c139-191.53,378.02991-180.36,388.13-179.79a430.71611,430.71611,0,0,1,113.45,22.05q1.54908.45346,3.098.90692a3.7153,3.7153,0,0,1,2.63379,4.09363Q1575.88813,155.90557,1575.57434,158.09059Z"/><path class="cls-3" d="M1097.17993,480.1a368.61862,368.61862,0,0,0-9.96,69.53l-10.40991-.49L999.98,545.51l-12.65-.6c2.33-49.18,13.35-117.42,49.44-186.57a290.6404,290.6404,0,0,1,40.83,118.73C1083.90991,478.23,1090.45,479.25,1097.17993,480.1Z"/></g></svg>