<svg xmlns="http://www.w3.org/2000/svg" viewBox="0 0 2000 2000"><defs><style>.cls-1,.cls-4{fill:none;stroke-miterlimit:10;stroke-width:100px;}.cls-1{stroke:#ff891f;}.cls-2{fill:#ff891f;}.cls-3{fill:#e0cf20;}.cls-4{stroke:#72b600;}</style></defs><g id="Layer_2" data-name="Layer 2"><path class="cls-1" d="M196.91489,766.78723c-3.10833,60.05554-2.43836,210.50092,96.67047,343.94446,89.37521,120.33789,208.45471,159.20727,334.14633,200,87.48321,28.39233,387.569,113.38391,712.19519-14.63416,100.67212-39.70056,196.4502-78.90222,270.73169-180.48779,104.68249-143.16138,92.10681-308.18567,85.49036-363.12036"/><path class="cls-2" d="M196.02438,1035.122c5.95131,18.82873,3.56748,31.114,0,39.02441-8.24105,18.27332-27.61273,23.87573-26.82925,39.02442.217,4.1958,2.0425,10.32824,6.27295,12.08459,7.00134,2.90674,15.51648-8.27905,32.04381-18.9248a123.00543,123.00543,0,0,1,29.23278-13.75611"/><path class="cls-2" d="M521.68085,1301.93616c9.54187,19.04919,9.7561,33.34082,8.17022,42.89367-2.99737,18.05555-13.94091,28.31128-12.25531,50.04248.46283,5.9668,1.17579,13.905,6.12763,16.34046,7.80224,3.83728,22.41785-7.8114,30.6383-19.4043,7.94819-11.209,6.24158-17.18152,12.25531-28.5957,4.46576-8.47608,13.10962-19.80261,31.65961-29.61707"/><path class="cls-2" d="M1535.80847,1240.65955c22.319-6.00367,60.10669-18.70887,94.97876-44.93616,9.95032-7.48364,20.01172-15.05078,31.29968-27.72717,20.1333-22.60975,18.05164-32.14344,32.01941-40.69837,23.064-14.126,44.90271,1.96887,54.12769-10.21277,8.19739-10.82483-6.80908-26.48925-9.19141-57.1914-2.0603-26.552,6.77954-45.559,11.234-58.21283,9.942-28.242,16.10645-76.15955-1.02124-162.383"/><path class="cls-2" d="M978.19147,1398.9574c54.46856,20.88366,97.4212,22.67614,126.63836,20.42553,62.15577-4.78784,88.30713-29.8883,135.82972-15.31909,11.36157,3.48316,30.76806,11.32569,50.0426,3.06385,13.00671-5.5752,19.55737-15.74219,26.55322-25.532,11.73218-16.41772,29.52393-38.502,56.17017-63.31909"/></g><g id="Layer_4" data-name="Layer 4"><path class="cls-3" d="M592.85607,1015.40306a17.39188,17.39188,0,0,1-30.95563-.62256c-10.52876-21.66315-20.28919-52.311-7.53875-76.41881,1.56934-2.96716,11.70569-22.13238,25.21375-21.57769,13.621.55932,22.19165,20.82135,23.80756,24.64154C613.905,966.30087,603.75924,994.97965,592.85607,1015.40306Z"/><path class="cls-3" d="M465.767,1018.26838a17.39188,17.39188,0,0,1-28.50016-12.09874c-1.70992-24.02546.63719-56.10429,21.444-73.73482,2.5609-2.16994,19.1019-16.18589,31.43313-10.64369,12.43431,5.58853,12.84828,27.58477,12.92633,31.73193C503.57845,980.52746,483.488,1003.37,465.767,1018.26838Z"/><path class="cls-3" d="M683.74968,1087.9137a17.39187,17.39187,0,0,1-30.95562-.62256c-10.52876-21.66315-20.28919-52.31105-7.53875-76.41881,1.56934-2.96716,11.70569-22.13238,25.21375-21.5777,13.621.55933,22.19165,20.82135,23.80755,24.64155C704.79866,1038.81151,694.65286,1067.49029,683.74968,1087.9137Z"/><path class="cls-3" d="M774.6433,991.96436a17.39188,17.39188,0,0,1-30.95562-.62256c-10.52876-21.66315-20.28919-52.31105-7.53875-76.41881,1.56933-2.96716,11.70569-22.13239,25.21374-21.5777,13.621.55933,22.19165,20.82135,23.80756,24.64154C795.69228,942.86217,785.54647,971.54094,774.6433,991.96436Z"/><path class="cls-3" d="M865.53692,1117.19451a17.39188,17.39188,0,0,1-30.95563-.62256c-10.52876-21.66314-20.28918-52.311-7.53874-76.4188,1.56933-2.96717,11.70568-22.13239,25.21374-21.5777,13.621.55932,22.19165,20.82135,23.80756,24.64154C886.58589,1068.09232,876.44009,1096.7711,865.53692,1117.19451Z"/><path class="cls-3" d="M958.26476,1003.83281a17.39188,17.39188,0,0,1-30.95563-.62256c-10.52876-21.66315-20.28919-52.31105-7.53874-76.41881,1.56933-2.96716,11.70568-22.13238,25.21374-21.57769,13.621.55932,22.19165,20.82135,23.80756,24.64154C979.31373,954.73062,969.16793,983.4094,958.26476,1003.83281Z"/><path class="cls-3" d="M1060.39242,1087.9137a17.39188,17.39188,0,0,1-30.95563-.62256c-10.52876-21.66315-20.28919-52.31105-7.53875-76.41881,1.56934-2.96716,11.70569-22.13238,25.21375-21.5777,13.621.55933,22.19165,20.82135,23.80756,24.64155C1081.44139,1038.81151,1071.29559,1067.49029,1060.39242,1087.9137Z"/><path class="cls-3" d="M1146.17965,1003.83281a17.39187,17.39187,0,0,1-30.95562-.62256c-10.52876-21.66315-20.28919-52.31105-7.53875-76.41881,1.56933-2.96716,11.70569-22.13238,25.21374-21.57769,13.621.55932,22.19165,20.82135,23.80756,24.64154C1167.22863,954.73062,1157.08282,983.4094,1146.17965,1003.83281Z"/><path class="cls-3" d="M1246.26476,1041.62a17.39189,17.39189,0,0,1-30.95563-.62255c-10.52876-21.66315-20.28919-52.31105-7.53874-76.41881,1.56933-2.96716,11.70568-22.13239,25.21374-21.5777,13.621.55933,22.19165,20.82135,23.80756,24.64154C1267.31373,992.51786,1257.16793,1021.19663,1246.26476,1041.62Z"/><path class="cls-3" d="M1337.40246,973.90874a17.39188,17.39188,0,0,1-30.93338,1.32835c-11.87226-20.957-23.54359-50.92933-12.33684-75.79228,1.37935-3.06011,10.2885-22.8257,23.80467-23.12289,13.62916-.29967,23.459,19.38233,25.31228,23.09316C1355.31706,923.57832,1346.99766,952.83917,1337.40246,973.90874Z"/><path class="cls-3" d="M1451.15349,1001.56125a17.39188,17.39188,0,0,1-30.76753,3.46373c-13.2927-20.08609-27.00823-49.1798-17.54718-74.758,1.16448-3.14815,8.68584-23.48237,22.14913-24.71328,13.57583-1.24119,24.74283,17.71413,26.84824,21.28795C1465.54566,950.11274,1459.2691,979.87873,1451.15349,1001.56125Z"/></g><g id="Layer_3" data-name="Layer 3"><path class="cls-4" d="M302.10638,822.95746c9.31543,47.18848,29.95768,117.17444,80.68085,184.85107,106.69315,142.35382,271.25305,174.12213,385.0213,196.08515,196.68744,37.97058,351.25238-3.5481,425.87238-24.51075,101.91443-28.63037,198.31848-55.71276,280.851-145.02124,73.14453-79.14984,99.63-168.47473,110.298-219.57446-183.42553,16.098-379.96582,26.89618-588.25537,29.617C748.37073,847.64642,516.10406,838.99292,302.10638,822.95746Z"/></g></svg>