<svg xmlns="http://www.w3.org/2000/svg" viewBox="0 0 2000 2000"><defs><style>.cls-1,.cls-2{fill:none;stroke-miterlimit:10;stroke-width:80px;}.cls-1{stroke:#528c2d;}.cls-2{stroke:#ece9ce;}.cls-3{fill:#ece9ce;}</style></defs><g id="Layer_4" data-name="Layer 4"><path class="cls-1" d="M931.21277,1488.82983a685.62053,685.62053,0,0,1-19.91492-237.4469c7.595-81.72045,27.91467-141.08557,49.0213-200.68078,30.93946-87.3584,63.511-148.73425,122.55316-258.89362,38.63941-72.09247,73.11756-131.79162,99.09253-175.50421,12.65454-29.28143,46.66858-39.06024,67.88623-26.70856,21.66932,12.61463,29.72083,48.15406,9.19153,73.53193-27.2456,45.39367-61.66516,105.94909-98.0426,179.234-27.11475,54.62446-57.07825,115.42206-87.31909,197.61707-34.427,93.57324-56.26447,152.92773-64.34046,234.38293-5.15161,51.95984-6.82989,134.35938,19.91492,235.91492"/><path class="cls-1" d="M910.39636,1262.03845C880.017,1155.48254,844.40564,1043.30469,802.53192,926.617c-47.18384-131.48523-96.90857-253.62017-147.06384-366.12762-21.31885-36.1579-7.10346-76.63641,15.42981-86.97479,22.975-10.54108,63.98663,5.94348,76.48511,47.145,25.72686,61.76391,46.90545,111.33447,61.27655,145.53192,58.20056,138.49432,74.165,180.74975,81.19152,199.149,17.13959,44.88038,41.33332,110.99323,67.58179,193.5354"/><path class="cls-1" d="M905.32605,906.6449A1507.01542,1507.01542,0,0,1,935.80853,747.383c5.31995-21.47687,23.23975-91.798,56.68085-180.766,18.27332-48.615,24.98523-59.70971,81.19153-197.617,9.82458-24.10556,17.81579-43.87677,22.97864-56.68085,13.20214-45.40381,61.21337-64.6788,91.91491-50.55319,30.68433,14.11768,47.28589,63.07422,21.44678,102.63831a1376.76717,1376.76717,0,0,0-172.10937,512.11795"/><path class="cls-1" d="M714.95923,497.50406q-15.278-29.29623-30.38477-61.09979-12.18639-25.734-22.9787-50.5532c-12.76245-28.4465-5.68066-60.8341,15.31916-78.12765,26.17773-21.55759,70.64264-16.909,94.9787,15.31912a1713.23242,1713.23242,0,0,1,91.91491,182.29788,1713.46788,1713.46788,0,0,1,77.64734,220.06089"/><path class="cls-1" d="M841.01453,454.78558A1156.35677,1156.35677,0,0,0,830.10638,287.8085a1156.25881,1156.25881,0,0,0-30.6383-148.59573c-14.44971-38.30892,7.08636-74.44748,30.6383-79.65958,22.64606-5.01162,55.79877,16.65721,61.27662,55.14894a1016.93167,1016.93167,0,0,1,29.10638,105.70212,1053.907,1053.907,0,0,1,22.9787,186.89363,1082.783,1082.783,0,0,1-15.31915,222.12766"/></g><g id="Layer_3" data-name="Layer 3"><path class="cls-2" d="M914.87231,1525.5957c.80036,10.14795,2.9123,38.2937,0,68.42554-3.79821,39.29773-12.58239,45.14148-20.42547,93.95752-3.07506,19.1394-4.40724,34.93723-5.04631,44.99615a2.06046,2.06046,0,0,0,.6339,1.62866,146.01154,146.01154,0,0,0,39.1358,26.90705c27.13665,12.66687,51.56659,13.59558,72.68292,14.39819a264.75429,264.75429,0,0,0,47.48317-2.47573,2.07444,2.07444,0,0,0,1.74837-2.39851c-2.4288-14.57905-5.42519-33.432-8.55283-55.48135-2.541-17.91345-5.65369-40.01208-8.68079-68.93615-2.88732-27.58838-4.82446-46.09766-5.61706-70.97876-.81329-25.529-.08021-47.05051.86644-62.85346a2.0719,2.0719,0,0,0-2.32695-2.18135A248.1875,248.1875,0,0,1,915.00063,1499.135a2.07118,2.07118,0,0,0-2.72339,2.24164C913.166,1507.927,914.12616,1516.1353,914.87231,1525.5957Z"/></g><g id="Layer_5" data-name="Layer 5"><path class="cls-3" d="M851.46707,1737.1183a84.97953,84.97953,0,0,1-15.91392,37.65208c-11.90633,15.85934-29.59436,27.91762-36.52638,46.49789a3.828,3.828,0,0,0-.344,1.85842,3.31313,3.31313,0,0,0,1.41211,2.003c3.44524,2.65378,8.42606,2.561,12.39759.7892s7.12113-4.95974,9.98841-8.22943c6.42287-7.32432,11.94826-15.42667,18.7232-22.42661,6.48041-6.69563,14.03824-12.31264,20.21316-19.291s11.01734-15.854,10.41823-25.15281c-3.63356-1.07779-6.42521-2.814-9.8198-4.49963a13.48644,13.48644,0,0,1-3.71079-2.446C856.124,1741.65931,854.28119,1738.437,851.46707,1737.1183Z"/><path class="cls-3" d="M880.8849,1830.80782c-3.15941,3.33985-6.62537,6.43856-9.21294,10.23868s-4.24508,8.52466-3.23446,13.00966,5.31589,8.3662,9.87462,7.77081c5.09156-.665,8.02723-5.933,10.45282-10.45878a126.09511,126.09511,0,0,1,21.33738-28.94128c3.6679-3.718,7.71436-7.43655,9.29528-12.4143a29.45048,29.45048,0,0,0,.96112-8.5008q.17966-11.80357.35924-23.60711c-7.21,2.37553-10.06338-1.41817-13.19545,6.29813-2.31827,5.71139-4.628,11.41986-7.27462,16.99C895.17078,1811.87834,889.05084,1822.17548,880.8849,1830.80782Z"/><path class="cls-3" d="M959.74245,1826.90087c-.943,6.93688-1.02694,14.072-3.28288,20.6992-1.45385,4.271-3.77657,8.21612-5.09421,12.53105-1.71223,5.60714-1.65539,11.59747-1.18655,17.44144.397,4.94894,1.28136,10.29152,4.89112,13.70023s10.76768,3.16344,12.49477-1.49133a12.85313,12.85313,0,0,0,.4741-4.49c.00985-18.61269,9.08249-35.82139,14.76156-53.54654,3.51-10.95517,7.38641-23.662,8.02527-35.13733-7.0692-2.62605-16.18529-5.937-21.30778,1.03178C963.77137,1805.45705,960.97994,1817.46506,959.74245,1826.90087Z"/><path class="cls-3" d="M1026.95691,1840.44179c4.24328,14.76749,5.80425,30.437,12.46973,44.281,3.16774,6.57927,7.77958,12.89592,14.46915,15.82354s15.71411,1.33825,19.38567-4.97373c-8.03348-3.63584-12.16729-12.43071-15.646-20.53349-4.71934-10.99265-9.50733-22.266-10.19413-34.20918-.34751-6.043.37012-12.12011-.15559-18.15019a44.37023,44.37023,0,0,0-7.04641-20.3507c.09195.14044-13.87252-.84175-15.50474-1.05014-5.34975-.683-6.49206-.3304-6.66617,5.16927C1017.7103,1817.761,1023.89354,1829.78064,1026.95691,1840.44179Z"/><path class="cls-3" d="M1081.47446,1831.97032c3.70405,8.65025,6.79337,17.70813,12.334,25.314s14.21622,13.70541,23.61558,13.25963c4.777-.22655,10.1435-3.08047,10.4892-7.85032.22378-3.08758-1.7777-5.93915-4.18607-7.88414s-5.26578-3.26051-7.74241-5.1178c-8.279-6.20867-10.98831-17.17166-13.99264-27.0744a188.09775,188.09775,0,0,0-22.17658-47.71074l-13.14935,13.21343c-2.18468,2.19533-4.51254,3.91286-7.62184,4.4252,1.20245,5.79489,8.633,13.14669,11.841,18.56432A180.09388,180.09388,0,0,1,1081.47446,1831.97032Z"/></g></svg>