<svg xmlns="http://www.w3.org/2000/svg" viewBox="0 0 2000 2000"><defs><style>.cls-1,.cls-3{fill:none;stroke-miterlimit:10;}.cls-1{stroke:#419347;stroke-width:80px;}.cls-2{fill:#419347;}.cls-3{stroke:#ffd200;stroke-width:100px;}</style></defs><g id="Layer_8" data-name="Layer 8"><path class="cls-1" d="M884.84232,439.68254a34.942,34.942,0,0,1-20.872,46.23659C805.68467,506.2468,679.14082,534.96357,560.48938,459.383c-93.73046-59.706-129.6956-150.83922-143.0669-200.824a34.92918,34.92918,0,0,1,25.06641-42.89334C493.4495,202.64369,591.751,188.82735,696.31915,237.766,810.69906,291.29653,863.49017,387.5783,884.84232,439.68254Z"/></g><g id="Layer_7" data-name="Layer 7"><path class="cls-2" d="M895.75635,486.88574a429.96342,429.96342,0,0,1-32.34912-109.79541c-11.85987-77.331-1.96729-158.12939,28.60791-233.66015,9.694-26.41666,39.78314-39.73571,65.75079-29.23869,25.98474,10.50393,38.36157,41.02276,26.94257,66.76115-13.80823,33.92988-34.86664,100.05609-22.45655,180.97851a329.93379,329.93379,0,0,0,24.84326,84.24658Z"/></g><g id="Layer_6" data-name="Layer 6"><path class="cls-3" d="M706.94946,627.464c-13.54962,8.64941-66.62323,43.42358-117.86438,102.55731-17.06219,19.69025-95.30087,112.91528-126.63827,261.44678-21.75574,103.11676-10.73718,184.69025-4.08512,230.80853,8.21869,56.97962,27.40256,189.98,118.46808,296.17017,34.61658,40.36584,60.35291,70.37658,104.652,92.18786,20.38452,10.03662,43.31824,17.65686,75.09265,40.57813,22.59656,16.30054,38.66181,32.40271,51.06385,44.93616,50.40246,50.93652,48.76776,69.0487,69.07806,72.43933,27.40381,4.5747,39.47955-26.8794,98.41132-58.14148,32.44989-17.214,55.08044-21.62451,77.61694-28.59571,95.057-29.404,173.09363-99.61889,194.0426-118.46814,114.15088-102.70935,145.61377-243.15991,159.31909-304.34033,18.23548-81.40307,36.78333-235.03613-30.63818-396.25537-10.099-24.14886-60.65845-145.0473-154.54431-214.8418-46.76245-34.76306-78.30664-50.69006-78.30676-50.69012-58.907-29.74274-81.17884-23.9281-109.27662-54.12762-21.35644-22.95392-22.47039-41.33963-45.95745-50.04258-25.31128-9.3789-50.80054,2.0495-55.14893,4.08512-26.13116,12.23285-25.0802,29.93969-49.14966,50.82452-24.92932,21.63092-41.7157,16.22339-89.744,33.94141C757.6377,595.10718,733.84692,610.294,706.94946,627.464Z"/></g></svg>