<svg id="Layer_7" data-name="Layer 7" xmlns="http://www.w3.org/2000/svg" viewBox="0 0 2000 2000"><defs><style>.cls-1{fill:none;stroke:#4e9903;stroke-miterlimit:10;stroke-width:50px;}</style></defs><path class="cls-1" d="M871.30718,712.97744c-20.81082-1.78474-42.23624-3.50913-62.19261,2.6568-12.175,3.76173-23.28412,10.32223-33.94,17.31041-27.56617,18.07807-53.16668,39.52-82.98921,53.56733s-65.81764,19.88229-95.44217,5.42209c-5.97517-2.91657-11.76151-6.79308-15.20048-12.48365-4.63948-7.67708-4.276-17.33484-2.8086-26.18408A125.89012,125.89012,0,0,1,614.21226,684.805c24.89559-24.57354,60.81662-39.70956,75.53542-71.44292,4.98518-10.74792,7.05663-22.60634,11.26619-33.68106,15.55078-40.9118,63.17467-66.74289,105.94778-57.46584s75.41615,52.51721,72.62024,96.19541"/><path class="cls-1" d="M652.80405,801.02767c6.56594,15.54887,27.57949,17.20633,44.43924,16.41411l86.6102-4.06973c29.6044-1.39108,60.48917-2.5535,87.51655,9.60694,28.31067,12.73784,48.93287,39.056,60.15938,67.99922s13.95429,60.482,14.08713,91.52594c.0953,22.27109-.24187,46.98565,14.63,63.56384,10.82219,12.06382,28.50662,18.07382,35.24679,32.81239,5.2969,11.5826,2.23758,25.59337,7.17527,37.33358,6.44675,15.32827,24.6378,22.29575,41.25171,22.99869,52.2102,2.209,94.69492-39.01207,142.22066-60.73966,25.35664-11.59243,53.60595-18.14215,75.3219-35.62816,12.92985-10.41131,22.74016-24.10566,32.382-37.61906l40.93929-57.37817c13.71406-19.22084,28.01324-40.2141,27.72576-63.82413-.17887-14.6898-6.0698-28.63194-11.86284-42.13241l-24.03118-56.0039c-40.25217,18.02374-60.67794,62.40738-92.22386,93.22858-28.45912,27.8053-66.85342,45.18592-90.64411,77.07729-16.54188,22.17436-24.65809,49.68931-40.91067,72.07658s-46.51411,39.37618-71.27639,27.04063c-17.64433-8.78968-26.0868-29.27664-29.68979-48.657s-3.97642-39.71448-12.05158-57.697S962.50907,915.69,943.42217,920.61655"/><path class="cls-1" d="M848.58584,551.52644c16.99984-17.69672,44.49025-24.44813,67.75391-16.63978,16.40063,5.5048,30.91741,17.57557,48.20169,18.30984,20.90361.888,43.83517-26.21009,61.88435-19.66641-1.79476,7.948,7.29364,14.50209,15.43667,14.7894s16.03047-3.09539,24.17746-3.22964c18.23469-.30047,32.8382,15.48638,40.66008,31.961s11.61032,34.94454,21.87381,50.01951c7.484,10.99239,18.29913,20.0109,22.75637,32.53988,9.80442,27.55949-15.08565,55.70681-15.1096,84.95834-.00689,8.40526,1.54873,18.27719-4.6817,23.919-6.42762,5.82041-16.88617,2.79169-23.8504-2.37465s-12.883-12.27729-21.185-14.78124c-5.42834-1.63724-11.25974-1.07941-16.86038-.19609-14.2085,2.24092-28.35277,6.49377-42.68844,5.314s-29.46352-9.70862-32.4755-23.77387c-2.69983-12.60751,3.95168-28.62931-5.851-37.00465-12.4776-10.66082-34.35019,6.72351-47.29683-3.36253-3.00944-2.34449-4.8851-5.81945-7.37286-8.71159-8.81074-10.24288-26.17008-11.50871-36.37352-2.65233-6.39673,5.55222-9.63614,13.8215-14.65434,20.6452s-13.72105,12.56427-21.60938,9.47891"/><path class="cls-1" d="M593.58752,696.76453c-5.89776-4.68091-14.49-12.99964-16.75775-24.956-4.61151-24.31427,22.04352-36.7229,26.34851-66.1817,3.99128-27.31171-14.29559-33.36-23.54174-69.44928-9.02918-35.24228,1.24707-74.81076,26.28387-101.20581,25.03687-26.39508,64.00781-38.74536,99.67749-31.58881,20.23755,4.06034,39.45728,13.9227,60.09729,14.1063,28.29932.25174,57.96137-17.51325,83.32208-4.95349,23.73157,11.7529,31.62726,45.4292,56.6416,54.124,6.59607,2.29272,13.84107,2.559,20.176,5.49731,20.90161,9.69471,24.1112,43.84095,46.65015,48.62213,8.50256,1.80365,12.55517-3.98974,23.06121-.63824,8.01288,2.55615,13.44843,8.14569,16.78907,12.47052"/><path class="cls-1" d="M1104.38474,578.72261a259.35914,259.35914,0,0,1,152.22454,277.28662"/><path class="cls-1" d="M989.48126,693.7417a75.66749,75.66749,0,0,1-5.27081-23.76666c-3.11578-3.26178-4.12763-7.92188-5.52649-12.21033a58.2849,58.2849,0,0,0-19.43311-27.69128c-15.01709-11.71-31.77221-13.857-40.69122-14.68781-21.92267-2.04205-30.9126,5.02063-38.81824-1.3764-4.70727-3.809-8.64135-12.07538-5.613-31.50812"/><path class="cls-1" d="M1045.08508,541.59576c1.30432-3.40832,2.91382-9.16723.51062-14.29791-6.48632-13.84765-34.21411-6.05963-41.87231-18.89358-6.00672-10.06629,1.81817-30.33088,15.14209-39.82117,14.8761-10.59586,25.80347-.25284,62.41565-8.80057,9.2583-2.1615,18.20056-5.75226,27.62756-6.98538,13.27466-1.73645,26.6825,1.29346,40.06983,1.40564a92.76569,92.76569,0,0,0,57.00024-19.19293c8.08166,22.7521,17.04492,46.76294,36.07385,61.62454,12.13025,9.47363,27.51477,14.45575,38.62171,25.11066,11.19995,10.74414,16.71,25.90936,23.7749,39.72827,32.71228,63.98468,104.23413,107.68359,117.27417,178.35248,1.43213,7.76092,1.46838,17.17749-4.86536,21.88562-3.70935,2.7572-8.63257,3.06958-13.24975,3.27771q-19.229.86709-38.458,1.73407c-7.99365.36041-11.99817,1.23156-14.72046,2.85913-12.0321,7.19384-12.18054,26.92437-11.92651,34.2395"/><path class="cls-1" d="M1266.52441,509.9201a289.64048,289.64048,0,0,0-13.93982-62.83212c-5.13708-15.00888-12.8197-30.95135-27.45751-37.0661-5.25477-2.19513-11.03943-2.9241-16.25232-5.21707-15.03321-6.61264-24.53089-25.62332-40.95411-25.65695-14.572-.02985-26.41809,15.74313-40.816,13.49682-5.85766-.91391-10.77661-4.7192-16.05761-7.41348-24.74366-12.62384-55.30139-.314-82.23535-7.10895-15.05488-3.79806-27.95459-13.31683-42.24665-19.38418a97.37291,97.37291,0,0,0-45.50061-7.40546c-5.27551.4165-10.65027,1.31149-15.24273,3.94095-13.86164,7.93658-16.72968,21.1514-23.541,30.82931-6.7464,9.5857-21.21014,20.00693-55.83386,21.195q3.2655.73746,6.531,1.47495"/><path class="cls-1" d="M1258.65535,524.99474a106.35977,106.35977,0,0,1,64.0769-25.42372c8.50013-.37987,17.58976.12637,24.84278-4.32226,3.57058-2.19,6.41-5.44385,10.04524-7.5247,3.77071-2.15838,8.16076-2.92351,12.46575-3.51,20.54805-2.79936,42.10509-2.20464,61.15378,5.99331s35.18857,24.97884,38.71884,45.414c3.85247,22.30023-7.22282,44.18019-10.79909,66.52637-3.381,21.12595-.00365,42.695-.37313,64.08658-.09025,5.22547-.4305,10.5644-2.43267,15.39192-6.289,15.16385-26.13683,20.09065-34.83981,34.01016l-4.68437-6.55153"/><path class="cls-1" d="M1459.81717,624.438c21.7167,2.8989,41.47516,13.6641,60.66488,24.23642,17.27384,9.51678,34.74565,19.1755,49.14549,32.65138,7.24695,6.782,13.61183,14.43824,19.95545,22.07184l62.944,75.74363c18.95745,22.81243,38.112,45.92857,50.91031,72.68664s18.77819,57.97534,10.1386,86.3505c-8.30366,27.27181-28.907,48.90448-50.10428,67.9669"/><path class="cls-1" d="M1427.38708,712.10388c13.72938,2.36463,23.965,14.291,29.7107,26.98255,5.74573,12.69146,8.18909,26.63964,13.42273,39.55078,11.75989,29.01074,38.27112,51.58288,68.786,58.56549,10.82886,2.4779,22.06006,3.10657,32.71216,6.25854,41.08789,12.158,62.05139,56.56769,78.08691,96.303q17.7453,43.97159,35.49036,87.94318c18.10608,44.86609,36.40405,90.48926,41.19446,138.6333,7.57324,76.11279-21.2782,155.04382-76.15076,208.33093-6.78455,6.58862-13.97351,12.84155-19.74011,20.33728-8.23767,10.70752-13.24952,23.5376-17.13367,36.47681-7.66126,25.5216-25.27551,40.22326-43.40662,59.70154-9.52575,10.23352-19.099,20.51123-30.06592,29.18261-12.43591,9.83313-26.464,17.442-40.62219,24.57581a800.97681,800.97681,0,0,1-271.55749,80.59387c-58.51111,6.47864-124.57654,3.87415-166.468-37.48572-38.08734-37.60412-44.72308-95.746-49.63422-149.04321-2.48339-26.95105-5.38672-54.87842-19.14087-78.18835-8.02923-13.60767-22.24957-26.04749-37.84521-23.51539-6.24847,1.01441-11.8714,4.339-17.05011,7.9795-41.0567,28.86194-61.34772,78.1466-89.17108,119.91418-12.65723,19.00049-27.664,37.18836-47.55823,48.38855-57.23535,32.223-135.46948-.8053-192.46771-17.82544-17.48725-5.2218-35.82288-10.95068-48.37525-24.19873-18.61139-19.64282-21.69336-52.93359-45.40826-65.96545-13.43594-7.38343-29.73248-5.87842-45.06335-5.83-28.5318.09033-58.14377-6.15173-80.50873-23.86841-13.77661-10.91333-24.32559-25.76342-39.21527-35.10107-15.86621-9.95007-36.0178-13.22473-49.14331-26.58362-9.39371-9.56067-13.71036-22.86658-20.68522-34.312-15.99755-26.25134-53.69021-48.12573-78.303-39.27515-18.495,6.65064-19.50317,27.38648-31.04388,27.14893-14.47411-.298-29.63848-33.2594-33.14-65.038-4.63882-42.10034,3.65724-60.75549,44.22861-145.63964q14.3152-29.95057,28.63042-59.90137c2.25657-4.72131,4.6726-9.63947,8.89645-12.72852,7.67378-5.61206,18.78621-3.49469,27.09186-8.12054,15.48724-8.62561,15.2561-36.53412,32.69409-39.72357,7.70508-1.40924,15.03619,3.212,22.42712,5.806,21.9596,7.70715,45.76538-2.50763,66.77439-12.5199q5.88629-2.80518,11.77258-5.61041"/><path class="cls-1" d="M665.096,794.386c-16.68811,2.13586-25.11792,20.626-37.3946,32.12994-25.14678,23.5639-61.69427,13.994-101.8753,7.45154-113.31964-18.45123-146.05942-46.88269-167.085-28.26306-23.63953,20.93451-9.07279,80.62549-6.39832,91.58484,3.61533,14.81469,7.80564,23.53979,15.44007,39.767q37.5585,79.83169,75.117,159.66346c8.8342,18.77734,22.16782,40.50134,42.91187,39.93957,4.33963-.11755,8.8974-1.24988,12.88232.47254,6.09158,2.63293,7.71725,10.27673,9.456,16.68115,11.1272,40.98572,54.119,63.31409,92.81623,80.81177q31.94485,14.44445,63.88964,28.88879c11.53937,5.21777,23.15894,10.46362,35.45588,13.49121,17.72638,4.36414,36.48449,4.023,53.82672,9.72534,12.79309,4.20667,24.47558,11.60364,37.59137,14.65894,21.80835,5.08032,44.27826-2.38867,66.10858-7.37378,77.28363-17.64807,164.15289-5.786,230.56042-49.07861,7.22974-4.71326,14.91358-12.27,12.57154-20.57654-1.20472-4.273-4.88855-7.40845-8.79505-9.51758-13.67834-7.38477-30.27282-4.915-45.783-3.88281-15.51025,1.03222-33.33691-.65222-42.75549-13.01831-7.43042-9.75574-7.22888-23.12745-6.69653-35.379.187-4.3031.44812-8.84509,2.82391-12.43787,3.01727-4.56286,8.64588-6.47192,13.139-9.592,4.49316-3.12024,8.07757-9.48474,4.7887-13.85583"/><path class="cls-1" d="M1098.1482,1219.1052c39.56122-13.4163,67.75089-47.67387,101.665-72.06492,18.47349-13.28616,38.88115-23.7627,56.97716-37.55858s34.25768-31.84278,39.579-53.96687c6.06521-25.21692-2.21033-54.02635,11.198-76.2276"/><path class="cls-1" d="M997.09184,1182.22746c-15.34619-4.58476-31.76024-2.51876-47.775-2.74645s-33.47093-3.60431-43.74137-15.8943c-8.19177-9.80256-10.38683-23.69174-19.06191-33.06928-14.40432-15.57069-39.20794-12.46791-59.92866-17.00472-18.49213-4.04885-34.69645-14.81437-50.41286-25.36645-10.42541-6.99968-21.34083-14.55868-26.61333-25.95541-3.31906-7.17429-4.07043-15.21812-5.19146-23.04307-3.48009-24.2916-11.74527-49.22256-30.1263-65.4808-18.43238-16.30365-44.85894-21.99-61.77269-39.86422a59.58692,59.58692,0,0,1-14.61584-52.96244c5.76119-25.85215,28.779-47.42689,26.87607-73.84477a26.404,26.404,0,0,1-12.48759-8.90331"/><path class="cls-1" d="M602.97479,581.511q-21.89364-9.45146-43.78723-18.90284c-9.8941-4.2713-20.19733-8.62445-30.968-8.26342-21.63171.725-37.92736,19.80871-48.3645,38.76983-10.43713,18.96106-18.79642,40.37262-36.32522,53.069-5.21253,3.77545-11.14631,6.68964-15.507,11.4234-20.027,21.74018,5.77792,62.42194-13.58283,84.75751-1.832,2.11347-3.55557,3.24042-5.61477,6.50537-6.90778,10.95252-3.12806,21.52393-4.08051,34.7685-.493,6.85565-2.40863,16.57928-9.02377,28.14038"/><path class="cls-1" d="M567.12769,544.14893c-76.74405,3.86084-110.15482,13.141-125.50675,22.05078a114.546,114.546,0,0,1-24.23257,11.36993c-13.042,4.30292-26.99674,4.92133-40.361,8.08423-35.47848,8.39667-64.08242,33.80353-91.05987,58.32788-5.63391,5.12164-11.38684,10.39569-14.87576,17.16315-3.21015,6.22674-4.28644,13.30761-5.11783,20.26367-16.58753,138.78406,50.32974,169.27081,50.32983,169.27087,7.43491,3.82978,19.5278,8.4007,37.2399,8.36512"/><path class="cls-1" d="M357.77486,864.62462c-32.93569,5.01927-66.05454,10.05178-99.36683,9.55743-27.99028-.41536-58.31218-4.17633-81.90464,10.891-19.2509,12.29461-29.57722,34.78735-34.825,57.0183a204.32423,204.32423,0,0,0-2.0726,81.41081c2.26616,13.139,5.70233,26.81351,1.73425,39.54239-2.14767,6.88932-6.34052,12.96777-8.85581,19.73155-7.101,19.09491,1.62369,42.74134,19.42522,52.64815"/><path class="cls-1" d="M1683.49039,985.48481c19.28287-3.256,39.836-1.45206,57.08736,7.75771a71.433,71.433,0,0,1,37.76557,59.831c.27679,6.19692-.16266,12.79736,2.94454,18.16613,4.90912,8.48225,17.52268,11.78345,19.3212,21.41742,1.11807,5.9891-2.64425,11.69624-6.281,16.58436-7.76127,10.43194-16.02228,20.83469-26.89984,27.958s-24.93563,10.55157-37.10024,5.95974c-1.9044-.71887-3.91677-3.30635-2.16669-4.34593"/><path class="cls-1" d="M1541.44888,1520.64857c7.26584-13.27133,26.19177-14.02423,40.76674-9.96337s29.44355,11.21685,44.1377,7.611c17.83864-4.37754,27.96836-22.532,37.69748-38.11162,10.25425-16.42054,22.5435-31.98977,38.57118-42.84783,12.88751-8.73071,28.05838-14.34351,39.05483-25.36128,16.9671-17,20.04465-46.10112,7.00873-66.27407-12.37464-19.14963-36.93884-30.41646-42.6099-52.49991"/><path class="cls-1" d="M665.97076,1513.58765c33.077,26.81616,43.58857,51.53161,46.52094,70.2019,2.90356,18.48706-.90192,39.14075,11.488,45.95642,7.762,4.2699,17.34582,1.8761,25.833-.66333,29.28052-8.76074,60.43213-19.53528,78.24427-44.37121,11.61389-16.19373,15.95855-36.31653,23.60321-54.71973,7.64471-18.40308,20.84387-36.82422,40.38134-40.74915,16.78119-3.37133,36.29755,4.334,50.20075-5.64978,6.07171-4.36,10.95288-11.98694,18.42535-11.79382,4.93573.12769,9.01374,3.83545,12.087,7.69971,12.91949,16.24475,13.63708,25.90307,21.824,34.14892,5.2085,5.246,15.10126,10.6687,35.79523,8.87354"/><path class="cls-1" d="M366.74132,1354.34613c6.02224,12.14023,13.29576,25.40515,26.17638,29.61732,6.43647,2.10483,13.66,1.64976,19.67385,4.76291,10.355,5.36039,13.1076,18.9607,12.41967,30.60056s-3.54158,23.67449.25031,34.701c15.147,44.0458,71.75484,18.85728,100.79045,14.21787a52.6958,52.6958,0,0,0,16.84794-30.10326"/></svg>