<svg xmlns="http://www.w3.org/2000/svg" viewBox="0 0 2000 2000"><defs><style>.cls-1{fill:#d12845;}.cls-2{fill:#7d1f2f;}</style></defs><g id="Layer_3" data-name="Layer 3"><path class="cls-1" d="M1648.15,1126.28c.53,24.21-16.88,46.39-41.87,52.08,1.39.73,26.89,14.74,28.59,42.9,1.34,22.13-12.62,43.42-34.72,52.08a52.0838,52.0838,0,0,1-18.38,96c21.28,14.3,26.61,43.51,12.31,63.94-13.81,19.71-41.66,25.17-62.36,11.63a58.23363,58.23363,0,0,1-81.7,76.6c7.57,22.52-1.13,47.14-20.42,59.23-17.36,10.89-40.26,9.73-57.2-3.06-1.74,29.72-21.54,55.27-49.38,63.95-25.88,8.07-54.47.25-73.17-20.03-3.03,21.49-17.74,39.41-37.79,45.95-22.63,7.39-48.15-.99-62.8-20.95-2.66,39.06-36.58,68.97-75.07,66.91-39.26-2.1-70.09-36.75-67.4-76.6-13.36,21.99-39.23,32.28-62.3,25.54-19.24-5.62-33.86-22.31-37.79-42.9-20.5,27.07-56.97,35.2-84.76,20.43-23.81-12.65-37.5-40.1-33.71-68.43-23.08,17.79-53.72,16.02-70.46-1.02-18.13-18.45-11.65-46.34-11.24-48-26.29,17.69-60.45,12.4-77.62-9.19-13.59-17.1-14.94-42.44-3.06-63.32-23.7,9.83-50.84.02-62.3-21.45-12.35-23.13-3.15-53.55,21.45-66.38-25.02,1.05-47.31-14.52-54.13-36.76-7.85-25.62,6.39-54.98,33.7-65.37-28.18-2.4-50.06-22.75-53.1-46.97-3.33-26.55,17.52-45.34,19.4-46.98-2.75-1.72-21.88-14.07-24.51-36.77-2.54-21.93,11.39-44.43,34.73-54.13-20.01-6.55-33.87-24.27-34.73-43.91-1.02-23.42,16.61-45.44,41.87-50.04a47.31809,47.31809,0,0,1,16.34-86.81c-23.24-20.23-29.12-51.67-16.34-73.54,12.65-21.63,38.45-25.12,41.88-25.53-16.6-19.43-17.23-46.82-3.07-64.34,10.78-13.33,28.93-19.44,46.98-16.34-21.34-23.11-23.52-57.63-6.13-81.7,15.28-21.14,43.1-30.67,69.45-23.49-12.38-20.56-8.49-46.56,8.17-61.28,14.11-12.46,35.25-14.97,53.11-6.12a58.899,58.899,0,0,1,89.87-71.49c-4.41-15.33.52-31.59,12.25-40.85,14.1-11.13,35.59-10.25,50.05,3.06-2.85-32.04,17.32-60.92,45.95-68.43,24.07-6.3,50.57,3.43,66.37,24.64a55.29419,55.29419,0,0,1,107.25,9.07c17.43-25.17,49.19-35,75.58-24.51,21.97,8.73,37.13,30.33,38.8,55.14,12.07-11.47,29.36-14.64,42.9-8.17,17.13,8.2,25.81,30.69,17.36,51.07,20.59-18.6,51.53-19.62,72.51-3.07,22.4,17.68,27.73,50.88,11.23,75.58,20.5-12.72,47.01-9.55,63.32,7.15,15.12,15.47,18.53,39.53,8.17,59.23,25.34-12.29,55.04-5.52,70.47,14.3,18.37,23.58,13.43,61.64-14.3,81.7a60.31305,60.31305,0,0,1,54.52,92.53c23.32-.7,44.34,13.72,51.7,35.13,7.93,23.11-1.76,49.39-23.49,62.3,17.12,3.58,30.45,16.56,33.7,32.68,3.91,19.42-7.46,40.09-27.57,48a53.05259,53.05259,0,0,1,7.14,101.11C1633.42,1085.68,1647.68,1104.99,1648.15,1126.28Zm-107.24-35.75c2.3-39.23,7.8-194.13-81.7-366.64-28.91-55.74-61.32-118.19-130.72-176.68-32.69-27.54-124.65-105.03-259.4-105.19-86.98-.1-150.47,32.07-177.62,46.23-101.2,52.76-152.01,133.24-182.9,183.56-78.25,127.49-87,249.97-92.93,332.93-5.8,81.14-10.06,140.86,15.32,216.52,39.21,116.88,120.04,184.88,154.21,210.38,16.7,12.46,95.6,69.49,215.49,85.79,192.37,26.14,334.54-73.75,364.6-96,33.5-24.81,100.73-75.84,141.95-168.52C1534.53,1191.51,1538.04,1139.66,1540.91,1090.53Z"/></g><g id="Layer_4" data-name="Layer 4"><path class="cls-2" d="M1076.234,654.44684c-108.91943.58349-174.91516,120.03216-190.9787,149.10632-48.82684,88.374-41.04382,175.01618-36.76593,222.63837,3.96545,44.1438,9.91125,102.41955,50.04254,161.36169,16.06763,23.59912,49.28528,72.387,111.31915,93.9574,79.20655,27.54175,165.58094-3.13171,218.55323-50.04248,73.93335-65.47327,78.42053-158.69739,81.68725-226.56775,2.227-46.26947,6.74561-140.14545-54.11279-228.92169C1235.60767,746.26263,1172.31274,653.93213,1076.234,654.44684Z"/></g></svg>