<svg xmlns="http://www.w3.org/2000/svg" viewBox="0 0 2000 2000"><defs><style>.cls-1{fill:#edaf04;}.cls-2{fill:none;stroke:#edaf04;stroke-miterlimit:10;stroke-width:100px;}</style></defs><g id="Layer_4" data-name="Layer 4"><path class="cls-1" d="M1502.9,162.18a460.20926,460.20926,0,0,0-122.05993-24.71,416.68793,416.68793,0,0,0-148.40015,17.7C1166.79,175.4,1107.85,210.8,1057.27,260.4a461.704,461.704,0,0,0-72.51033,91.85933.91806.91806,0,0,0,.32371,1.25919l.427.25214a.91465.91465,0,0,1,.26661,1.33647l-10.815,14.41694a.918.918,0,0,0,.18316,1.28619A461.4621,461.4621,0,0,0,1077.27,427.97c53,21.38,107.47,32.14,162.46,32.14q19.78491,0,39.64-1.86a416.60064,416.60064,0,0,0,143.89-40.37,460.20263,460.20263,0,0,0,103.34-69.49,504.685,504.685,0,0,0,41.88-41.73c9.54-10.69,17.78-20.81,24.71-29.88l6.49-8.7,0,0a46.94485,46.94485,0,0,0-14.637-69.04251A509.55267,509.55267,0,0,0,1502.9,162.18ZM1270.04,358.69a325.12283,325.12283,0,0,1-119.29217-11.15136,17.986,17.986,0,0,1-6.92823-30.89725A327.30636,327.30636,0,0,1,1261.88,250.74c69.36238-21.36426,133.91459-15.41365,185.927-.96719a16.81206,16.81206,0,0,1,6.32741,29.0296C1410.63133,315.68476,1349.28474,351.265,1270.04,358.69Z"/><path class="cls-1" d="M1593.18994,276.78l-22.61419,30.29886a.91323.91323,0,0,1-1.2774.18788l-.01566-.01164a.91818.91818,0,0,1-.13519-1.34454C1578.4049,295.497,1586.42216,285.63775,1593.18994,276.78Z"/><path class="cls-1" d="M1599.67993,268.08q-3.015,4.155-6.49,8.7Z"/></g><g id="Layer_3" data-name="Layer 3"><path class="cls-2" d="M922.85364,382.2439c-52.2583-5.09824-128.71448-11.78626-221.27429,16.95938-35.52564,11.03293-214.81192,70.82239-300.67691,253.77231-8.50812,18.128-53.287,116.69976-41.46341,243.90246,11.19757,120.46741,69.72982,229.68714,87.80487,263.41467,15.76693,29.42066,37.96,66.10682,39.11355,118.90845.95362,43.6482-13.07385,70.66675-26.91842,107.92078-23.32209,62.75683-64.48066,173.50928-34.14634,270.73169,27.61667,88.51233,103.95578,132.048,112.1951,136.58532,48.83924,26.89551,106.09265,34.16944,192.68293,19.51221,250.21356-42.35388,433.60577-214.7948,465.85369-246.34143,88.40345-86.48108,205.88257-201.40552,259.4419-395.41931,19.81164-71.76563,95.50989-345.97565-71.63709-565.55627C1236.29822,412.823,996.93549,389.47119,922.85364,382.2439Z"/><path class="cls-1" d="M981.63379,436.64648l-99.69531-7.80468c6.47168-82.67285,28.55468-160.29785,65.63427-230.71826A573.76474,573.76474,0,0,1,982.99414,139.647c22.38617-29.82889,63.06079-30.85336,82.00586-11.07251,15.09216,15.75794,16.72839,45.06784.28125,67.89478a471.5449,471.5449,0,0,0-29.22559,48.2456C1005.34863,303.0332,987.03809,367.6084,981.63379,436.64648Z"/></g></svg>