<svg xmlns="http://www.w3.org/2000/svg" viewBox="0 0 2000 2000"><defs><style>.cls-1,.cls-3{fill:none;stroke-miterlimit:10;}.cls-1{stroke:#9a4781;stroke-width:120px;}.cls-2{fill:#b8d72d;}.cls-3{stroke:#b8d72d;stroke-width:80px;}</style></defs><g id="Layer_3" data-name="Layer 3"><path class="cls-1" d="M1516.78,830.8c98.8,108.17,158.09,246.51,158.09,397.27,0,346.45-313.1,627.31-699.33,627.31-386.22,0-699.32-280.86-699.32-627.31,0-154.3,62.11-295.59,165.12-404.85"/></g><g id="Layer_7" data-name="Layer 7"><path class="cls-2" d="M955.84628,305.35387c6.42533-20.21487,12.87525-40.53371,16.02433-61.51011,4.97287-33.12489,3.10407-70.93524,26.53774-94.86954,12.74424-13.0165,30.95383-19.2314,48.92549-22.20875a177.47527,177.47527,0,0,1,104.72848,14.83823c28.13806,13.4423,53.79315,34.69657,84.81082,37.91366,20.63242,2.13995,42.09692-4.02688,61.92212,2.07539a53.03554,53.03554,0,0,1,35.807,40.40641c4.19088,23.28847-8.0426,46.78249-24.48785,63.79632s-37.01427,29.39182-55.129,44.616c-29.44106,24.74321-52.23663,57.07751-66.92249,92.62084-9.34812,22.62474-16.8091,48.32375-37.14656,61.94924-11.118,7.44874-24.65023,10.15159-37.78892,12.69662-38.10044,7.38022-76.27916,14.77582-114.89891,18.89649-24.55388,2.61986-88.348,16.374-98.34721-12.1192-8.983-25.5974,13.94174-66.89178,21.80756-91.63858Q938.76761,359.08537,955.84628,305.35387Z"/></g><g id="Layer_5" data-name="Layer 5"><path class="cls-3" d="M877.59576,520.65955c-39.91418,8.55676-58.30627,14.66162-77.11163,23.88592-26.47461,12.98621-49.69562,24.44446-64.38715,50.53168-13.02929,23.13562-15.03027,51.41119-9.28033,77.33337,5.74988,25.92218,18.73315,49.74628,34.11639,71.38831,9.63178,13.55047,20.29926,26.43805,32.63379,37.58465,33.42249,30.2035,77.78943,46.26355,122.45679,52.10682s90.00934,2.14129,134.75983-3.02753c69.04675-7.975,143.338-22.358,189.92883-73.93646,35.87317-39.71338,48.99292-96.1792,45.07483-149.55219-1.4165-19.29669-7.53809-59.32135-38.75183-85.072-10.538-8.69354-26.389-17.67621-93.69483-22.68939a907.82105,907.82105,0,0,0-159.15918,2.38656C943.405,506.67014,910.16382,513.67767,877.59576,520.65955Z"/><path class="cls-3" d="M807.79042,536.47368c-22.227-39.57859-63.835-65.31573-107.39585-78.08129S610.861,444.30851,565.48485,443.0803c-17.55994-.4753-35.347-.9291-52.45885,3.041-22.91631,5.31682-43.25383,18.23255-62.69262,31.48243-39.69453,27.05661-78.50715,57.18546-105.37142,97.01041-34.09921,50.55037-46.34377,115.32348-33.05,174.83291,5.5899,25.02316,17.41878,51.19721,40.61163,62.1287,9.80029,4.61917,20.756,6.06027,31.52542,7.24443a884.90885,884.90885,0,0,0,319.24907-23.29939c23.67511-6.17711,50.54878-16.64712,57.34518-40.15194"/><path class="cls-3" d="M711.15408,454.83369c-.09516-34.00925,15.90724-66.73513,39.00609-91.69672s52.8621-42.86144,83.7125-57.17546a487.92676,487.92676,0,0,1,195.68782-45.07909c17.08891-.31455,34.39737.30278,50.84679,4.94459,38.30575,10.80938,67.09458,41.66685,93.7707,71.20594,29.45473,32.61591,60.51936,69.07338,62.37529,112.98162.93807,22.19343-8.169,46.905-28.528,55.78963"/><path class="cls-3" d="M1265.82034,731.33879c31.13015,33.99436,72.21775,57.86836,115.70009,73.165s89.45034,22.37932,135.37693,26.31007c22.53507,1.92873,45.56589,3.07878,67.46829-2.56342s42.81914-19.08571,52.40074-39.57333c7.48306-16.00044,7.4-34.37035,6.97322-52.029-.90127-37.29389-4.19821-78.2115-30.29274-104.87087-8.57946-8.76517-19.09873-15.33836-29.50851-21.82464L1458.32073,531.681c-16.183-10.08354-32.45692-20.21431-50.06876-27.5212-58.91933-24.44474-125.72881-14.98511-188.75076-5.12274"/></g></svg>