<svg id="Layer_8" data-name="Layer 8" xmlns="http://www.w3.org/2000/svg" viewBox="0 0 2000 2000"><defs><style>.cls-1{fill:#657f40;}.cls-2{fill:#e1a149;}.cls-3{fill:#5c4037;}.cls-4{fill:none;stroke:#657f40;stroke-miterlimit:10;stroke-width:100px;}</style></defs><path class="cls-1" d="M1320.68716,311.963c315.62931,250.28677,374.52958,709.89427,129.54123,1031.95389-244.98828,322.05952-703.64354,387.96654-1029.093,150.58929L360.58,1574.1118A843.27644,843.27644,0,0,0,1590.31292,474.48457a837.03321,837.03321,0,0,0-209.07037-242.12713Z"/><path class="cls-2" d="M1205.51573,463.36642c233.91072,185.47281,277.56278,526.068,96.01175,764.73344s-521.44142,287.50266-762.61732,111.58061L478.35481,1419.286A650.62994,650.62994,0,0,0,1266.071,383.76093Z"/><path class="cls-3" d="M818.25609,1185.7896q-20.24715,39.64138-40.4943,79.28278a12.321,12.321,0,0,0-1.31636,4.72594c-2.05439,28.81982,17.18219,53.76566,41.34574,58.46826,27.78918,5.40815,58.75982-16.60662,62.43734-49.96032a12.02379,12.02379,0,0,0-1.03635-6.27575q-19.45876-42.86666-38.9175-85.73335A12.22482,12.22482,0,0,0,818.25609,1185.7896Z"/><path class="cls-3" d="M966.83585,1144.17478q-3.36945,44.38506-6.73888,88.77013a12.32083,12.32083,0,0,0,.61063,4.86769c9.23357,27.3778,36.61082,42.9607,60.71609,37.96793,27.72214-5.742,47.78975-38.00836,38.30269-70.19515a12.02388,12.02388,0,0,0-3.37931-5.38882q-34.50224-32.02794-69.00446-64.05594A12.22482,12.22482,0,0,0,966.83585,1144.17478Z"/><path class="cls-3" d="M1096.54907,1076.62808q22.11057,38.633,44.22114,77.266a12.3209,12.3209,0,0,0,3.23625,3.687c23.00256,17.48384,54.4079,15.02512,71.56176-2.63095,19.72768-20.30531,18.23869-58.27389-7.67155-79.5965a12.02387,12.02387,0,0,0-5.82056-2.56518q-46.52914-7.1577-93.05829-14.31544A12.22482,12.22482,0,0,0,1096.54907,1076.62808Z"/><path class="cls-3" d="M1158.24413,944.58138q40.39371,18.70119,80.78743,37.40239a12.32083,12.32083,0,0,0,4.77325,1.13287c28.87766.93991,53.062-19.24566,56.828-43.5728,4.331-27.9773-18.86339-58.07468-52.33423-60.46142a12.02382,12.02382,0,0,0-6.231,1.27793l-84.1665,42.19928A12.22482,12.22482,0,0,0,1158.24413,944.58138Z"/><path class="cls-3" d="M1133.31592,791.26517q44.35458,3.74929,88.70918,7.49858a12.32091,12.32091,0,0,0,4.87274-.56894c27.45584-8.99886,43.27254-36.2417,38.48632-60.38883-5.50442-27.77028-37.59785-48.11339-69.86467-38.90222a12.02389,12.02389,0,0,0-5.41755,3.33306q-32.32215,34.22679-64.64433,68.45355A12.22482,12.22482,0,0,0,1133.31592,791.26517Z"/><path class="cls-3" d="M691.40046,1139.218a11.99237,11.99237,0,0,1-.13606,8.23923q-15.61422,41.6847-31.25032,83.36518a12.20356,12.20356,0,0,1-2.59635,4.15643c-14.24642,14.99535-34.37907,20.60043-51.92813,17.17686Z"/><path class="cls-3" d="M1128.25641,564.93087c16.04376,15.65959,22.07891,42.84134,9.89961,66.48284a12.10248,12.10248,0,0,1-4.33376,4.65674q-39.915,24.97072-79.83185,49.92767a12.18626,12.18626,0,0,1-15.88891-2.55036Z"/><path class="cls-2" d="M1288.00942,437.93462,547.02305,1429.80733a30.09645,30.09645,0,0,1-41.48626,6.562l-41.53006-29.36338a30.09645,30.09645,0,0,1-6.57856-42.79581l750.62674-986.76757a30.09646,30.09646,0,0,1,42.175-5.73229l31.88968,24.25824A30.09646,30.09646,0,0,1,1288.00942,437.93462Z"/><path class="cls-4" d="M423.25582,1555.13043q-52.94337-38.19765-105.88681-76.3954a30.07342,30.07342,0,0,1-6.33951-42.59589q235.67-344.19389,488.97583-674.85369,221.11625-288.64093,455.68343-566.98739a.34222.34222,0,0,1,.03888-.0511q3.45718-3.74954,119.41242,96.04965"/></svg>