<svg xmlns="http://www.w3.org/2000/svg" viewBox="0 0 2000 2000"><defs><style>.cls-1{fill:none;stroke:#4d9129;stroke-miterlimit:10;stroke-width:80px;}.cls-2{fill:#4d9129;}</style></defs><g id="Layer_3" data-name="Layer 3"><path class="cls-1" d="M980.77612,530.36642l87.354-11.376a79.45415,79.45415,0,0,1,89.5916,74.17525c4.199,72.52282,8.187,161.07149,10.27509,261.63347,4.86438,234.2674,7.2965,351.40107-10.99683,451.05451-20.679,112.64982-85.47116,319.36908-335.86425,541.69405a2.53953,2.53953,0,0,1-4.05292-2.82862,2060.12383,2060.12383,0,0,0,125.283-465.69466c44.5494-304.86492,12.44392-566.59742-28.90323-752.64873A79.44954,79.44954,0,0,1,980.77612,530.36642Z"/><path class="cls-2" d="M983.39209,545.61865a1032.35573,1032.35573,0,0,0-23.8208-142.61133c-7.78174-32.374-17.26025-64.7583-28.17188-96.2539a46.24869,46.24869,0,0,1,30.47864-35.04611c24.56232-8.34815,44.25873,8.11618,45.11316,8.85665,10.89343,31.44251,21.31152,66.0857,30.36426,103.7461a1112.53727,1112.53727,0,0,1,25.67383,153.70019Z"/></g><g id="Layer_4" data-name="Layer 4"><path class="cls-2" d="M1053.14282,537.71216a2534.16141,2534.16141,0,0,1-48.90054,945.51573,2518.68552,2518.68552,0,0,0,45.041-352.04235c2.25926-38.66279,3.57279-79.32833,3.94038-118.08809a2506.04545,2506.04545,0,0,0-21.43651-352.846q-7.75309-58.36641-18.15146-116.27954l39.50714-6.25976Z"/></g></svg>