<svg xmlns="http://www.w3.org/2000/svg" viewBox="0 0 2000 2000"><defs><style>.cls-1,.cls-3{fill:none;stroke-miterlimit:10;}.cls-1{stroke:#256823;stroke-width:80px;}.cls-2{fill:#256823;}.cls-3{stroke:#ff9704;stroke-width:100px;}.cls-4{fill:#ff9704;}</style></defs><g id="Layer_6" data-name="Layer 6"><path class="cls-1" d="M1054.62567,509.61209a37.2395,37.2395,0,0,1-38.19446-48.02943c16.8707-55.13961,52.641-135.73755,129.2497-202.88054,124.10693-108.77235,274.59934-111.42358,353.59443-103.32224a37.23582,37.23582,0,0,1,28.61458,55.298c-32.11557,56.9664-90.47233,138.4072-189.51077,203.57475C1230.16957,485.4548,1122.62664,504.83581,1054.62567,509.61209Z"/></g><g id="Layer_5" data-name="Layer 5"><path class="cls-2" d="M1093.59574,286.24468a1.5009,1.5009,0,0,0,0-3,1.5009,1.5009,0,0,0,0,3Z"/><path class="cls-2" d="M902.68225,202.3771q8.69523,37.01422,14.58457,74.6112,1.66959,10.67327,3.10985,21.38052L918.76923,286.406q5.05833,37.68408,7.28709,75.674,2.21533,37.95628,1.562,76.00744-.36777,21.32258-1.644,42.61575A33.89008,33.89008,0,0,0,929.85,498.04081a46.24935,46.24935,0,0,0,41.12437,27.66243l11.96278-1.60745a44.95818,44.95818,0,0,0,19.857-11.57275l7.03637-9.10744a44.79229,44.79229,0,0,0,6.14382-22.71236q1.70487-28.57059,1.78987-57.20583.07793-28.48044-1.45626-56.93485-1.54041-28.57956-4.7009-57.041-3.793-34.15336-9.44461-68.09134-4.7543-28.22311-11.11292-56.1445-.77908-3.41986-1.58214-6.8342a33.89105,33.89105,0,0,0-8.05456-15.30331,34.00758,34.00758,0,0,0-12.62564-11.59009,33.49136,33.49136,0,0,0-16.731-5.3401,34.08715,34.08715,0,0,0-17.94417.80372l-10.74958,4.53638A45.22333,45.22333,0,0,0,907.21862,167.702l-4.53637,10.74958a45.31788,45.31788,0,0,0,0,23.92556Z"/></g><g id="Layer_2" data-name="Layer 2"><ellipse class="cls-3" cx="1004.2425" cy="1176.65112" rx="715.93025" ry="665.69369"/></g><g id="Layer_4" data-name="Layer 4"><path class="cls-4" d="M623.854,1469.03516c-51.36621-40.31348-91.20312-89.582-118.40429-146.43457-2.80713-5.86719-27.67871-59.51758-36.6333-135.82715-5.16309-44-3.94678-86.94532,3.61523-127.64551a369.99671,369.99671,0,0,1,58.25-141.667c72.32568-106.13574,177.669-146.53809,234.02588-161.17481,32.02112-4.35174,59.512,18.54566,61.59033,45.33087,1.66016,21.39637-13.053,43.24347-36.45264,51.4582a316.7535,316.7535,0,0,0-84.08477,34.84124c-32.04352,18.89423-65.47992,46.29108-92.44208,85.857-38.79443,56.92968-54.03076,124.374-45.28613,200.46094,7.04,61.25683,27.43115,104.7998,27.63623,105.23242,20.49707,42.84082,50.75586,80.16211,89.9248,110.90234,17.90216,17.39673,21.2002,44.44373,8.9599,63.84363C680.47131,1476.53137,648.67761,1484.20593,623.854,1469.03516Z"/></g></svg>