<svg xmlns="http://www.w3.org/2000/svg" viewBox="0 0 2000 2000"><defs><style>.cls-1,.cls-3{fill:none;stroke-miterlimit:10;stroke-width:80px;}.cls-1{stroke:#fde196;}.cls-2{fill:#fde196;}.cls-3{stroke:#adc806;}.cls-4{fill:#8c4135;}.cls-5{fill:#adc806;}</style></defs><g id="Layer_5" data-name="Layer 5"><line class="cls-1" x1="1030.4704" y1="490.21475" x2="995.51413" y2="1704.6263"/><path class="cls-2" d="M984.48309,1045.88135a250.90788,250.90788,0,0,0-27.88092,40.12524c-44.99426,84.14551-67.49139,126.21839-70.58087,135.504-15.743,47.31738-44.69031,134.32166,2.29785,199.91492,28.06165,39.17273,80.08344,66.35022,134.80854,62.0426,5.52038-.43457,67.03588-6.24524,106.18225-56.79041,51.93029-67.05163,23.95324-160.47827,8.048-213.59265-7.86377-26.2605-23.915-55.80481-56.01746-114.89355-32.96276-60.67212-49.97961-81.65546-66.07537-79.73163C1006.7594,1019.4765,999.334,1028.27808,984.48309,1045.88135Z"/></g><g id="Layer_3" data-name="Layer 3"><path class="cls-3" d="M1028.91028,482.47476a271.85928,271.85928,0,0,0-47.52,3.8667c-18.02326,3.19748-59.44135,11.02643-98.17749,41.46707-22.62506,17.77985-34.94617,35.89539-45.95746,52.08509-7.00677,10.30194-25.97845,39.59912-51.06384,120.51062-11.746,37.88617-11.49567,44.07159-19.40424,70.46807C751.41931,822.166,732.92279,857.39,693.25531,929.17023c-79.972,144.71331-73.45276,125.78875-83.74469,149.10638-15.6217,35.39307-56.14227,130.016-50.04254,254.29785,2.43671,49.64759,5.62421,114.59253,45.95746,184.85108,52.20953,90.94641,132.3313,130.99609,161.36169,145.02124,61.13355,29.53479,112.08386,34.37378,169.53192,39.82983,63.12982,5.99573,174.72309,15.29236,298.21271-36.766,47.04163-19.83093,105.50391-44.47632,155.23413-105.19153,53.24255-65.00342,66.04895-134.20349,73.53186-174.63818,16.28638-88.0044,2.25891-158.10791-4.65137-190.97876-12.79382-60.858-33.87231-106.61463-76.02941-198.12769-17.29187-37.5365-24.93653-50.58239-50.04261-106.21277-25.33581-56.13928-38.00366-84.20886-50.0426-117.44677-27.37463-75.57752-41.06189-113.36627-46.97864-155.23407a135.02469,135.02469,0,0,0-10.21277-37.78723c-12.76574-29.01239-33.19751-46.1128-41.96545-53.28852-30.5658-25.01523-62.0498-32.07458-86.71545-37.6051C1066.79565,482.30392,1042.18481,482.36526,1028.91028,482.47476Z"/></g><g id="Layer_4" data-name="Layer 4"><path class="cls-4" d="M990.24906,1237.53216a16.05623,16.05623,0,0,0-24.08712-14.00982,118.05945,118.05945,0,0,0-19.63,14.07336c-31.27984,27.69751-37.61218,63.04834-39.82977,76.59583-2.98029,18.20727-5.22986,31.95019,3.06378,44.93616,11.31042,17.70971,37.79474,27.06811,54.12769,18.38293,11.842-6.29712,15.5733-20.60425,19.40423-46.97876A681.99966,681.99966,0,0,0,990.24906,1237.53216Z"/><path class="cls-4" d="M1019.55048,1237.53216a16.05624,16.05624,0,0,1,24.08713-14.00982,118.05939,118.05939,0,0,1,19.63,14.07336c31.27985,27.69751,37.61219,63.04834,39.82978,76.59583,2.98028,18.20727,5.22985,31.95019-3.06379,44.93616-11.31042,17.70971-37.79473,27.06811-54.12768,18.38293-11.842-6.29712-15.5733-20.60425-19.40424-46.97876A681.99966,681.99966,0,0,1,1019.55048,1237.53216Z"/></g><g id="Layer_6" data-name="Layer 6"><path class="cls-5" d="M977.35352,453.48047a239.68976,239.68976,0,0,1,25.41992-116.36182c34.88086-68.77344,93.041-100.86181,124.60449-113.86816,3.24683.12057,21.59326,1.10231,33.10693,15.53433,12.25965,15.367,11.77,39.71271-2.62841,58.43247-13.10926,5.35018-58.14295,25.63381-83.73536,76.08886a159.90772,159.90772,0,0,0-16.81445,77.44092Z"/></g></svg>