<svg xmlns="http://www.w3.org/2000/svg" viewBox="0 0 2000 2000"><defs><style>.cls-1{fill:#7ecc4c;}.cls-2{fill:none;stroke:#d3334f;stroke-miterlimit:10;stroke-width:80px;}.cls-3{fill:#d3334f;}</style></defs><g id="Layer_4" data-name="Layer 4"><path class="cls-1" d="M992.65967,655.50049l-80-.06445A646.25366,646.25366,0,0,0,777.04932,258.70215c-9.63465-21.17278-1.57416-45.33527,16.29113-55.149,14.34632-7.88066,33.2555-5.54175,46.92957,6.12747A726.2557,726.2557,0,0,1,992.65967,655.50049Z"/><path class="cls-1" d="M1052.23535,656.0791l-79.66211-7.34961c5.73682-62.17383,11.9375-125.21582,18.43018-187.37451,8.5249-81.60352,17.82666-164.28174,27.645-245.73779.96765-24.9213,21.15222-43.1868,41.24524-42.7023,22.47216.54185,43.3208,24.50061,38.18054,52.27652q-14.72461,122.14544-27.50391,244.47558C1064.11133,531.50635,1057.94238,594.22461,1052.23535,656.0791Z"/><path class="cls-1" d="M1118.19141,655.01562l-79.83008-5.22265a641.33732,641.33732,0,0,1,110.03222-320.06934,678.16533,678.16533,0,0,1,82.42188-99.3623c17.15723-12.28565,40.7428-9.68357,54.26965,5.36207,12.55139,13.96065,13.65174,35.53075,2.18543,51.31957-41.15039,40.94321-105.04566,116.18591-141.90528,227.77832A564.74708,564.74708,0,0,0,1118.19141,655.01562Z"/></g><g id="Layer_3" data-name="Layer 3"><path class="cls-2" d="M1208.48938,698.36169c-77.12146-24.93518-140.124-25.75726-196.08514-26.04254-65.275-.33276-144.10456-.73468-235.91486,35.234-65.59174,25.697-136.72406,53.56458-179.23407,125.61707-52.85608,89.58856-28.44873,191.53-13.78723,252.76593C601.40192,1160.8396,634.03235,1212.68311,647.80853,1233c16.43787,24.24231,57.4466,83.48315,127.14893,125.61707,19.48163,11.77636,44.591,24.26318,83.75921,52.05114,28.05591,19.9043,42.08387,29.85645,55.645,44.45948,7.17273,7.72375,43.0354,47.46838,56.68085,111.82971q.09118.43029.18054.85925c3.70954,17.81506,27.1922,22.10217,36.85382,6.68164a465.707,465.707,0,0,1,36.49756-50.43445c38.65015-46.4978,77.62207-74.83252,121.78308-106.50586,74.41809-53.37439,80.06165-42.81323,123.32337-78.85583,14.08093-11.7312,72.7301-62.21045,114.89355-150.12769,14.63343-30.51294,46.18994-98.24743,45.13062-190.82238-.507-44.30689-1.27527-111.44239-43.59876-175.30524C1355.33789,745.84131,1275.26733,719.95258,1208.48938,698.36169Z"/><path class="cls-3" d="M914.36169,1524.06384a269.24262,269.24262,0,0,1,19.14893,62.04248c3.04895,16.976,5.28784,39.0127,0,114.12769-4.94147,70.194-8.5528,74.47693-4.5957,93.4469a129.49657,129.49657,0,0,0,6.018,20.314c4.59727,11.88015,22.31216,7.93918,21.60663-4.7799q-.02715-.48936-.05015-.981c-1.30786-27.96338,8.28644-49.14124,27.475-91.49695,19.64727-43.36816,23.98278-37.72656,41.46112-79.31152,7.41186-17.63452,13.55786-35.12683,28.34045-58.21277a266.78615,266.78615,0,0,1,22.21277-29.87232"/></g></svg>