<svg xmlns="http://www.w3.org/2000/svg" viewBox="0 0 2000 2000"><defs><style>.cls-1{fill:#dee8ad;}.cls-2{fill:none;stroke:#438008;stroke-miterlimit:10;stroke-width:60px;}.cls-3{fill:#438008;}</style></defs><g id="Layer_7" data-name="Layer 7"><path class="cls-1" d="M550.92572,841.47528c139.51211,24.6325,209.3166,130.3206,237.49245,261.165,5.04647,22.82737,10.17594,46.14355,12.9521,69.39659,3.60962,32.7389.61415,64.948,2.22366,97.31608.33455,10.21281,1.3,25.26188,2.02716,35.63281,8.29477,99.566,19.45395,200.76985,57.87772,292.05529,23.18194,54.602,59.599,106.33449,100.69806,150.7173,5.96017,6.21263,12.36479,13.40679,18.58781,19.36458,9.43457,9.67729,22.658,22.12449,32.593,31.46245,6.20169,5.42145,14.25725,12.75755,20.39963,18.55048l-3.13707,5.11479c-11.2092-4.68384-23.25817-9.632-34.04493-15.3232-130.61837-66.0633-218.23171-185.86175-231.92064-332.62962-2.59993-23.692-4.15209-51.00213-5.07847-74.87747-1.22666-41.74132-3.6127-87.91061-3.09669-129.63259-.02091-30.0795,4.42765-60.62189,3.54182-90.224-.49736-17.35366-3.02465-35.25038-5.45646-52.4622C743.3708,1024.97462,710.15835,928.46835,615.9587,874.6946a281.33139,281.33139,0,0,0-66.33121-27.36136l1.29823-5.858Z"/><path class="cls-1" d="M1424.55664,591.21783C1280.21949,744.872,1254.14806,932.89855,1315.70792,1129.768c11.262,39.23081,29.6247,75.95975,41.276,115.55092,8.6877,28.63271,15.27485,59.42378,22.1206,88.56517,10.05563,44.09663,20.07952,90.34335,14.74274,136.25628-11.66271,103.22583-83.06466,180.27177-166.76,234.33729-19.25237,12.51836-38.80929,23.80972-58.75929,34.75948-13.12466,7.23717-27.41051,14.53368-41.08443,20.66433-34.66358,15.57949-70.94874,27.82378-108.22272,35.07612l-1.999-5.6573c39.52058-20.97707,76.77494-43.39244,112.47376-69.648,92.28177-69.12273,193.85619-148.86116,205.17182-271.76052,1.6115-20.4224.55768-39.96271-1.78817-60.8841-3.00811-26.7833-7.78541-54.55019-12.27177-81.39266a534.95416,534.95416,0,0,0-22.159-88.3829c-6.49488-18.88371-13.91486-39.57468-19.40651-59.48847-14.45847-53.38815-24.62532-108.26719-26.89884-163.68527-4.71272-99.02819,17.19716-200.07535,68.451-285.31326a524.36214,524.36214,0,0,1,56.49323-77.64279l1.8411-2.13129,1.897-2.08368,7.58179-8.32593q15.40064-16.42484,31.92968-31.62909l4.21973,4.2655Z"/></g><g id="Layer_6" data-name="Layer 6"><path class="cls-2" d="M1048.65955,1810.53186c-15.25293,22.87256-87.61945,7.97107-140.93616-16.34033-77.04157-35.12952-167.48731-114.15564-187.91486-214.46814-4.18792-20.56531-9.998-64.44287-16.34045-112.34046-6.62763-50.05114-6.95746-59.17981-12.25531-81.702-10.63214-45.19934-18.48316-78.57544-46.9787-108.25537-12.48517-13.00415-32.61206-33.96753-63.492-40.37915-17.73188-3.68164-31.29163-.96277-54.97614-10.6847-13.86481-5.69116-26.98721-11.07751-30.63827-22.468-5.92411-18.48181,20.20224-30.57422,16.34042-49.02137-3.90543-18.65551-32.57334-15.59228-67.40424-44.93615-13.90625-11.71558-34.03555-28.67383-36.766-53.10633-3.02261-27.04712,18.223-36.89007,12.25531-55.149-7.59753-23.24579-44.01727-13.36353-71.48935-42.89362-22.731-24.43384-30.24222-66.07532-15.48071-90.3258,3.98193-6.54163,11.39722-18.72358,25.41788-24.565,8.322-3.46722,13.43539-2.39428,18.65857-7.66235,8.80551-8.88116,6.53738-24.30054,6.12765-26.80853-2.2608-13.83869-10.113-15.13861-15.31915-32.93616-2.32312-7.94183-4.11557-14.06946-2.24262-21.54425,3.43732-13.7179,16.73542-22.05743,23.00483-25.98908,9.26144-5.808,11.40979-4.15563,17.025-9.14752,6.4996-5.77807,9.59259-13.30041,12.766-26.80853,6.86316-29.21448,1.6004-33.21039,6.89362-45.95746,9.90249-23.84711,37.63977-32.30237,39.8298-32.93616,22.83124-6.6073,43.43927,2.0785,56.68085,7.65955,10.84912,4.57269,9.37518,5.97772,18.383,9.19153,26.8866,9.59259,51.66547,1.23035,55.14893,0,15.9046-5.61743,13.90668-10.77435,38.29785-24.51062,11.92285-6.71454,25.55383-14.391,41.36169-17.61707,25.66724-5.23816,47.25776,3.26007,67.4043,11.48938,25.49964,10.4159,43.73877,23.10767,73.53186,46.72339,45.927,36.40436,68.8905,54.60651,81.95746,69.70215,44.18115,51.04028,64.46307,106.75067,67.4043,131.74469,1.25537,10.66785,2.827,21.29651,4.1239,31.95935,1.40271,11.53278,2.4107,20.5863,5.34027,32.69067,4.73639,19.56983,8.73383,23.308,10.94287,24.99695,8.04285,6.14911,19.03424,5.51129,20.89545,5.37573,8.09271-.58935,9.09472-3.73767,14.61236-3.10784,10.00849,1.14245,16.36725,12.60327,19.149,17.61706,7.12134,12.83539,6.65894,25.51215,6.413,30.53711-.23047,4.709-1.78076,11.34326-4.8811,24.61182-3.45654,14.7929-5.09631,18.627-3.06384,24.51068,2.51086,7.26831,8.6261,11.87573,10.55908,13.33215,5.3396,4.023,8.30762,3.72986,13.18567,6.58264,8.31885,4.865,12.0448,12.94422,14.5531,18.38306,9.72375,21.08459-.43677,46.62122-3.82971,55.14893-5.30286,13.32788-12.75257,24.49841-27.57447,46.72338-5.73388,8.59778-9.36035,13.47351-12.25537,22.21277a70.179,70.179,0,0,0-2.29785,34.468c3.12769,16.22815,11.38172,25.13245,16.85108,33.70215,12.66125,19.8385,11.94311,40.30432,10.72338,75.06384-.50048,14.26416-2.75268,50.45593-26.0426,120.25537-22.34723,66.97425-33.40655,73.012-39.82971,117.19141-4.39783,30.249-7.98932,54.95166,1.944,84.10339,14.24506,41.80554,40.18366,76.74756,40.18366,76.74768,6.31469,8.50672,16.48584,21.091,18.38293,39.82984C1053.19385,1783.33972,1054.85974,1801.23438,1048.65955,1810.53186Z"/><path class="cls-2" d="M974.37909,913.1394a427.3494,427.3494,0,0,1,39.55707-36.05432c81.543-65.46264,144.58642-66.44061,151.14892-104.17016,5.20276-29.912-32.12927-42.47864-24.51062-77.61707,6.92774-31.95172,44.43116-52.165,53.31958-56.95563,30.4972-16.43713,44.27661-8.14349,56.97827-22.70391,19.27906-22.10041-3.93652-50.98584,4.08509-85.78724,13.2279-57.38861,101.35058-87.26724,155.23413-93.95745,56.33777-6.99494,150.79529,1.97866,175.65954,57.19149,5.0542,11.22309,14.07264,39.54489,5.49817,68.80881-7.69372,26.25812-23.7821,33.58295-21.83862,53.74439,2.11255,21.91491,22.015,22.53259,28.5957,46.97869,8.68885,32.27723-16.41589,66.83014-22.215,74.81183-17.81458,24.51923-38.13037,33.42462-34.97644,41.61371,3.57763,9.28913,30.56958.04071,43.89233,15.1391,10.11768,11.46619,6.31128,30.12817,5.12891,35.92474-8.73462,42.823-56.64685,54.398-89.87232,85.78724-40.84082,38.58392-43.79309,94.92144-49.69763,207.59661-5.61169,107.08777,9.621,116.83545,6.804,209.08423-2.93445,96.09131-5.19153,170.00208-46.97864,245.10645-60.22327,108.23974-169.28247,159.16357-246.98316,195.44507A739.9297,739.9297,0,0,1,1038.6582,1818.176"/><path class="cls-2" d="M364.40427,803.55316c-43.77152-25.98413-52.50177-44.51507-51.06385-57.19147,2.33164-20.55529,31.226-24.18689,38.80851-53.10638,6.04748-23.06512-9.78022-30.4892-8.1702-57.19147,1.48758-24.67193,15.901-33.27917,51.06381-79.6596,45.39984-59.88327,39.8544-69.91294,57.1915-75.57447,37.38611-12.20865,63.03464,34.47614,118.46811,32.68085,32.0108-1.03674,57.93756-17.7211,75.57446-32.68085"/><path class="cls-2" d="M788.90454,626.74341c-7.37006-16.185-20.61224-38.92169-44.58539-56.04126-38.54644-27.52661-66.73987-12.49017-89.87231-36.766-29.41486-30.86878-30.63556-98.64078,4.08508-132.76593,1.60065-1.57318,28.00372-26.81748,62.91876-26.54074,15.15442.12011,19.15033,4.947,31.0387,2.03009,20.6192-5.059,21.46112-22.73456,44.93616-42.89362,2.85248-2.44955,28.99743-24.35074,65.36169-28.59573,26.17944-3.05606,30.25867,6.23706,51.06384,2.04254,27.20392-5.48456,33.32435-24.01306,59.234-42.89362,6.11432-4.45556,57.22412-40.56364,114.38306-26.55319,30.28845,7.42413,65.94946,29.82172,79.64709,64.07892,12.05481,30.14871-1.12622,48.91327,16.45166,71.65637,15.38318,19.90357,34.01832,16.58154,50.965,29.71152,18.59143,14.40433,34.91138,48.42377,18.86609,137.18268"/><path class="cls-2" d="M1192.74609,382.67078c6.67334,2.185,29.53272,8.73852,54.04114-1.92609,22.9596-9.99066,37.63452-30.85736,42.61609-49.90561,4.17981-15.98257-.98816-21.03635,4.36267-31.79654,8.80518-17.70688,32.365-23.2565,52.79895-26.74631,59.18115-10.10727,144.01013-24.59477,165.38721,14.00666,11.094,20.03293-4.88672,36.3331,8.53723,53.59073,18.89,24.2846,60.28625,4.54446,80.765,23.20962,14.76844,13.46051,18.98633,47.19336-15.40332,129.98187"/><path class="cls-3" d="M912.41858,430.40732A686.3298,686.3298,0,0,1,1012.545,666.78215c5.13761,24.76728,10.59417,49.69218,14.40774,74.74107,8.96074,59.94255-3.24619,127.77267-30.05707,181.99425-2.625,5.13487-5.45375,10.203-8.62368,15.16393l-5.90014-1.09009c-3.50085-16.60194-5.40426-33.22807-7.25161-49.96869-4.40312-45.09342-8.57208-89.53437-7.6314-134.583.62548-23.63111,1.39532-47.44978-.67317-71.03652-.5329-7.26642-1.68386-16.3471-2.40933-23.63036a889.835,889.835,0,0,0-17.95561-101.98769c-4.96185-20.86124-10.82193-41.56757-17.34385-62.01974-6.55017-20.64013-14.04459-40.96456-21.99363-61.15564l5.30529-2.80237Z"/></g></svg>