<svg xmlns="http://www.w3.org/2000/svg" viewBox="0 0 2000 2000"><defs><style>.cls-1{fill:none;stroke:#2b8804;stroke-miterlimit:10;stroke-width:80px;}.cls-2{fill:#a7db53;}</style></defs><g id="Layer_4" data-name="Layer 4"><path class="cls-1" d="M915.89362,1277.42554c-30.29059-.07447-66.85267-10.08057-114.383-49.02124C676.10333,1125.6604,617.68085,942.447,617.68085,942.44684c-32.99927-103.48609-34.941-178.81183-38.80854-328.85108-5.89819-228.81408,28.95752-321.11734,55.149-373.78724,40.89337-82.23493,80.42487-107.5894,102.12763-118.4681C811.95612,83.34147,892.97662,110.31,919.9787,119.29787c172.76715,57.50728,244.07989,251.61216,266.27569,312.0265,50.87195,138.46738,41.01868,256.94888,33.97962,341.59055-2.12842,25.59344-15.02722,165.41613-90.19641,320.57678-31.18457,64.36963-72.91577,131.0271-142.6546,165.5509C953.17816,1275.97546,927.8371,1277.45483,915.89362,1277.42554Z"/></g><g id="Layer_3" data-name="Layer 3"><path class="cls-2" d="M685.79024,1864.60423q48.08176,2.2874,96.16357,4.57486a3.07386,3.07386,0,0,0,2.81325-1.52819A1413.327,1413.327,0,0,0,952.122,1413.17078a1411.5198,1411.5198,0,0,0,12.67049-421.20443,3.06347,3.06347,0,0,1,.45391-2.00584q55.27236-87.51835,110.54473-175.0367a3.08345,3.08345,0,0,0-4.94888-3.65236q-52.0197,60.73168-104.03943,121.46339a3.08344,3.08344,0,0,1-5.41527-1.758q-8.25155-102.31246-16.50311-204.625a3.08349,3.08349,0,0,1,.42944-1.8343q42.69315-71.15517,85.38629-142.3104a3.08344,3.08344,0,0,0-5.05476-3.50891l-82.109,102.96184a3.07972,3.07972,0,0,1-5.48833-1.78768,1461.19059,1461.19059,0,0,0-16.0267-164.31927c-6.5653-42.36089-14.60727-81.92828-23.41409-118.47772a3.08588,3.08588,0,0,0-6.0811.88006q3.5573,74.14421,8.04835,148.236,4.45354,73.47216,9.8256,146.8949a3.07885,3.07885,0,0,1-4.39157,3.00786q-78.51339-37.25378-157.02683-74.50761a3.08345,3.08345,0,0,0-3.03219,5.35135q81.24808,54.16538,162.49617,108.33076a3.08347,3.08347,0,0,1,1.37145,2.46617q3.47755,107.80323,6.9551,215.60653a3.08344,3.08344,0,0,1-4.05691,3.02462q-82.43385-27.478-164.86775-54.95589a3.08344,3.08344,0,0,0-2.34317,5.68852q83.39325,41.28785,166.78651,82.5757a3.07061,3.07061,0,0,1,1.70528,2.49885,1123.2077,1123.2077,0,0,1,1.89747,159.63524c-2.07306,34.94361-10.08674,142.28809-52.75867,281.12781-16.91455,55.03418-56.5586,145.94165-135.15625,325.5105-18.61937,42.53885-34.20128,77.78986-44.86066,101.82753A3.08339,3.08339,0,0,0,685.79024,1864.60423Z"/></g></svg>