<svg xmlns="http://www.w3.org/2000/svg" viewBox="0 0 2000 2000"><defs><style>.cls-1{fill:#d3efaf;}.cls-2,.cls-3{fill:none;stroke-miterlimit:10;}.cls-2{stroke:#3b9f05;stroke-width:60px;}.cls-3{stroke:#d3efaf;stroke-width:80px;}</style></defs><g id="Layer_5" data-name="Layer 5"><path class="cls-1" d="M888.53564,1892.791c-19.09149,11.58642-43.47918,6.46789-55.36541-10.25916-10.34021-14.55139-9.4198-35.35522,2.84686-50.0885,22.09009-19.22412,46.35382-38.92749,72.88428-58.624,17.27636-12.82618,35.13525-25.35352,53.08008-37.23536l44.165,66.70508c-16.75439,11.09278-33.42822,22.78906-49.5581,34.76465C933.31248,1855.332,910.4165,1873.749,888.53564,1892.791Z"/><path class="cls-1" d="M995.39062,1912.44141c-.35644-17.77149-.86572-35.85254-1.51318-53.73926-.9458-26.10547-2.21924-52.58985-3.78418-78.71387l79.85694-4.78516c1.60253,26.751,2.90625,53.86915,3.875,80.6045.66308,18.31543,1.18457,36.8291,1.5498,55.02832-3.54944,25.681-26.75012,42.07824-47.65161,38.33423C1011.45917,1946.25684,997.91211,1931.38538,995.39062,1912.44141Z"/><path class="cls-1" d="M1157.31641,1900.81445c-8.17969-16.72558-16.748-33.5459-25.46875-49.99218-11.48536-21.66016-23.59278-43.35157-35.98633-64.47266l69-40.48633c12.9707,22.10645,25.64355,44.81055,37.665,67.48145,9.12793,17.21582,18.09668,34.82031,26.65722,52.32715,4.72632,19.48645-5.15185,39.57482-22.99206,47.49829A41.31119,41.31119,0,0,1,1157.31641,1900.81445Z"/></g><g id="Layer_4" data-name="Layer 4"><path class="cls-2" d="M1005.95224,1203.05806a39.67494,39.67494,0,0,1-36.34555-41.62175A1231.41468,1231.41468,0,0,0,969,1020.06384c-7.79749-126.1875-33.019-218.37365-38.80853-238.97876-21.35517-76.00439-45.589-129.311-79.65955-204.25531-22.852-50.26707-44.89617-93.7688-63.94494-129.31855a39.69642,39.69642,0,0,1,17.523-54.40878l25.04744-12.26813a39.69414,39.69414,0,0,1,54.08942,20.34448c11.73684,28.088,25.61343,61.87268,40.817,100.07652,30.52509,76.70386,52.5318,132.00269,73.53192,194.04254,43.6092,128.83319,79.74323,235.58264,79.65961,373.78723a800.94293,800.94293,0,0,1-6.51024,101.272,39.709,39.709,0,0,1-42.67719,34.544Z"/><path class="cls-2" d="M1055.92639,887.65582a1320.97262,1320.97262,0,0,1,33.58423-149.46435c24.1012-84.15857,50.95068-146.33661,84.6698-223.683,14.47314-33.1992,33.38483-74.91026,56.94246-122.84036a39.71156,39.71156,0,0,1,53.04532-18.19584l11.83718,5.77424a39.69561,39.69561,0,0,1,18.01135,53.6094c-17.84583,35.2672-38.24865,78.19171-59.05933,127.63346-28.85449,68.55231-76.3291,182.98816-107.83582,338.50842a1603.0996,1603.0996,0,0,0-31.73779,307.548"/><path class="cls-2" d="M1013.25665,741.82178c4.72083-65.80377,12.64655-136.81671,25.11835-212.10382a2309.26293,2309.26293,0,0,1,57.40125-255.56913,39.71158,39.71158,0,0,1,44.99588-28.26278l.81137.14121a39.71914,39.71914,0,0,1,31.03937,51.08717,1357.77965,1357.77965,0,0,0-62.077,374.58577"/><path class="cls-2" d="M968.76965,615.236c-15.5296-87.77679-35.9234-181.6976-62.72155-280.45746Q885.236,258.07914,862.32038,187.69024a39.6972,39.6972,0,0,1,23.50982-49.28778l5.22955-2.01137a39.7054,39.7054,0,0,1,52.08622,25.028q21.59742,67.81529,42.19448,139.666,31.3658,109.712,55.70679,212.874"/></g><g id="Layer_3" data-name="Layer 3"><path class="cls-3" d="M989.70338,1199.50053q53.29772-.70322,106.5954-1.40638a25.04845,25.04845,0,0,1,25.3738,24.54034q.67169,33.24789,1.34337,66.49577a24.95964,24.95964,0,0,0,6.69808,16.54681c31.48921,33.69714,74.06091,90.27572,93.58382,169.87615,9.0409,36.86243,45.06323,183.736-44.10132,266.11365-55.00476,50.818-129.05322,50.67188-140.74975,50.48206-17.01319-.276-68.08057-1.7627-112.3404-34.72339-97.25128-72.42395-71.47564-229.66382-68.03857-250.63111,15.66712-95.57485,70.52773-160.18963,102.074-191.23095a24.9931,24.9931,0,0,0,7.43239-18.72371l-2.57261-71.3909A25.04847,25.04847,0,0,1,989.70338,1199.50053Z"/></g></svg>