<svg xmlns="http://www.w3.org/2000/svg" viewBox="0 0 2000 2000"><defs><style>.cls-1{fill:none;stroke:#f6a425;stroke-miterlimit:10;stroke-width:100px;}.cls-2{fill:#f6a425;}</style></defs><g id="Layer_3" data-name="Layer 3"><path class="cls-1" d="M1173.50439,247.97873C1104.53027,211.595,1040.97168,211.589,997.17865,212.108c-43.29541.51306-147.404,1.74676-237.73962,74.2335-22.44373,18.00925-72.40735,58.25882-91.40253,125.17493-5.74194,20.22766-6.00464,33.53589-6.15845,106.53238-.18036,85.58117-.27051,128.37176,0,151.21954.88635,74.86414,1.71265,144.6604-7.39587,214.22241-15.99585,122.1604-58.95319,215.5116-90.1651,283.3385-48.34967,105.06922-68.51621,110.75891-90.2439,187.80494-14.39166,51.03259-34.8869,123.70837-14.63415,204.87805,31.201,125.04846,139.621,192.13623,187.80487,221.95117,133.652,82.70068,267.99658,78.71667,347.99957,76.34412,74.99811-2.22413,186.65741-6.88245,303.21991-76.34412,48.43091-28.86084,138.3241-82.1117,185.36584-192.68286,7.04444-16.55786,51.07349-124.249,15.724-247.01453-35.92407-124.76062-119.10779-144.51074-147.43127-270.05871-15.52686-68.82477-21.95117-146.34131-21.95117-146.34144-1.10718-13.35876-1.99366-26.99633-3.42713-60.68524-3.09619-72.76465-4.12048-130.41473-4.89258-180.10614-1.59973-102.9602-1.66552-142.72461-6.12768-208.34042-4.80115-70.60077-8.69946-83.00876-11.10877-89.921C1275.07129,301.55508,1196.465,260.09039,1173.50439,247.97873Z"/></g><g id="Layer_6" data-name="Layer 6"><path class="cls-2" d="M796.40424,232.65958c-2.93018-10.53267,54.73175-27.244,92.82983-88.85106,18.43811-29.81558,25.8783-59.77221,29.10638-82.72341l134.80848-1.53192a125.03458,125.03458,0,0,0,8.21838,52.19879c19.13855,48.91913,63.90808,68.99425,74.505,73.41823C872.18042,239.83739,799.59271,244.12057,796.40424,232.65958Z"/></g><g id="Layer_7" data-name="Layer 7"><path class="cls-2" d="M836.09033,1702.77246a339.57833,339.57833,0,0,1-90.3501-54.13574,318.40278,318.40278,0,0,1-65.85839-75.3291c-36.01123-57.583-50.52637-123.76563-40.87159-186.35547,18.249-118.31055,113.88965-182.24121,142.76758-199.0166,29.56555-20.11048,63.3711-19.89136,77.249-5.375,16.53309,17.2937,12.56885,63.02246-27.01751,91.84375-10.84821,6.19861-81.86847,48.05493-94.168,127.792-12.84619,83.28125,44.30078,170.72754,135.88281,207.92773,24.25537,10.25257,38.31854,33.5741,35.29718,54.06751C905.06549,1691.02271,871.73578,1713.60364,836.09033,1702.77246Z"/></g></svg>