<svg xmlns="http://www.w3.org/2000/svg" viewBox="0 0 2000 2000"><defs><style>.cls-1,.cls-3{fill:none;stroke:#ef7f1b;stroke-miterlimit:10;}.cls-1{stroke-width:100px;}.cls-2{fill:#ef7f1b;}.cls-3{stroke-width:80px;}</style></defs><g id="Layer_3" data-name="Layer 3"><path class="cls-1" d="M1039.92688,635.122c-71.61261-1.63172-174.69012-2.91913-295.122,46.34149-58.842,24.0683-175.58838,73.667-258.26773,197.91742C416.144,985.16766,407.03055,1090.04077,403.34146,1140c-3.05356,41.35278-8.82956,132.94312,31.70731,239.02441C496.993,1541.12708,623.23108,1622.31458,659.439,1644.87805c153.1167,95.41687,305.68884,87.29712,387.80487,82.92688,95.75695-5.09619,292.80835-15.58313,449.52087-172.30749,33.69824-33.70081,168.15857-172.64209,167.55225-391.10718-.069-24.85474-4.21411-243.25952-178.04871-397.561C1345.28064,641.68384,1178.49585,638.27936,1039.92688,635.122Z"/></g><g id="Layer_4" data-name="Layer 4"><path class="cls-2" d="M1075.33887,622.49854l-98.4375-17.6084A371.634,371.634,0,0,0,937.4585,361.436c-19.752-26.89722-10.37024-63.97831,14.74066-77.61686,25.10339-13.63452,61.3034-1.3294,73.12311,29.86686a471.63415,471.63415,0,0,1,50.0166,308.8125Z"/></g><g id="Layer_5" data-name="Layer 5"><path class="cls-3" d="M1064.317,518.04877c1.9187-19.45795,13.67419-118.42877,100-187.80487,92.10165-74.01786,200.59969-59.30891,240.83574-50.30231a16.39634,16.39634,0,0,1,12.46177,19.315c-7.71763,37.33385-28.23282,104.28364-85.95462,162.75625-103.222,104.56466-241.14306,96.63955-262.46484,95.06033"/></g><g id="Layer_6" data-name="Layer 6"><path class="cls-2" d="M666.37256,1438.0957c-3.55029-5.42968-35.23633-55.1123-54.27735-126.72461-10.98632-41.31836-15.79638-82.35449-14.29687-121.96875a349.6926,349.6926,0,0,1,35.46582-141.75781c22.2832-45.41113,53.95654-85.43262,94.1416-118.9541A399.66353,399.66353,0,0,1,808.22754,876.437a50.15266,50.15266,0,0,1,43.81836,89.88867,292.48889,292.48889,0,0,0-63.778,41.94477c-23.7276,20.39166-47.69708,47.69684-65.22931,83.42584-28.35109,57.77734-33.16259,123.041-14.30127,193.97949,15.27735,57.45606,41.07081,97.2959,41.32959,97.69141,14.95582,22.93054,8.94581,53.63122-12.5791,68.82788C714.9032,1468.13977,682.169,1462.12341,666.37256,1438.0957Z"/></g></svg>