<svg xmlns="http://www.w3.org/2000/svg" viewBox="0 0 2000 2000"><defs><style>.cls-1,.cls-3{fill:none;stroke-miterlimit:10;stroke-width:60px;}.cls-1{stroke:#7ab744;}.cls-2{fill:#7ab744;}.cls-3{stroke:#dfcb7a;}</style></defs><g id="Layer_4" data-name="Layer 4"><path class="cls-1" d="M519.60193,914.41443c-4.66687-31.67157-9.43366-93.654,15.44684-164.65833,31.676-90.39746,92.13153-140.4129,114.63415-158.53662,74.42188-59.93982,150.86951-73.83093,190.2439-80.48776,76.29138-12.89822,135.32165-2.52808,148.78052,0,100.93841,18.96005,165.68414,71.50485,178.19842,81.93393,91.3761,76.1507,118.25806,173.8764,129.11865,215.627a460.082,460.082,0,0,1,8.24781,190.96808"/></g><g id="Layer_5" data-name="Layer 5"><path class="cls-2" d="M901.34045,1360.91492a194.4215,194.4215,0,0,1,29.87232,30.6383c22.15954,28.44776,26.0177,50.066,45.19147,88.08509,6.55645,13.00061,15.55743,27.30908,33.29187,55.3955,39.93743,63.24988,83.31353,127.46021,110.70819,167.49805,10.37365,13.84326,28.12158,14.11951,35.234,6.50659,5.84191-6.25305,5.88024-19.29651-2.29786-29.48523-24.83264-30.73572-44.46533-56.95569-58.21276-75.82983-54.25611-74.4895-72.17768-110.5304-79.65961-126.38294-14.20825-30.10412-21.05878-51.582-25.27661-72.766a279.69581,279.69581,0,0,1-5.3617-56.68078q-23.36169-9.57459-46.72339-19.149Q919.72342,1344.82972,901.34045,1360.91492Z"/><path class="cls-2" d="M1126.79,900.68262c-6.46985,20.70916-28.5874,29.51056-43.40711,22.35992-11.68627-5.63879-18.68627-21.12573-14.81164-36.87359a129.69147,129.69147,0,0,0,3.48437-43.2251c-3.49414-38.80274-24.17089-66.29492-36.18457-79.229a136.6743,136.6743,0,0,0-23.44336-20.09179c-15.52929-9.17646-20.64978-28.11463-13.81073-41.17621,7.81842-14.93207,30.61786-20.944,47.467-8.49567a196.49093,196.49093,0,0,1,33.74707,28.92871c17.22754,18.54737,46.8877,58.10742,51.98243,114.68018A189.94613,189.94613,0,0,1,1126.79,900.68262Z"/></g><g id="Layer_3" data-name="Layer 3"><path class="cls-3" d="M353.84927,378.58258a16.84534,16.84534,0,0,0-22.50774,12.84292,890.1797,890.1797,0,0,0-13.36591,138.8184c-1.19925,68.36126-1.95481,161.66711,39.357,268.43774a576.99481,576.99481,0,0,0,51.236,101.2902c9.37974,14.77186,32.21947,7.2978,31.07726-10.16309a404.57315,404.57315,0,0,1,22.23211-162.00388C497.45094,627.59,563.66952,567.18966,601.73575,538.57633a16.866,16.866,0,0,0-.24939-27.17561A1065.03865,1065.03865,0,0,0,478.95123,435.122,1064.99763,1064.99763,0,0,0,353.84927,378.58258Z"/><path class="cls-3" d="M862.52991,393.67142a16.865,16.865,0,0,0,16.43377,26.04928,427.04477,427.04477,0,0,1,154.3758,6.01953c91.87109,20.74375,156.84143,67.74421,194.66894,102.03809a16.864,16.864,0,0,0,28.20044-12.22272,967.46944,967.46944,0,0,0-65.76709-366.3493,16.84424,16.84424,0,0,0-22.28247-9.404A692.70755,692.70755,0,0,0,862.52991,393.67142Z"/><path class="cls-3" d="M447.37979,1009.13519c4.60822-20.10992,15.6261-41.955,60.006-83.55365C561.96643,874.42139,612.12854,844.82379,620.41461,840c47.33292-27.555,114.97893-62.82631,202.89835-96.23822A16.86693,16.86693,0,0,1,845.33279,754.344c28.82473,89.01848,54.44042,160.68989,72.6428,210.04623,53.90728,146.17126,81.0354,200.314,59.21795,270.73169C972.30194,1250.91,953.1073,1305.7395,900.90247,1340c-102.24213,67.09851-251.494,3.05859-329.26831-63.41467-64.94864-55.51123-89.69056-120.95862-112.19513-180.4878C446.15851,1060.96777,441.24469,1035.90845,447.37979,1009.13519Z"/><path class="cls-3" d="M983.49286,1093.042c18.60144-23.64917,48.5495-54.76037,93.01935-74.99322,59.81433-27.2143,105.96679-16.57849,200-14.63416,99.91113,2.06592,165.61279,3.42444,234.14636-17.07312,35.41235-10.59137,97.87732-34.88318,164.46472-96.44391,12.06311-11.15246,31.03394,1.439,25.426,16.88074-22.39673,61.67212-60.25916,138.35876-125.25232,212.062-119.23279,135.21155-257.15857,178.03394-364.63843,211.40357-72.01306,22.35815-124.877,28.39929-180.48779,17.07312-49.56415-10.09461-86.91309-31.05286-109.75617-46.34143"/><path class="cls-3" d="M1405.36879,891.9a15.41765,15.41765,0,0,0,15.85273,18.38888,354.61253,354.61253,0,0,0,74.80289-11.75227c96.10827-25.90961,158.753-86.67835,190.81367-124.64271a15.40213,15.40213,0,0,0-4.42966-23.47431c-41.50465-22.44224-108.36825-50.49608-193.70114-54.322a440.64622,440.64622,0,0,0-102.0853,7.36455,15.39925,15.39925,0,0,0-10.33454,23.00106A233.88944,233.88944,0,0,1,1405.36879,891.9Z"/></g></svg>