<svg xmlns="http://www.w3.org/2000/svg" viewBox="0 0 2000 2000"><defs><style>.cls-1,.cls-3{fill:none;stroke-miterlimit:10;stroke-width:60px;}.cls-1{stroke:#5aa313;}.cls-2{fill:#5aa313;}.cls-3{stroke:#e7bd99;}.cls-4{fill:#e7bd99;}</style></defs><g id="Layer_5" data-name="Layer 5"><path class="cls-1" d="M847.63489,954.26361c-12.13654-5.35724-22.47345-17.07922-21.99549-30.337.47327-13.1297,11.10505-24.87671,9.35907-37.89838-1.58709-11.8371-13.23034-20.088-24.93151-22.479-11.70124-2.391-23.786-.42646-35.72327-.05512-11.35321.35321-23.5539-1.07428-32.20416-8.43591-9.8992-8.42444-12.12436-26.77722,1.30049-32.77518a11.57311,11.57311,0,0,0,5.84532-5.42641c4.63112-9.6615-7.01106-13.514-15.36078-13.828-16.37207-.61579-33.73169-1.59961-47.2041-10.92261-13.47241-9.32294-20.29022-30.17224-9.425-42.43482,5.26435-5.94139,14.33512-10.25694,13.54485-18.48062a11.13543,11.13543,0,0,0-4.794-7.86952c-5.50173-3.92444-12.09819-3.88987-18.458-4.43593a99.16043,99.16043,0,0,1-58.04511-25.50134c-2.53058-2.32111-5.03509-4.93567-5.92291-8.25275-.85907-3.20978-.07684-6.62286.97974-9.77313a57.77483,57.77483,0,0,1,25.0653-31.01746c3.18879-1.89013,6.93158-3.94653,7.6297-7.58715.49836-2.59876-.776-5.185-2.12909-7.459-7.22979-12.15051-17.69567-21.98968-26.45489-33.08844s-16.07434-24.47021-15.16528-38.57971a26.811,26.811,0,0,1,4.05224-13.07172c4.89881-7.4209,14.01386-11,22.83863-12.09149s17.77844-.14429,26.65-.74695c2.60632-.17706,5.55719-.69708,6.95843-2.90179,1.01685-1.59986.90735-3.64081.7627-5.531q-1.17557-15.35718-2.35119-30.71435c-.87851-11.47625,9.78171-20.66828,20.89943-17.68958,10.27869,2.75391,19.46208,9.92381,23.4362,19.84793,2.64306,6.60016,3.16491,13.86765,5.47277,20.59232s7.247,13.36444,14.28827,14.34833c12.069,1.68646,21.29267-13.59845,33.4422-12.65271,12.43439.96795,16.82459,17.72986,13.476,29.74389-3.34864,12.0141-11.02588,23.25446-10.18586,35.69812.81171,12.02362,9.82929,22.342,20.63544,27.67609s23.18024,6.459,35.23029,6.61114c4.9541.06257,10.0401-.002,14.6817,1.73078,11.30719,4.22107,16.37616,17.81927,15.9458,29.881s-4.8811,23.6134-6.46289,35.57867.53247,25.72529,10.18,32.97754c10.564,7.9411,27.30573,5.97144,35.50128,16.33924,4.38507,5.54724,4.93787,13.11908,5.15882,20.1867.272,8.70014.10937,18.0896-5.03681,25.10981-3.75244,5.11889-4.75921,4.481-7.57562,9.5216-6.27429,11.22949-3.13843,23.77313-2.62872,25.69623,1.83111,6.90863,5.61487,12.42487,16.34039,22.46814,22.60547,21.1676,28.70514,18.11432,35.74469,28.5957,11.56622,17.22126,9.90662,47.51007-4.08508,61.27661-8.21967,8.08735-18.15784,7.976-29.70716,22.34955C883.68378,952.84167,879.63184,968.38751,847.63489,954.26361Z"/><path class="cls-1" d="M1072.15644,938.64634c13.25829-1.57239,26.50444-9.25526,31.33409-21.70232,8.89027-22.9122-12.54668-52.13485,2.14329-71.83791,10.05684-13.48883,30.12622-12.55606,46.86989-10.90144s37.36607.71278,45.30083-14.12393c10.904-20.38872-12.52758-49.23475,2.13845-67.10944,4.52669-5.517,11.67822-8.15677,18.67011-9.5858,14.90335-3.046,30.55227-1.69511,45.19851-5.80309s28.97283-16.53964,27.5709-31.68635c-1.17416-12.68585-12.473-21.66752-18.95494-32.63539-8.80514-14.89892-7.873-35.51878,3.72617-48.36273,9.97352-11.04381,25.4963-15.03148,40.23641-17.07246s30.07165-2.79938,43.41694-9.38269,24.263-21.17592,20.9061-35.67308c-2.31681-10.00537-10.813-17.90422-12.304-28.06551-2.54464-17.34213,15.37276-30.02168,30.83577-38.27515s33.3257-21.09172,30.58025-38.40319c-3.38914-21.37016-33.0764-24.84368-48.25136-40.26738-10.95214-11.13165-13.28463-29.76645-5.41406-43.25411,4.519-7.74412,11.88186-13.71394,15.40845-21.95747,7.21518-16.86571-5.58242-37.34725-22.91347-43.35937s-36.73451-.71031-52.76513,8.20766a125.57734,125.57734,0,0,0-52.949,57.54435c-5.14448,11.38077-8.69175,23.734-16.43308,33.535s-21.51625,16.44466-32.86219,11.22378c-5.79463-2.66642-10.18043-8.03682-16.27578-9.91681-9.04074-2.78844-18.915,3.38545-23.44751,11.69006s-4.982,18.15825-5.15142,27.61773c-.55745,31.12655-.663,66.08869-22.79561,87.9821-9.56653,9.46316-26.11474,14.85-36.08629,5.81465-5.94417-5.38612-8.93184-15.21032-16.88338-16.2669-5.48546-.7289-10.43281,3.475-13.50529,8.07737-15.1129,22.63789-2.11782,52.533,8.45573,77.61432,1.40263,3.32714,2.78439,6.82939,2.49484,10.42847-.60594,7.5318-8.31482,12.628-15.74974,13.976s-15.12652.1599-22.609,1.21235a10.1975,10.1975,0,0,0-5.7472,2.25473c-1.77324,1.689-2.30044,4.27667-2.63665,6.70236a89.16709,89.16709,0,0,0,7.62474,49.94349c2.31935,4.91737,5.14006,9.77782,5.7051,15.18529s-1.94866,11.64238-7.1479,13.23233c-3.49843,1.06983-7.24751-.16789-10.90581-.14828-12.61611.06762-20.36589,15.14508-18.84848,27.66978s8.94069,23.42251,13.68688,35.112c1.56249,3.84829,2.743,8.56029.26636,11.8945-2.43195,3.27407-7.12054,3.56028-11.19275,3.78613-11.16913.61948-23.18668,3.58269-30.06881,12.40139-8.94981,11.46822-5.72108,28.6101,2.203,40.80961s19.6724,21.38475,28.79882,32.71323c4.70871,5.84488,8.81548,12.64758,10.82475,19.9314,1.61261,5.84589-.75926,13.67233,1.12481,18.85534C1039.97529,939.81546,1061.20488,939.94516,1072.15644,938.64634Z"/><path class="cls-1" d="M908.03364,746.74315c-15.75151-11.30678-24.10121-34.43237-14.00343-50.985,4.3582-7.14408,11.77836-12.91767,12.89252-21.21167,1.655-12.32025-10.98381-21.14437-21.38919-27.94553a196.65188,196.65188,0,0,1-40.659-35.422c-3.07263-3.5291-6.08957-7.29774-7.42364-11.78281-3.774-12.68783,6.70488-24.61855,14.92965-34.99047s14.23587-27.04945,4.0252-35.47359c-3.25678-2.687-7.50205-3.7719-11.56715-4.91262a201.73507,201.73507,0,0,1-21.82227-7.49444c-9.01953-3.68692-18.20856-8.40379-23.50874-16.58018s-5.04046-20.66955,2.92972-26.27506c2.98153-2.09694,6.65194-3.02245,9.6815-5.04938s5.41-5.95776,3.85058-9.25242c-.8951-1.89109-2.82871-3.03185-4.66563-4.03341-15.81883-8.625-33.28167-15.916-44.328-30.1499s-11.85836-38.46518,3.68432-47.57837c11.33376-6.64534,29.56351-5.17013,33.5235-17.69742,2.56261-8.10674-3.41443-16.10414-7.90265-23.32508-9.22642-14.844-13.06594-33.924-6.388-50.07574s25.55783-27.45287,42.25784-22.29705c13.46629,4.15747,22.25031,16.96738,34.32437,24.23666a7.8123,7.8123,0,0,0,4.396,1.469c3.94145-.26321,5.38206-5.2942,5.50762-9.24244.28381-8.92405-.84723-17.902.25177-26.76271s4.93566-18.00738,12.6045-22.57995c4.44-2.64738,9.75376-3.50834,14.9222-3.40976,19.49538.37184,37.80841,15.15111,42.28857,34.12837,6.76682,28.66323-15.02176,61.53453.28272,86.69687,10.08766,16.58528,33.79976,23.8054,38.25017,42.70053,4.6386,19.6941-15.17951,37.73653-14.50117,57.95815a12.45492,12.45492,0,0,0,1.30119,5.68323c3.83655,6.881,13.98209,4.42483,21.85406,4.11,19.17585-.76693,34.81093,18.54482,35.44692,37.72546s-10.15832,37.05209-23.47044,50.87559c-5.30062,5.50423-11.423,11.32194-12.01172,18.94077-1.04547,13.5302,14.65234,20.9714,25.35638,29.313a53.05615,53.05615,0,0,1-3.70085,86.3356c-2.69366,1.75064-5.72358,3.4505-7.00452,6.39663-2.99666,6.8923,5.20836,12.898,9.729,18.902,9.373,12.44839,2.03869,31.68974-11.054,40.13994-14.0182,9.04738-33.45022,9.41726-49.58183,10.65346C940.55483,759.76786,921.9279,756.71673,908.03364,746.74315Z"/></g><g id="Layer_4" data-name="Layer 4"><path class="cls-2" d="M960.03845,1213.61865c2.46763-245.2845,99.53141-484.63393,261.48531-667.547,22.62834-25.91952,46.44963-50.71765,71.22087-74.43331q-34.46852,38.18787-65.40247,79.16351a1092.9781,1092.9781,0,0,0-83.59,128.48557c-57.41491,103.11513-97.05733,216.95591-114.5447,333.37148a971.21063,971.21063,0,0,0-9.18011,199.80549l-59.98889,1.15429Z"/><path class="cls-2" d="M932.30072,1205.49829A1370.76739,1370.76739,0,0,0,833.3,852.83314a1430.16419,1430.16419,0,0,0-88.98088-172.85443,1441.56,1441.56,0,0,1,107.4602,163.69444c11.41009,20.18366,23.22194,42.60462,33.574,63.25752A1415.68476,1415.68476,0,0,1,991.185,1193.98146l-58.88423,11.51683Z"/><path class="cls-2" d="M932.02325,1195.64771a1730.35073,1730.35073,0,0,0,3.99562-570.22419,1760.53729,1760.53729,0,0,0-60.76408-255.26907,1767.06006,1767.06006,0,0,1,90.44307,303.412A1769.251,1769.251,0,0,1,999.128,1097.09352q-2.26481,53.40965-7.66551,106.73851l-59.43921-8.18432Z"/></g><g id="Layer_3" data-name="Layer 3"><path class="cls-3" d="M1148.28552,1456.85925c1.20313,27.83057,4.584,106.04-53.15783,165.24707-53.55518,54.91419-123.71363,56.59156-134.80854,56.68091-12.89264.10388-83.91516-.62536-136.34045-55.14892-55.85242-58.08789-50.79236-135.8357-48.7785-166.77906,7.05053-108.33178,81.71167-256.99987,186.54266-257.11938C1065.77478,1199.62134,1143.48706,1345.8595,1148.28552,1456.85925Z"/><path class="cls-4" d="M923.55316,1696.14893a60.88852,60.88852,0,0,1,8.68091,19.91491c1.40271,5.989,3.716,20.03919-2.0426,34.72339-6.51172,16.60462-16.03485,15.38037-24,33.70215-3.45685,7.95154-7.6117,17.50867-4.59571,27.57446,4.3974,14.67627,19.084,13.89722,22.9787,28.08509,3.36212,12.248-6.459,16.92321-2.55316,29.61706,3.95868,12.86548,15.928,14.1759,15.31915,22.97864-.59063,8.53833-12.07177,10.48474-13.27661,21.95752-.061.58142-.81415,8.55054,3.06385,10.72339,5.32592,2.98413,17.7669-5.87171,23.48931-16.85108,1.29425-2.48327,5.42347-10.40576,3.57447-19.91491-2.47107-12.70838-12.71942-13.33423-14.29785-24-1.72376-11.64747,9.82074-15.45874,8.17022-26.55323-1.81512-12.20117-16.52545-12.64135-18.89361-24.51062-.80963-4.05774-.28076-9.97314,17.36169-32.17016,15.66419-19.70813,20.92078-22.18311,27.57446-31.65955,7.08478-10.09045,14.39087-26.1781,14.29786-52.08508"/></g></svg>