<svg xmlns="http://www.w3.org/2000/svg" viewBox="0 0 2000 2000"><defs><style>.cls-1{fill:#3c6d03;stroke:#3c6d03;stroke-width:40px;}.cls-1,.cls-2{stroke-miterlimit:10;}.cls-2{fill:none;stroke:#15490a;stroke-width:100px;}.cls-3{fill:#15490a;}</style></defs><g id="Layer_8" data-name="Layer 8"><path class="cls-1" d="M477.81762,366.53442c-6.02739,9.27169-20.38267,9.38433-26.40945.14671q-3.46224-5.30676-6.91195-10.70052-24.4797-38.27906-44.76875-75.09881a13.83089,13.83089,0,0,1,3.63022-17.58943q9.48069-7.68857,18.96139-15.37713a13.82317,13.82317,0,0,0,3.2866-18.16531q-2.64966-4.29092-5.29934-8.58179c-4.2702-6.9152-1.715-15.77365,5.70392-19.77495q43.56132-23.49405,87.12261-46.98805a14.82032,14.82032,0,0,0,6.82113-7.57542q6.88079-17.5305,13.76153-35.061a15.289,15.289,0,0,1,11.65978-9.25863l35.99591-6.43979a15.3855,15.3855,0,0,0,11.271-8.36185l.084-.17668a15.8012,15.8012,0,0,1,17.13393-8.35436l24.87565,4.52164a16.19967,16.19967,0,0,0,14.16713-4.21893q9.78423-9.56511,19.56844-19.13024a16.26234,16.26234,0,0,1,20.08077-1.87339c22.3038,14.722,50.99673,38.15669,74.36811,73.385a242.47018,242.47018,0,0,1,17.93243,32.04673c4.03909,8.70895-1.7425,18.67126-11.79275,20.14033-39.38263,5.75664-99.15779,19.93476-161.01075,57.20427A403.01083,403.01083,0,0,0,477.81762,366.53442Z"/></g><g id="Layer_11" data-name="Layer 11"><path class="cls-2" d="M521.06549,361.755c-6.41467,56.3883,12.83466,101.11914,33.70105,151.29653,34.952,84.04914,66.143,129.06049,109.893,203.69312,39.7705,67.844,66.34344,120.80377,119.48938,226.72339,17.17871,34.23706,60.761,121.93683,113.36169,238.9787,9.80078,21.80774,18.38025,41.22,88.85107,205.27661,85.52759,199.10889,98.38379,229.86426,137.87232,272.68091,28.468,30.86731,78.7572,84.01831,162.38306,107.234,31.05395,8.621,119.297,33.11865,200.51831-16.242,67.8092-41.20959,90.52465-109.4685,98.4718-133.34912,26.85278-80.69092,7.98449-151.55054-7.12927-205.42615-17.71-63.13012-37.06458-91.79919-119.83143-230.811-87.54455-147.0365-23.29528-43.77185-149.5614-254.68237-71.641-119.66663-107.46154-179.49994-133.78723-221.61707-45.26916-72.42395-99.28589-149.72943-207.31915-304.34039C945.37909,368.827,918.55054,327.454,869.93616,284.74469c-87.823-77.15535-153.32044-79.55473-168.51062-79.65958a193.78708,193.78708,0,0,0-49.0213,6.12766c-16.7016,4.30093-62.58521,16.78653-96,58.21277C528.06934,304.554,523.26294,342.43823,521.06549,361.755Z"/></g><g id="Layer_14" data-name="Layer 14"><path class="cls-3" d="M768.82979,948.03191a1.5009,1.5009,0,0,0,0-3,1.5009,1.5009,0,0,0,0,3Z"/><path class="cls-3" d="M1150.00976,1508.48253c3.281,11.149,7.74,21.73217,12.28445,32.42559a189.82789,189.82789,0,0,0,10.46574,20.962,179.64415,179.64415,0,0,0,13.00772,19.41357c7.03261,9.14452,13.98411,18.16722,22.23663,26.244q4.13179,4.04382,8.55517,7.77475c5.86093,4.93843,11.95192,9.63586,18.17772,14.10279a143.45107,143.45107,0,0,0,20.77631,12.39117c6.96617,3.39449,14.15744,6.373,21.3688,9.191q5.68391,2.22108,11.54539,3.94605c11.467,3.37025,23.32373,4.979,35.18244,6.28745a124.73143,124.73143,0,0,0,24.01547.35409c1.98308-.16518,3.95966-.38622,5.93266-.64438,5.81846-.76134,11.68031-1.42006,17.46-2.47991q5.39374-.98909,10.67052-2.51,5.10729-1.47382,10.05933-3.42814c6.78072-2.67361,13.59689-5.45144,20.12375-8.72913a114.84451,114.84451,0,0,0,18.16168-11.35268c8.67952-6.62974,17.21947-13.11183,24.50574-21.27313,4.85039-5.43288,9.27229-11.30034,13.55429-17.17022a100.9767,100.9767,0,0,0,5.75927-8.821,96.80433,96.80433,0,0,0,4.865-9.55832,200.23926,200.23926,0,0,0,8.32369-20.88168,103.82125,103.82125,0,0,0,3.09732-12.74129c1.05016-5.90971,1.76219-11.89137,2.48682-17.84349q.38513-3.1634.59233-6.345a134.57137,134.57137,0,0,0-.91647-25.79895c-1.61406-12.659-3.42867-25.07492-6.74924-37.3969-5.65954-21.00147-14.19721-41.069-22.744-61.01955q-2.55849-5.97225-5.19277-11.91159a43.347,43.347,0,0,0-44.83757-21.48392,33.49155,33.49155,0,0,0-16.731,5.3401l-9.10745,7.03638a44.95824,44.95824,0,0,0-11.57275,19.857l-1.60744,11.96278a44.7921,44.7921,0,0,0,6.14382,22.71236c2.33806,5.294,4.65129,10.599,6.90152,15.931l-4.53638-10.74958c7.49874,17.80126,14.36849,35.98863,18.63783,54.865,1.19139,5.26762,2.16684,10.58175,2.88743,15.93441l-1.60744-11.96278a131.29553,131.29553,0,0,1,.27205,34.33835l1.60744-11.96279a103.35151,103.35151,0,0,1-7.01908,26.10636l4.53638-10.74958a100.47291,100.47291,0,0,1-12.8378,21.9l7.03638-9.10745a110.73417,110.73417,0,0,1-19.84438,19.7831l9.10745-7.03637a116.152,116.152,0,0,1-25.59368,14.911l10.74957-4.53637a113.67858,113.67858,0,0,1-28.60491,7.77938l11.96279-1.60744a125.59768,125.59768,0,0,1-33.217-.11222l11.96278,1.60745a139.57235,139.57235,0,0,1-34.94936-9.62527l10.74958,4.53638a145.09148,145.09148,0,0,1-32.04129-18.69777l9.10744,7.03637a161.2177,161.2177,0,0,1-28.60488-28.766l7.03638,9.10744a185.38419,185.38419,0,0,1-23.82977-41.08742l4.53637,10.74958a201.10171,201.10171,0,0,1-7.51362-21.1222,50.34572,50.34572,0,0,0-20.6802-26.8934,33.49136,33.49136,0,0,0-16.731-5.3401,34.08715,34.08715,0,0,0-17.94417.80372l-10.74958,4.53638a45.22333,45.22333,0,0,0-16.14382,16.14382l-4.53637,10.74958a45.31788,45.31788,0,0,0,0,23.92556Z"/></g></svg>